<svg width="36" height="36" viewBox="0 0 36 36" fill="none" xmlns="http://www.w3.org/2000/svg">
<g id="Group">
<path id="Vector" d="M23.5836 35.1023C26.2169 34.2339 27.8452 33.0769 28.7202 32.4552C29.251 32.0782 29.9194 31.5176 30.3825 31.0599C31.3366 30.1169 31.3366 30.1169 32.3295 28.8883C32.8629 28.2282 33.4578 27.2565 33.8603 26.5093C34.2595 25.7686 34.6837 24.7258 34.9938 23.9436C35.374 22.9846 35.8476 20.8763 35.9152 19.8421C35.9711 18.9853 36.0315 17.8377 35.9812 16.9806C35.9297 16.1038 35.7505 14.9419 35.5765 14.0811C35.3929 13.1724 34.8106 11.1505 33.7927 9.33673C31.8889 5.94459 29.1878 3.3936 25.7643 1.75468C21.8963 -0.0969826 18.6262 -0.0214968 17.2297 0.0108023C15.8848 0.0904616 11.792 0.332796 7.49881 3.37318C5.49397 4.79299 4.1251 6.52717 4.11149 6.54449C3.6103 7.18431 2.96526 8.05984 2.55039 8.75872C2.116 9.49052 1.58604 10.502 1.28916 11.2997C0.878554 12.403 0.191215 14.2497 0.0331074 16.7901C-0.0204421 17.6507 -0.0101861 18.8058 0.0723164 19.6643C0.156816 20.5445 0.397334 21.7028 0.587934 22.5663C0.801588 23.5341 1.59285 25.6089 2.21194 26.6506C2.6475 27.3833 3.24899 28.3524 3.77123 29.0264C4.28638 29.6913 5.04579 30.5236 5.65925 31.0993C10.4813 35.6244 17.3494 37.1583 23.5836 35.1023Z" fill="#000081"/>
<path id="Vector_2" d="M1.27574 10.9962C0.667154 12.7351 0.655532 12.7683 0.443861 13.7082L0.187515 15.1C0.14193 15.5331 0.0651082 16.1089 0.036595 16.5434L0 17.9816C0.0236097 18.4238 0.0381387 19.0148 0.0794556 19.4555L0.276052 20.9158C0.372487 21.3605 0.48418 21.9576 0.598504 22.3981L1.03274 23.8293L1.04018 23.8505L1.58003 25.2188C1.77417 25.6152 2.0179 26.1514 2.22776 26.5394L2.95965 27.772C3.2091 28.1255 3.52873 28.6066 3.79189 28.9498L4.69215 30.0322C4.99053 30.339 5.37737 30.7595 5.68739 31.0543L6.73129 31.9716C7.07264 32.228 7.51905 32.5826 7.8701 32.8252L9.0297 33.562C9.40972 33.7647 9.90997 34.0479 10.2977 34.2352L11.5337 34.7737C11.9527 34.9198 12.5073 35.1269 12.9318 35.2555L14.1597 35.5753C14.6353 35.6636 15.2686 35.7875 15.7476 35.854L16.702 35.9502C17.9336 36.008 18.0072 36.0114 18.7885 35.9814L19.3451 35.9481C19.5238 35.9318 19.762 35.9122 19.9403 35.8929L20.3088 35.8487C20.4184 35.8331 20.5646 35.8135 20.674 35.7969L20.9421 35.754C21.0201 35.7402 21.1244 35.7226 21.2023 35.7084L21.4143 35.6681C21.476 35.6557 21.5581 35.6395 21.6196 35.6268L21.7994 35.5885C21.8519 35.5767 21.922 35.5611 21.9744 35.5493L22.1361 35.5115L22.295 35.4729L22.4481 35.4342L22.6006 35.3942L22.7533 35.3527L22.9074 35.3094L23.0683 35.2626C23.1178 35.2477 23.1837 35.2285 23.233 35.2131L23.413 35.1568L23.5389 35.1164L23.8331 35.0166C36.8788 30.1025 35.7578 10.9356 22.0155 3.94301C15.6408 0.699374 6.69825 0.941184 2.12832 9.13721L1.52737 10.3885L1.27574 10.9962Z" fill="#000085"/>
<path id="Vector_3" d="M0.442946 13.7888C0.106206 15.6141 0.0997719 15.649 0.0365195 16.6137L0 18.0468C0.023561 18.4874 0.0380601 19.0762 0.0792918 19.5153L0.275483 20.9703C0.37172 21.4135 0.483182 22.0084 0.597271 22.4473L1.03061 23.8733L1.03804 23.8945L1.57677 25.2577C1.77052 25.6527 2.01374 26.1871 2.22316 26.5736L2.95355 27.8017C3.20248 28.154 3.52146 28.6334 3.78408 28.9753L4.68248 30.0538C4.98025 30.3594 5.36629 30.7784 5.67566 31.0721L6.71742 31.9862C7.05806 32.2417 7.50355 32.595 7.85388 32.8368L9.01109 33.5708C9.39033 33.7728 9.88954 34.0549 10.2764 34.2416L11.51 34.7782C11.9281 34.9237 12.4815 35.1301 12.9051 35.2582L14.1305 35.5768C14.6051 35.6648 15.2371 35.7883 15.7151 35.8545L16.6676 35.9504C17.8966 36.0079 17.97 36.0113 18.7498 35.9815L19.3053 35.9483C19.4835 35.9321 19.7213 35.9125 19.8992 35.8933L20.2669 35.8492L20.4317 35.8268L20.4424 35.8253C34.1632 33.777 36.2073 15.0288 23.6589 6.32424C14.6362 0.0654907 3.7491 2.95494 0.816932 12.3862L0.454184 13.7392L0.442946 13.7888Z" fill="#00008A"/>
<path id="Vector_4" d="M0.0320517 16.7306C-0.0157086 18.6068 -0.0166999 18.6427 0.0746754 19.6153L0.269772 21.0618C0.365473 21.5024 0.476312 22.0939 0.589766 22.5301L1.02069 23.9479L1.02807 23.9689L1.5638 25.3243C1.75647 25.7168 1.99833 26.248 2.20659 26.6324L2.9329 27.8534C3.18045 28.2035 3.49764 28.6802 3.75879 29.0201L4.65219 30.0923C4.94829 30.3962 5.33218 30.8126 5.63983 31.1046L6.67577 32.0133C7.01452 32.2674 7.45751 32.6187 7.80589 32.859L8.95664 33.5888C9.33377 33.7895 9.8302 34.0701 10.2149 34.2557L11.4417 34.789C11.8573 34.9338 12.4078 35.1389 12.829 35.2663L14.0475 35.5832C14.5195 35.6705 15.148 35.7933 15.6233 35.8591L16.5705 35.9545C16.8615 35.9681 17.2494 35.9934 17.5406 35.9991L17.9345 36C31.1952 35.6123 35.6735 19.0051 25.1949 9.07612C16.53 0.86592 2.58335 2.40556 0.192453 15.2288L0.0388103 16.632L0.0320517 16.7306Z" fill="#00008F"/>
<path id="Vector_5" d="M0.0799173 19.7664C0.334972 21.6577 0.339805 21.6938 0.59146 22.6613L1.01942 24.0693L1.02675 24.0902L1.55879 25.4363C1.75013 25.8262 1.99032 26.3538 2.19715 26.7354L2.91846 27.9481C3.1643 28.2959 3.47931 28.7692 3.73866 29.1068L4.62589 30.1717C4.91997 30.4735 5.30121 30.8872 5.60674 31.1772L6.63555 32.0797C6.97195 32.332 7.4119 32.6808 7.75788 32.9196L8.9007 33.6443C9.27524 33.8438 9.76825 34.1223 10.1503 34.3066L11.3685 34.8364C11.7814 34.9801 12.328 35.1839 12.7463 35.3104L13.9565 35.625L14.5481 35.7459L15.3325 35.8702C28.9247 37.5684 34.0951 22.2182 26.459 12.185C17.938 0.989407 1.70341 3.34485 0.139341 16.0038C0.0162879 16.9995 0.00877031 17.4819 0 18.0406L0.054233 19.467L0.0799173 19.7664Z" fill="#000094"/>
<path id="Vector_6" d="M0.575777 21.9232C0.70912 22.346 0.870028 22.9154 1.02114 23.3325L1.56559 24.6602C1.76139 25.0447 2.00719 25.5651 2.21884 25.9416L2.95699 27.1376C3.20856 27.4807 3.53093 27.9475 3.79633 28.2805L4.70426 29.3308C5.0052 29.6284 5.39534 30.0364 5.708 30.3225L6.76082 31.2126C7.10507 31.4614 7.55528 31.8055 7.90934 32.0409L9.07883 32.7558C9.46211 32.9524 9.96662 33.2273 10.3576 33.4091L11.6043 33.9315L11.994 34.0734L12.5867 34.2693C25.9242 38.2167 33.8244 25.3791 28.1258 14.7414C22.0114 3.3275 5.12243 0.734942 0.658933 13.5191C0.272002 14.6273 -0.30322 16.9616 0.191685 20.1424L0.481907 21.5612L0.575777 21.9232Z" fill="#000099"/>
<path id="Vector_7" d="M2.11806 26.1489C3.09508 27.7428 3.09508 27.7428 3.6845 28.4872L4.58614 29.5371C4.88498 29.8348 5.27241 30.2426 5.5829 30.5286L6.62841 31.4185C6.97028 31.6673 7.41737 32.0112 7.76896 32.2466C8.33137 32.6017 9.10204 33.0432 9.68627 33.3627C21.903 38.9415 32.4699 29.4648 27.9228 17.0075C23.8185 5.76412 6.62277 1.18878 1.20969 12.6812C-0.98392 17.3385 0.345068 21.9972 1.01834 23.784L1.57711 25.1L2.11806 26.1489Z" fill="#00009E"/>
<path id="Vector_8" d="M2.39047 27.7952C9.86161 39.8543 24.8586 37.7428 27.5601 27.1656C30.6681 14.997 16.6508 2.74424 6.13347 8.43637C-0.915962 12.2517 -1.49324 21.5265 2.39047 27.7952Z" fill="#0000A3"/>
<path id="Vector_9" d="M2.34012 27.0922C9.01297 37.8472 23.4719 37.5719 26.5136 26.6319C29.7929 14.8373 15.7822 2.65188 5.69194 8.5229C-1.058 12.4504 -1.30342 21.2197 2.34012 27.0922Z" fill="#0000A8"/>
<path id="Vector_10" d="M3.35448 27.3853C10.4415 38.3437 25.742 37.2323 27.7894 25.6105C29.9845 13.1509 14.4862 3.99404 6.17549 9.77196C-1.0175 14.7727 0.547589 23.0451 3.35448 27.3853Z" fill="#0000AD"/>
<path id="Vector_11" d="M3.32196 27.7147C9.29585 37.2371 23.7766 38.0535 26.6635 26.4049C29.3577 15.5328 15.2691 4.79161 6.01302 10.6609C0.552002 14.1238 -0.604895 21.4552 3.32196 27.7147Z" fill="#0000B3"/>
<path id="Vector_12" d="M3.23736 27.0717C9.72588 36.9523 23.6056 36.0754 25.7394 25.6502C28.0215 14.5003 14.8181 4.8209 5.55704 10.8544C0.548511 14.1176 -0.492122 21.3926 3.23736 27.0717Z" fill="#0000B8"/>
<path id="Vector_13" d="M3.16622 27.3456C9.42062 36.7763 22.4895 36.0223 24.6797 26.1044C27.3045 14.2188 13.1715 6.12689 5.10889 11.9129C-0.0557647 15.619 0.0654588 22.6701 3.16622 27.3456Z" fill="#0000BD"/>
<path id="Vector_14" d="M3.1395 27.7758C8.97225 36.5489 21.2012 35.9143 23.5849 26.7147C26.3596 16.0055 14.623 7.96857 6.2924 12.107C0.762865 14.854 -0.680907 22.0294 3.1395 27.7758Z" fill="#0000C2"/>
<path id="Vector_15" d="M4.07731 27.7696C10.1827 37.1688 22.3871 35.6153 23.8631 25.251C25.4915 13.8187 12.1899 7.233 5.25578 13.3087C1.41501 16.6741 0.908365 22.8909 4.07731 27.7696Z" fill="#0000C7"/>
<path id="Vector_16" d="M3.99104 28.2449C9.25335 36.2825 20.7896 36.2609 22.7752 25.8952C24.712 15.7832 13.7018 8.99937 6.40669 13.3299C1.15989 16.4446 0.921628 23.5565 3.99104 28.2449Z" fill="#0000CC"/>
<path id="Vector_17" d="M3.9494 27.5763C8.75392 34.8271 19.832 35.8678 21.8592 24.1042C23.3116 15.6757 13.2145 8.91327 5.971 13.4633C1.61792 16.1976 0.692175 22.6607 3.9494 27.5763Z" fill="#0000D1"/>
<path id="Vector_18" d="M4.98622 28.0113C10.8451 36.128 21.5592 33.939 22.8988 24.3515C24.1675 15.2711 13.2121 10.1517 6.6846 14.6715C2.01967 17.9018 2.17087 24.1109 4.98622 28.0113Z" fill="#0000D6"/>
<path id="Vector_19" d="M4.94314 27.5706C10.6445 35.3516 20.4718 32.056 21.8404 24.0691C23.4284 14.8012 12.7993 10.0776 6.18685 14.9442C2.49077 17.6642 1.92121 23.4465 4.94314 27.5706Z" fill="#0000DB"/>
<path id="Vector_20" d="M5.02932 26.5606C9.53054 35.2329 20.1844 32.7309 21.8268 24.7084C23.3491 17.2711 14.5387 10.5872 7.1469 15.926C3.98011 18.2132 3.06979 22.7851 5.02932 26.5606Z" fill="#0000E0"/>
<path id="Vector_21" d="M4.9666 26.1627C9.09901 33.8769 18.8629 31.6588 20.7653 24.4718C22.3537 18.4722 15.637 11.0008 7.96977 15.2485C4.27045 17.298 2.89522 22.2962 4.9666 26.1627Z" fill="#0000E6"/>
<path id="Vector_22" d="M6.00287 25.6422C9.8426 32.5629 18.6381 30.6247 20.644 24.1426C22.8146 17.1284 14.6004 11.2289 8.43688 15.3755C5.06168 17.6462 4.01531 22.0598 6.00287 25.6422Z" fill="#0000EB"/>
<path id="Vector_23" d="M6.02834 26.2361C9.43941 32.2284 17.722 30.5244 19.5873 24.9256C21.7178 18.5307 15.1689 13.4008 9.79492 15.4625C5.4667 17.1231 3.70664 22.1575 6.02834 26.2361Z" fill="#0000F0"/>
<path id="Vector_24" d="M7.08181 25.7097C10.8602 31.6607 19.0783 28.8359 19.9399 22.8286C20.323 20.1576 18.8099 17.3563 17.2121 16.5129C14.6967 15.185 12.0957 13.812 8.37662 16.7245C6.41677 18.2594 4.87625 22.236 7.08181 25.7097Z" fill="#0000F5"/>
<path id="Vector_25" d="M8.12036 25.1753C10.2569 28.1223 13.6186 28.0854 14.192 27.956C15.9749 27.5538 16.642 27.4033 17.8716 26.235C17.9411 26.1691 19.5768 24.5949 19.9212 22.5132C20.3226 20.0862 19.1561 17.4132 17.2079 16.2958C15.6855 15.4226 12.8518 13.7972 9.36911 16.4605C6.23472 18.8577 6.64121 23.1351 8.12036 25.1753Z" fill="#0000FA"/>
<path id="Vector_26" d="M8.35341 25.6359C11.9568 30.0147 19.002 27.7901 19.8896 23.2036C20.9673 17.6345 13.8966 14.1694 9.86927 17.0196C4.49266 20.8247 8.31423 25.5882 8.35341 25.6359Z" fill="#0000FF"/>
<path id="Vector_27" d="M8.33853 25.8223C10.1761 28.0527 13.1852 28.4108 15.2079 27.6117C19.2762 26.0046 19.0053 21.7926 18.9918 21.6141C18.6768 17.4567 12.8057 13.2473 8.12837 18.3368C6.3884 20.23 6.82062 23.9798 8.33853 25.8223Z" fill="#1F1FFF"/>
<path id="Vector_28" d="M9.44297 25.154C11.1571 26.9725 13.8766 27.3642 15.5157 26.6923C19.2131 25.1768 19.0054 21.3988 18.9947 21.2387C18.7466 17.511 14.9696 16.2162 14.9316 16.2055C12.9038 15.633 10.5732 16.2234 8.93111 18.3973C7.23099 20.648 8.13603 23.7674 9.44297 25.154Z" fill="#2B2BFF"/>
<path id="Vector_29" d="M8.54389 24.076C10.4181 27.5684 16.9387 28.5515 18.7624 23.5462C19.6406 21.1361 17.818 18.9288 17.593 18.7687C15.4242 17.2264 15.4242 17.2264 15.0388 17.1666C12.9344 16.8401 11.676 16.9865 10.496 17.6675C8.51648 18.8101 7.20721 21.5853 8.54389 24.076Z" fill="#3535FF"/>
<path id="Vector_30" d="M8.54311 24.1469C9.83235 26.5464 12.6035 26.9797 12.6286 26.9785C13.277 26.9496 14.2315 27.1307 14.7835 26.78L16.6809 25.5367C17.114 25.0898 17.5249 24.3276 17.7348 23.7351C18.7118 20.9781 16.6764 18.7565 16.6541 18.7392C16.6358 18.725 14.7888 17.3118 14.5105 17.2722C13.8106 17.173 12.8702 16.9318 12.1689 17.0184C11.5186 17.0986 10.682 17.4555 10.1273 17.8131C9.03716 18.5158 7.03303 21.3363 8.54311 24.1469Z" fill="#3D3DFF"/>
<path id="Vector_31" d="M9.5955 23.5172C9.8926 23.9895 10.4068 24.5777 10.8942 24.8875C11.5794 25.3231 12.5871 25.9713 13.4187 25.9477C14.1188 25.9278 15.137 26.1407 15.7495 25.8274C17.7073 24.8265 18.1147 24.6181 18.6741 23.2605C19.8147 20.4923 17.5969 18.5024 17.5732 18.4856C15.8717 17.2844 15.8717 17.2844 13.1263 17.0064C12.43 16.9359 11.5518 17.4662 10.9631 17.8163C10.9271 17.8378 7.70171 20.5059 9.5955 23.5172Z" fill="#4444FF"/>
<path id="Vector_32" d="M9.57221 23.6427C10.6536 25.5501 12.7497 26.0003 12.7681 26C13.1819 25.9935 14.9902 25.9083 15.0181 25.894C16.8071 24.9785 17.1966 24.6228 17.6226 23.5156C18.5906 20.9996 17.493 19.562 16.6111 18.407C15.4804 16.926 12.6748 16.9978 12.6489 17.0016C11.979 17.0986 11.0888 17.4643 10.5798 17.9219C10.1076 18.3463 9.15606 20.1318 9.14865 20.148C9.1416 20.1631 8.62051 21.9641 9.57221 23.6427Z" fill="#4B4BFF"/>
<path id="Vector_33" d="M9.53622 22.9042C10.2794 24.1146 10.9843 24.3985 12.1523 24.8686C12.7537 25.1108 13.6783 24.971 14.3094 24.8257C14.9567 24.6767 15.7691 24.1467 16.1665 23.6089C16.873 22.6531 16.9988 21.2 16.9992 21.1866C17.0367 19.4051 15.7312 17.9541 14.5024 17.3599C14.3916 17.3063 12.3206 16.9839 12.1941 17.0006C12.0816 17.0154 10.3316 17.8405 10.2436 17.9201C9.78684 18.3343 9.20991 19.0358 9.12274 19.6498C8.97642 20.6804 8.82514 21.7461 9.53622 22.9042Z" fill="#5151FF"/>
<path id="Vector_34" d="M10.586 23.9944C10.5938 24.0064 11.3917 25.2066 12.9713 25.8312C13.6212 26.0882 14.6165 26.0143 15.2969 25.8572C15.9921 25.6967 16.8354 25.0862 17.2688 24.5124C17.7135 23.9238 17.9965 22.2963 17.997 22.2829C18.096 19.7353 15.6771 18.4389 15.6526 18.4274L13.1792 18C13.0993 18.011 11.1909 18.9883 11.1165 19.0562C9.60107 20.4397 9.84088 22.8543 10.586 23.9944Z" fill="#5757FF"/>
<path id="Vector_35" d="M10.5573 23.3337C10.5646 23.3441 11.6313 24.5037 12.4162 24.8061C13.0343 25.0444 13.9744 25.0478 14.6194 24.899C15.2762 24.7474 16.0434 24.1338 16.4601 23.5985C16.7963 23.1667 16.9633 22.3969 16.9943 21.8482C17.1207 19.6019 15.1133 18.4678 15.0929 18.4587C14.4441 18.166 13.4674 17.9215 12.764 18.0236C12.1162 18.1176 11.3275 18.6267 10.8462 19.075C9.8502 20.0028 9.70714 22.1122 10.5573 23.3337Z" fill="#5C5CFF"/>
<path id="Vector_36" d="M10.6308 23.4865C10.9963 23.9929 11.6432 24.5922 12.2187 24.8109C12.4243 24.8892 14.6002 25.0027 14.612 24.9999C14.7167 24.9753 16.0925 24.0439 16.5572 23.4574C16.8395 23.1012 16.9675 22.4518 16.9945 21.9931C17.0256 21.4635 16.9258 20.7247 16.6904 20.2525C16.6834 20.2385 15.6764 18.7127 15.2702 18.5343C14.5643 18.2244 13.5189 17.9077 12.7597 18.025C12.0602 18.1329 11.2315 18.7368 10.7182 19.2367C9.97198 19.9633 9.60662 22.068 10.6308 23.4865Z" fill="#6161FF"/>
<path id="Vector_37" d="M11.5952 22.739C11.846 23.0776 12.2784 23.4903 12.6707 23.6332C13.312 23.8669 14.2559 24.1054 14.9201 23.9508C15.0834 23.9129 16.2205 23.0028 16.7116 22.4178C16.8989 22.1948 16.9741 21.7758 16.9922 21.4832C17.1219 19.3923 15.5829 18.5007 15.5672 18.4941C14.9372 18.2332 14.0182 17.9088 13.3474 18.0239C12.6958 18.1357 11.9438 18.7274 11.4708 19.1967C11.2571 19.4089 10.4614 21.209 11.5952 22.739Z" fill="#6565FF"/>
<path id="Vector_38" d="M11.6696 23.8541C11.8441 24.0894 12.1379 24.3851 12.4104 24.4806C12.4292 24.4871 14.5902 25.0712 14.9234 24.9928C15.1162 24.9474 16.8094 23.1929 16.8243 23.1755C16.9408 23.0408 16.9827 22.7804 16.9943 22.6005C17.0287 22.0679 16.9036 21.3421 16.7154 20.8446C16.5828 20.4944 16.2222 20.1233 15.9581 19.8635C15.2722 19.1888 13.3494 18.9972 13.3347 19C13.3184 19.003 11.4052 20.1695 11.3233 20.4081C11.0452 21.219 10.6248 22.4447 11.6696 23.8541Z" fill="#6A6AFF"/>
<path id="Vector_39" d="M11.612 23.1236C11.6804 23.2147 11.7929 23.3339 11.9001 23.3679C12.5909 23.5871 13.545 24.1589 14.241 23.9579C14.2591 23.9526 16.0087 22.2987 16 22.0945C15.9377 20.6365 15.9093 19.9711 14.0391 19.2347C13.1866 18.8988 12.5131 18.6336 11.1512 20.5952C10.7573 21.1623 11.2258 22.251 11.5042 22.8856C11.5358 22.9574 11.565 23.0613 11.612 23.1236Z" fill="#6E6EFF"/>
<path id="Vector_40" d="M11.5087 22.8223C11.5876 22.964 11.6601 23.21 11.8115 23.2707C12.5412 23.5632 13.5823 24.1633 14.3418 23.9581C15.0143 23.7765 15.6981 22.9565 15.9792 22.3242C15.9851 22.3108 16.052 20.5522 15.9093 20.4313C15.3159 19.9291 14.3515 19.4928 13.6513 19.1519C13.4681 19.0627 13.1875 18.972 12.9868 19.0081C12.1871 19.1522 11.0563 21.1379 11.0488 21.1573C10.8614 21.6409 11.2563 22.3689 11.5087 22.8223Z" fill="#7272FF"/>
<path id="Vector_41" d="M13.0046 22.5192C13.4369 22.8155 14.2006 23.1004 14.7127 22.9656C15.164 22.8468 15.6391 22.3193 15.8103 21.9009C16.0037 21.4285 16.1034 20.6496 15.8411 20.209C15.8324 20.1946 13.6533 18.9901 13.5955 19.0001C13.4814 19.02 12.0008 21.0363 12.0002 21.0542C11.9871 21.5804 12.5588 22.2135 13.0046 22.5192Z" fill="#7777FF"/>
<path id="Vector_42" d="M13.0649 22.7347C13.3351 22.8966 13.8058 23.0553 14.1232 22.9813C14.4015 22.9164 14.7161 22.6299 14.7984 22.3915C14.953 21.9439 15.1276 21.2439 14.8645 20.8357C14.5836 20.3995 13.7549 19.9127 13.1883 20.0134C12.6005 20.118 12.009 20.8844 12.0001 21.4022C11.992 21.8876 12.6028 22.4576 13.0649 22.7347Z" fill="#7A7AFF"/>
<path id="Vector_43" d="M14.1545 22.8805C14.2532 22.9527 14.4234 23.0252 14.5385 22.9915C14.6388 22.962 14.765 22.8359 14.7817 22.7254C14.8729 22.1218 15.1562 21.228 14.8862 20.6899C14.7051 20.3289 14.156 19.9265 13.7831 20.0115C13.3957 20.0998 13.0029 20.7295 13 21.1558C12.996 21.7937 13.6647 22.5221 14.1545 22.8805Z" fill="#7E7EFF"/>
<path id="Vector_44" d="M13.8371 22C13.8646 21.7565 14.1219 21.4037 13.9286 21.1886C13.8399 21.0899 13.5695 20.98 13.3859 21.0031C13.1946 21.0272 13.0005 21.1991 13 21.3156C12.9991 21.5695 13.5861 21.7946 13.8371 22Z" fill="#8282FF"/>
</g>
</svg>
