<svg width="47" height="9" viewBox="0 0 47 9" fill="none" xmlns="http://www.w3.org/2000/svg">
<path id="Vector" d="M7.76278 4.19838V8.79491H6.81901L6.59483 7.76945C5.92627 8.58982 5.05327 9 3.97573 9C2.79602 9 1.8365 8.58982 1.09718 7.76945C0.365726 6.94908 0 5.87938 0 4.56034C0 3.26537 0.369613 2.18762 1.10894 1.32708C1.84827 0.458398 2.84716 0.0240562 4.10552 0.0240562C5.01789 0.0240562 5.81224 0.285519 6.48867 0.808239C7.17287 1.33106 7.56222 2.04287 7.65662 2.94366H6.2291C6.14258 2.4289 5.90664 2.02676 5.52128 1.73727C5.14369 1.43962 4.66791 1.2909 4.09376 1.2909C3.28366 1.2909 2.6466 1.58039 2.18249 2.15948C1.71848 2.73857 1.48643 3.53081 1.48643 4.53619C1.48643 5.54962 1.71848 6.34583 2.18249 6.92492C2.65438 7.49596 3.30718 7.78147 4.14091 7.78147C4.87236 7.78147 5.43475 7.54825 5.82799 7.0818C6.2291 6.61534 6.42966 6.04023 6.42966 5.35656H4.16453V4.19838H7.76278ZM15.0866 7.49198V8.79491H9.32935V0.205091H10.8159V7.49198H15.0866ZM19.7374 0C20.9251 0 21.8885 0.418237 22.6279 1.25471C23.3751 2.08313 23.7487 3.16486 23.7487 4.5C23.7487 5.83514 23.3751 6.92094 22.6279 7.75742C21.8807 8.58584 20.9094 9 19.7138 9C18.5105 9 17.5352 8.58584 16.788 7.75742C16.0488 6.929 15.6791 5.84319 15.6791 4.5C15.6791 3.19707 16.0409 2.1233 16.7645 1.27877C17.4959 0.426289 18.4869 0 19.7374 0ZM19.7138 1.26674C18.9431 1.26674 18.3257 1.56031 17.8617 2.14745C17.3975 2.72654 17.1656 3.50267 17.1656 4.47584C17.1656 5.47317 17.3937 6.2654 17.8498 6.85255C18.3139 7.43969 18.9431 7.73326 19.7374 7.73326C20.5004 7.73326 21.1099 7.43969 21.5661 6.85255C22.0301 6.25735 22.2621 5.46919 22.2621 4.48797C22.2621 3.50665 22.0301 2.72654 21.5661 2.14745C21.1099 1.56031 20.4925 1.26674 19.7138 1.26674ZM25.0672 0.205091H28.9014C29.7823 0.205091 30.4547 0.402131 30.9188 0.79621C31.3907 1.18224 31.6267 1.70506 31.6267 2.36457C31.6267 2.77476 31.5165 3.14478 31.2963 3.47454C31.0761 3.79624 30.7851 4.02947 30.4233 4.17422C30.911 4.29491 31.2963 4.53619 31.5795 4.89816C31.8626 5.26002 32.0041 5.71445 32.0041 6.26143C32.0041 7.01748 31.7564 7.62868 31.2609 8.09523C30.7733 8.56168 30.1362 8.79491 29.3498 8.79491H25.0672V0.205091ZM26.5065 1.42362V3.78819H28.5121C29.0783 3.78819 29.4952 3.69971 29.7626 3.52275C30.0301 3.33774 30.1638 3.03214 30.1638 2.60585C30.1638 2.12329 30.0222 1.80556 29.739 1.65276C29.4638 1.49997 29.0705 1.42362 28.5593 1.42362H26.5065ZM26.5065 4.874V7.56435H28.7126C29.2789 7.56435 29.7233 7.46782 30.0457 7.27486C30.3683 7.0818 30.5295 6.73196 30.5295 6.22524C30.5295 5.9437 30.4783 5.71047 30.3761 5.52546C30.2818 5.3324 30.1401 5.19173 29.9514 5.10325C29.7705 5.01477 29.5817 4.95442 29.3852 4.92221C29.1885 4.8901 28.9564 4.874 28.6891 4.874H26.5065ZM37.2199 0.192961L40.4643 8.79491H38.8834L38.0811 6.51474H34.7542L33.9284 8.79491H32.4065L35.6508 0.192961H37.2199ZM37.6918 5.38071L36.4413 1.76133L35.1317 5.38071H37.6918ZM47 7.49198V8.79491H41.2428V0.205091H42.7293V7.49198H47Z" fill="#161FDD"/>
</svg>
