<svg width="36" height="36" viewBox="0 0 36 36" fill="none" xmlns="http://www.w3.org/2000/svg">
<g id="Group">
<path id="Vector" d="M23.5836 35.1022C26.2168 34.2339 27.8453 33.0769 28.7201 32.4553C29.251 32.0781 29.9194 31.5176 30.3824 31.0598C31.3366 30.1169 31.3366 30.1169 32.3294 28.8883C32.8629 28.2282 33.4577 27.2565 33.8603 26.5094C34.2595 25.7686 34.6837 24.7258 34.9938 23.9436C35.3739 22.9846 35.8475 20.8762 35.9151 19.8421C35.9711 18.9853 36.0315 17.8378 35.9812 16.9806C35.9296 16.1038 35.7504 14.9419 35.5765 14.0811C35.3928 13.1724 34.8105 11.1505 33.7926 9.33674C31.8888 5.9446 29.1878 3.3936 25.7642 1.75468C21.8964 -0.0969826 18.6262 -0.0214969 17.2297 0.0108024C15.8849 0.0904616 11.792 0.332796 7.49881 3.37318C5.49397 4.79299 4.1251 6.52717 4.11148 6.54449C3.6103 7.18431 2.96525 8.05983 2.55038 8.75871C2.116 9.49053 1.58604 10.5021 1.28916 11.2996C0.878553 12.4029 0.191214 14.2496 0.0331074 16.79C-0.0204421 17.6507 -0.0101861 18.8058 0.0723164 19.6643C0.156815 20.5444 0.397334 21.7029 0.587933 22.5663C0.801587 23.5342 1.59285 25.6089 2.21193 26.6506C2.6475 27.3834 3.24898 28.3524 3.77122 29.0264C4.28639 29.6913 5.04579 30.5237 5.65924 31.0993C10.4812 35.6245 17.3494 37.1583 23.5836 35.1022Z" fill="#28812C"/>
<path id="Vector_2" d="M1.27574 10.9963C0.667155 12.735 0.655531 12.7682 0.443862 13.7083L0.187515 15.1001C0.14193 15.533 0.0651081 16.1089 0.036595 16.5434L0 17.9816C0.0236096 18.4238 0.0381386 19.0147 0.0794555 19.4556L0.276051 20.9157C0.372488 21.3606 0.484179 21.9577 0.598505 22.3981L1.03274 23.8294L1.04019 23.8505L1.58003 25.2188C1.77418 25.6151 2.0179 26.1514 2.22775 26.5394L2.95965 27.772C3.20909 28.1255 3.52874 28.6067 3.79189 28.9498L4.69214 30.0322C4.99054 30.339 5.37737 30.7594 5.68739 31.0543L6.73129 31.9715C7.07263 32.228 7.51904 32.5826 7.87009 32.8252L9.02969 33.562C9.40972 33.7647 9.90997 34.0479 10.2976 34.2352L11.5337 34.7737C11.9526 34.9198 12.5073 35.1268 12.9317 35.2555L14.1597 35.5753C14.6352 35.6636 15.2686 35.7875 15.7476 35.8539L16.7021 35.9503C17.9335 36.0079 18.0072 36.0114 18.7886 35.9814L19.3451 35.9481C19.5237 35.9318 19.762 35.9123 19.9403 35.8928L20.3087 35.8486C20.4184 35.8332 20.5647 35.8135 20.674 35.7969L20.942 35.754C21.0201 35.7403 21.1244 35.7226 21.2023 35.7083L21.4143 35.6681C21.476 35.6557 21.5581 35.6395 21.6197 35.6267L21.7994 35.5885C21.8519 35.5767 21.9219 35.561 21.9744 35.5493L22.1361 35.5116L22.295 35.4728L22.4481 35.4342L22.6007 35.3942L22.7533 35.3528L22.9074 35.3094L23.0682 35.2626C23.1177 35.2477 23.1838 35.2285 23.2331 35.213L23.413 35.1569L23.5389 35.1164L23.833 35.0166C36.8788 30.1025 35.7578 10.9356 22.0156 3.94301C15.6407 0.699375 6.69824 0.941184 2.12832 9.13721L1.52736 10.3885L1.27574 10.9963Z" fill="#2A852D"/>
<path id="Vector_3" d="M0.442947 13.7888C0.106206 15.6141 0.0997713 15.6491 0.0365196 16.6137L0 18.0467C0.023561 18.4874 0.03806 19.0762 0.0792918 19.5153L0.275482 20.9703C0.37172 21.4135 0.483181 22.0084 0.597271 22.4472L1.03061 23.8733L1.03804 23.8944L1.57678 25.2578C1.77052 25.6527 2.01374 26.187 2.22316 26.5736L2.95355 27.8017C3.20249 28.154 3.52146 28.6334 3.78408 28.9753L4.68247 30.0538C4.98025 30.3594 5.36629 30.7784 5.67567 31.0722L6.71742 31.9862C7.05806 32.2416 7.50354 32.595 7.85387 32.8367L9.01108 33.5708C9.39033 33.7727 9.88955 34.055 10.2764 34.2416L11.51 34.7782C11.928 34.9237 12.4815 35.1301 12.905 35.2581L14.1305 35.5768C14.6051 35.6648 15.2372 35.7882 15.7151 35.8545L16.6676 35.9504C17.8966 36.0079 17.9701 36.0113 18.7498 35.9815L19.3053 35.9483C19.4834 35.9321 19.7213 35.9125 19.8992 35.8933L20.2668 35.8492L20.4317 35.8268L20.4424 35.8253C34.1632 33.777 36.2074 15.0287 23.6588 6.32423C14.6362 0.0654929 3.7491 2.95494 0.816932 12.3863L0.454183 13.7392L0.442947 13.7888Z" fill="#2B8A2F"/>
<path id="Vector_4" d="M0.0320517 16.7306C-0.0157086 18.6069 -0.0166999 18.6428 0.0746754 19.6153L0.269772 21.0617C0.365473 21.5024 0.476312 22.0938 0.589766 22.5301L1.02069 23.9479L1.02807 23.9688L1.5638 25.3243C1.75647 25.7168 1.99833 26.248 2.20659 26.6324L2.9329 27.8534C3.18045 28.2036 3.49764 28.6802 3.75879 29.0201L4.65219 30.0923C4.94829 30.3962 5.33218 30.8127 5.63983 31.1047L6.67577 32.0134C7.01452 32.2674 7.45751 32.6187 7.80589 32.859L8.95664 33.5888C9.33377 33.7895 9.8302 34.0701 10.2149 34.2557L11.4417 34.789C11.8573 34.9338 12.4078 35.1389 12.829 35.2663L14.0475 35.5832C14.5195 35.6706 15.148 35.7933 15.6233 35.8591L16.5705 35.9545C16.8615 35.9681 17.2494 35.9934 17.5406 35.9991L17.9345 36C31.1952 35.6123 35.6735 19.005 25.1949 9.07612C16.53 0.86591 2.58335 2.40556 0.192453 15.2289L0.0388103 16.632L0.0320517 16.7306Z" fill="#2D8F31"/>
<path id="Vector_5" d="M0.0799174 19.7664C0.334973 21.6576 0.339805 21.6938 0.591459 22.6612L1.01942 24.0693L1.02676 24.0901L1.55879 25.4363C1.75012 25.8262 1.99032 26.3537 2.19714 26.7354L2.91845 27.9481C3.16429 28.2959 3.4793 28.7692 3.73866 29.1068L4.62589 30.1717C4.91996 30.4735 5.3012 30.8872 5.60673 31.1772L6.63555 32.0797C6.97195 32.3319 7.4119 32.6808 7.75788 32.9195L8.9007 33.6443C9.27523 33.8438 9.76825 34.1223 10.1503 34.3066L11.3686 34.8364C11.7814 34.9801 12.328 35.1839 12.7463 35.3103L13.9566 35.625L14.5481 35.7459L15.3325 35.8702C28.9248 37.5684 34.0951 22.2182 26.4589 12.185C17.938 0.989402 1.70341 3.34485 0.13934 16.0038C0.016288 16.9995 0.00877033 17.4819 0 18.0406L0.054233 19.4669L0.0799174 19.7664Z" fill="#2E9432"/>
<path id="Vector_6" d="M0.575778 21.9231C0.709121 22.3459 0.870029 22.9154 1.02114 23.3324L1.56559 24.6602C1.76139 25.0448 2.00719 25.5651 2.21885 25.9416L2.95699 27.1376C3.20856 27.4807 3.53093 27.9475 3.79633 28.2805L4.70428 29.3307C5.00521 29.6284 5.39534 30.0364 5.70801 30.3225L6.76082 31.2126C7.10509 31.4614 7.5553 31.8055 7.90935 32.0409L9.07885 32.7558C9.46211 32.9524 9.96663 33.2273 10.3576 33.409L11.6043 33.9315L11.9939 34.0734L12.5868 34.2693C25.9243 38.2167 33.8244 25.379 28.1258 14.7414C22.0114 3.32751 5.12243 0.734948 0.658934 13.5191C0.272003 14.6274 -0.303221 16.9615 0.191686 20.1424L0.481907 21.5612L0.575778 21.9231Z" fill="#309934"/>
<path id="Vector_7" d="M2.11806 26.1489C3.09509 27.7428 3.09509 27.7428 3.6845 28.4872L4.58614 29.5371C4.88499 29.8347 5.27242 30.2426 5.5829 30.5286L6.62842 31.4185C6.97028 31.6673 7.41737 32.0112 7.76896 32.2466C8.33137 32.6017 9.10204 33.0432 9.68628 33.3627C21.903 38.9415 32.47 29.4648 27.9228 17.0075C23.8185 5.76411 6.62277 1.18878 1.20969 12.6812C-0.98392 17.3384 0.345069 21.9972 1.01834 23.784L1.57711 25.1L2.11806 26.1489Z" fill="#329E36"/>
<path id="Vector_8" d="M2.39047 27.7951C9.86157 39.8544 24.8586 37.7428 27.5601 27.1657C30.6682 14.9969 16.6507 2.74425 6.13348 8.43638C-0.915965 12.2518 -1.49324 21.5265 2.39047 27.7951Z" fill="#33A338"/>
<path id="Vector_9" d="M2.34011 27.0922C9.01296 37.8472 23.4718 37.5719 26.5136 26.6319C29.7929 14.8373 15.7821 2.65188 5.69194 8.5229C-1.058 12.4504 -1.30342 21.2197 2.34011 27.0922Z" fill="#35A839"/>
<path id="Vector_10" d="M3.35448 27.3852C10.4415 38.3437 25.742 37.2324 27.7894 25.6105C29.9845 13.151 14.4862 3.99403 6.17549 9.77195C-1.0175 14.7726 0.547593 23.045 3.35448 27.3852Z" fill="#36AD3B"/>
<path id="Vector_11" d="M3.32196 27.7147C9.29586 37.2372 23.7767 38.0534 26.6634 26.4048C29.3578 15.5328 15.2691 4.79158 6.01302 10.6609C0.552002 14.1238 -0.604896 21.4552 3.32196 27.7147Z" fill="#38B33D"/>
<path id="Vector_12" d="M3.23736 27.0716C9.72588 36.9523 23.6056 36.0755 25.7394 25.6502C28.0215 14.5003 14.8181 4.82085 5.55704 10.8545C0.548511 14.1176 -0.492122 21.3925 3.23736 27.0716Z" fill="#3AB83F"/>
<path id="Vector_13" d="M3.16622 27.3457C9.42061 36.7763 22.4895 36.0223 24.6797 26.1044C27.3044 14.2188 13.1716 6.12692 5.10889 11.9128C-0.0557623 15.6191 0.0654604 22.6701 3.16622 27.3457Z" fill="#3BBD40"/>
<path id="Vector_14" d="M3.1395 27.7757C8.97226 36.5489 21.2013 35.9143 23.5848 26.7147C26.3596 16.0055 14.6231 7.96856 6.29242 12.107C0.762871 14.854 -0.680912 22.0295 3.1395 27.7757Z" fill="#3DC242"/>
<path id="Vector_15" d="M4.07732 27.7696C10.1827 37.1688 22.3871 35.6154 23.8631 25.2511C25.4914 13.8187 12.1899 7.23302 5.25578 13.3087C1.41501 16.6741 0.908367 22.8908 4.07732 27.7696Z" fill="#3EC744"/>
<path id="Vector_16" d="M3.99105 28.2448C9.25336 36.2825 20.7896 36.261 22.7752 25.8952C24.712 15.7832 13.7018 8.99934 6.4067 13.33C1.15989 16.4446 0.921626 23.5565 3.99105 28.2448Z" fill="#40CC46"/>
<path id="Vector_17" d="M3.9494 27.5763C8.7539 34.8271 19.832 35.8678 21.8592 24.1042C23.3116 15.6757 13.2144 8.91325 5.971 13.4633C1.61792 16.1976 0.692173 22.6606 3.9494 27.5763Z" fill="#42D147"/>
<path id="Vector_18" d="M4.98622 28.0113C10.8451 36.128 21.5592 33.939 22.8988 24.3515C24.1676 15.2711 13.2122 10.1517 6.68461 14.6715C2.01967 17.9018 2.17087 24.1109 4.98622 28.0113Z" fill="#43D649"/>
<path id="Vector_19" d="M4.94314 27.5706C10.6445 35.3516 20.4718 32.056 21.8404 24.0692C23.4284 14.8013 12.7993 10.0776 6.18686 14.9441C2.49077 17.6641 1.92121 23.4465 4.94314 27.5706Z" fill="#45DB4B"/>
<path id="Vector_20" d="M5.02933 26.5605C9.53055 35.2329 20.1845 32.7309 21.8268 24.7083C23.3491 17.271 14.5387 10.5873 7.14691 15.9259C3.98011 18.2133 3.06979 22.785 5.02933 26.5605Z" fill="#46E04D"/>
<path id="Vector_21" d="M4.96661 26.1627C9.09902 33.8769 18.8629 31.6588 20.7653 24.4719C22.3536 18.4722 15.637 11.0008 7.96977 15.2485C4.27046 17.2981 2.89522 22.2962 4.96661 26.1627Z" fill="#48E64E"/>
<path id="Vector_22" d="M6.00287 25.6422C9.84261 32.5628 18.6381 30.6248 20.644 24.1426C22.8146 17.1283 14.6004 11.229 8.43689 15.3754C5.06168 17.6462 4.0153 22.0598 6.00287 25.6422Z" fill="#4AEB50"/>
<path id="Vector_23" d="M6.02833 26.2361C9.43943 32.2284 17.7221 30.5244 19.5873 24.9256C21.7179 18.5307 15.1689 13.4008 9.79495 15.4625C5.46671 17.1231 3.70664 22.1575 6.02833 26.2361Z" fill="#4BF052"/>
<path id="Vector_24" d="M7.08181 25.7098C10.8602 31.6607 19.0782 28.8359 19.9399 22.8285C20.323 20.1575 18.8098 17.3563 17.2121 16.5128C14.6967 15.185 12.0956 13.812 8.37662 16.7245C6.41678 18.2595 4.87626 22.236 7.08181 25.7098Z" fill="#4DF554"/>
<path id="Vector_25" d="M8.12038 25.1754C10.2569 28.1223 13.6187 28.0854 14.1921 27.956C15.9749 27.5538 16.6419 27.4033 17.8717 26.235C17.9411 26.1691 19.5769 24.595 19.9212 22.5132C20.3226 20.0863 19.1561 17.4133 17.2079 16.2958C15.6856 15.4226 12.8518 13.7972 9.36912 16.4605C6.23471 18.8577 6.64121 23.1351 8.12038 25.1754Z" fill="#4EFA55"/>
<path id="Vector_26" d="M8.35341 25.6359C11.9567 30.0147 19.002 27.7902 19.8896 23.2036C20.9673 17.6345 13.8966 14.1694 9.86926 17.0196C4.49267 20.8247 8.31423 25.5882 8.35341 25.6359Z" fill="#50FF57"/>
<path id="Vector_27" d="M8.33851 25.8223C10.1762 28.0526 13.1852 28.4108 15.2079 27.6117C19.2762 26.0046 19.0053 21.7926 18.9918 21.6141C18.6768 17.4567 12.8057 13.2472 8.12837 18.3369C6.38841 20.23 6.82063 23.9799 8.33851 25.8223Z" fill="#65FF6B"/>
<path id="Vector_28" d="M9.44297 25.1539C11.1571 26.9725 13.8766 27.3642 15.5157 26.6923C19.213 25.1767 19.0053 21.3988 18.9948 21.2386C18.7467 17.511 14.9696 16.2162 14.9316 16.2055C12.9038 15.633 10.5731 16.2233 8.93111 18.3972C7.23098 20.648 8.13602 23.7674 9.44297 25.1539Z" fill="#6EFF74"/>
<path id="Vector_29" d="M8.54389 24.0761C10.4181 27.5684 16.9387 28.5515 18.7625 23.5462C19.6406 21.136 17.818 18.9287 17.593 18.7688C15.4241 17.2264 15.4241 17.2264 15.0389 17.1666C12.9345 16.8401 11.676 16.9865 10.4961 17.6675C8.51647 18.8101 7.20721 21.5853 8.54389 24.0761Z" fill="#74FF7A"/>
<path id="Vector_30" d="M8.54312 24.1469C9.8323 26.5465 12.6036 26.9798 12.6286 26.9786C13.2771 26.9495 14.2315 27.1307 14.7835 26.78L16.6809 25.5367C17.1141 25.0898 17.5248 24.3276 17.7348 23.7351C18.7119 20.9781 16.6764 18.7565 16.6541 18.7392C16.6358 18.725 14.7887 17.3118 14.5104 17.2722C13.8107 17.173 12.8703 16.9318 12.169 17.0184C11.5185 17.0986 10.6821 17.4555 10.1273 17.8131C9.03716 18.5158 7.03303 21.3363 8.54312 24.1469Z" fill="#7AFF7F"/>
<path id="Vector_31" d="M9.5955 23.5171C9.89258 23.9895 10.4068 24.5776 10.8942 24.8875C11.5794 25.3231 12.5871 25.9712 13.4188 25.9477C14.1188 25.9278 15.137 26.1407 15.7494 25.8274C17.7073 24.8264 18.1146 24.618 18.6741 23.2604C19.8147 20.4923 17.5969 18.5024 17.5732 18.4857C15.8717 17.2845 15.8717 17.2845 13.1262 17.0064C12.43 16.9359 11.5517 17.4662 10.9632 17.8163C10.9271 17.8379 7.70171 20.5059 9.5955 23.5171Z" fill="#7FFF84"/>
<path id="Vector_32" d="M9.57221 23.6428C10.6536 25.5501 12.7497 26.0002 12.7681 26C13.1818 25.9934 14.9902 25.9083 15.018 25.894C16.8071 24.9784 17.1966 24.6228 17.6225 23.5157C18.5906 20.9996 17.4931 19.5621 16.6112 18.4071C15.4803 16.9261 12.6749 16.9978 12.6488 17.0016C11.979 17.0986 11.0889 17.4644 10.5798 17.9219C10.1077 18.3463 9.15606 20.1319 9.14865 20.1481C9.14161 20.1632 8.62051 21.9642 9.57221 23.6428Z" fill="#83FF88"/>
<path id="Vector_33" d="M9.53622 22.9041C10.2793 24.1146 10.9843 24.3985 12.1524 24.8687C12.7537 25.1108 13.6783 24.9709 14.3094 24.8257C14.9567 24.6766 15.7692 24.1467 16.1665 23.609C16.873 22.6531 16.9989 21.2 16.9992 21.1867C17.0368 19.405 15.7313 17.9541 14.5024 17.3598C14.3916 17.3063 12.3206 16.9839 12.1941 17.0006C12.0815 17.0154 10.3315 17.8404 10.2436 17.9201C9.78681 18.3343 9.20991 19.0357 9.12274 19.6498C8.97642 20.6803 8.82514 21.746 9.53622 22.9041Z" fill="#88FF8C"/>
<path id="Vector_34" d="M10.586 23.9945C10.5939 24.0065 11.3916 25.2066 12.9713 25.8312C13.6213 26.0882 14.6166 26.0143 15.2969 25.8572C15.9921 25.6967 16.8353 25.0862 17.2688 24.5124C17.7134 23.9238 17.9964 22.2963 17.9971 22.2829C18.0959 19.7353 15.677 18.4389 15.6525 18.4275L13.1792 18C13.0993 18.011 11.1909 18.9883 11.1165 19.0562C9.60108 20.4397 9.84088 22.8544 10.586 23.9945Z" fill="#8BFF90"/>
<path id="Vector_35" d="M10.5574 23.3338C10.5645 23.3441 11.6312 24.5036 12.4161 24.8062C13.0343 25.0444 13.9745 25.0479 14.6194 24.899C15.2761 24.7474 16.0434 24.1337 16.4601 23.5984C16.7962 23.1667 16.9633 22.3969 16.9943 21.8483C17.1206 19.602 15.1132 18.4679 15.0929 18.4587C14.444 18.166 13.4673 17.9215 12.764 18.0236C12.1163 18.1176 11.3275 18.6267 10.8462 19.075C9.8502 20.0028 9.70714 22.1123 10.5574 23.3338Z" fill="#8FFF93"/>
<path id="Vector_36" d="M10.6308 23.4866C10.9962 23.9928 11.6433 24.5922 12.2187 24.8108C12.4242 24.8891 14.6002 25.0027 14.6119 24.9999C14.7166 24.9753 16.0925 24.0439 16.5572 23.4574C16.8396 23.1011 16.9674 22.4517 16.9945 21.993C17.0256 21.4635 16.9258 20.7247 16.6904 20.2525C16.6833 20.2385 15.6763 18.7128 15.2701 18.5344C14.5642 18.2244 13.5189 17.9078 12.7597 18.0249C12.0602 18.1329 11.2315 18.7369 10.7182 19.2368C9.97202 19.9632 9.60661 22.068 10.6308 23.4866Z" fill="#92FF97"/>
<path id="Vector_37" d="M11.5952 22.7391C11.8459 23.0776 12.2784 23.4903 12.6707 23.6332C13.3121 23.8669 14.2559 24.1054 14.9201 23.9508C15.0835 23.9129 16.2205 23.0028 16.7117 22.4178C16.8989 22.1949 16.9741 21.7758 16.9922 21.4833C17.1219 19.3923 15.583 18.5007 15.5672 18.4942C14.9372 18.2332 14.0182 17.9088 13.3474 18.0239C12.6958 18.1357 11.9438 18.7274 11.4708 19.1967C11.2571 19.4089 10.4614 21.209 11.5952 22.7391Z" fill="#96FF9A"/>
<path id="Vector_38" d="M11.6696 23.8541C11.8441 24.0893 12.138 24.3852 12.4104 24.4805C12.4292 24.487 14.5901 25.0712 14.9234 24.9928C15.1162 24.9474 16.8094 23.1929 16.8243 23.1756C16.9408 23.0407 16.9827 22.7805 16.9943 22.6005C17.0287 22.0679 16.9037 21.342 16.7154 20.8446C16.5828 20.4945 16.2222 20.1233 15.9581 19.8636C15.2723 19.1889 13.3494 18.9973 13.3347 19C13.3184 19.0031 11.4052 20.1695 11.3234 20.408C11.0453 21.219 10.6248 22.4446 11.6696 23.8541Z" fill="#99FF9D"/>
<path id="Vector_39" d="M11.6119 23.1236C11.6804 23.2147 11.7929 23.3339 11.9001 23.3679C12.591 23.5871 13.545 24.1589 14.241 23.9579C14.2592 23.9526 16.0087 22.2987 16 22.0945C15.9377 20.6365 15.9093 19.9712 14.0391 19.2347C13.1865 18.8988 12.5131 18.6336 11.1511 20.5952C10.7574 21.1624 11.2258 22.251 11.5043 22.8856C11.5359 22.9574 11.5651 23.0614 11.6119 23.1236Z" fill="#9CFFA0"/>
<path id="Vector_40" d="M11.5087 22.8224C11.5875 22.9639 11.6601 23.2099 11.8114 23.2707C12.5411 23.5632 13.5823 24.1633 14.3417 23.9581C15.0142 23.7765 15.6981 22.9565 15.9792 22.3243C15.9852 22.3109 16.052 20.5523 15.9092 20.4313C15.3158 19.929 14.3514 19.4928 13.6512 19.1518C13.468 19.0626 13.1875 18.9719 12.9868 19.0082C12.187 19.1522 11.0563 21.1379 11.0488 21.1572C10.8614 21.6408 11.2563 22.3689 11.5087 22.8224Z" fill="#9FFFA2"/>
<path id="Vector_41" d="M13.0047 22.5192C13.4369 22.8155 14.2006 23.1004 14.7127 22.9656C15.164 22.8468 15.639 22.3193 15.8104 21.9009C16.0037 21.4285 16.1034 20.6496 15.8411 20.209C15.8324 20.1946 13.6533 18.9901 13.5955 19.0001C13.4814 19.02 12.0008 21.0363 12.0002 21.0542C11.9871 21.5804 12.5589 22.2135 13.0047 22.5192Z" fill="#A1FFA5"/>
<path id="Vector_42" d="M13.0649 22.7347C13.335 22.8966 13.8057 23.0553 14.1231 22.9813C14.4015 22.9164 14.7161 22.6299 14.7983 22.3915C14.9531 21.944 15.1276 21.2439 14.8645 20.8357C14.5836 20.3995 13.7549 19.9127 13.1882 20.0134C12.6004 20.118 12.0089 20.8844 12.0001 21.4022C11.9919 21.8876 12.6029 22.4576 13.0649 22.7347Z" fill="#A4FFA8"/>
<path id="Vector_43" d="M14.1545 22.8806C14.2531 22.9527 14.4234 23.0252 14.5384 22.9915C14.6388 22.9621 14.7651 22.8359 14.7817 22.7254C14.8729 22.1218 15.1562 21.2281 14.8862 20.6899C14.7051 20.3289 14.156 19.9265 13.7831 20.0115C13.3956 20.0999 13.0029 20.7295 13 21.1559C12.9959 21.7937 13.6647 22.5222 14.1545 22.8806Z" fill="#A7FFAA"/>
<path id="Vector_44" d="M13.8371 22C13.8646 21.7565 14.122 21.4037 13.9285 21.1885C13.8399 21.09 13.5695 20.98 13.3858 21.0031C13.1946 21.0271 13.0005 21.1991 13 21.3155C12.9991 21.5695 13.5862 21.7946 13.8371 22Z" fill="#A9FFAD"/>
</g>
</svg>
