<svg width="36" height="35" viewBox="0 0 36 35" fill="none" xmlns="http://www.w3.org/2000/svg">
<g id="Group">
<path id="Vector" d="M23.5836 34.1272C26.2168 33.2829 27.8453 32.1581 28.7201 31.5536C29.251 31.1871 29.9194 30.642 30.3824 30.1971C31.3366 29.2803 31.3366 29.2803 32.3294 28.0858C32.8629 27.444 33.4577 26.4993 33.8603 25.773C34.2595 25.0528 34.6837 24.039 34.9938 23.2784C35.3739 22.3461 35.8475 20.2964 35.9151 19.2909C35.9711 18.4579 36.0315 17.3423 35.9812 16.5089C35.9296 15.6564 35.7504 14.5268 35.5765 13.6899C35.3928 12.8064 34.8105 10.8407 33.7926 9.07738C31.8888 5.77946 29.1878 3.29933 25.7642 1.70594C21.8964 -0.0942885 18.6262 -0.0208997 17.2297 0.0105023C15.8849 0.0879487 11.792 0.323552 7.49881 3.27948C5.49397 4.65985 4.1251 6.34584 4.11148 6.3627C3.6103 6.98474 2.96525 7.83594 2.55038 8.5154C2.116 9.22689 1.58604 10.2103 1.28916 10.9858C0.878553 12.0585 0.191214 13.8539 0.0331074 16.3237C-0.0204421 17.1604 -0.0101861 18.2835 0.0723164 19.1181C0.156815 19.9738 0.397334 21.1001 0.587933 21.9394C0.801587 22.8804 1.59285 24.8976 2.21193 25.9102C2.6475 26.6227 3.24898 27.5648 3.77122 28.22C4.28639 28.8665 5.04579 29.6757 5.65924 30.2355C10.4812 34.6348 17.3494 36.1261 23.5836 34.1272Z" fill="#183381"/>
<path id="Vector_2" d="M1.27574 10.7317C0.667155 12.4193 0.655531 12.4515 0.443862 13.3639L0.187515 14.7148C0.14193 15.135 0.0651081 15.6939 0.036595 16.1156L0 17.5115C0.0236096 17.9407 0.0381386 18.5143 0.0794555 18.9422L0.276051 20.3594C0.372488 20.7911 0.484179 21.3707 0.598505 21.7982L1.03274 23.1873L1.04019 23.2078L1.58003 24.5359C1.77418 24.9205 2.0179 25.4411 2.22775 25.8177L2.95965 27.014C3.20909 27.3571 3.52874 27.8241 3.79189 28.1572L4.69214 29.2077C4.99054 29.5055 5.37737 29.9135 5.68739 30.1998L6.73129 31.09C7.07263 31.339 7.51904 31.6832 7.87009 31.9186L9.02969 32.6337C9.40972 32.8304 9.90997 33.1053 10.2976 33.2871L11.5337 33.8097C11.9526 33.9516 12.5073 34.1525 12.9317 34.2774L14.1597 34.5878C14.6352 34.6735 15.2686 34.7937 15.7476 34.8582L16.7021 34.9517C17.9335 35.0077 18.0072 35.011 18.7886 34.982L19.3451 34.9497C19.5237 34.9338 19.762 34.9148 19.9403 34.896L20.3087 34.853C20.4184 34.8381 20.5647 34.819 20.674 34.8029L20.942 34.7612C21.0201 34.7479 21.1244 34.7308 21.2023 34.7169L21.4143 34.6779C21.476 34.6658 21.5581 34.6501 21.6197 34.6377L21.7994 34.6006C21.8519 34.5891 21.9219 34.5739 21.9744 34.5625L22.1361 34.5259L22.295 34.4883L22.4481 34.4509L22.6007 34.412L22.7533 34.3718L22.9074 34.3298L23.0682 34.2843C23.1177 34.2698 23.1838 34.2512 23.2331 34.2361L23.413 34.1817L23.5389 34.1424L23.833 34.0455C36.8788 29.276 35.7578 10.6728 22.0156 3.88586C15.6407 0.737628 6.69824 0.972326 2.12832 8.92729L1.52736 10.1417L1.27574 10.7317Z" fill="#183585"/>
<path id="Vector_3" d="M0.442947 13.462C0.106206 15.2319 0.0997713 15.2658 0.0365196 16.2012L0 17.5908C0.023561 18.018 0.03806 18.589 0.0792918 19.0149L0.275482 20.4258C0.37172 20.8555 0.483181 21.4324 0.597271 21.858L1.03061 23.2409L1.03804 23.2613L1.57678 24.5833C1.77052 24.9662 2.01374 25.4844 2.22316 25.8592L2.95355 27.0501C3.20249 27.3917 3.52146 27.8566 3.78408 28.1881L4.68247 29.2339C4.98025 29.5304 5.36629 29.9366 5.67567 30.2215L6.71742 31.1078C7.05806 31.3556 7.50354 31.6981 7.85387 31.9326L9.01108 32.6444C9.39033 32.8403 9.88955 33.1139 10.2764 33.2949L11.51 33.8152C11.928 33.9563 12.4815 34.1564 12.905 34.2806L14.1305 34.5897C14.6051 34.6749 15.2372 34.7947 15.7151 34.8589L16.6676 34.9519C17.8966 35.0077 17.9701 35.0109 18.7498 34.9821L19.3053 34.9499C19.4834 34.9341 19.7213 34.9152 19.8992 34.8965L20.2668 34.8538L20.4317 34.832L20.4424 34.8307C34.1632 32.8443 36.2074 14.6642 23.6588 6.2235C14.6362 0.154418 3.7491 2.95631 0.816932 12.1018L0.454183 13.4138L0.442947 13.462Z" fill="#19378A"/>
<path id="Vector_4" d="M0.0320517 16.3327C-0.0157086 18.1504 -0.0166999 18.1851 0.0746754 19.1273L0.269772 20.5286C0.365473 20.9554 0.476312 21.5283 0.589766 21.9511L1.02069 23.3244L1.02807 23.3447L1.5638 24.6578C1.75647 25.0382 1.99833 25.5528 2.20659 25.925L2.9329 27.1079C3.18045 27.4472 3.49764 27.9088 3.75879 28.2381L4.65219 29.2768C4.94829 29.5712 5.33218 29.9747 5.63983 30.2576L6.67577 31.1379C7.01452 31.384 7.45751 31.7242 7.80589 31.9571L8.95664 32.6641C9.33377 32.8586 9.8302 33.1304 10.2149 33.3101L11.4417 33.8269C11.8573 33.967 12.4078 34.1658 12.829 34.2891L14.0475 34.5961C14.5195 34.6808 15.148 34.7998 15.6233 34.8635L16.5705 34.9559C16.8615 34.969 17.2494 34.9936 17.5406 34.9991L17.9345 35C31.1952 34.6244 35.6735 18.5362 25.1949 8.91749C16.53 0.963861 2.58335 2.45539 0.192453 14.878L0.0388103 16.2373L0.0320517 16.3327Z" fill="#1A398F"/>
<path id="Vector_5" d="M0.0799174 19.2901C0.334973 21.1203 0.339805 21.1553 0.591459 22.0916L1.01942 23.4542L1.02676 23.4744L1.55879 24.7771C1.75012 25.1544 1.99032 25.665 2.19714 26.0344L2.91845 27.2079C3.16429 27.5445 3.4793 28.0026 3.73866 28.3293L4.62589 29.3598C4.91996 29.6518 5.3012 30.0522 5.60673 30.3329L6.63555 31.2062C6.97195 31.4503 7.4119 31.7879 7.75788 32.0189L8.9007 32.7204C9.27523 32.9133 9.76825 33.183 10.1503 33.3613L11.3686 33.874C11.7814 34.0131 12.328 34.2103 12.7463 34.3327L13.9566 34.6372L14.5481 34.7541L15.3325 34.8744C28.9248 36.5179 34.0951 21.6628 26.4589 11.9533C17.938 1.11876 1.70341 3.39823 0.13934 15.6489C0.016288 16.6124 0.00877033 17.0793 0 17.6199L0.054233 19.0003L0.0799174 19.2901Z" fill="#1B3B94"/>
<path id="Vector_6" d="M0.575778 21.9232C0.709121 22.346 0.87003 22.9154 1.02114 23.3325L1.56559 24.6601C1.76139 25.0448 2.0072 25.5651 2.21884 25.9415L2.95699 27.1376C3.20856 27.4807 3.53093 27.9475 3.79633 28.2805L4.70427 29.3307C5.00521 29.6285 5.39535 30.0364 5.708 30.3225L6.76083 31.2126C7.10508 31.4615 7.55529 31.8055 7.90935 32.041L9.07884 32.7558C9.46211 32.9525 9.96663 33.2273 10.3576 33.409L11.6043 33.9316L11.994 34.0734L12.5868 34.2693C25.9242 38.2167 33.8245 25.379 28.1257 14.7414C22.0115 3.32751 5.12243 0.734955 0.658935 13.5191C0.272003 14.6274 -0.303221 16.9615 0.191685 20.1425L0.481908 21.5613L0.575778 21.9232Z" fill="#1C3D99"/>
<path id="Vector_7" d="M2.11806 26.1489C3.09509 27.7428 3.09509 27.7428 3.6845 28.4872L4.58614 29.5371C4.88499 29.8348 5.27242 30.2426 5.5829 30.5286L6.62842 31.4185C6.97028 31.6673 7.41737 32.0112 7.76896 32.2466C8.33137 32.6017 9.10204 33.0432 9.68628 33.3627C21.903 38.9415 32.47 29.4648 27.9228 17.0075C23.8185 5.76412 6.62277 1.18878 1.20969 12.6812C-0.98392 17.3385 0.345069 21.9972 1.01834 23.784L1.57711 25.1L2.11806 26.1489Z" fill="#1D3F9E"/>
<path id="Vector_8" d="M2.39047 27.0781C9.86157 38.7215 24.8586 36.6827 27.5601 26.4703C30.6682 14.7212 16.6507 2.891 6.13348 8.38685C-0.915965 12.0707 -1.49324 21.0256 2.39047 27.0781Z" fill="#1E41A3"/>
<path id="Vector_9" d="M2.34011 26.3746C9.01296 36.7454 23.4718 36.4801 26.5136 25.9308C29.7929 14.5575 15.7821 2.80717 5.69194 8.4685C-1.058 12.2557 -1.30342 20.7118 2.34011 26.3746Z" fill="#1F43A8"/>
<path id="Vector_10" d="M3.35448 26.6672C10.4415 37.2199 25.742 36.1496 27.7894 24.9583C29.9845 12.9602 14.4862 4.14241 6.17549 9.70633C-1.0175 14.5219 0.547593 22.4878 3.35448 26.6672Z" fill="#2045AD"/>
<path id="Vector_11" d="M3.32196 25.9949C9.29586 35.1511 23.7767 35.936 26.6634 24.7355C29.3578 14.2815 15.2691 3.95347 6.01302 9.59703C0.552002 12.9267 -0.604896 19.9762 3.32196 25.9949Z" fill="#2147B3"/>
<path id="Vector_12" d="M3.23736 27.0716C9.72588 36.9523 23.6056 36.0755 25.7394 25.6502C28.0215 14.5003 14.8181 4.82085 5.55704 10.8545C0.548511 14.1176 -0.492122 21.3925 3.23736 27.0716Z" fill="#2249B8"/>
<path id="Vector_13" d="M3.16622 27.3457C9.42062 36.7763 22.4895 36.0223 24.6797 26.1044C27.3044 14.2188 13.1716 6.12692 5.1089 11.9128C-0.0557637 15.6191 0.0654598 22.6701 3.16622 27.3457Z" fill="#234BBD"/>
<path id="Vector_14" d="M3.1395 26.7757C8.97226 35.5489 21.2013 34.9143 23.5848 25.7147C26.3596 15.0055 14.6231 6.96855 6.29242 11.107C0.762871 13.854 -0.680912 21.0295 3.1395 26.7757Z" fill="#244DC2"/>
<path id="Vector_15" d="M4.07732 27.0404C10.1827 36.031 22.3871 34.5451 23.8631 24.6314C25.4914 13.6962 12.1899 7.3968 5.25578 13.2083C1.41501 16.4274 0.908367 22.3738 4.07732 27.0404Z" fill="#254FC7"/>
<path id="Vector_16" d="M3.99105 26.5064C9.25333 34.1787 20.7896 34.1582 22.7752 24.2636C24.712 14.6112 13.7017 8.13574 6.40668 12.2695C1.15989 15.2425 0.921628 22.0312 3.99105 26.5064Z" fill="#2651CC"/>
<path id="Vector_17" d="M3.9494 26.8346C8.7539 33.7401 19.832 34.7312 21.8592 23.5278C23.3116 15.5007 13.2144 9.06028 5.971 13.3936C1.61792 15.9978 0.692173 22.153 3.9494 26.8346Z" fill="#2753D1"/>
<path id="Vector_18" d="M4.98622 27.2607C10.8451 34.9716 21.5592 32.892 22.8988 23.7839C24.1676 15.1575 13.2122 10.2941 6.68461 14.5879C2.01967 17.6567 2.17087 23.5554 4.98622 27.2607Z" fill="#2755D6"/>
<path id="Vector_19" d="M4.94314 26.8037C10.6445 34.1752 20.4717 31.0531 21.8404 23.4866C23.4284 14.7065 12.7993 10.2314 6.18684 14.8418C2.49076 17.4187 1.92122 22.8967 4.94314 26.8037Z" fill="#2857DB"/>
<path id="Vector_20" d="M5.02933 24.8627C9.53055 33.0533 20.1845 30.6903 21.8268 23.1134C23.3491 16.0893 14.5387 9.77691 7.14691 14.8189C3.98011 16.9792 3.06979 21.297 5.02933 24.8627Z" fill="#2959E0"/>
<path id="Vector_21" d="M4.96661 25.4472C9.09902 32.7077 18.8629 30.6201 20.7653 23.8558C22.3536 18.2091 15.637 11.1772 7.96977 15.1751C4.27046 17.104 2.89522 21.8082 4.96661 25.4472Z" fill="#2A5BE6"/>
<path id="Vector_22" d="M6.00287 24.9146C9.84261 31.4026 18.6381 29.5857 20.644 23.5087C22.8146 16.9328 14.6004 11.4021 8.43689 15.2895C5.06168 17.4182 4.0153 21.5561 6.00287 24.9146Z" fill="#2B5DEB"/>
<path id="Vector_23" d="M6.02833 24.487C9.43943 30.0799 17.7221 28.4894 19.5873 23.2639C21.7179 17.2953 15.1689 12.5074 9.79495 14.4317C5.46671 15.9816 3.70664 20.6803 6.02833 24.487Z" fill="#2C5FF0"/>
<path id="Vector_24" d="M7.08181 25.7098C10.8602 31.6607 19.0782 28.8359 19.9399 22.8285C20.323 20.1575 18.8098 17.3563 17.2121 16.5128C14.6967 15.185 12.0956 13.812 8.37662 16.7245C6.41678 18.2595 4.87626 22.236 7.08181 25.7098Z" fill="#2D61F5"/>
<path id="Vector_25" d="M8.12037 25.1753C10.2569 28.1223 13.6187 28.0854 14.1921 27.956C15.9749 27.5538 16.642 27.4032 17.8717 26.235C17.9412 26.1691 19.5769 24.5949 19.9211 22.5131C20.3227 20.0862 19.1562 17.4133 17.2079 16.2958C15.6855 15.4226 12.8519 13.7972 9.36912 16.4605C6.23472 18.8577 6.64121 23.135 8.12037 25.1753Z" fill="#2E63FA"/>
<path id="Vector_26" d="M8.35342 24.6359C11.9568 29.0147 19.002 26.7902 19.8896 22.2036C20.9673 16.6345 13.8966 13.1694 9.86926 16.0196C4.49266 19.8247 8.31424 24.5882 8.35342 24.6359Z" fill="#2F65FF"/>
<path id="Vector_27" d="M8.33851 25.0038C10.1762 27.0482 13.1852 27.3765 15.2079 26.6441C19.2762 25.1709 19.0053 21.3099 18.9918 21.1462C18.6768 17.3353 12.8057 13.4766 8.12837 18.1421C6.38841 19.8775 6.82063 23.3149 8.33851 25.0038Z" fill="#4877FF"/>
<path id="Vector_28" d="M9.44297 25.154C11.1571 26.9725 13.8766 27.3642 15.5157 26.6923C19.213 25.1768 19.0053 21.3988 18.9948 21.2387C18.7467 17.511 14.9696 16.2162 14.9316 16.2055C12.9038 15.633 10.5731 16.2234 8.93111 18.3973C7.23098 20.648 8.13602 23.7674 9.44297 25.154Z" fill="#527FFF"/>
<path id="Vector_29" d="M8.54389 23.0761C10.4181 26.5684 16.9387 27.5515 18.7625 22.5462C19.6406 20.136 17.818 17.9287 17.593 17.7688C15.4241 16.2264 15.4241 16.2264 15.0389 16.1666C12.9345 15.8401 11.676 15.9865 10.4961 16.6675C8.51647 17.8101 7.20721 20.5853 8.54389 23.0761Z" fill="#5A85FF"/>
<path id="Vector_30" d="M8.54312 23.1469C9.8323 25.5464 12.6036 25.9797 12.6286 25.9786C13.2771 25.9495 14.2315 26.1307 14.7835 25.78L16.6809 24.5367C17.1141 24.0898 17.5248 23.3275 17.7348 22.7351C18.7119 19.9782 16.6764 17.7565 16.6541 17.7392C16.6358 17.725 14.7887 16.3118 14.5104 16.2723C13.8107 16.173 12.8703 15.9319 12.169 16.0184C11.5185 16.0987 10.6821 16.4555 10.1273 16.8131C9.03716 17.5158 7.03303 20.3364 8.54312 23.1469Z" fill="#618AFF"/>
<path id="Vector_31" d="M9.5955 23.5172C9.8926 23.9895 10.4068 24.5776 10.8942 24.8874C11.5794 25.3231 12.5871 25.9712 13.4187 25.9476C14.1188 25.9278 15.137 26.1407 15.7495 25.8274C17.7073 24.8264 18.1147 24.618 18.6741 23.2605C19.8147 20.4923 17.5969 18.5024 17.5732 18.4856C15.8717 17.2844 15.8717 17.2844 13.1263 17.0064C12.43 16.9358 11.5518 17.4661 10.9631 17.8163C10.9271 17.8378 7.70171 20.5058 9.5955 23.5172Z" fill="#678EFF"/>
<path id="Vector_32" d="M9.57221 23.6427C10.6536 25.5501 12.7497 26.0003 12.7681 26C13.1818 25.9935 14.9902 25.9083 15.018 25.894C16.8071 24.9785 17.1966 24.6228 17.6225 23.5156C18.5906 20.9996 17.4931 19.562 16.6112 18.407C15.4803 16.926 12.6749 16.9978 12.6488 17.0016C11.979 17.0986 11.0889 17.4643 10.5798 17.9219C10.1077 18.3463 9.15606 20.1318 9.14865 20.148C9.14161 20.1631 8.62051 21.9641 9.57221 23.6427Z" fill="#6C92FF"/>
<path id="Vector_33" d="M9.53622 22.9041C10.2793 24.1146 10.9843 24.3985 12.1524 24.8687C12.7537 25.1108 13.6783 24.9709 14.3094 24.8257C14.9567 24.6766 15.7692 24.1467 16.1665 23.609C16.873 22.6531 16.9989 21.2 16.9992 21.1867C17.0368 19.405 15.7313 17.9541 14.5024 17.3598C14.3916 17.3063 12.3206 16.9839 12.1941 17.0006C12.0815 17.0154 10.3315 17.8404 10.2436 17.9201C9.78681 18.3343 9.20991 19.0357 9.12274 19.6498C8.97642 20.6803 8.82514 21.746 9.53622 22.9041Z" fill="#7196FF"/>
<path id="Vector_34" d="M10.586 22.9944C10.5938 23.0065 11.3916 24.2065 12.9713 24.8312C13.6213 25.0882 14.6165 25.0144 15.2969 24.8571C15.9922 24.6967 16.8354 24.0861 17.2688 23.5125C17.7135 22.9238 17.9964 21.2963 17.997 21.283C18.096 18.7352 15.6771 17.4389 15.6525 17.4274L13.1792 17C13.0993 17.011 11.191 17.9883 11.1165 18.0561C9.60108 19.4398 9.84088 21.8544 10.586 22.9944Z" fill="#7699FF"/>
<path id="Vector_35" d="M10.5574 22.3337C10.5645 22.344 11.6312 23.5037 12.4161 23.8061C13.0343 24.0444 13.9745 24.0478 14.6194 23.899C15.2761 23.7474 16.0434 23.1338 16.4601 22.5984C16.7962 22.1667 16.9633 21.3969 16.9943 20.8482C17.1206 18.602 15.1132 17.4679 15.0929 17.4587C14.444 17.1661 13.4673 16.9215 12.764 17.0236C12.1163 17.1176 11.3275 17.6267 10.8462 18.0751C9.8502 19.0029 9.70714 21.1123 10.5574 22.3337Z" fill="#7A9CFF"/>
<path id="Vector_36" d="M10.6308 23.4865C10.9963 23.9929 11.6433 24.5922 12.2187 24.8109C12.4243 24.8892 14.6002 25.0027 14.612 24.9999C14.7166 24.9753 16.0925 24.0439 16.5572 23.4574C16.8395 23.1012 16.9675 22.4518 16.9945 21.9931C17.0256 21.4635 16.9258 20.7247 16.6904 20.2525C16.6834 20.2385 15.6763 18.7127 15.2702 18.5343C14.5643 18.2244 13.5189 17.9077 12.7598 18.025C12.0602 18.1329 11.2315 18.7368 10.7182 19.2367C9.97201 19.9633 9.60662 22.068 10.6308 23.4865Z" fill="#7E9FFF"/>
<path id="Vector_37" d="M11.5952 22.7391C11.8459 23.0776 12.2784 23.4903 12.6707 23.6333C13.3121 23.867 14.2559 24.1054 14.9201 23.9508C15.0835 23.9128 16.2205 23.0027 16.7117 22.4178C16.8989 22.1949 16.9741 21.7758 16.9922 21.4833C17.1219 19.3924 15.583 18.5006 15.5672 18.4942C14.9372 18.2332 14.0182 17.9088 13.3474 18.0239C12.6958 18.1357 11.9438 18.7275 11.4708 19.1968C11.2571 19.4089 10.4614 21.2091 11.5952 22.7391Z" fill="#82A2FF"/>
<path id="Vector_38" d="M11.6697 22.8541C11.8441 23.0894 12.138 23.3851 12.4104 23.4806C12.4292 23.4871 14.5902 24.0712 14.9235 23.9928C15.1161 23.9474 16.8093 22.1929 16.8242 22.1755C16.9409 22.0408 16.9827 21.7804 16.9943 21.6005C17.0286 21.0679 16.9036 20.3421 16.7154 19.8446C16.5828 19.4944 16.2221 19.1233 15.958 18.8635C15.2722 18.1888 13.3494 17.9972 13.3347 18C13.3183 18.003 11.4052 19.1695 11.3233 19.4081C11.0453 20.219 10.6248 21.4447 11.6697 22.8541Z" fill="#85A5FF"/>
<path id="Vector_39" d="M11.6119 22.1237C11.6804 22.2147 11.7929 22.3339 11.9001 22.368C12.591 22.5872 13.545 23.1589 14.241 22.9578C14.2592 22.9526 16.0087 21.2987 16 21.0945C15.9377 19.6365 15.9093 18.9712 14.0391 18.2347C13.1865 17.8988 12.5131 17.6336 11.1511 19.5953C10.7574 20.1624 11.2258 21.2511 11.5043 21.8857C11.5359 21.9574 11.5651 22.0614 11.6119 22.1237Z" fill="#89A8FF"/>
<path id="Vector_40" d="M11.5087 22.8224C11.5876 22.9639 11.6601 23.2099 11.8115 23.2707C12.5411 23.5632 13.5823 24.1633 14.3418 23.9581C15.0142 23.7765 15.6981 22.9565 15.9792 22.3243C15.9851 22.3109 16.052 20.5523 15.9093 20.4313C15.3158 19.929 14.3515 19.4928 13.6513 19.1518C13.4681 19.0626 13.1875 18.9719 12.9868 19.0082C12.187 19.1522 11.0563 21.1379 11.0488 21.1572C10.8614 21.6408 11.2563 22.3689 11.5087 22.8224Z" fill="#8CAAFF"/>
<path id="Vector_41" d="M13.0046 22.5192C13.4369 22.8155 14.2005 23.1004 14.7126 22.9656C15.1639 22.8468 15.639 22.3193 15.8103 21.9009C16.0037 21.4285 16.1034 20.6496 15.8411 20.209C15.8325 20.1946 13.6534 18.9901 13.5954 19.0001C13.4814 19.02 12.0007 21.0363 12.0002 21.0542C11.987 21.5804 12.5588 22.2135 13.0046 22.5192Z" fill="#90ADFF"/>
<path id="Vector_42" d="M13.0649 21.7347C13.335 21.8966 13.8057 22.0553 14.1232 21.9813C14.4015 21.9164 14.7161 21.6299 14.7983 21.3915C14.9531 20.944 15.1276 20.2439 14.8645 19.8357C14.5836 19.3995 13.7549 18.9127 13.1882 19.0134C12.6004 19.118 12.0089 19.8844 12.0001 20.4022C11.992 20.8876 12.6029 21.4576 13.0649 21.7347Z" fill="#93AFFF"/>
<path id="Vector_43" d="M14.1545 22.8806C14.2531 22.9527 14.4234 23.0252 14.5384 22.9915C14.6388 22.9621 14.7651 22.8359 14.7817 22.7254C14.8729 22.1218 15.1562 21.2281 14.8862 20.6899C14.7051 20.3289 14.156 19.9265 13.7831 20.0115C13.3956 20.0999 13.0029 20.7295 13 21.1559C12.9959 21.7937 13.6647 22.5222 14.1545 22.8806Z" fill="#96B1FF"/>
</g>
</svg>
