<svg width="37" height="36" viewBox="0 0 37 36" fill="none" xmlns="http://www.w3.org/2000/svg">
<g id="Group">
<path id="Vector" d="M36.3783 13.4028C36.5694 14.169 37.0766 16.2041 36.9902 18.3881C36.9541 19.3003 36.8696 21.4367 35.9626 23.9134C35.2912 25.7467 34.465 27.2546 33.2836 28.8026C32.7779 29.4652 32.0241 30.2918 31.4201 30.871C30.6951 31.5662 30.4125 31.7775 29.3609 32.5638C29.1603 32.7138 27.323 34.0558 24.6098 34.9813C22.1216 35.8302 20.1119 35.9369 19.3554 35.977C17.3872 36.0815 13.4675 35.9152 9.32975 33.6273C8.16908 32.9856 6.44766 31.859 4.83757 30.1359C4.25126 29.5086 3.53091 28.6148 3.05239 27.9062C2.56622 27.1863 2.02047 26.1633 1.63181 25.3893C1.06359 24.2575 0.432178 22.144 0.288237 21.1488C0.163501 20.2861 0.0164843 19.1292 0.00147487 18.2581C-0.0131615 17.4054 0.0834204 16.2676 0.189884 15.4211C0.361233 14.0585 0.95098 12.1502 1.29824 11.3817C1.64262 10.6197 2.1163 9.60621 2.54906 8.88813C2.97967 8.17377 3.60651 7.24364 4.16755 6.62102C4.71935 6.00855 5.47067 5.20155 6.08744 4.65096C6.09751 4.64199 7.17008 3.70351 8.10308 3.10756C8.86203 2.62277 9.41029 2.27244 10.8561 1.61795C11.4271 1.35945 12.3451 0.986076 13.4748 0.675671C15.3715 0.154487 16.7908 0.0678349 17.6388 0.0161157C25.0539 -0.298827 31.979 4.9063 34.1808 13.0282C31.979 4.9063 25.0539 -0.298826 17.7039 0.0133031C18.6356 -0.00538841 19.4401 -0.0214488 20.4957 0.101317C22.3488 0.316722 23.4213 0.63847 23.6173 0.700805C25.0481 1.15521 25.6403 1.3434 26.386 1.71859C28.2822 2.67267 28.3482 2.71994 30.0368 3.93071C30.0583 3.94614 32.2424 5.54907 33.9406 8.08576C35.5397 10.4739 36.178 12.5996 36.3783 13.4028Z" fill="#42D147"/>
<path id="Vector_2" d="M31.2906 6.90785C21.5918 -2.00906 12.9691 5.99224 13.4981 13.7812C14.1234 22.9874 26.4898 26.4348 32.0064 20.883C33.6384 19.2405 34.5759 16.8258 34.514 14.4236C34.4718 14.0061 34.4155 13.4495 34.3734 13.0319C33.9774 11.4009 33.4352 9.16725 31.2906 6.90785C28.0412 2.41029 22.9839 -0.207058 17.7078 0.0169675C17.9621 0.0118863 18.301 0.00508117 18.5552 0L19.3221 0.0172399L20.5005 0.10498C21.0452 0.180019 21.771 0.284546 22.3113 0.385806L23.623 0.704468C24.0702 0.847557 24.6699 1.0283 25.1103 1.18963L26.3925 1.72224C26.7891 1.92241 27.3248 2.17719 27.7128 2.39269L28.9072 3.11957C29.2608 3.3729 29.7414 3.69873 30.0844 3.9654L31.1574 4.86994C31.4653 5.17272 31.8874 5.56579 32.1827 5.88028L33.1075 6.94732C33.3646 7.29602 33.7209 7.75169 33.9635 8.1101L34.7151 9.32522C34.915 9.71592 35.1974 10.2296 35.3807 10.628L35.9349 11.9769C36.071 12.4059 36.2699 12.9729 36.3877 13.4067L36.7153 14.848C36.8049 15.4818 36.922 16.3282 36.9729 16.9661L37 18.3921C36.9729 18.8214 36.9538 19.3954 36.9091 19.8234L36.7069 21.2102C36.6119 21.6254 36.5009 22.183 36.3892 22.5944L35.972 23.9173C35.8124 24.3124 35.6142 24.8451 35.4389 25.2338L34.8232 26.4663C34.6018 26.8358 34.3193 27.3361 34.083 27.6967L33.292 28.8066C33.0083 29.1472 32.6404 29.61 32.3429 29.9392L31.428 30.8749C31.0711 31.1911 30.6007 31.6193 30.2299 31.9203L29.3681 32.5677C28.8802 32.8917 28.2206 33.3108 27.7158 33.609L27.3232 33.8209C26.8338 34.0683 25.688 34.6477 24.2359 35.1112L24.044 35.171C23.9884 35.1877 23.9145 35.2106 23.8588 35.2265L23.6896 35.2754L23.5244 35.3215L23.3662 35.3643L23.2093 35.4051L23.0527 35.4446L22.8954 35.4826L22.7324 35.5207L22.5662 35.558L22.3869 35.5965C22.3313 35.6078 22.2575 35.6235 22.2019 35.6343L21.9922 35.6749C21.9266 35.6868 21.839 35.7032 21.7733 35.7146L21.5098 35.759C21.4262 35.7719 21.3145 35.7896 21.2308 35.802L20.8693 35.8512C20.7516 35.8648 20.5951 35.8842 20.4773 35.8965L19.9292 35.9463C19.7388 35.9579 19.485 35.9754 19.2945 35.9839L18.3415 36C17.092 35.9579 16.9899 35.9545 16.1715 35.8583L14.8924 35.6553C14.4075 35.5438 13.7591 35.4008 13.2799 35.2683L11.9721 34.8409C11.5523 34.6688 10.9871 34.4511 10.5748 34.2627L9.33108 33.6315C8.95591 33.4045 8.44749 33.114 8.08185 32.8727L6.94387 32.0558C6.61244 31.7776 6.16016 31.4178 5.8403 31.1269L4.83754 30.1401C4.55415 29.814 4.1636 29.3893 3.89372 29.0526L3.05183 27.9103C2.82233 27.5404 2.50153 27.0552 2.28752 26.6765L1.63082 25.3932C1.46175 24.9832 1.21967 24.4424 1.06785 24.026L0.620325 22.616L0.614356 22.5943L0.286848 21.1528C0.224929 20.7151 0.124774 20.1335 0.0813175 19.6936L0 18.2621C0.0109107 17.8304 0.00839304 17.2539 0.0372085 16.823L0.188466 15.4251C0.268291 15.0061 0.358654 14.4441 0.455452 14.0283L0.824924 12.6885C0.970027 12.2883 1.1487 11.7492 1.30975 11.3549L1.88186 10.0992C2.08935 9.72346 2.3527 9.21534 2.5752 8.84787L3.32907 7.7065C3.5982 7.35926 3.94604 6.8878 4.22925 6.55135L5.12402 5.56924C5.46197 5.24867 5.90548 4.81368 6.25706 4.50736L7.16069 3.77876C7.60793 3.46237 8.2083 3.04516 8.6713 2.75082L9.09449 2.5022C9.73896 2.14943 10.938 1.49295 12.7659 0.889568L12.9579 0.829865C13.0135 0.813169 13.0876 0.79112 13.1431 0.774335L13.3124 0.725337L13.4776 0.679244L13.636 0.636507L13.7927 0.595677L13.9493 0.556298L14.1066 0.518189L14.2697 0.480171L14.4359 0.442878L14.6152 0.404407C14.6707 0.393065 14.7446 0.377096 14.8002 0.36657L15.0098 0.326011C15.0756 0.314035 15.1631 0.297702 15.2288 0.28627L15.4924 0.2419C15.576 0.229016 15.6876 0.211322 15.7714 0.198982L16.1329 0.149713C16.2505 0.136012 16.4071 0.116686 16.5249 0.104255L17.0731 0.0546227C17.2634 0.0430086 17.5172 0.0254058 17.7078 0.0169675C22.9839 -0.207058 28.0412 2.41029 31.2906 6.90785Z" fill="#42D147"/>
<path id="Vector_3" d="M30.1164 5.44707C20.2808 -1.46819 12.1712 5.78002 13.0408 13.9083C14.1264 24.0559 27.4533 27.2259 32.8223 20.7122C33.9513 19.3425 34.4017 18.0958 34.7979 16.4055C35.569 24.8258 30.8256 32.8712 23.1803 35.2927C30.8256 32.8712 35.5237 24.8258 34.7776 16.4055C34.8709 14.7391 35.2064 9.66823 30.1061 5.44707C26.8798 1.84924 22.3799 -0.185249 17.7027 0.0133004C18.1869 0.00359075 18.8354 0.00268351 19.3196 0.0135729L20.4991 0.101323C21.0438 0.176368 21.7704 0.280905 22.3106 0.382176L23.6228 0.700871C24.0698 0.843974 24.6697 1.02474 25.1101 1.18609L26.3924 1.71875C26.789 1.91893 27.3248 2.17374 27.7128 2.38926L28.9072 3.11621C29.2608 3.36957 29.7414 3.69543 30.0844 3.96213L31.1574 4.86676C31.4653 5.16958 31.8874 5.56269 32.1827 5.8772L33.1075 6.94436C33.3646 7.29309 33.7209 7.74881 33.9635 8.10725L34.7151 9.32249C34.915 9.71325 35.1974 10.227 35.3807 10.6255L35.9349 11.9745C36.071 12.4035 36.2699 12.9706 36.3877 13.4045L36.7153 14.8459C36.8049 15.4798 36.922 16.3262 36.9729 16.9642L37 18.3903C36.9729 18.8197 36.9538 19.3937 36.9091 19.8217L36.7069 21.2086C36.6119 21.624 36.5009 22.1816 36.3892 22.593L35.972 23.9161C35.8124 24.3112 35.6142 24.8439 35.4389 25.2327L34.8232 26.4654C34.6018 26.8349 34.3193 27.3352 34.083 27.6959L33.292 28.8058C33.0083 29.1466 32.6404 29.6094 32.3429 29.9385L31.428 30.8744C31.0711 31.1906 30.6007 31.6189 30.2299 31.9198L29.3681 32.5674C28.8802 32.8914 28.2206 33.3105 27.7158 33.6088L27.3232 33.8206C26.8338 34.0682 25.688 34.6475 24.2359 35.1111L24.044 35.1709C23.9884 35.1876 23.9145 35.2104 23.8588 35.2264L23.6896 35.2754L23.5244 35.3214L23.3662 35.3641L23.2093 35.405L23.0527 35.4445L22.8954 35.4826L22.7324 35.5207L22.5662 35.5578L22.3869 35.5964C22.3313 35.6078 22.2575 35.6234 22.2019 35.6343L21.9922 35.6749C21.9266 35.6868 21.839 35.7032 21.7733 35.7146L21.5098 35.759C21.4262 35.7718 21.3145 35.7895 21.2308 35.8019L20.8693 35.8512C20.7516 35.8648 20.5951 35.8841 20.4773 35.8965L19.9292 35.9463C19.7388 35.9579 19.485 35.9754 19.2945 35.9839L18.3415 36C17.092 35.9579 16.9899 35.9545 16.1715 35.8583L14.8924 35.6553C14.4075 35.5437 13.7591 35.4008 13.2799 35.2682L11.9721 34.8408C11.5523 34.6687 10.9871 34.451 10.5748 34.2624L9.33108 33.6312C8.95591 33.4043 8.44749 33.1137 8.08185 32.8724L6.94387 32.0554C6.61244 31.7772 6.16016 31.4173 5.8403 31.1265L4.83754 30.1395C4.55415 29.8133 4.1636 29.3886 3.89372 29.0519L3.05183 27.9095C2.82233 27.5394 2.50153 27.0543 2.28752 26.6755L1.63082 25.3922C1.46175 24.982 1.21967 24.4412 1.06785 24.0247L0.620325 22.6147L0.614356 22.5929L0.286848 21.1513C0.224929 20.7136 0.124774 20.1319 0.0813175 19.6919L0 18.2603C0.0109107 17.8285 0.00839304 17.252 0.0372085 16.821L0.188466 15.423C0.268291 15.0039 0.358654 14.4418 0.455452 14.026L0.824924 12.6862C0.970027 12.2858 1.1487 11.7467 1.30975 11.3523L1.88186 10.0966C2.08935 9.72077 2.3527 9.2126 2.5752 8.84509L3.32907 7.70361C3.5982 7.35633 3.94604 6.88483 4.22925 6.54834L5.12402 5.56613C5.46197 5.24554 5.90548 4.81051 6.25706 4.50415L7.16069 3.77547C7.60793 3.45905 8.2083 3.0418 8.6713 2.74743L9.09449 2.49879C9.73896 2.14598 10.938 1.48944 12.7659 0.885989L12.9579 0.82628C13.0135 0.809583 13.0876 0.787532 13.1431 0.770744L13.3124 0.721742L13.4776 0.675644L13.636 0.632903L13.7927 0.592068L13.9493 0.552685L14.1066 0.514573L14.2697 0.47655L14.4359 0.439254L14.6152 0.40078C14.6707 0.389436 14.7446 0.373465 14.8002 0.362938L15.0098 0.322376C15.0756 0.310398 15.1631 0.294063 15.2288 0.28263L15.4924 0.238256C15.576 0.22537 15.6876 0.207675 15.7714 0.195333L16.1329 0.14606C16.2505 0.132357 16.4071 0.113028 16.5249 0.100597L17.0731 0.0509594C17.2634 0.0393441 17.5172 0.0217396 17.7078 0.0133004C22.3849 -0.185249 26.8901 1.84915 30.1164 5.44707Z" fill="#40CC46"/>
<path id="Vector_4" d="M29.0831 4.39212C17.8574 -1.90534 10.4874 7.19148 12.9093 15.6658C15.957 26.3295 29.9536 27.5967 34.0899 19.7878C34.0952 19.7779 34.6975 18.5205 34.8778 17.9137C34.9524 17.5307 35.0517 17.0199 35.1263 16.6368C35.5383 13.8658 34.7293 8.16842 29.0831 4.39212C25.9631 1.45848 21.9045 -0.161145 17.7078 0.0169675C17.9621 0.0118863 18.301 0.00508116 18.5552 0L19.3221 0.0172395L20.5005 0.10498C21.0452 0.180018 21.771 0.284545 22.3113 0.385806L23.623 0.704467C24.0702 0.847556 24.6699 1.0283 25.1103 1.18962L26.3925 1.72224C26.7891 1.9224 27.3248 2.17719 27.7128 2.39268L28.9072 3.11956C29.2608 3.37289 29.7414 3.69872 30.0844 3.96539L31.1574 4.86993C31.4653 5.17271 31.8874 5.56578 32.1827 5.88027L33.1075 6.94731C33.3646 7.29601 33.7209 7.75168 33.9635 8.11008L34.7151 9.3252C34.915 9.71591 35.1974 10.2297 35.3807 10.628L35.9349 11.977C36.071 12.4058 36.2699 12.9728 36.3877 13.4068L36.7153 14.848C36.8049 15.4819 36.922 16.3281 36.9729 16.9661L37 18.392C36.9729 18.8215 36.9538 19.3953 36.9091 19.8233L36.7069 21.2101C36.6119 21.6255 36.5009 22.183 36.3892 22.5944L35.972 23.9173C35.8124 24.3124 35.6142 24.8451 35.4389 25.2338L34.8232 26.4664C34.6018 26.8358 34.3193 27.336 34.083 27.6967L33.292 28.8066C33.0083 29.1472 32.6404 29.6099 32.3429 29.9391L31.428 30.8748C31.0711 31.1911 30.6007 31.6192 30.2299 31.9202L29.3681 32.5677C28.8802 32.8916 28.2206 33.3107 27.7158 33.609L27.3232 33.8209C26.8338 34.0682 25.688 34.6477 24.2359 35.1112L24.0439 35.1709C23.9884 35.1876 23.9145 35.2105 23.8588 35.2265L23.6896 35.2753L23.5244 35.3215L23.3662 35.3642L23.2093 35.405L23.0527 35.4445L22.8954 35.4825L22.7324 35.5207L22.5662 35.5579L22.3869 35.5965C22.3313 35.6077 22.2575 35.6234 22.2019 35.6342L21.9922 35.6748C21.9266 35.6867 21.839 35.7031 21.7733 35.7146L21.5098 35.7589C21.4262 35.7718 21.3145 35.7896 21.2308 35.8019L20.8693 35.8511C20.7516 35.8647 20.5951 35.8841 20.4773 35.8965L19.9292 35.9462C19.7388 35.9579 19.485 35.9753 19.2945 35.9838L18.3415 36C17.092 35.9579 16.9899 35.9544 16.1715 35.8583L14.8924 35.6553C14.4075 35.5438 13.7591 35.4008 13.2799 35.2683L11.9721 34.8408C11.5523 34.6688 10.9871 34.4511 10.5748 34.2626L9.33107 33.6314C8.95591 33.4045 8.44749 33.1139 8.08185 32.8727L6.94387 32.0558C6.61244 31.7775 6.16016 31.4178 5.8403 31.127L4.83754 30.14C4.55415 29.8139 4.1636 29.3892 3.89372 29.0526L3.05183 27.9103C2.82233 27.5403 2.50153 27.0552 2.28752 26.6765L1.63082 25.3932C1.46175 24.9831 1.21967 24.4423 1.06785 24.0259L0.620325 22.616L0.614356 22.5942L0.286848 21.1528C0.224928 20.7151 0.124774 20.1335 0.0813172 19.6936L0 18.2621C0.0109107 17.8304 0.00839273 17.2539 0.0372082 16.823L0.188466 15.4252C0.268291 15.006 0.358654 14.444 0.455452 14.0283L0.824924 12.6885C0.970027 12.2882 1.1487 11.7492 1.30975 11.3549L1.88186 10.0992C2.08935 9.72344 2.3527 9.21533 2.5752 8.84784L3.32907 7.70649C3.5982 7.35925 3.94604 6.88779 4.22925 6.55134L5.12401 5.56923C5.46197 5.24866 5.90548 4.81367 6.25706 4.50735L7.16069 3.77876C7.60793 3.46235 8.2083 3.04516 8.6713 2.75082L9.09449 2.5022C9.73887 2.14952 10.9379 1.49304 12.7659 0.889657L12.9578 0.829954C13.0134 0.813259 13.0875 0.791209 13.143 0.774424L13.3123 0.725427L13.4775 0.679334L13.6359 0.636597L13.7926 0.595767L13.9492 0.556387L14.1065 0.518279L14.2696 0.480261L14.4358 0.442968L14.6151 0.404497C14.6706 0.393155 14.7445 0.377186 14.8002 0.36666L15.0097 0.326101C15.0755 0.314125 15.1629 0.297793 15.2287 0.28636L15.4923 0.241991C15.5759 0.229106 15.6875 0.211412 15.7713 0.199073L16.1328 0.149803C16.2504 0.136103 16.407 0.116776 16.5248 0.104346L17.073 0.0547133C17.2633 0.0430992 17.5172 0.0254058 17.7078 0.0169675C21.9045 -0.161145 25.9631 1.45848 29.0831 4.39212Z" fill="#3EC744"/>
<path id="Vector_5" d="M28.1159 3.54544C15.9242 -1.99488 9.48783 8.29954 12.8145 17.1971C16.0985 25.9809 29.903 29.0159 34.6177 19.7507C34.6964 19.5961 34.7825 19.3813 34.853 19.223C34.962 18.8778 35.1076 18.4175 35.2167 18.0722C36.8457 8.81307 29.5875 4.3468 28.1159 3.54544C25.1468 1.14779 21.4833 -0.146957 17.7078 0.0132974C18.192 0.00358766 18.8379 0.00268007 19.3221 0.0135694L20.5005 0.10132C21.0452 0.176366 21.771 0.280903 22.3113 0.382174L23.623 0.700868C24.0702 0.843973 24.6699 1.02474 25.1103 1.18608L26.3925 1.71875C26.7891 1.91893 27.3248 2.17374 27.7128 2.38926L28.9072 3.11622C29.2608 3.36957 29.7414 3.69544 30.0844 3.96214L31.1574 4.86677C31.4653 5.16958 31.8874 5.56269 32.1827 5.87721L33.1075 6.94436C33.3646 7.2931 33.7209 7.74882 33.9635 8.10725L34.7151 9.3225C34.915 9.71325 35.1974 10.2271 35.3807 10.6254L35.9349 11.9745C36.071 12.4034 36.2699 12.9705 36.3877 13.4044L36.7153 14.8459C36.8049 15.4798 36.922 16.3262 36.9729 16.9642L37 18.3903C36.9729 18.8198 36.9538 19.3937 36.9091 19.8218L36.7069 21.2087C36.6119 21.6241 36.5009 22.1817 36.3892 22.5931L35.972 23.9162C35.8124 24.3113 35.6142 24.844 35.4389 25.2328L34.8232 26.4654C34.6018 26.8349 34.3193 27.3352 34.083 27.6959L33.292 28.8059C33.0083 29.1465 32.6404 29.6094 32.3429 29.9386L31.428 30.8744C31.0711 31.1906 30.6007 31.6189 30.2299 31.9199L29.3681 32.5675C28.8802 32.8914 28.2206 33.3106 27.7158 33.6089L27.3232 33.8207C26.8338 34.0681 25.688 34.6476 24.2359 35.1111L24.044 35.1709C23.9884 35.1876 23.9145 35.2105 23.8588 35.2264L23.6896 35.2754L23.5244 35.3215L23.3662 35.3642L23.2093 35.405L23.0527 35.4445L22.8954 35.4826L22.7324 35.5208L22.5662 35.5579L22.3869 35.5965C22.3313 35.6078 22.2575 35.6234 22.2019 35.6343L21.9922 35.6749C21.9266 35.6868 21.839 35.7032 21.7733 35.7146L21.5098 35.759C21.4262 35.7719 21.3145 35.7895 21.2308 35.8019L20.8693 35.8512C20.7516 35.8648 20.5951 35.8841 20.4773 35.8965L19.9292 35.9463C19.7388 35.9579 19.485 35.9754 19.2945 35.9839L18.3415 36C17.092 35.9579 16.9899 35.9545 16.1715 35.8583L14.8924 35.6553C14.4075 35.5437 13.7591 35.4009 13.2799 35.2683L11.9721 34.8407C11.5523 34.6687 10.9871 34.451 10.5748 34.2625L9.33108 33.6312C8.95591 33.4042 8.44749 33.1137 8.08185 32.8724L6.94387 32.0555C6.61244 31.7771 6.16016 31.4173 5.8403 31.1265L4.83754 30.1395C4.55415 29.8134 4.1636 29.3886 3.89372 29.0519L3.05183 27.9095C2.82233 27.5395 2.50153 27.0543 2.28752 26.6756L1.63082 25.3922C1.46175 24.982 1.21967 24.4412 1.06785 24.0248L0.620325 22.6147L0.614356 22.5929L0.286848 21.1514C0.224929 20.7135 0.124774 20.1318 0.0813175 19.692L0 18.2602C0.0109107 17.8286 0.00839304 17.252 0.0372085 16.8211L0.188466 15.4231C0.268291 15.0039 0.358654 14.4419 0.455452 14.0261L0.824924 12.6861C0.970027 12.2859 1.1487 11.7467 1.30975 11.3524L1.88186 10.0965C2.08935 9.72078 2.3527 9.21262 2.5752 8.84509L3.32907 7.70362C3.5982 7.35634 3.94604 6.88483 4.22925 6.54835L5.12402 5.56614C5.46197 5.24553 5.90548 4.8105 6.25706 4.50415L7.16069 3.77548C7.60793 3.45904 8.2083 3.04181 8.6713 2.74743L9.09449 2.49879C9.73896 2.14607 10.938 1.48953 12.7659 0.886078L12.9579 0.826368C13.0135 0.809671 13.0876 0.78762 13.1431 0.770832L13.3124 0.72183L13.4776 0.675732L13.636 0.632992L13.7927 0.592156L13.9493 0.552773L14.1066 0.514661L14.2697 0.476638L14.4359 0.439342L14.6152 0.400867C14.6707 0.389524 14.7446 0.373553 14.8002 0.363026L15.0098 0.322464C15.0756 0.310486 15.1631 0.294151 15.2288 0.282718L15.4924 0.238344C15.576 0.225458 15.6876 0.207763 15.7714 0.195421L16.1329 0.146148C16.2505 0.132445 16.4071 0.113116 16.5249 0.100684L17.0731 0.0510471C17.2634 0.0394317 17.5172 0.0217366 17.7078 0.0132974C21.4833 -0.146957 25.1468 1.14779 28.1159 3.54544Z" fill="#3DC242"/>
<path id="Vector_6" d="M27.2026 2.86134C15.201 -2.21984 8.42147 9.01445 12.3158 17.6265C15.9591 25.6834 28.9116 30.2637 34.7524 20.4296C34.8447 20.2211 34.9679 19.943 35.0604 19.7344C37.5222 11.9478 32.8875 5.64927 27.2026 2.86134C24.4111 0.906445 21.1048 -0.127301 17.7078 0.0169675C17.9621 0.0118863 18.301 0.00508117 18.5552 0L19.3221 0.0172399L20.5005 0.10498C21.0452 0.180019 21.771 0.284546 22.3113 0.385806L23.623 0.704468C24.0702 0.847557 24.6699 1.0283 25.1103 1.18963L26.3925 1.72224C26.7891 1.92241 27.3248 2.17719 27.7128 2.39269L28.9072 3.11957C29.2608 3.3729 29.7414 3.69873 30.0844 3.9654L31.1574 4.86994C31.4653 5.17272 31.8874 5.56579 32.1827 5.88028L33.1075 6.94732C33.3646 7.29602 33.7209 7.75169 33.9635 8.1101L34.7151 9.32522C34.915 9.71592 35.1974 10.2296 35.3807 10.628L35.9349 11.9769C36.071 12.4059 36.2699 12.9729 36.3877 13.4067L36.7153 14.848C36.8049 15.4818 36.922 16.3282 36.9729 16.9661L37 18.3921C36.9729 18.8214 36.9538 19.3954 36.9091 19.8234L36.7069 21.2102C36.6119 21.6254 36.5009 22.183 36.3892 22.5944L35.972 23.9173C35.8124 24.3124 35.6142 24.8451 35.4389 25.2338L34.8232 26.4663C34.6018 26.8358 34.3193 27.3361 34.083 27.6967L33.292 28.8066C33.0083 29.1472 32.6404 29.61 32.3429 29.9392L31.428 30.8749C31.0711 31.1911 30.6007 31.6193 30.2299 31.9203L29.3681 32.5677C28.8802 32.8917 28.2206 33.3108 27.7158 33.609L27.3232 33.8209C26.8338 34.0683 25.688 34.6477 24.2359 35.1112L24.0439 35.171C23.9884 35.1877 23.9145 35.2106 23.8588 35.2265L23.6896 35.2754L23.5244 35.3215L23.3662 35.3643L23.2093 35.4051L23.0527 35.4446L22.8954 35.4826L22.7324 35.5207L22.5662 35.558L22.3869 35.5965C22.3313 35.6078 22.2575 35.6235 22.2019 35.6343L21.9922 35.6749C21.9266 35.6868 21.839 35.7032 21.7733 35.7146L21.5098 35.759C21.4262 35.7719 21.3145 35.7896 21.2308 35.802L20.8693 35.8512C20.7516 35.8648 20.5951 35.8842 20.4773 35.8965L19.9292 35.9463C19.7388 35.9579 19.485 35.9754 19.2945 35.9839L18.3415 36C17.092 35.9579 16.9899 35.9545 16.1715 35.8583L14.8924 35.6553C14.4075 35.5438 13.7591 35.4008 13.2799 35.2683L11.9721 34.8409C11.5523 34.6688 10.9871 34.4511 10.5748 34.2627L9.33107 33.6315C8.95591 33.4045 8.44749 33.114 8.08185 32.8727L6.94387 32.0558C6.61244 31.7776 6.16016 31.4178 5.8403 31.1269L4.83754 30.1401C4.55415 29.814 4.1636 29.3893 3.89372 29.0526L3.05183 27.9103C2.82233 27.5404 2.50153 27.0552 2.28752 26.6765L1.63082 25.3932C1.46175 24.9832 1.21967 24.4424 1.06785 24.026L0.620325 22.616L0.614356 22.5943L0.286848 21.1528C0.224928 20.7151 0.124774 20.1335 0.0813172 19.6936L0 18.2621C0.0109107 17.8304 0.00839273 17.2539 0.0372082 16.823L0.188466 15.4251C0.268291 15.0061 0.358654 14.4441 0.455452 14.0283L0.824924 12.6885C0.970027 12.2883 1.1487 11.7492 1.30975 11.3549L1.88186 10.0992C2.08935 9.72346 2.3527 9.21534 2.5752 8.84787L3.32907 7.7065C3.5982 7.35926 3.94604 6.8878 4.22925 6.55135L5.12401 5.56924C5.46197 5.24867 5.90548 4.81368 6.25706 4.50736L7.16069 3.77876C7.60793 3.46237 8.2083 3.04516 8.6713 2.75082L9.09449 2.5022C9.73887 2.14943 10.9379 1.49295 12.7659 0.889568L12.9578 0.829865C13.0134 0.813169 13.0875 0.79112 13.143 0.774335L13.3123 0.725337L13.4775 0.679244L13.6359 0.636507L13.7926 0.595677L13.9492 0.556298L14.1065 0.518189L14.2696 0.480171L14.4358 0.442878L14.6151 0.404407C14.6706 0.393065 14.7445 0.377096 14.8002 0.36657L15.0097 0.326011C15.0755 0.314035 15.1629 0.297702 15.2287 0.28627L15.4923 0.2419C15.5759 0.229016 15.6875 0.211322 15.7713 0.198982L16.1328 0.149713C16.2504 0.136012 16.407 0.116686 16.5248 0.104255L17.073 0.0546227C17.2633 0.0430086 17.5172 0.0254058 17.7078 0.0169675C21.1048 -0.127301 24.4111 0.906445 27.2026 2.86134Z" fill="#3BBD40"/>
<path id="Vector_7" d="M26.2989 2.26812C13.8588 -1.84478 7.9581 9.26061 11.725 17.801C15.02 25.2715 27.4127 31.6015 34.5886 21.5602C34.6216 21.5024 34.6656 21.4253 34.6988 21.3675C38.6053 12.9694 33.2867 5.25915 26.2989 2.26812C23.7098 0.697062 20.745 -0.115645 17.7078 0.0133028C18.192 0.00359317 18.8379 0.00268592 19.3221 0.0135752L20.5005 0.101325C21.0452 0.17637 21.771 0.280908 22.3113 0.382178L23.623 0.700873C24.0702 0.843977 24.6699 1.02474 25.1103 1.18609L26.3925 1.71875C26.7891 1.91893 27.3248 2.17375 27.7128 2.38926L28.9072 3.11622C29.2608 3.36958 29.7414 3.69543 30.0844 3.96214L31.1574 4.86677C31.4653 5.16959 31.8874 5.56269 32.1827 5.8772L33.1075 6.94437C33.3646 7.29309 33.7209 7.74881 33.9635 8.10725L34.7151 9.32249C34.915 9.71325 35.1974 10.227 35.3807 10.6255L35.9349 11.9745C36.071 12.4035 36.2699 12.9706 36.3877 13.4045L36.7153 14.8459C36.8049 15.4798 36.922 16.3262 36.9729 16.9642L37 18.3903C36.9729 18.8197 36.9538 19.3937 36.9091 19.8217L36.7069 21.2086C36.6119 21.624 36.5009 22.1816 36.3892 22.593L35.972 23.9161C35.8124 24.3112 35.6142 24.8439 35.4389 25.2327L34.8232 26.4654C34.6018 26.8349 34.3193 27.3352 34.083 27.6959L33.292 28.8058C33.0083 29.1466 32.6404 29.6094 32.3429 29.9385L31.428 30.8744C31.0711 31.1906 30.6007 31.6189 30.2299 31.9198L29.3681 32.5674C28.8802 32.8914 28.2206 33.3105 27.7158 33.6088L27.3232 33.8206C26.8338 34.0682 25.688 34.6475 24.2359 35.1111L24.0439 35.1709C23.9884 35.1876 23.9145 35.2104 23.8588 35.2264L23.6896 35.2754L23.5244 35.3214L23.3662 35.3641L23.2093 35.405L23.0527 35.4445L22.8954 35.4826L22.7324 35.5207L22.5662 35.5578L22.3869 35.5964C22.3313 35.6078 22.2575 35.6234 22.2019 35.6343L21.9922 35.6749C21.9266 35.6868 21.839 35.7032 21.7733 35.7146L21.5098 35.759C21.4262 35.7718 21.3145 35.7895 21.2308 35.8019L20.8693 35.8512C20.7516 35.8648 20.5951 35.8841 20.4773 35.8965L19.9292 35.9463C19.7388 35.9579 19.485 35.9754 19.2945 35.9839L18.3415 36C17.092 35.9579 16.9899 35.9545 16.1715 35.8583L14.8924 35.6553C14.4075 35.5437 13.7591 35.4008 13.2799 35.2682L11.9721 34.8408C11.5523 34.6687 10.9871 34.451 10.5748 34.2624L9.33107 33.6312C8.95591 33.4043 8.44749 33.1137 8.08185 32.8724L6.94387 32.0554C6.61244 31.7772 6.16016 31.4173 5.8403 31.1265L4.83754 30.1395C4.55415 29.8133 4.1636 29.3886 3.89372 29.0519L3.05183 27.9095C2.82233 27.5394 2.50153 27.0543 2.28752 26.6755L1.63082 25.3922C1.46175 24.982 1.21967 24.4412 1.06785 24.0247L0.620325 22.6147L0.614356 22.5929L0.286848 21.1513C0.224928 20.7136 0.124774 20.1319 0.0813172 19.6919L0 18.2603C0.0109107 17.8285 0.00839273 17.252 0.0372082 16.821L0.188466 15.423C0.268291 15.0039 0.358654 14.4418 0.455452 14.026L0.824924 12.6862C0.970027 12.2858 1.1487 11.7467 1.30975 11.3523L1.88186 10.0966C2.08935 9.72077 2.3527 9.2126 2.5752 8.84509L3.32907 7.70361C3.5982 7.35634 3.94604 6.88484 4.22925 6.54835L5.12401 5.56613C5.46197 5.24554 5.90548 4.81051 6.25706 4.50415L7.16069 3.77547C7.60793 3.45905 8.2083 3.0418 8.6713 2.74743L9.09449 2.49879C9.73887 2.14598 10.9379 1.48944 12.7659 0.885992L12.9578 0.826282C13.0134 0.809585 13.0875 0.787534 13.143 0.770746L13.3123 0.721745L13.4775 0.675647L13.6359 0.632905L13.7926 0.592071L13.9492 0.552688L14.1065 0.514575L14.2696 0.476553L14.4358 0.439257L14.6151 0.400782C14.6706 0.389439 14.7445 0.373467 14.8002 0.362941L15.0097 0.322378C15.0755 0.3104 15.1629 0.294066 15.2287 0.282632L15.4923 0.238258C15.5759 0.225373 15.6875 0.207677 15.7713 0.195336L16.1328 0.146062C16.2504 0.13236 16.407 0.113031 16.5248 0.1006L17.073 0.0509619C17.2633 0.0393465 17.5172 0.0217421 17.7078 0.0133028C20.745 -0.115645 23.7098 0.697062 26.2989 2.26812Z" fill="#3AB83F"/>
<path id="Vector_8" d="M25.3943 1.76163C12.1899 -1.72387 6.83737 10.7948 11.9119 19.5583C16.1541 26.8844 27.9036 31.1743 34.3712 22.6276C39.3101 14.2884 33.6011 4.56334 25.3943 1.76163C23.0293 0.526807 20.397 -0.0970865 17.7078 0.0169675C17.9621 0.0118863 18.301 0.00508116 18.5552 0L19.3221 0.0172395L20.5005 0.10498C21.0452 0.180018 21.771 0.284545 22.3113 0.385806L23.623 0.704467C24.0702 0.847556 24.6699 1.0283 25.1103 1.18962L26.3925 1.72224C26.7891 1.9224 27.3248 2.17719 27.7128 2.39268L28.9072 3.11956C29.2608 3.37289 29.7414 3.69872 30.0844 3.96539L31.1574 4.86993C31.4653 5.17271 31.8874 5.56578 32.1827 5.88027L33.1075 6.94731C33.3646 7.29601 33.7209 7.75168 33.9635 8.11008L34.7151 9.3252C34.915 9.71591 35.1974 10.2297 35.3807 10.628L35.9349 11.977C36.071 12.4058 36.2699 12.9728 36.3877 13.4068L36.7153 14.848C36.8049 15.4819 36.922 16.3281 36.9729 16.9661L37 18.392C36.9729 18.8215 36.9538 19.3953 36.9091 19.8233L36.7069 21.2101C36.6119 21.6255 36.5009 22.183 36.3892 22.5944L35.972 23.9173C35.8124 24.3124 35.6142 24.8451 35.4389 25.2338L34.8232 26.4664C34.6018 26.8358 34.3193 27.336 34.083 27.6967L33.292 28.8066C33.0083 29.1472 32.6404 29.6099 32.3429 29.9391L31.428 30.8748C31.0711 31.1911 30.6007 31.6192 30.2299 31.9202L29.3681 32.5677C28.8802 32.8916 28.2206 33.3107 27.7158 33.609L27.3232 33.8209C26.8338 34.0682 25.688 34.6477 24.2359 35.1112L24.0439 35.1709C23.9884 35.1876 23.9145 35.2105 23.8588 35.2265L23.6896 35.2753L23.5244 35.3215L23.3662 35.3642L23.2093 35.405L23.0527 35.4445L22.8954 35.4825L22.7324 35.5207L22.5662 35.5579L22.3869 35.5965C22.3313 35.6077 22.2575 35.6234 22.2019 35.6342L21.9922 35.6748C21.9266 35.6867 21.839 35.7031 21.7733 35.7146L21.5098 35.7589C21.4262 35.7718 21.3145 35.7896 21.2308 35.8019L20.8693 35.8511C20.7516 35.8647 20.5951 35.8841 20.4773 35.8965L19.9292 35.9462C19.7388 35.9579 19.485 35.9753 19.2945 35.9838L18.3415 36C17.092 35.9579 16.9899 35.9544 16.1715 35.8583L14.8924 35.6553C14.4075 35.5438 13.7591 35.4008 13.2799 35.2683L11.9721 34.8408C11.5523 34.6688 10.9871 34.4511 10.5748 34.2626L9.33107 33.6314C8.95591 33.4045 8.44749 33.1139 8.08185 32.8727L6.94387 32.0558C6.61244 31.7775 6.16016 31.4178 5.8403 31.127L4.83754 30.14C4.55415 29.8139 4.1636 29.3892 3.89372 29.0526L3.05183 27.9103C2.82233 27.5403 2.50153 27.0552 2.28752 26.6765L1.63082 25.3932C1.46175 24.9831 1.21967 24.4423 1.06785 24.0259L0.620325 22.616L0.614356 22.5942L0.286848 21.1528C0.224928 20.7151 0.124774 20.1335 0.0813172 19.6936L0 18.2621C0.0109107 17.8304 0.00839273 17.2539 0.0372082 16.823L0.188466 15.4252C0.268291 15.006 0.358654 14.444 0.455452 14.0283L0.824924 12.6885C0.970027 12.2882 1.1487 11.7492 1.30975 11.3549L1.88186 10.0992C2.08935 9.72344 2.3527 9.21533 2.5752 8.84784L3.32907 7.70649C3.5982 7.35925 3.94604 6.88779 4.22925 6.55134L5.12401 5.56923C5.46197 5.24866 5.90548 4.81367 6.25706 4.50735L7.16069 3.77876C7.60793 3.46235 8.2083 3.04516 8.6713 2.75082L9.09449 2.5022C9.73887 2.14952 10.9379 1.49304 12.7659 0.889657L12.9578 0.829954C13.0134 0.813259 13.0875 0.791209 13.143 0.774424L13.3123 0.725427L13.4775 0.679334L13.6359 0.636597L13.7926 0.595767L13.9492 0.556387L14.1065 0.518279L14.2696 0.480261L14.4358 0.442968L14.6151 0.404497C14.6706 0.393155 14.7445 0.377186 14.8002 0.36666L15.0097 0.326101C15.0755 0.314125 15.1629 0.297793 15.2287 0.28636L15.4923 0.241991C15.5759 0.229106 15.6875 0.211412 15.7713 0.199073L16.1328 0.149803C16.2504 0.136103 16.407 0.116776 16.5248 0.104346L17.073 0.0547133C17.2633 0.0430992 17.5172 0.0254058 17.7078 0.0169675C20.397 -0.0970865 23.0293 0.526807 25.3943 1.76163Z" fill="#38B33D"/>
<path id="Vector_9" d="M24.4915 1.32219C12.2833 -1.65196 5.67413 10.3615 11.2571 19.7571C16.049 27.8213 27.3068 31.3598 34.1 23.6588C34.2509 23.4469 34.4523 23.1644 34.6033 22.9526C39.7284 13.9103 33.4917 4.07502 24.4915 1.32219C22.3676 0.378181 20.0595 -0.086522 17.7078 0.013297C18.192 0.00358735 18.8379 0.00267976 19.3221 0.0135691L20.5005 0.101319C21.0452 0.176365 21.771 0.280903 22.3113 0.382174L23.623 0.700868C24.0702 0.843972 24.6699 1.02474 25.1103 1.18608L26.3925 1.71875C26.7891 1.91893 27.3248 2.17374 27.7128 2.38926L28.9072 3.11622C29.2608 3.36957 29.7414 3.69544 30.0844 3.96214L31.1574 4.86677C31.4653 5.16958 31.8874 5.56269 32.1827 5.87721L33.1075 6.94436C33.3646 7.2931 33.7209 7.74882 33.9635 8.10725L34.7151 9.3225C34.915 9.71325 35.1974 10.2271 35.3807 10.6254L35.9349 11.9745C36.071 12.4034 36.2699 12.9705 36.3877 13.4044L36.7153 14.8459C36.8049 15.4798 36.922 16.3262 36.9729 16.9642L37 18.3903C36.9729 18.8198 36.9538 19.3937 36.9091 19.8218L36.7069 21.2087C36.6119 21.6241 36.5009 22.1817 36.3892 22.5931L35.972 23.9162C35.8124 24.3113 35.6142 24.844 35.4389 25.2328L34.8232 26.4654C34.6018 26.8349 34.3193 27.3352 34.083 27.6959L33.292 28.8059C33.0083 29.1465 32.6404 29.6094 32.3429 29.9386L31.428 30.8744C31.0711 31.1906 30.6007 31.6189 30.2299 31.9199L29.3681 32.5675C28.8802 32.8914 28.2206 33.3106 27.7158 33.6089L27.3232 33.8207C26.8338 34.0681 25.688 34.6476 24.2359 35.1111L24.044 35.1709C23.9884 35.1876 23.9145 35.2105 23.8588 35.2264L23.6896 35.2754L23.5244 35.3215L23.3662 35.3642L23.2093 35.405L23.0527 35.4445L22.8954 35.4826L22.7324 35.5208L22.5662 35.5579L22.3869 35.5965C22.3313 35.6078 22.2575 35.6234 22.2019 35.6343L21.9922 35.6749C21.9266 35.6868 21.839 35.7032 21.7733 35.7146L21.5098 35.759C21.4262 35.7719 21.3145 35.7895 21.2308 35.8019L20.8693 35.8512C20.7516 35.8648 20.5951 35.8841 20.4773 35.8965L19.9292 35.9463C19.7388 35.9579 19.485 35.9754 19.2945 35.9839L18.3415 36C17.092 35.9579 16.9899 35.9545 16.1715 35.8583L14.8924 35.6553C14.4075 35.5437 13.7591 35.4009 13.2799 35.2683L11.9721 34.8407C11.5523 34.6687 10.9871 34.451 10.5748 34.2625L9.33108 33.6312C8.95591 33.4042 8.44749 33.1137 8.08185 32.8724L6.94387 32.0555C6.61244 31.7771 6.16016 31.4173 5.8403 31.1265L4.83754 30.1395C4.55415 29.8134 4.1636 29.3886 3.89372 29.0519L3.05183 27.9095C2.82233 27.5395 2.50153 27.0543 2.28752 26.6756L1.63082 25.3922C1.46175 24.982 1.21967 24.4412 1.06785 24.0248L0.620325 22.6147L0.614356 22.5929L0.286848 21.1514C0.224929 20.7135 0.124774 20.1318 0.0813175 19.692L0 18.2602C0.0109107 17.8286 0.00839304 17.252 0.0372085 16.8211L0.188466 15.4231C0.268291 15.0039 0.358654 14.4419 0.455452 14.0261L0.824924 12.6861C0.970027 12.2859 1.1487 11.7467 1.30975 11.3524L1.88186 10.0965C2.08935 9.72078 2.3527 9.21262 2.5752 8.84509L3.32907 7.70362C3.5982 7.35634 3.94604 6.88483 4.22925 6.54835L5.12402 5.56614C5.46197 5.24553 5.90548 4.8105 6.25706 4.50415L7.16069 3.77548C7.60793 3.45904 8.2083 3.04181 8.6713 2.74743L9.09449 2.49879C9.73896 2.14607 10.938 1.48953 12.7659 0.886078L12.9579 0.826368C13.0135 0.809671 13.0876 0.78762 13.1431 0.770833L13.3124 0.72183L13.4776 0.675732L13.636 0.632991L13.7927 0.592157L13.9493 0.552773L14.1066 0.514661L14.2697 0.476638L14.4359 0.439342L14.6152 0.400867C14.6707 0.389524 14.7446 0.373553 14.8002 0.363026L15.0098 0.322463C15.0756 0.310486 15.1631 0.294151 15.2288 0.282718L15.4924 0.238344C15.576 0.225458 15.6876 0.207762 15.7714 0.195421L16.1329 0.146147C16.2505 0.132445 16.4071 0.113116 16.5249 0.100684L17.0731 0.0510468C17.2634 0.0394315 17.5172 0.0217363 17.7078 0.013297C20.0595 -0.086522 22.3676 0.378181 24.4915 1.32219Z" fill="#36AD3B"/>
<path id="Vector_10" d="M23.5737 0.948435C9.45025 -1.53824 5.116 12.8611 11.4978 21.4703C14.9591 26.1397 24.9585 33.064 33.7751 24.6645C40.4273 16.8457 34.7069 3.54699 23.5737 0.948435C21.7096 0.257234 19.7246 -0.0723495 17.7078 0.0133132C18.192 0.00360361 18.8379 0.00269636 19.3221 0.0135857L20.5005 0.101335C21.0452 0.176381 21.771 0.280918 22.3113 0.382189L23.623 0.700884C24.0702 0.843987 24.6699 1.02475 25.1103 1.1861L26.3925 1.71876C26.7891 1.91894 27.3248 2.17376 27.7128 2.38927L28.9072 3.11623C29.2608 3.36959 29.7414 3.69544 30.0844 3.96215L31.1574 4.86677C31.4653 5.1696 31.8874 5.5627 32.1827 5.87721L33.1075 6.94438C33.3646 7.2931 33.7209 7.74882 33.9635 8.10726L34.7151 9.3225C34.915 9.71326 35.1974 10.227 35.3807 10.6255L35.9349 11.9745C36.071 12.4035 36.2699 12.9706 36.3877 13.4045L36.7153 14.8459C36.8049 15.4798 36.922 16.3262 36.9729 16.9642L37 18.3903C36.9729 18.8197 36.9538 19.3937 36.9091 19.8217L36.7069 21.2087C36.6119 21.624 36.5009 22.1816 36.3892 22.593L35.972 23.9161C35.8124 24.3112 35.6142 24.844 35.4389 25.2327L34.8232 26.4654C34.6018 26.8349 34.3193 27.3352 34.083 27.6959L33.292 28.8058C33.0083 29.1466 32.6404 29.6094 32.3429 29.9386L31.428 30.8744C31.0711 31.1906 30.6007 31.6189 30.2299 31.9199L29.3681 32.5674C28.8802 32.8914 28.2206 33.3106 27.7158 33.6088L27.3232 33.8207C26.8338 34.0681 25.688 34.6475 24.2359 35.1111L24.044 35.1709C23.9884 35.1876 23.9145 35.2105 23.8588 35.2264L23.6896 35.2754L23.5244 35.3214L23.3662 35.3641L23.2093 35.405L23.0527 35.4445L22.8954 35.4826L22.7324 35.5207L22.5662 35.5579L22.3869 35.5964C22.3313 35.6078 22.2575 35.6234 22.2019 35.6343L21.9922 35.6749C21.9266 35.6868 21.839 35.7032 21.7733 35.7146L21.5098 35.759C21.4262 35.7719 21.3145 35.7895 21.2308 35.8019L20.8693 35.8512C20.7516 35.8648 20.5951 35.8841 20.4773 35.8965L19.9292 35.9463C19.7388 35.9579 19.485 35.9754 19.2945 35.9839L18.3415 36C17.092 35.9579 16.9899 35.9545 16.1715 35.8583L14.8924 35.6553C14.4075 35.5437 13.7591 35.4008 13.2799 35.2682L11.9721 34.8408C11.5523 34.6687 10.9871 34.451 10.5748 34.2624L9.33108 33.6312C8.95591 33.4043 8.44749 33.1137 8.08185 32.8724L6.94387 32.0554C6.61244 31.7772 6.16016 31.4173 5.8403 31.1265L4.83754 30.1395C4.55415 29.8134 4.1636 29.3886 3.89372 29.0519L3.05183 27.9095C2.82233 27.5394 2.50153 27.0543 2.28752 26.6755L1.63082 25.3922C1.46175 24.982 1.21967 24.4412 1.06785 24.0248L0.620325 22.6147L0.614356 22.5929L0.286848 21.1513C0.224929 20.7136 0.124774 20.1319 0.0813175 19.6919L0 18.2603C0.0109107 17.8285 0.00839304 17.252 0.0372085 16.821L0.188466 15.423C0.268291 15.0039 0.358654 14.4419 0.455452 14.026L0.824924 12.6862C0.970027 12.2859 1.1487 11.7467 1.30975 11.3524L1.88186 10.0966C2.08935 9.72078 2.3527 9.21261 2.5752 8.8451L3.32907 7.70363C3.5982 7.35635 3.94604 6.88485 4.22925 6.54836L5.12402 5.56614C5.46197 5.24555 5.90548 4.81052 6.25706 4.50416L7.16069 3.77548C7.60793 3.45906 8.2083 3.04181 8.6713 2.74744L9.09449 2.4988C9.73896 2.14599 10.938 1.48945 12.7659 0.886002L12.9579 0.826293C13.0135 0.809596 13.0876 0.787545 13.1431 0.770757L13.3124 0.721755L13.4776 0.675657L13.636 0.632916L13.7927 0.592081L13.9493 0.552698L14.1066 0.514586L14.2697 0.476563L14.4359 0.439267L14.6152 0.400792C14.6707 0.389449 14.7446 0.373478 14.8002 0.362952L15.0098 0.322389C15.0756 0.310411 15.1631 0.294077 15.2288 0.282643L15.4924 0.238269C15.576 0.225383 15.6876 0.207687 15.7714 0.195346L16.1329 0.146072C16.2505 0.13237 16.4071 0.113041 16.5249 0.10061L17.0731 0.0509723C17.2634 0.039357 17.5172 0.0217525 17.7078 0.0133132C19.7246 -0.0723495 21.7096 0.257234 23.5737 0.948435Z" fill="#35A839"/>
<path id="Vector_11" d="M22.6346 0.634065C8.85921 -1.18509 3.87666 13.0415 11.6362 22.8457C15.2849 27.4557 25.4125 33.0124 33.3929 25.6548C33.6085 25.4079 33.8961 25.0786 34.1118 24.8318C40.8633 16.5947 34.3203 2.79977 22.6346 0.634065C21.0489 0.159198 19.3894 -0.0580441 17.7078 0.0132811C18.192 0.00357143 18.8379 0.00266384 19.3221 0.0135532L20.5005 0.101303C21.0452 0.176349 21.771 0.280887 22.3113 0.382158L23.623 0.700852C24.0702 0.843956 24.6699 1.02472 25.1103 1.18607L26.3925 1.71874C26.7891 1.91891 27.3248 2.17372 27.7128 2.38924L28.9072 3.1162C29.2608 3.36955 29.7414 3.69542 30.0844 3.96212L31.1574 4.86675C31.4653 5.16956 31.8874 5.56267 32.1827 5.87719L33.1075 6.94434C33.3646 7.29308 33.7209 7.7488 33.9635 8.10724L34.7151 9.32248C34.915 9.71324 35.1974 10.227 35.3807 10.6254L35.9349 11.9745C36.071 12.4034 36.2699 12.9705 36.3877 13.4044L36.7153 14.8459C36.8049 15.4797 36.922 16.3262 36.9729 16.9642L37 18.3903C36.9729 18.8197 36.9538 19.3937 36.9091 19.8218L36.7069 21.2087C36.6119 21.624 36.5009 22.1817 36.3892 22.5931L35.972 23.9161C35.8124 24.3112 35.6142 24.844 35.4389 25.2327L34.8232 26.4654C34.6018 26.8349 34.3193 27.3352 34.083 27.6958L33.292 28.8058C33.0083 29.1465 32.6404 29.6094 32.3429 29.9386L31.428 30.8744C31.0711 31.1906 30.6007 31.6189 30.2299 31.9199L29.3681 32.5674C28.8802 32.8914 28.2206 33.3106 27.7158 33.6088L27.3232 33.8207C26.8338 34.0681 25.688 34.6475 24.2359 35.1111L24.0439 35.1709C23.9884 35.1876 23.9145 35.2105 23.8588 35.2264L23.6896 35.2754L23.5244 35.3214L23.3662 35.3642L23.2093 35.405L23.0527 35.4445L22.8954 35.4826L22.7324 35.5207L22.5662 35.5579L22.3869 35.5964C22.3313 35.6078 22.2575 35.6234 22.2019 35.6343L21.9922 35.6749C21.9266 35.6868 21.839 35.7032 21.7733 35.7146L21.5098 35.759C21.4262 35.7719 21.3145 35.7895 21.2308 35.8019L20.8693 35.8512C20.7516 35.8648 20.5951 35.8841 20.4773 35.8965L19.9292 35.9463C19.7388 35.9579 19.485 35.9754 19.2945 35.9839L18.3415 36C17.092 35.9579 16.9899 35.9545 16.1715 35.8583L14.8924 35.6553C14.4075 35.5437 13.7591 35.4008 13.2799 35.2683L11.9721 34.8407C11.5523 34.6687 10.9871 34.451 10.5748 34.2625L9.33107 33.6312C8.95591 33.4042 8.44749 33.1137 8.08185 32.8724L6.94387 32.0554C6.61244 31.7771 6.16016 31.4173 5.8403 31.1264L4.83754 30.1395C4.55415 29.8134 4.1636 29.3886 3.89372 29.0518L3.05183 27.9095C2.82233 27.5395 2.50153 27.0543 2.28752 26.6755L1.63082 25.3922C1.46175 24.982 1.21967 24.4412 1.06785 24.0248L0.620325 22.6147L0.614356 22.5929L0.286848 21.1513C0.224928 20.7135 0.124774 20.1318 0.0813172 19.6919L0 18.2602C0.0109107 17.8286 0.00839273 17.252 0.0372082 16.821L0.188466 15.423C0.268291 15.0039 0.358654 14.4419 0.455452 14.026L0.824924 12.6861C0.970027 12.2859 1.1487 11.7467 1.30975 11.3524L1.88186 10.0965C2.08935 9.72076 2.3527 9.21259 2.5752 8.84508L3.32907 7.7036C3.5982 7.35632 3.94604 6.88481 4.22925 6.54834L5.12401 5.56612C5.46197 5.24552 5.90548 4.81049 6.25706 4.50413L7.16069 3.77546C7.60793 3.45903 8.2083 3.04179 8.6713 2.74742L9.09449 2.49877C9.73887 2.14605 10.9379 1.48952 12.7659 0.886061L12.9578 0.826352C13.0134 0.809655 13.0875 0.787604 13.143 0.770816L13.3123 0.721814L13.4775 0.675716L13.6359 0.632976L13.7926 0.59214L13.9492 0.552757L14.1065 0.514645L14.2696 0.476622L14.4358 0.439326L14.6151 0.40085C14.6706 0.389508 14.7445 0.373537 14.8002 0.36301L15.0097 0.322448C15.0755 0.31047 15.1629 0.294135 15.2287 0.282702L15.4923 0.238328C15.5759 0.225442 15.6875 0.207747 15.7713 0.195405L16.1328 0.146132C16.2504 0.132428 16.407 0.1131 16.5248 0.100668L17.073 0.0510308C17.2633 0.0394156 17.5172 0.0217203 17.7078 0.0132811C19.3894 -0.0580441 21.0489 0.159198 22.6346 0.634065Z" fill="#33A338"/>
<path id="Vector_12" d="M26.843 2.25517C24.5302 0.953943 23.1404 0.690015 21.7963 0.434776C20.5611 0.0989724 19.2873 -0.0455046 18 0.0193395C18.244 0.013548 18.5692 0.0057915 18.8131 0L19.5491 0.0196496L20.6798 0.119656C21.2025 0.205184 21.8991 0.324324 22.4175 0.439741L23.6762 0.80295C24.1053 0.966043 24.6808 1.17206 25.1034 1.35593L26.3338 1.963C26.7144 2.19115 27.2284 2.48155 27.6007 2.72718C27.7205 2.80909 27.8802 2.91819 28 3C27.6702 2.78674 27.2305 2.50235 26.9007 2.28909C26.8835 2.27895 26.8606 2.26499 26.843 2.25517Z" fill="#329E36"/>
<path id="Vector_13" d="M21.6638 0.377744C7.91315 -1.02824 3.10601 13.8322 11.0715 23.3602C15.113 28.1945 24.6255 33.3605 32.9453 26.6426C33.1439 26.445 33.4087 26.1817 33.6073 25.9842C37.9694 20.8139 37.2306 15.377 35.8425 11.7265L36.3098 13.1259L36.3877 13.4045L36.7153 14.8458C36.8049 15.4798 36.922 16.3261 36.9729 16.9641L37 18.3903C36.9729 18.8197 36.9538 19.3936 36.9091 19.8217L36.7069 21.2086C36.6119 21.624 36.5009 22.1816 36.3892 22.593L35.972 23.9161C35.8124 24.3112 35.6142 24.8439 35.4389 25.2327L34.8232 26.4654C34.6018 26.8349 34.3193 27.3352 34.083 27.6959L33.292 28.8058C33.0083 29.1465 32.6404 29.6093 32.3429 29.9385L31.428 30.8744C31.0711 31.1906 30.6007 31.6188 30.2299 31.9198L29.3681 32.5674C28.8802 32.8914 28.2206 33.3105 27.7158 33.6088L27.3232 33.8206C26.8338 34.0682 25.688 34.6475 24.2359 35.1111L24.044 35.1709C23.9884 35.1875 23.9145 35.2104 23.8588 35.2264L23.6896 35.2753L23.5244 35.3214L23.3662 35.3641L23.2093 35.4049L23.0527 35.4444L22.8954 35.4826L22.7324 35.5207L22.5662 35.5578L22.3869 35.5964C22.3313 35.6078 22.2575 35.6234 22.2019 35.6343L21.9922 35.6748C21.9266 35.6867 21.839 35.7031 21.7733 35.7146L21.5098 35.7589C21.4262 35.7718 21.3145 35.7895 21.2308 35.8018L20.8693 35.8511C20.7516 35.8648 20.5951 35.884 20.4773 35.8965L19.9292 35.9462C19.7388 35.9579 19.485 35.9754 19.2945 35.9838L18.3415 36C17.092 35.9579 16.9899 35.9545 16.1715 35.8583L14.8924 35.6553C14.4075 35.5437 13.7591 35.4008 13.2799 35.2682L11.9721 34.8408C11.5523 34.6687 10.9871 34.451 10.5748 34.2624L9.33108 33.6311C8.95591 33.4043 8.44749 33.1137 8.08185 32.8723L6.94387 32.0554C6.61244 31.7771 6.16016 31.4173 5.8403 31.1265L4.83754 30.1394C4.55415 29.8133 4.1636 29.3886 3.89372 29.0519L3.05183 27.9094C2.82233 27.5394 2.50153 27.0543 2.28752 26.6755L1.63082 25.3922C1.46175 24.982 1.21967 24.4413 1.06785 24.0247L0.620325 22.6146L0.614356 22.5928L0.286848 21.1513C0.224929 20.7136 0.124774 20.1319 0.0813172 19.6919L0 18.2603C0.0109107 17.8285 0.00839273 17.252 0.0372082 16.8211L0.188466 15.4231C0.268291 15.0039 0.358654 14.4418 0.455452 14.0261L0.824924 12.6861C0.970027 12.2858 1.1487 11.7467 1.30975 11.3523L1.88186 10.0966C2.08935 9.72078 2.3527 9.21261 2.5752 8.84509L3.32907 7.70363C3.5982 7.35635 3.94604 6.88484 4.22925 6.54836L5.12401 5.56614C5.46197 5.24554 5.90548 4.81051 6.25706 4.50416L7.16069 3.77548C7.60793 3.45906 8.2083 3.04182 8.6713 2.74744L9.09449 2.4988C9.73878 2.14598 10.9378 1.48945 12.7658 0.886003L12.9577 0.826293C13.0133 0.809596 13.0874 0.787545 13.1429 0.770757L13.3122 0.721756L13.4774 0.675657L13.6358 0.632917L13.7925 0.592082L13.9491 0.552699L14.1064 0.514586L14.2695 0.476565L14.4357 0.439269L14.6151 0.400793C14.6705 0.389449 14.7444 0.373479 14.8001 0.362953L15.0097 0.32239C15.0755 0.310412 15.1628 0.294078 15.2286 0.282644L15.4922 0.23827C15.5758 0.225385 15.6874 0.207689 15.7712 0.195348L16.1327 0.146074C16.2503 0.132372 16.4068 0.113043 16.5247 0.10061L17.0729 0.0509736C17.2632 0.0393584 17.517 0.0217539 17.7076 0.0133146C19.0492 -0.0436727 20.3767 0.0830969 21.6638 0.377744Z" fill="#329E36"/>
<path id="Vector_14" d="M24.3683 0.803136C22.805 0.368771 21.9061 0.263384 20.8935 0.170728C19.9435 0.0304359 18.9755 -0.0231852 18 0.015766C18.2511 0.0110446 18.5857 0.00472135 18.8367 0L19.5939 0.0160191L20.7574 0.0975463C21.2952 0.16727 22.0119 0.264396 22.5453 0.358486L23.8404 0.654582L25 1L24.3683 0.803136Z" fill="#309934"/>
<path id="Vector_15" d="M20.6385 0.180124C7.25673 -0.512891 1.6021 14.7628 11.4711 24.9452C11.8845 25.3716 21.7157 35.2998 32.4274 27.626C32.5031 27.5615 32.6037 27.4753 32.6793 27.4107C34.1048 26.0255 37.8917 22.3466 36.7785 15.2115L36.9512 16.6497L36.9729 16.9642L37 18.3903C36.9729 18.8198 36.9538 19.3937 36.9091 19.8218L36.7069 21.2087C36.6119 21.6241 36.5009 22.1817 36.3892 22.5931L35.972 23.9162C35.8124 24.3112 35.6142 24.844 35.4389 25.2328L34.8232 26.4654C34.6018 26.8349 34.3193 27.3352 34.083 27.696L33.292 28.8059C33.0083 29.1466 32.6404 29.6094 32.3429 29.9386L31.428 30.8744C31.0711 31.1906 30.6007 31.6189 30.2299 31.9199L29.3681 32.5675C28.8802 32.8914 28.2206 33.3106 27.7158 33.6089L27.3232 33.8207C26.8338 34.0681 25.688 34.6475 24.2359 35.1111L24.044 35.1709C23.9884 35.1876 23.9145 35.2105 23.8588 35.2264L23.6896 35.2754L23.5244 35.3214L23.3662 35.3642L23.2093 35.405L23.0527 35.4445L22.8954 35.4826L22.7324 35.5208L22.5662 35.5579L22.3869 35.5965C22.3313 35.6078 22.2575 35.6234 22.2019 35.6343L21.9922 35.6749C21.9266 35.6868 21.839 35.7032 21.7733 35.7146L21.5098 35.759C21.4262 35.7719 21.3145 35.7895 21.2308 35.8019L20.8693 35.8512C20.7516 35.8648 20.5951 35.8841 20.4773 35.8965L19.9292 35.9463C19.7388 35.9579 19.485 35.9754 19.2945 35.9839L18.3415 36C17.092 35.9579 16.9899 35.9545 16.1715 35.8583L14.8924 35.6553C14.4075 35.5437 13.7591 35.4009 13.2799 35.2683L11.9721 34.8408C11.5523 34.6687 10.9871 34.451 10.5748 34.2625L9.33108 33.6312C8.95591 33.4043 8.44749 33.1137 8.08185 32.8724L6.94387 32.0555C6.61244 31.7772 6.16016 31.4173 5.8403 31.1266L4.83754 30.1395C4.55415 29.8134 4.1636 29.3886 3.89372 29.052L3.05183 27.9095C2.82233 27.5395 2.50153 27.0543 2.28752 26.6756L1.63082 25.3922C1.46175 24.982 1.21967 24.4412 1.06785 24.0248L0.620325 22.6147L0.614356 22.5929L0.286848 21.1514C0.224929 20.7136 0.124774 20.1319 0.0813175 19.692L0 18.2603C0.0109107 17.8286 0.00839304 17.252 0.0372085 16.8211L0.188466 15.4231C0.268291 15.0039 0.358654 14.4419 0.455452 14.0261L0.824924 12.6862C0.970027 12.2859 1.1487 11.7467 1.30975 11.3524L1.88186 10.0966C2.08935 9.72081 2.3527 9.21264 2.5752 8.84512L3.32907 7.70366C3.5982 7.35637 3.94604 6.88487 4.22925 6.54838L5.12402 5.56617C5.46197 5.24557 5.90548 4.81054 6.25706 4.50419L7.16069 3.7755C7.60793 3.45908 8.2083 3.04184 8.6713 2.74746L9.09449 2.49883C9.73896 2.14601 10.938 1.48947 12.7659 0.886024L12.9579 0.826315C13.0135 0.809618 13.0876 0.787567 13.1431 0.770779L13.3124 0.721777L13.4776 0.675679L13.636 0.632938L13.7927 0.592103L13.9493 0.55272L14.1066 0.514608L14.2697 0.476585L14.4359 0.439289L14.6152 0.400814C14.6707 0.389471 14.7446 0.3735 14.8002 0.362974L15.0098 0.32241C15.0756 0.310433 15.1631 0.294099 15.2288 0.282665L15.4924 0.238291C15.576 0.225405 15.6876 0.207709 15.7714 0.195368L16.1329 0.146094C16.2505 0.132392 16.4071 0.113063 16.5249 0.100632L17.0731 0.0509942C17.2634 0.039379 17.5172 0.0217745 17.7078 0.0133353C18.6959 -0.0286794 19.6763 0.0290342 20.6385 0.180124Z" fill="#309934"/>
<path id="Vector_16" d="M19.5497 0.0500943C5.1765 -0.133663 1.49665 15.9596 10.5863 25.2368C14.4796 29.2104 23.3317 34.396 31.8138 28.6266C32.0354 28.4437 32.3308 28.1999 32.5525 28.0169C33.6277 27.0701 36.8996 24.1888 37 18.0339L36.9402 19.4483L36.905 19.8217L36.7028 21.2086C36.6078 21.624 36.4968 22.1816 36.3851 22.593L35.9679 23.9161C35.8084 24.3112 35.6102 24.8439 35.4349 25.2327L34.8193 26.4654C34.5979 26.8349 34.3155 27.3352 34.0792 27.6958L33.2883 28.8058C33.0046 29.1465 32.6367 29.6093 32.3392 29.9385L31.4244 30.8744C31.0676 31.1906 30.5972 31.6189 30.2265 31.9198L29.3648 32.5674C28.877 32.8914 28.2175 33.3105 27.7128 33.6088L27.3201 33.8206C26.8308 34.0681 25.6851 34.6475 24.2332 35.1111L24.0413 35.1709C23.9857 35.1875 23.9118 35.2104 23.8561 35.2264L23.6869 35.2752L23.5217 35.3214L23.3636 35.3641L23.2067 35.405L23.0501 35.4444L22.8929 35.4826L22.7298 35.5207L22.5637 35.5578L22.3844 35.5964C22.3288 35.6078 22.255 35.6234 22.1994 35.6343L21.9898 35.6748C21.9241 35.6867 21.8366 35.7031 21.7708 35.7146L21.5075 35.7589C21.4238 35.7718 21.3121 35.7895 21.2284 35.8018L20.8669 35.8512C20.7493 35.8648 20.5928 35.8841 20.475 35.8965L19.927 35.9463C19.7366 35.9579 19.4828 35.9754 19.2923 35.9838L18.3394 36C17.0901 35.9579 16.988 35.9545 16.1697 35.8583L14.8908 35.6553C14.4059 35.5437 13.7576 35.4008 13.2784 35.2682L11.9707 34.8407C11.551 34.6687 10.9859 34.451 10.5736 34.2624L9.33003 33.6312C8.95491 33.4042 8.44654 33.1137 8.08094 32.8723L6.94309 32.0554C6.61171 31.777 6.15947 31.4173 5.83965 31.1264L4.83701 30.1395C4.55364 29.8133 4.16313 29.3886 3.89328 29.0518L3.05149 27.9094C2.82201 27.5394 2.50125 27.0543 2.28726 26.6755L1.63064 25.3922C1.46159 24.9819 1.21953 24.4412 1.06773 24.0247L0.620255 22.6147L0.614288 22.5928L0.286816 21.1513C0.224904 20.7135 0.12476 20.1318 0.0813084 19.6919L0 18.2602C0.0109094 17.8285 0.0083921 17.252 0.0372043 16.821L0.188445 15.423C0.268261 15.0039 0.358615 14.4418 0.455402 14.026L0.824831 12.6861C0.969918 12.2858 1.14857 11.7467 1.3096 11.3523L1.88165 10.0965C2.08912 9.72073 2.35244 9.21256 2.57492 8.84505L3.3287 7.70357C3.5978 7.35629 3.9456 6.88478 4.22877 6.54831L5.12345 5.56609C5.46136 5.24549 5.90483 4.81046 6.25636 4.5041L7.15989 3.77543C7.60708 3.459 8.20738 3.04176 8.67033 2.74739L9.09348 2.49874C9.73788 2.14602 10.9368 1.48949 12.7645 0.886032L12.9564 0.826323C13.012 0.809626 13.0861 0.787575 13.1416 0.770787L13.3109 0.721785L13.4761 0.675687L13.6345 0.632946L13.7912 0.592111L13.9477 0.552729L14.1051 0.514616L14.2681 0.476593L14.4342 0.439298L14.6135 0.400822C14.669 0.389479 14.7429 0.373508 14.7985 0.362981L15.0081 0.322419C15.0739 0.310441 15.1614 0.294107 15.2271 0.282673L15.4906 0.238298C15.5743 0.225413 15.6859 0.207718 15.7696 0.195377L16.1311 0.146102C16.2487 0.1324 16.4052 0.113072 16.523 0.100639L17.0711 0.051002C17.2615 0.0393867 17.5152 0.0217822 17.7058 0.0133429C18.3243 -0.0129729 18.9398 -0.000178075 19.5497 0.0500943Z" fill="#2E9432"/>
<path id="Vector_17" d="M18.4776 6.05861e-05C4.7255 0.40478 0.10389 16.9319 10.9849 26.794C11.9986 27.7127 21.1779 35.598 31.2441 29.6755C31.4584 29.5219 31.7442 29.317 31.9586 29.1633C35.9266 26.1767 36.6788 22.3186 37 20.6713L36.7296 22.0418L36.5881 22.593L36.1686 23.9161C36.0082 24.3112 35.8088 24.8439 35.6326 25.2327L35.0136 26.4654C34.7909 26.8349 34.5069 27.3351 34.2693 27.6959L33.474 28.8058C33.1888 29.1465 32.8188 29.6093 32.5197 29.9385L31.5998 30.8744C31.2409 31.1906 30.7679 31.6188 30.3952 31.9198L29.5286 32.5674C29.0381 32.8914 28.3749 33.3105 27.8673 33.6088L27.4725 33.8206C26.9805 34.0682 25.8284 34.6475 24.3684 35.1111L24.1754 35.1708C24.1195 35.1875 24.0452 35.2104 23.9892 35.2264L23.8191 35.2753L23.653 35.3214L23.4939 35.3641L23.3362 35.4049L23.1787 35.4444L23.0206 35.4826L22.8566 35.5207L22.6896 35.5578L22.5093 35.5964C22.4534 35.6078 22.3791 35.6234 22.3232 35.6343L22.1125 35.6748C22.0465 35.6867 21.9584 35.7031 21.8923 35.7146L21.6274 35.7589C21.5434 35.7718 21.431 35.7895 21.3468 35.8018L20.9833 35.8511C20.8651 35.8648 20.7077 35.884 20.5892 35.8965L20.0382 35.9462C19.8467 35.9579 19.5915 35.9754 19.3999 35.9838L18.4418 36C17.1854 35.9579 17.0828 35.9544 16.2599 35.8583L14.9738 35.6553C14.4863 35.5437 13.8343 35.4008 13.3525 35.2682L12.0375 34.8408C11.6154 34.6687 11.0472 34.451 10.6326 34.2624L9.38209 33.6311C9.00487 33.4043 8.49367 33.1136 8.12603 32.8723L6.98182 32.0554C6.64859 31.7771 6.19384 31.4173 5.87223 31.1265L4.86398 30.1394C4.57904 29.8133 4.18636 29.3886 3.915 29.0519L3.06851 27.9094C2.83776 27.5394 2.51521 27.0543 2.30002 26.6755L1.63974 25.3922C1.46974 24.982 1.22634 24.4413 1.07369 24.0247L0.623715 22.6146L0.617714 22.5928L0.288417 21.1513C0.226158 20.7136 0.125456 20.1319 0.081762 19.6919L0 18.2603C0.0109703 17.8285 0.00843892 17.252 0.0374119 16.8211L0.189496 15.4231C0.269757 15.0039 0.360615 14.4418 0.457941 14.0261L0.829433 12.6861C0.975329 12.2858 1.15498 11.7467 1.31691 11.3523L1.89215 10.0966C2.10077 9.72077 2.36556 9.2126 2.58928 8.84509L3.34727 7.70362C3.61787 7.35633 3.96761 6.88483 4.25236 6.54835L5.15203 5.56613C5.49183 5.24554 5.93776 4.81051 6.29126 4.50415L7.19983 3.77548C7.64952 3.45906 8.25317 3.04181 8.7187 2.74744L9.1442 2.49879C9.7922 2.14598 10.9978 1.48945 12.8357 0.885997L13.0287 0.826288C13.0846 0.809591 13.1591 0.78754 13.2149 0.770752L13.3851 0.72175L13.5513 0.675652L13.7105 0.632912L13.8681 0.592077L14.0255 0.552693L14.1838 0.514581L14.3477 0.476559L14.5148 0.439263L14.6951 0.400787C14.7509 0.389444 14.8252 0.373474 14.8811 0.362947L15.0919 0.322385C15.158 0.310407 15.2459 0.294072 15.312 0.282639L15.5771 0.238265C15.6612 0.225379 15.7734 0.207684 15.8576 0.195342L16.2211 0.146069C16.3394 0.132366 16.4967 0.113037 16.6152 0.100605L17.1664 0.0509682C17.3578 0.0393529 17.613 0.0217485 17.8046 0.0133093C18.0294 0.00378109 18.2538 -0.000574618 18.4776 6.05861e-05Z" fill="#2D8F31"/>
<path id="Vector_18" d="M30.0104 30.7664C30.2081 30.642 30.4718 30.476 30.6695 30.3516C33.2494 28.6596 35.0429 26.2878 36 23.3021L35.5263 24.6089L35.281 25.1827L34.6681 26.4211C34.4476 26.7923 34.1664 27.2949 33.9311 27.6573L33.1437 28.7724C32.8613 29.1147 32.495 29.5797 32.1988 29.9104L31.288 30.8506C30.9327 31.1683 30.4643 31.5985 30.0953 31.901L29.2372 32.5514C28.7516 32.8769 28.0949 33.2981 27.5925 33.5977L27.2014 33.8106C26.7142 34.0592 25.5736 34.6412 24.1279 35.107L23.9369 35.167C23.8815 35.1838 23.8079 35.2068 23.7525 35.2228L23.5841 35.272L23.4196 35.3182L23.2621 35.3613L23.1059 35.4022L22.95 35.4419L22.7934 35.4802L22.6311 35.5184L22.4657 35.5559L22.2872 35.5946C22.2318 35.606 22.1583 35.6217 22.103 35.6326L21.8943 35.6734C21.8289 35.6853 21.7417 35.7018 21.6763 35.7133L21.414 35.7579C21.3308 35.7709 21.2196 35.7886 21.1362 35.801L20.7763 35.8505C20.6592 35.8642 20.5034 35.8836 20.3861 35.8961L19.8404 35.9461C19.6509 35.9577 19.3982 35.9753 19.2085 35.9838L18.2598 36C17.0159 35.9577 16.9142 35.9543 16.0995 35.8576L14.8261 35.6537C14.3433 35.5416 13.6978 35.398 13.2207 35.2648L11.9187 34.8354C11.5008 34.6625 10.9382 34.4438 10.5276 34.2543L9.28951 33.6202C8.91601 33.3922 8.40986 33.1003 8.04584 32.8579L6.91293 32.0371C6.58299 31.7575 6.13272 31.396 5.81428 31.1038L4.816 30.1122C4.53386 29.7846 4.14505 29.3579 3.87637 29.0196L3.03823 27.8719C2.80975 27.5002 2.49039 27.0128 2.27733 26.6322L1.62356 25.3429C1.45524 24.9308 1.21423 24.3875 1.0631 23.9691L0.617561 22.5525L0.611619 22.5306L0.285571 21.0823C0.223927 20.6425 0.124218 20.0581 0.0809552 19.6162L0 18.1778C0.010862 17.7441 0.00835565 17.1649 0.0370427 16.7319L0.187626 15.3274C0.267096 14.9064 0.357057 14.3417 0.453424 13.9239L0.821248 12.5778C0.965705 12.1757 1.14358 11.634 1.30391 11.2379L1.87348 9.9762C2.08004 9.59869 2.34222 9.08816 2.56373 8.71894L3.31424 7.57215C3.58217 7.22327 3.92846 6.74957 4.2104 6.41153L5.1012 5.42474C5.43764 5.10265 5.87918 4.66561 6.22918 4.35782L7.12879 3.62576C7.57404 3.30787 8.17173 2.88868 8.63267 2.59294L9.05398 2.34314C9.69557 1.98869 10.8893 1.32911 12.7091 0.722856L12.9002 0.662868C12.9555 0.646093 13.0293 0.62394 13.0845 0.607074L13.2531 0.557844L13.4176 0.511532L13.5752 0.468593L13.7313 0.427568L13.8871 0.388002L14.0438 0.349713L14.2061 0.311514L14.3715 0.274045L14.5501 0.235391C14.6053 0.223994 14.6789 0.207949 14.7342 0.197374L14.943 0.156623C15.0084 0.144589 15.0955 0.128179 15.1609 0.116692L15.4234 0.0721119C15.5066 0.059166 15.6177 0.0413893 15.7011 0.0289909C15.7626 0.0202382 15.8445 0.00866063 15.9059 0C15.9025 0.00045545 15.8982 0.00100299 15.8949 0.00154953C1.83912 2.03747 -0.255307 20.6737 12.5993 29.326C15.2501 31.1102 22.253 34.8222 30.0104 30.7664Z" fill="#2B8A2F"/>
<path id="Vector_19" d="M29.0206 32.0638C31.6523 30.7867 33.4963 29.0718 35 26.5032L34.2878 27.6805L34.2598 27.7228L33.4647 28.8292C33.1796 29.1688 32.8097 29.63 32.5106 29.9582L31.591 30.891C31.2323 31.2062 30.7594 31.6331 30.3868 31.933L29.5204 32.5785C29.03 32.9015 28.367 33.3192 27.8596 33.6165L27.4649 33.8277C26.973 34.0744 25.8213 34.6519 24.3616 35.114L24.1686 35.1736C24.1128 35.1901 24.0385 35.2129 23.9825 35.2289L23.8125 35.2776L23.6464 35.3236L23.4874 35.3662L23.3297 35.4069L23.1723 35.4462L23.0142 35.4843L22.8503 35.5222L22.6833 35.5593L22.503 35.5977C22.4471 35.6091 22.3729 35.6246 22.3171 35.6355L22.1063 35.6759C22.0403 35.6877 21.9523 35.7041 21.8862 35.7155L21.6214 35.7597C21.5374 35.7726 21.4251 35.7902 21.3409 35.8025L20.9775 35.8517C20.8593 35.8652 20.702 35.8845 20.5835 35.8969L20.0326 35.9465C19.8412 35.958 19.5861 35.9755 19.3946 35.9838L18.4366 36C17.1807 35.958 17.0781 35.9546 16.2554 35.8587L14.9697 35.6564C14.4822 35.5452 13.8305 35.4027 13.3488 35.2706L12.0342 34.8445C11.6122 34.673 11.0441 34.456 10.6296 34.268L9.37947 33.6389C9.00237 33.4127 8.49131 33.1231 8.12377 32.8825L6.97989 32.0682C6.64674 31.7908 6.19212 31.4322 5.8706 31.1423L4.86263 30.1585C4.57777 29.8333 4.1852 29.4101 3.91392 29.0744L3.06766 27.9357C2.83697 27.5669 2.51451 27.0833 2.29938 26.7058L1.63928 25.4266C1.46933 25.0177 1.226 24.4788 1.07339 24.0635L0.623543 22.6581L0.617543 22.6363L0.288337 21.1995C0.226095 20.7632 0.125421 20.1834 0.081739 19.7448L0 18.3178C0.0109673 17.8874 0.00843627 17.3129 0.0374012 16.8833L0.189444 15.4898C0.269683 15.0721 0.360515 14.5118 0.457814 14.0973L0.829203 12.7618C0.975059 12.3627 1.15466 11.8254 1.31654 11.4323L1.89162 10.1806C2.10019 9.80603 2.3649 9.29951 2.58856 8.93319L3.34634 7.79542C3.61687 7.44926 3.96651 6.97928 4.25118 6.64389L5.1506 5.66487C5.49031 5.3453 5.93612 4.91169 6.28952 4.60633L7.19783 3.88002C7.6474 3.56462 8.25088 3.14873 8.71628 2.85531L9.14166 2.60748C9.78939 2.2559 10.9947 1.60149 12.8322 1L12.5919 1.07824C-0.874573 5.90664 0.282619 24.7408 14.468 31.6125C17.2559 32.963 22.8537 34.8175 29.0206 32.0638Z" fill="#2A852D"/>
<path id="Vector_20" d="M33.5191 12.0169C36.165 21.0758 27.3725 26.4126 19.8509 22.921C11.1326 18.874 12.8348 6.82184 20.4979 4.38105C25.5726 2.76467 31.9008 6.47554 33.5191 12.0169Z" fill="#43D649"/>
<path id="Vector_21" d="M33.5804 11.5404C35.9118 19.5688 28.1274 25.5681 20.1458 21.8941C12.7509 18.4902 13.5001 6.87063 21.2751 4.38314C26.5448 2.69712 32.217 6.84612 33.5804 11.5404Z" fill="#45DB4B"/>
<path id="Vector_22" d="M32.9475 13.7174C33.8341 22.4254 23.2758 25.757 17.6461 20.453C12.2622 15.3808 15.6274 5.57563 22.9411 5.02429C28.2756 4.62224 32.496 9.283 32.9475 13.7174Z" fill="#46E04D"/>
<path id="Vector_23" d="M31.9761 13.1916C32.5314 20.6151 23.2787 24.8617 17.6275 19.7768C12.2479 14.9362 15.6779 5.41426 22.9466 5.01083C27.3338 4.76732 31.6376 8.66657 31.9761 13.1916Z" fill="#48E64E"/>
<path id="Vector_24" d="M31.9826 13.652C32.4461 21.1754 23.5419 24.3577 18.6808 20.0778C15.6113 17.3752 15.7665 13.3156 16.3086 11.8787C17.376 9.04895 20.2354 6.00231 23.991 6C27.6226 5.99778 31.7005 9.072 31.9826 13.652Z" fill="#4AEB50"/>
<path id="Vector_25" d="M30.9824 13.0599C31.427 20.142 23.3428 23.197 18.7497 19.2731C13.5314 14.8152 16.3572 7.43258 22.0744 6.16312C26.3709 5.20909 30.7 8.56076 30.9824 13.0599Z" fill="#4BF052"/>
<path id="Vector_26" d="M30.9789 13.5007C31.4219 19.0915 24.8026 23.3663 19.0023 19.5363C13.6756 16.0189 15.8267 8.1088 22.3873 7.08965C26.2437 6.49056 30.6164 8.92368 30.9789 13.5007Z" fill="#4DF554"/>
<path id="Vector_27" d="M29.9811 12.9927C30.4277 19.3182 22.872 21.9586 18.5548 18.4076C12.9431 13.7917 17.6748 7.46261 22.2352 7.03563C26.5884 6.62801 29.7549 9.78677 29.9811 12.9927Z" fill="#4EFA55"/>
<path id="Vector_28" d="M29.984 13.497C30.368 19.18 23.772 22.0838 19.1259 18.2774C14.6236 14.5888 17.9047 8.30144 23.0856 8.0117C27.2729 7.77757 29.8223 11.1065 29.984 13.497Z" fill="#50FF57"/>
<path id="Vector_29" d="M28.9484 13.4344C29.6036 18.7596 23.8789 21.568 19.9935 19.0886C15.3582 16.1308 16.4967 10.0872 20.7384 8.37657C23.2612 7.35914 28.3043 8.19959 28.9484 13.4344Z" fill="#65FF6B"/>
<path id="Vector_30" d="M28.9543 13.9686C29.5656 18.7051 23.9047 21.402 20.2164 19.249C15.0027 16.2057 16.814 10.6764 20.7866 9.31509C24.0487 8.19723 28.4584 10.125 28.9543 13.9686Z" fill="#6EFF74"/>
<path id="Vector_31" d="M28.8694 15.8204C28.2957 18.1895 25.9107 19.8999 24.3658 19.9878C19.9949 20.237 18.4515 16.5815 18.3841 16.4179C17.7999 15.0029 17.9973 13.9924 18.2259 12.8227C18.2281 12.8107 19.3008 10.776 19.5317 10.5438C20.0292 10.0439 20.8149 9.41309 21.4986 9.28279C23.717 8.85986 23.9752 8.91095 25.3292 9.43855C28.7385 10.7668 29.3142 13.9828 28.8694 15.8204Z" fill="#74FF7A"/>
<path id="Vector_32" d="M28.8173 15.304C28.4235 16.7168 27.2733 17.681 26.6552 18.1989C26.1202 18.6472 25.1338 18.9623 24.4161 18.9925C20.7172 19.1479 18.9333 16.8549 18.4258 15.7411C16.5873 11.7059 21.0738 7.97941 24.779 9.25452C29.4933 10.877 29.1737 14.0256 28.8173 15.304Z" fill="#7AFF7F"/>
<path id="Vector_33" d="M27.8053 15.7734C27.7861 15.829 27.3199 17.1438 26.0441 18.1908C25.5203 18.6208 24.5765 18.9783 23.8742 19L21.3624 18.7223C19.8399 17.9143 19.0013 17.4692 18.3443 16.065C17.824 14.9528 17.7377 13.0566 19.2065 11.3728C19.659 10.8543 20.555 10.3922 21.2427 10.1864C21.9101 9.98695 22.8879 9.94892 23.5781 10.0658C24.3997 10.2049 25.4251 10.6903 26.1133 11.1258C26.6023 11.4354 27.0819 12.044 27.416 12.495C28.3175 13.7119 27.942 15.3121 27.8053 15.7734Z" fill="#7FFF84"/>
<path id="Vector_34" d="M26.9837 14.8502C26.9599 15.1508 27.0282 15.5768 26.908 15.8525C26.6211 16.5104 26.128 17.3488 25.659 17.8878C25.3336 18.2619 23.3935 18.9917 23.3743 18.9986C23.3065 19.0231 21.0915 18.7139 20.9311 18.6574C20.3993 18.4705 19.7764 17.9939 19.3745 17.5933C17.3764 15.6027 18.0606 13.0575 18.3532 12.4848C18.9781 11.2618 19.0741 11.0739 20.9826 10.1064C21.0047 10.0952 23.2123 9.99229 23.2539 10.0005C24.5494 10.2576 27.2335 11.6859 26.9837 14.8502Z" fill="#83FF88"/>
<path id="Vector_35" d="M27.7813 15.3405C27.5571 15.9289 27.0506 16.6724 26.5291 17.0766C26.4297 17.1536 24.434 17.9989 24.35 17.9996C21.9418 18.0178 20.288 17.3679 19.3433 15.4046C18.3248 13.2886 19.8954 11.3841 19.9122 11.3665C20.3975 10.8571 21.2786 10.345 21.9868 10.1452C22.6774 9.95047 23.6888 9.96761 24.3966 10.1021C26.4167 10.4859 28.7279 12.8549 27.7813 15.3405Z" fill="#88FF8C"/>
<path id="Vector_36" d="M26.7579 15.4742C26.583 15.9688 26.2157 16.6063 25.8191 16.9415C25.725 17.021 23.8284 18.0005 23.7692 18C23.6881 17.9994 21.3449 17.5908 21.3112 17.5714C20.6585 17.1937 19.7816 16.514 19.3099 15.4202C18.4343 13.3898 19.691 11.489 19.7051 11.4732C20.1807 10.9361 20.9865 10.3352 21.6647 10.1254C22.3284 9.91986 23.2996 9.99475 23.9759 10.1514C24.7367 10.3277 27.8881 12.2765 26.7579 15.4742Z" fill="#8BFF90"/>
<path id="Vector_37" d="M26.7202 15.9292C26.5765 16.2695 26.2965 16.718 25.9767 16.944C25.3922 17.3571 24.5359 18.0164 23.7899 17.9997C22.9799 17.9817 21.8412 17.9149 21.1342 17.5625C20.0438 17.0189 19.31 15.7754 19.3041 15.7636C18.4941 14.139 19.5572 12.4219 19.5704 12.4094C20.1013 11.912 20.9353 11.2917 21.6741 11.0964C22.3974 10.9054 23.4535 11.031 24.1866 11.1897C24.9201 11.3486 27.9195 13.0897 26.7202 15.9292Z" fill="#8FFF93"/>
<path id="Vector_38" d="M25.7115 16.0701C25.6213 16.3078 25.4583 16.6298 25.2596 16.783C24.6918 17.2209 23.9196 18.0326 23.2104 17.999C22.4406 17.9625 21.3651 17.8698 20.6904 17.4875C20.1156 17.1619 19.2702 15.7762 19.2649 15.764C18.7214 14.516 19.1416 12.8096 19.3986 12.5479C20.4387 11.488 21.3449 11.0021 21.3513 11.0001C21.3637 10.9962 23.6317 11.1291 23.7535 11.1898C24.3075 11.4661 25.1129 11.934 25.3475 12.5188C25.5471 13.0162 25.9314 13.653 25.9862 14.1881C26.0442 14.7558 25.9132 15.5382 25.7115 16.0701Z" fill="#92FF97"/>
<path id="Vector_39" d="M26.6492 15.5203C26.392 16.0874 24.28 17.0011 24.2633 17C23.4791 16.9501 22.3888 16.858 21.6976 16.5252C21.2441 16.3068 20.3658 15.1311 20.3608 15.121C20.1346 14.6731 19.8937 13.9791 20.0497 13.5081C20.3829 12.502 20.3829 12.502 21.5364 11.5705C21.7776 11.3758 22.1014 11.038 22.4266 11.0164C23.2177 10.9639 24.333 11.0289 25.0458 11.338C26.3952 11.9231 27.6248 13.3695 26.6492 15.5203Z" fill="#96FF9A"/>
<path id="Vector_40" d="M25.6234 16.5855C25.5034 16.8664 23.6354 18.001 23.6219 18C21.4167 17.8197 20.5753 16.8929 20.2579 16.147C20.2526 16.1347 19.7606 14.8231 20.1496 13.8052C20.4001 13.15 21.2525 12.6193 21.7774 12.1718C21.9427 12.0308 22.2601 11.9813 22.4727 12.0062C23.1051 12.08 23.9716 12.2005 24.5417 12.4944C24.9158 12.6873 25.4812 12.9787 25.9608 14.7929C26.1006 15.3213 25.8376 16.0846 25.6234 16.5855Z" fill="#99FF9D"/>
<path id="Vector_41" d="M25.7587 15.397C25.2255 16.4588 23.665 16.9994 23.6518 16.9997C22.746 17.017 20.6556 16.254 20.2716 15.5021C20.266 15.491 19.9128 13.997 20.0204 13.7909C20.3752 13.1109 21.2405 12.2443 22.0772 12.042C22.9066 11.8416 24.0431 12.412 24.8662 12.6307C24.9939 12.6645 25.118 12.7908 25.2096 12.8743C25.6046 13.2342 25.878 13.8957 25.9837 14.3812C26.0501 14.6861 25.9017 15.112 25.7587 15.397Z" fill="#9CFFA0"/>
<path id="Vector_42" d="M25.9308 14.8489C25.9225 14.8684 24.7936 16.849 24.0009 16.9918C23.801 17.028 23.5217 16.9375 23.3395 16.8487C22.6421 16.5085 21.6088 16.1479 21.0908 15.5729C20.9468 15.4132 21.0159 13.6977 21.0211 13.6853C21.2842 13.0478 21.9817 12.2365 22.6515 12.0559C23.4079 11.8519 24.5764 12.2348 25.1712 12.7415C25.1836 12.752 26.2818 14.0265 25.9308 14.8489Z" fill="#9FFFA2"/>
<path id="Vector_43" d="M23.4501 15.9716C23.4381 15.9822 23.4207 15.997 23.4046 15.9998C23.3031 16.0174 21.1681 14.8054 21.1593 14.791C20.896 14.3509 20.9967 13.5715 21.1902 13.099C21.3613 12.6806 21.836 12.1518 22.2875 12.0343C22.8002 11.901 23.5672 12.1791 23.9955 12.4808C24.437 12.792 25.0167 13.4199 24.9996 13.946C24.9752 14.6998 24.0231 15.4561 23.4501 15.9716Z" fill="#A1FFA5"/>
<path id="Vector_44" d="M22.812 15.9865C22.2458 16.0878 21.4194 15.5998 21.1362 15.165C20.8714 14.7579 21.0477 14.0574 21.2024 13.6101C21.2847 13.3719 21.5992 13.0853 21.8774 13.0206C22.1947 12.9467 22.6863 13.0819 22.9352 13.267C23.3614 13.584 24.0126 14.1138 23.9998 14.5989C23.9861 15.1162 23.3996 15.8815 22.812 15.9865Z" fill="#A4FFA8"/>
<path id="Vector_45" d="M23.2171 15.9886C22.8444 16.0733 22.2961 15.6711 22.1142 15.3108C21.8432 14.7736 22.1276 13.8798 22.2187 13.2765C22.2355 13.166 22.3615 13.0398 22.4619 13.0106C22.5769 12.9769 22.766 13.0261 22.8458 13.1214C23.2425 13.5947 24.0076 14.2078 23.9999 14.845C23.995 15.2711 23.6046 15.9003 23.2171 15.9886Z" fill="#A7FFAA"/>
<path id="Vector_46" d="M23.6143 14.9969C23.4305 15.02 23.1602 14.91 23.0715 14.8115C22.878 14.5963 23.1354 14.2435 23.1629 14C23.414 14.2054 24.001 14.4305 24 14.6845C23.9995 14.8008 23.8055 14.9729 23.6143 14.9969Z" fill="#A9FFAD"/>
</g>
</svg>
