<svg width="36" height="35" viewBox="0 0 36 35" fill="none" xmlns="http://www.w3.org/2000/svg">
<g id="Group">
<path id="Vector" d="M35.395 13.0304C35.5809 13.7753 36.0745 15.7539 35.9905 17.8772C35.9552 18.7641 35.8731 20.8413 34.9906 23.2491C34.3374 25.0314 33.5335 26.4975 32.384 28.0026C31.892 28.6467 31.1587 29.4503 30.571 30.0135C29.8656 30.6893 29.5905 30.8948 28.5673 31.6592C28.3722 31.805 26.5845 33.1098 23.9446 34.0096C21.5236 34.8349 19.5683 34.9386 18.8323 34.9777C16.9172 35.0792 13.1035 34.9175 9.07758 32.6933C7.94829 32.0693 6.2734 30.9739 4.70681 29.2988C4.13636 28.6888 3.43548 27.8199 2.96988 27.1311C2.49685 26.4311 1.96586 25.4365 1.5877 24.684C1.03485 23.5836 0.420497 21.5289 0.280447 20.5613C0.159082 19.7225 0.0160387 18.5978 0.00143503 17.7509C-0.0128059 16.9218 0.0811657 15.8158 0.184752 14.9927C0.35147 13.668 0.925277 11.8126 1.26316 11.0655C1.59823 10.3247 2.0591 9.33936 2.48016 8.64122C2.89914 7.94671 3.50904 7.04242 4.05491 6.43709C4.5918 5.84164 5.3228 5.05706 5.92291 4.52177C5.93271 4.51304 6.97628 3.60063 7.88407 3.02124C8.62251 2.54991 9.15595 2.20931 10.5627 1.57301C11.1182 1.32169 12.0114 0.958684 13.1106 0.656901C14.956 0.150196 16.3369 0.0659505 17.1621 0.0156681C24.3767 -0.290526 31.1147 4.77001 33.2571 12.6663C31.1147 4.77001 24.3767 -0.290525 17.2253 0.0129335C18.1318 -0.00523869 18.9147 -0.020853 19.9417 0.098502C21.7447 0.307924 22.7882 0.620734 22.9791 0.681337C24.3711 1.12312 24.9472 1.30608 25.6728 1.67085C27.5178 2.59842 27.582 2.64438 29.225 3.82152C29.2459 3.83651 31.3709 5.39492 33.0233 7.86114C34.579 10.183 35.2003 12.2497 35.395 13.0304Z" fill="#2753D1"/>
<path id="Vector_2" d="M30.4449 6.71596C21.0083 -1.95325 12.6186 5.82578 13.1334 13.3983C13.7417 22.3488 25.774 25.7004 31.1414 20.3029C32.7294 18.706 33.6414 16.3584 33.5812 14.023C33.5402 13.617 33.4855 13.0758 33.4445 12.6699C33.0592 11.0843 32.5315 8.91259 30.4449 6.71596C27.2834 2.34334 22.3627 -0.201306 17.2292 0.0164962C17.4767 0.0115562 17.8064 0.00494002 18.0538 0L18.7999 0.016761L19.9464 0.102064C20.4764 0.175019 21.1827 0.276641 21.7083 0.375089L22.9846 0.684899C23.4196 0.824013 24.0032 0.999736 24.4316 1.15658L25.6792 1.67441C26.0651 1.869 26.5863 2.11671 26.9638 2.32622L28.1261 3.03291C28.4701 3.2792 28.9375 3.59598 29.2713 3.85524L30.3153 4.73466C30.6149 5.02903 31.0256 5.41118 31.313 5.71693L32.2128 6.75433C32.4628 7.09334 32.8096 7.53636 33.0457 7.88481L33.777 9.06617C33.9715 9.44603 34.2462 9.9455 34.4245 10.3327L34.9638 11.6443C35.0962 12.0613 35.2896 12.6125 35.4044 13.0344L35.723 14.4355C35.8102 15.0518 35.9241 15.8746 35.9737 16.4948L36 17.8812C35.9737 18.2986 35.9551 18.8566 35.9117 19.2727L35.7148 20.621C35.6224 21.0247 35.5144 21.5668 35.4057 21.9668L34.9997 23.2529C34.8446 23.637 34.6517 24.1549 34.4811 24.5329L33.8821 25.7312C33.6666 26.0904 33.3918 26.5767 33.1619 26.9274L32.3922 28.0064C32.1162 28.3375 31.7583 28.7874 31.4688 29.1075L30.5786 30.0173C30.2313 30.3247 29.7737 30.7409 29.4129 31.0336L28.5744 31.6631C28.0998 31.978 27.458 32.3854 26.9668 32.6754L26.5847 32.8814C26.1086 33.122 24.9937 33.6852 23.581 34.1359L23.3941 34.194C23.34 34.2102 23.2682 34.2324 23.2139 34.248L23.0493 34.2955L22.8887 34.3403L22.7346 34.3818L22.582 34.4215L22.4297 34.4599L22.2766 34.497L22.1181 34.534L21.9564 34.5702L21.7819 34.6077C21.7278 34.6187 21.6559 34.6339 21.6018 34.6445L21.3979 34.6839C21.334 34.6954 21.2488 34.7114 21.1849 34.7225L20.9285 34.7656C20.8471 34.7782 20.7385 34.7954 20.6571 34.8074L20.3053 34.8553C20.1909 34.8686 20.0385 34.8873 19.9239 34.8994L19.3906 34.9477C19.2054 34.9591 18.9584 34.9761 18.7731 34.9842L17.8458 35C16.6301 34.9591 16.5307 34.9557 15.7344 34.8622L14.49 34.6649C14.0182 34.5565 13.3873 34.4175 12.9209 34.2886L11.6486 33.8731C11.2401 33.7058 10.6901 33.4942 10.289 33.3108L9.07889 32.6973C8.71387 32.4766 8.21919 32.1942 7.86342 31.9595L6.75621 31.1654C6.43374 30.8948 5.99368 30.5451 5.68246 30.2623L4.7068 29.3028C4.43106 28.9857 4.05108 28.5729 3.78849 28.2456L2.96935 27.135C2.74605 26.7753 2.43393 26.3037 2.2257 25.9355L1.58675 24.6879C1.42225 24.2891 1.18671 23.7635 1.03899 23.3585L0.60356 21.9877L0.597753 21.9666L0.279096 20.5652C0.218849 20.1397 0.121402 19.5742 0.0791199 19.1465L0 17.7548C0.0106158 17.3351 0.00816624 16.7747 0.0362029 16.3557L0.183373 14.9967C0.26104 14.5892 0.348961 14.0428 0.443143 13.6386L0.80263 12.336C0.943811 11.9469 1.11766 11.4228 1.27435 11.0394L1.831 9.81868C2.03289 9.45335 2.28912 8.95935 2.50561 8.60208L3.2391 7.49242C3.50095 7.15483 3.83939 6.69646 4.11495 6.36937L4.98554 5.41453C5.31435 5.10287 5.74588 4.67997 6.08795 4.38215L6.96716 3.67379C7.40232 3.36619 7.98646 2.96057 8.43695 2.67441L8.8487 2.4327C9.47576 2.08972 10.6424 1.45149 12.421 0.864857L12.6077 0.806812C12.6617 0.79058 12.734 0.769144 12.7879 0.752825L12.9525 0.705188L13.1134 0.660375L13.2674 0.618826L13.4199 0.57913L13.5723 0.540844L13.7254 0.503795L13.8841 0.466832L14.0458 0.430576L14.2202 0.393173C14.2742 0.382146 14.3461 0.366621 14.4002 0.356387L14.6042 0.316956C14.6682 0.305312 14.7533 0.289433 14.8173 0.278318L15.0736 0.235181C15.155 0.222654 15.2636 0.205452 15.3451 0.193455L15.697 0.145554C15.8113 0.132234 15.9637 0.113444 16.0782 0.101359L16.6116 0.0531054C16.7968 0.0418138 17.0437 0.0247002 17.2292 0.0164962C22.3627 -0.201306 27.2834 2.34334 30.4449 6.71596Z" fill="#2753D1"/>
<path id="Vector_3" d="M29.3024 5.29577C19.7327 -1.42741 11.8423 5.61946 12.6883 13.5219C13.7447 23.3878 26.7113 26.4697 31.9352 20.137C33.0338 18.8052 33.472 17.5932 33.8576 15.9498C34.6078 24.1363 29.9925 31.9581 22.5538 34.3124C29.9925 31.9581 34.5636 24.1363 33.8377 15.9498C33.9285 14.3298 34.2548 9.39968 29.2924 5.29577C26.1534 1.79788 21.775 -0.180103 17.2243 0.0129309C17.6954 0.00349094 18.3263 0.0026089 18.7975 0.0131957L19.9452 0.0985084C20.4751 0.171469 21.1821 0.273103 21.7077 0.37156L22.9843 0.681402C23.4192 0.820532 24.003 0.99627 24.4314 1.15314L25.6791 1.67101C26.065 1.86563 26.5863 2.11336 26.9638 2.32289L28.1261 3.02966C28.4701 3.27597 28.9375 3.59278 29.2713 3.85208L30.3153 4.73158C30.6149 5.02599 31.0256 5.40817 31.313 5.71395L32.2128 6.75146C32.4628 7.0905 32.8096 7.53357 33.0457 7.88205L33.777 9.06354C33.9715 9.44344 34.2462 9.94292 34.4245 10.3303L34.9638 11.6419C35.0962 12.0589 35.2896 12.6102 35.4044 13.0321L35.723 14.4335C35.8102 15.0498 35.9241 15.8727 35.9737 16.493L36 17.8795C35.9737 18.2969 35.9551 18.855 35.9117 19.2712L35.7148 20.6196C35.6224 21.0233 35.5144 21.5655 35.4057 21.9655L34.9997 23.2518C34.8446 23.6359 34.6517 24.1539 34.4811 24.5319L33.8821 25.7302C33.6666 26.0895 33.3918 26.5759 33.1619 26.9265L32.3922 28.0057C32.1162 28.3369 31.7583 28.7869 31.4688 29.107L30.5786 30.0168C30.2313 30.3242 29.7737 30.7406 29.4129 31.0332L28.5744 31.6627C28.0998 31.9777 27.458 32.3853 26.9668 32.6752L26.5847 32.8813C26.1086 33.1218 24.9937 33.6851 23.581 34.1358L23.3941 34.1939C23.34 34.2102 23.2682 34.2324 23.2139 34.2479L23.0493 34.2955L22.8887 34.3402L22.7346 34.3819L22.582 34.4215L22.4297 34.4599L22.2766 34.497L22.1181 34.534L21.9564 34.5702L21.7819 34.6077C21.7278 34.6187 21.6559 34.6339 21.6018 34.6445L21.3979 34.6839C21.334 34.6955 21.2488 34.7115 21.1849 34.7225L20.9285 34.7657C20.8471 34.7783 20.7385 34.7954 20.6571 34.8074L20.3053 34.8553C20.1909 34.8686 20.0385 34.8874 19.9239 34.8994L19.3906 34.9478C19.2054 34.9591 18.9584 34.9761 18.7731 34.9843L17.8458 35C16.6301 34.9591 16.5307 34.9557 15.7344 34.8622L14.49 34.6648C14.0182 34.5564 13.3873 34.4174 12.9209 34.2885L11.6486 33.873C11.2401 33.7057 10.6901 33.494 10.289 33.3107L9.07889 32.697C8.71387 32.4764 8.21919 32.1939 7.86342 31.9593L6.75621 31.165C6.43374 30.8945 5.99368 30.5446 5.68246 30.2618L4.7068 29.3023C4.43106 28.9852 4.05108 28.5723 3.78849 28.2449L2.96935 27.1343C2.74605 26.7745 2.43393 26.3028 2.2257 25.9345L1.58675 24.6868C1.42225 24.2881 1.18671 23.7623 1.03899 23.3574L0.60356 21.9865L0.597753 21.9653L0.279096 20.5637C0.218849 20.1382 0.121402 19.5726 0.0791199 19.145L0 17.753C0.0106158 17.3333 0.00816624 16.7728 0.0362029 16.3538L0.183373 14.9946C0.26104 14.5872 0.348961 14.0407 0.443143 13.6364L0.80263 12.3337C0.943811 11.9446 1.11766 11.4204 1.27435 11.0371L1.831 9.81608C2.03289 9.45075 2.28912 8.9567 2.50561 8.5994L3.2391 7.48963C3.50095 7.152 3.83939 6.69359 4.11495 6.36646L4.98554 5.41152C5.31435 5.09983 5.74588 4.67688 6.08795 4.37903L6.96716 3.6706C7.40232 3.36297 7.98646 2.95731 8.43695 2.67111L8.8487 2.42938C9.47576 2.08636 10.6424 1.44807 12.421 0.861379L12.6077 0.803328C12.6617 0.787094 12.734 0.765656 12.7879 0.749335L12.9525 0.701694L13.1134 0.656876L13.2674 0.615323L13.4199 0.575622L13.5723 0.537333L13.7254 0.500279L13.8841 0.463313L14.0458 0.427053L14.2202 0.389647C14.2742 0.378618 14.3461 0.363091 14.4002 0.352857L14.6042 0.313421C14.6682 0.301776 14.7533 0.285895 14.8173 0.274779L15.0736 0.231638C15.155 0.21911 15.2636 0.201907 15.3451 0.189908L15.697 0.142003C15.8113 0.12868 15.9637 0.109889 16.0782 0.0978022L16.6116 0.0495439C16.7968 0.0382512 17.0437 0.0211357 17.2292 0.0129309C21.78 -0.180103 26.1634 1.79779 29.3024 5.29577Z" fill="#2651CC"/>
<path id="Vector_4" d="M28.2972 4.27013C17.3747 -1.85242 10.2039 6.99172 12.5604 15.2306C15.5258 25.5982 29.144 26.8302 33.1685 19.2381C33.1738 19.2285 33.7598 18.0061 33.9352 17.416C34.0077 17.0437 34.1044 16.5471 34.177 16.1747C34.5779 13.4806 33.7908 7.94153 28.2972 4.27013C25.2614 1.41797 21.3126 -0.156669 17.2292 0.0164962C17.4767 0.0115561 17.8064 0.00494003 18.0538 0L18.7999 0.0167607L19.9464 0.102064C20.4764 0.175019 21.1827 0.276642 21.7083 0.375089L22.9846 0.6849C23.4196 0.824014 24.0032 0.999738 24.4316 1.15658L25.6792 1.6744C26.0651 1.86901 26.5863 2.11671 26.9638 2.32622L28.1261 3.03291C28.4701 3.27921 28.9375 3.59599 29.2713 3.85525L30.3153 4.73466C30.6149 5.02903 31.0256 5.41119 31.313 5.71694L32.2128 6.75434C32.4628 7.09335 32.8096 7.53637 33.0457 7.88482L33.777 9.06618C33.9715 9.44603 34.2462 9.94547 34.4245 10.3328L34.9638 11.6442C35.0962 12.0613 35.2896 12.6125 35.4044 13.0343L35.723 14.4356C35.8102 15.0518 35.9241 15.8746 35.9737 16.4949L36 17.8812C35.9737 18.2986 35.9551 18.8566 35.9117 19.2728L35.7148 20.621C35.6224 21.0247 35.5144 21.5668 35.4057 21.9668L34.9997 23.2529C34.8446 23.637 34.6517 24.155 34.4811 24.5328L33.8821 25.7312C33.6666 26.0904 33.3918 26.5767 33.1619 26.9273L32.3922 28.0064C32.1162 28.3376 31.7583 28.7875 31.4688 29.1076L30.5786 30.0173C30.2313 30.3247 29.7737 30.741 29.4129 31.0336L28.5744 31.6631C28.0998 31.978 27.458 32.3855 26.9668 32.6754L26.5847 32.8815C26.1086 33.122 24.9937 33.6852 23.581 34.1359L23.3941 34.194C23.34 34.2103 23.2682 34.2325 23.2139 34.248L23.0493 34.2956L22.8887 34.3403L22.7346 34.3819L22.582 34.4216L22.4297 34.46L22.2766 34.497L22.1181 34.534L21.9564 34.5703L21.7819 34.6077C21.7278 34.6187 21.6559 34.6339 21.6018 34.6445L21.3979 34.684C21.334 34.6955 21.2488 34.7115 21.1849 34.7225L20.9285 34.7657C20.8471 34.7783 20.7385 34.7954 20.6571 34.8075L20.3053 34.8554C20.1909 34.8686 20.0385 34.8874 19.9239 34.8994L19.3906 34.9478C19.2054 34.9591 18.9584 34.9761 18.7731 34.9843L17.8458 35C16.6301 34.9591 16.5307 34.9557 15.7344 34.8622L14.49 34.6649C14.0182 34.5565 13.3873 34.4175 12.9209 34.2886L11.6486 33.8731C11.2401 33.7058 10.6901 33.4942 10.289 33.3109L9.07889 32.6973C8.71387 32.4766 8.21919 32.1942 7.86343 31.9596L6.75621 31.1654C6.43374 30.8949 5.99368 30.545 5.68246 30.2623L4.7068 29.3028C4.43106 28.9858 4.05108 28.5729 3.78849 28.2455L2.96935 27.1351C2.74605 26.7753 2.43393 26.3037 2.2257 25.9355L1.58675 24.6879C1.42225 24.2892 1.18671 23.7635 1.03899 23.3586L0.60356 21.9878L0.597753 21.9667L0.279096 20.5652C0.218849 20.1397 0.121401 19.5742 0.0791196 19.1465L0 17.7548C0.0106158 17.3351 0.00816584 16.7747 0.0362026 16.3557L0.183373 14.9966C0.26104 14.5892 0.348961 14.0429 0.443143 13.6386L0.80263 12.3361C0.94381 11.947 1.11766 11.4228 1.27435 11.0395L1.831 9.81865C2.03289 9.45336 2.28912 8.95936 2.50561 8.60209L3.2391 7.49243C3.50095 7.15483 3.83939 6.69647 4.11495 6.36937L4.98554 5.41454C5.31435 5.10288 5.74588 4.67997 6.08795 4.38216L6.96716 3.6738C7.40232 3.36619 7.98646 2.96058 8.43695 2.67441L8.8487 2.4327C9.47567 2.08981 10.6423 1.45157 12.4209 0.864946L12.6076 0.806901C12.6617 0.790669 12.7339 0.769233 12.7878 0.752914L12.9524 0.705277L13.1133 0.660464L13.2673 0.618914L13.4198 0.579219L13.5722 0.540933L13.7253 0.503883L13.884 0.466921L14.0457 0.430664L14.2201 0.393261C14.2741 0.382235 14.346 0.366709 14.4001 0.356476L14.6041 0.317045C14.6681 0.3054 14.7532 0.289521 14.8172 0.278406L15.0735 0.235269C15.1549 0.222742 15.2636 0.20554 15.345 0.193543L15.6969 0.145642C15.8112 0.132322 15.9636 0.113532 16.0781 0.101447L16.6115 0.0531936C16.7967 0.0419021 17.0436 0.0247002 17.2292 0.0164962C21.3126 -0.156669 25.2614 1.41797 28.2972 4.27013Z" fill="#254FC7"/>
<path id="Vector_5" d="M27.356 3.44695C15.4939 -1.93946 9.23142 8.06898 12.4681 16.7194C15.6634 25.2592 29.0948 28.2098 33.6821 19.2021C33.7587 19.0518 33.8424 18.843 33.911 18.6891C34.0172 18.3534 34.1587 17.9058 34.2649 17.5701C35.8499 8.56824 28.7879 4.22605 27.356 3.44695C24.4671 1.1159 20.9026 -0.142875 17.2292 0.012928C17.7003 0.00348808 18.3289 0.0026057 18.7999 0.0131925L19.9464 0.0985053C20.4764 0.171466 21.1827 0.273099 21.7083 0.371557L22.9846 0.681398C23.4196 0.820528 24.0032 0.996269 24.4316 1.15313L25.6792 1.671C26.0651 1.86562 26.5863 2.11336 26.9638 2.32289L28.1261 3.02965C28.4701 3.27597 28.9375 3.59278 29.2713 3.85207L30.3153 4.73157C30.6149 5.02597 31.0256 5.40816 31.313 5.71394L32.2128 6.75145C32.4628 7.09049 32.8096 7.53355 33.0457 7.88204L33.777 9.06353C33.9715 9.44342 34.2462 9.94296 34.4245 10.3302L34.9638 11.6419C35.0962 12.0589 35.2896 12.6102 35.4044 13.0321L35.723 14.4334C35.8102 15.0498 35.9241 15.8726 35.9737 16.4929L36 17.8794C35.9737 18.2969 35.9551 18.8549 35.9117 19.2711L35.7148 20.6195C35.6224 21.0233 35.5144 21.5654 35.4057 21.9655L34.9997 23.2518C34.8446 23.6359 34.6517 24.1538 34.4811 24.5318L33.8821 25.7302C33.6666 26.0895 33.3918 26.5758 33.1619 26.9265L32.3922 28.0057C32.1162 28.3368 31.7583 28.7868 31.4688 29.1069L30.5786 30.0167C30.2313 30.3242 29.7737 30.7405 29.4129 31.0331L28.5744 31.6627C28.0998 31.9777 27.458 32.3852 26.9668 32.6752L26.5847 32.8812C26.1086 33.1217 24.9937 33.6851 23.581 34.1358L23.3941 34.1938C23.34 34.2101 23.2682 34.2323 23.2139 34.2479L23.0493 34.2954L22.8887 34.3402L22.7346 34.3818L22.582 34.4214L22.4297 34.4598L22.2766 34.4969L22.1181 34.534L21.9564 34.5701L21.7819 34.6076C21.7278 34.6186 21.6559 34.6338 21.6018 34.6445L21.3979 34.6838C21.334 34.6954 21.2488 34.7114 21.1849 34.7225L20.9285 34.7656C20.8471 34.7782 20.7385 34.7954 20.6571 34.8073L20.3053 34.8552C20.1909 34.8685 20.0385 34.8873 19.9239 34.8994L19.3906 34.9477C19.2054 34.9591 18.9584 34.976 18.7731 34.9842L17.8458 35C16.6301 34.9591 16.5307 34.9556 15.7344 34.8622L14.49 34.6648C14.0182 34.5564 13.3873 34.4174 12.9209 34.2885L11.6486 33.8729C11.2401 33.7057 10.6901 33.494 10.289 33.3107L9.07889 32.6969C8.71387 32.4764 8.21919 32.1938 7.86342 31.9592L6.75621 31.165C6.43374 30.8944 5.99368 30.5446 5.68246 30.2618L4.7068 29.3022C4.43106 28.9851 4.05108 28.5722 3.78849 28.2449L2.96935 27.1342C2.74605 26.7744 2.43393 26.3028 2.2257 25.9346L1.58675 24.6867C1.42225 24.288 1.18671 23.7623 1.03899 23.3573L0.60356 21.9864L0.597753 21.9653L0.279096 20.5638C0.218849 20.1382 0.121402 19.5727 0.0791199 19.1449L0 17.7531C0.0106158 17.3333 0.00816624 16.7727 0.0362029 16.3538L0.183373 14.9946C0.26104 14.5871 0.348961 14.0407 0.443143 13.6364L0.80263 12.3337C0.943811 11.9446 1.11766 11.4205 1.27435 11.037L1.831 9.81612C2.03289 9.45074 2.28912 8.95669 2.50561 8.59939L3.2391 7.48962C3.50095 7.15198 3.83939 6.69357 4.11495 6.36644L4.98554 5.41151C5.31435 5.09982 5.74588 4.67687 6.08795 4.37903L6.96716 3.67059C7.40232 3.36296 7.98646 2.9573 8.43695 2.67111L8.8487 2.42937C9.47576 2.08645 10.6424 1.44815 12.421 0.861462L12.6077 0.803412C12.6617 0.787179 12.734 0.76574 12.7879 0.749419L12.9525 0.701778L13.1134 0.65696L13.2674 0.615407L13.4199 0.575706L13.5723 0.537417L13.7254 0.500364L13.8841 0.463397L14.0458 0.427138L14.2202 0.389731C14.2742 0.378703 14.3461 0.363176 14.4002 0.352942L14.6042 0.313506C14.6682 0.301861 14.7533 0.28598 14.8173 0.274864L15.0736 0.231723C15.155 0.219194 15.2636 0.201991 15.3451 0.189993L15.697 0.142088C15.8113 0.128765 15.9637 0.109975 16.0782 0.0978873L16.6116 0.049629C16.7968 0.0383364 17.0437 0.0211328 17.2292 0.012928C20.9026 -0.142875 24.4671 1.1159 27.356 3.44695Z" fill="#244DC2"/>
<path id="Vector_6" d="M26.4674 2.78185C14.7902 -2.15817 8.19388 8.76404 11.9829 17.1368C15.5278 24.9699 28.1302 29.4229 33.8131 19.8622C33.9031 19.6593 34.0229 19.3889 34.1128 19.1862C36.5081 11.616 31.9988 5.49234 26.4674 2.78185C23.7513 0.881265 20.5344 -0.123765 17.2292 0.0164962C17.4767 0.0115562 17.8064 0.00494002 18.0538 0L18.7999 0.016761L19.9464 0.102064C20.4764 0.175019 21.1827 0.276641 21.7083 0.375089L22.9846 0.684899C23.4196 0.824013 24.0032 0.999736 24.4316 1.15658L25.6792 1.67441C26.0651 1.869 26.5863 2.11671 26.9638 2.32622L28.1261 3.03291C28.4701 3.2792 28.9375 3.59598 29.2713 3.85524L30.3153 4.73466C30.6149 5.02903 31.0256 5.41118 31.313 5.71693L32.2128 6.75433C32.4628 7.09334 32.8096 7.53636 33.0457 7.88481L33.777 9.06617C33.9715 9.44603 34.2462 9.9455 34.4245 10.3327L34.9638 11.6443C35.0962 12.0613 35.2896 12.6125 35.4044 13.0344L35.723 14.4355C35.8102 15.0518 35.9241 15.8746 35.9737 16.4948L36 17.8812C35.9737 18.2986 35.9551 18.8566 35.9117 19.2727L35.7148 20.621C35.6224 21.0247 35.5144 21.5668 35.4057 21.9668L34.9997 23.2529C34.8446 23.637 34.6517 24.1549 34.4811 24.5329L33.8821 25.7312C33.6666 26.0904 33.3918 26.5767 33.1619 26.9274L32.3922 28.0064C32.1162 28.3375 31.7583 28.7874 31.4688 29.1075L30.5786 30.0173C30.2313 30.3247 29.7737 30.7409 29.4129 31.0336L28.5744 31.6631C28.0998 31.978 27.458 32.3854 26.9668 32.6754L26.5847 32.8814C26.1086 33.122 24.9937 33.6852 23.581 34.1359L23.3941 34.194C23.34 34.2102 23.2682 34.2324 23.2139 34.248L23.0493 34.2955L22.8887 34.3403L22.7346 34.3818L22.582 34.4215L22.4297 34.4599L22.2766 34.497L22.1181 34.534L21.9564 34.5702L21.7819 34.6077C21.7278 34.6187 21.6559 34.6339 21.6018 34.6445L21.3979 34.6839C21.334 34.6954 21.2488 34.7114 21.1849 34.7225L20.9285 34.7656C20.8471 34.7782 20.7385 34.7954 20.6571 34.8074L20.3053 34.8553C20.1909 34.8686 20.0385 34.8873 19.9239 34.8994L19.3906 34.9477C19.2054 34.9591 18.9584 34.9761 18.7731 34.9842L17.8458 35C16.6301 34.9591 16.5307 34.9557 15.7344 34.8622L14.49 34.6649C14.0182 34.5565 13.3873 34.4175 12.9209 34.2886L11.6486 33.8731C11.2401 33.7058 10.6901 33.4942 10.289 33.3108L9.07889 32.6973C8.71387 32.4766 8.21919 32.1942 7.86343 31.9595L6.75621 31.1654C6.43374 30.8948 5.99368 30.5451 5.68246 30.2623L4.7068 29.3028C4.43106 28.9857 4.05108 28.5729 3.78849 28.2456L2.96935 27.135C2.74605 26.7753 2.43393 26.3037 2.2257 25.9355L1.58675 24.6879C1.42225 24.2891 1.18671 23.7635 1.03899 23.3585L0.60356 21.9877L0.597753 21.9666L0.279096 20.5652C0.218849 20.1397 0.121401 19.5742 0.0791196 19.1465L0 17.7548C0.0106158 17.3351 0.00816584 16.7747 0.0362026 16.3557L0.183373 14.9967C0.26104 14.5892 0.348961 14.0428 0.443143 13.6386L0.80263 12.336C0.94381 11.9469 1.11766 11.4228 1.27435 11.0394L1.831 9.81868C2.03289 9.45335 2.28912 8.95935 2.50561 8.60208L3.2391 7.49242C3.50095 7.15483 3.83939 6.69646 4.11495 6.36937L4.98554 5.41453C5.31435 5.10287 5.74588 4.67997 6.08795 4.38215L6.96716 3.67379C7.40232 3.36619 7.98646 2.96057 8.43695 2.67441L8.8487 2.4327C9.47567 2.08972 10.6423 1.45149 12.4209 0.864857L12.6076 0.806812C12.6617 0.79058 12.7339 0.769144 12.7878 0.752825L12.9524 0.705188L13.1133 0.660375L13.2673 0.618826L13.4198 0.57913L13.5722 0.540844L13.7253 0.503795L13.884 0.466832L14.0457 0.430576L14.2201 0.393173C14.2741 0.382146 14.346 0.366621 14.4001 0.356387L14.6041 0.316956C14.6681 0.305312 14.7532 0.289433 14.8172 0.278318L15.0735 0.235181C15.1549 0.222654 15.2636 0.205452 15.345 0.193455L15.6969 0.145554C15.8112 0.132234 15.9636 0.113444 16.0781 0.101359L16.6115 0.0531054C16.7967 0.0418138 17.0436 0.0247002 17.2292 0.0164962C20.5344 -0.123765 23.7513 0.881265 26.4674 2.78185Z" fill="#234BBD"/>
<path id="Vector_7" d="M25.5881 2.20512C13.4843 -1.79354 7.74303 9.00338 11.4081 17.3065C14.6141 24.5695 26.6719 30.7236 33.6538 20.9613C33.6859 20.9051 33.7287 20.8301 33.7609 20.7739C37.5619 12.6092 32.3871 5.11306 25.5881 2.20512C23.0691 0.677699 20.1843 -0.112433 17.2292 0.0129333C17.7003 0.00349335 18.3289 0.0026113 18.7999 0.0131982L19.9464 0.0985103C20.4764 0.171471 21.1827 0.273105 21.7083 0.371562L22.9846 0.681404C23.4196 0.820534 24.0032 0.99628 24.4316 1.15314L25.6792 1.67101C26.0651 1.86564 26.5863 2.11337 26.9638 2.3229L28.1261 3.02966C28.4701 3.27598 28.9375 3.59279 29.2713 3.85208L30.3153 4.73159C30.6149 5.02599 31.0256 5.40817 31.313 5.71395L32.2128 6.75147C32.4628 7.09051 32.8096 7.53357 33.0457 7.88205L33.777 9.06355C33.9715 9.44344 34.2462 9.94292 34.4245 10.3303L34.9638 11.6419C35.0962 12.0589 35.2896 12.6102 35.4044 13.0321L35.723 14.4335C35.8102 15.0498 35.9241 15.8727 35.9737 16.493L36 17.8795C35.9737 18.297 35.9551 18.855 35.9117 19.2712L35.7148 20.6196C35.6224 21.0233 35.5144 21.5655 35.4057 21.9655L34.9997 23.2518C34.8446 23.6359 34.6517 24.1539 34.4811 24.5319L33.8821 25.7302C33.6666 26.0895 33.3918 26.5759 33.1619 26.9265L32.3922 28.0057C32.1162 28.3369 31.7583 28.7869 31.4688 29.107L30.5786 30.0168C30.2313 30.3242 29.7737 30.7406 29.4129 31.0332L28.5744 31.6627C28.0998 31.9777 27.458 32.3853 26.9668 32.6752L26.5847 32.8813C26.1086 33.1218 24.9937 33.6851 23.581 34.1358L23.3941 34.1939C23.34 34.2102 23.2682 34.2324 23.2139 34.2479L23.0493 34.2955L22.8887 34.3402L22.7346 34.3819L22.582 34.4215L22.4297 34.4599L22.2766 34.497L22.1181 34.534L21.9564 34.5702L21.7819 34.6077C21.7278 34.6187 21.6559 34.6339 21.6018 34.6445L21.3979 34.6839C21.334 34.6955 21.2488 34.7115 21.1849 34.7225L20.9285 34.7657C20.8471 34.7783 20.7385 34.7954 20.6571 34.8074L20.3053 34.8553C20.1909 34.8686 20.0385 34.8874 19.9239 34.8994L19.3906 34.9478C19.2054 34.9591 18.9584 34.9761 18.7731 34.9843L17.8458 35C16.6301 34.9591 16.5307 34.9557 15.7344 34.8622L14.49 34.6648C14.0182 34.5564 13.3873 34.4174 12.9209 34.2885L11.6486 33.873C11.2401 33.7057 10.6901 33.494 10.289 33.3107L9.07889 32.697C8.71387 32.4764 8.21919 32.1939 7.86343 31.9593L6.75621 31.165C6.43374 30.8945 5.99368 30.5446 5.68246 30.2618L4.7068 29.3023C4.43106 28.9852 4.05108 28.5723 3.78849 28.2449L2.96935 27.1343C2.74605 26.7745 2.43393 26.3028 2.2257 25.9345L1.58675 24.6868C1.42225 24.2881 1.18671 23.7623 1.03899 23.3574L0.60356 21.9865L0.597753 21.9653L0.279096 20.5637C0.218849 20.1382 0.121401 19.5726 0.0791196 19.145L0 17.753C0.0106158 17.3333 0.00816584 16.7728 0.0362026 16.3538L0.183373 14.9946C0.26104 14.5872 0.348961 14.0407 0.443143 13.6364L0.80263 12.3337C0.94381 11.9446 1.11766 11.4204 1.27435 11.0371L1.831 9.81608C2.03289 9.45076 2.28912 8.95671 2.50561 8.5994L3.2391 7.48964C3.50095 7.152 3.83939 6.69359 4.11495 6.36646L4.98554 5.41153C5.31435 5.09983 5.74588 4.67688 6.08795 4.37904L6.96716 3.6706C7.40232 3.36297 7.98646 2.95732 8.43695 2.67111L8.8487 2.42939C9.47567 2.08636 10.6423 1.44807 12.4209 0.861382L12.6076 0.80333C12.6617 0.787097 12.7339 0.765658 12.7878 0.749337L12.9524 0.701697L13.1133 0.656879L13.2673 0.615325L13.4198 0.575625L13.5722 0.537336L13.7253 0.500281L13.884 0.463316L14.0457 0.427056L14.2201 0.389649C14.2741 0.378621 14.346 0.363093 14.4001 0.35286L14.6041 0.313423C14.6681 0.301778 14.7532 0.285898 14.8172 0.274781L15.0735 0.23164C15.1549 0.219113 15.2636 0.201909 15.345 0.18991L15.6969 0.142005C15.8112 0.128683 15.9636 0.109891 16.0781 0.0978051L16.6115 0.0495462C16.7967 0.0382536 17.0436 0.0211381 17.2292 0.0129333C20.1843 -0.112433 23.0691 0.677699 25.5881 2.20512Z" fill="#2249B8"/>
<path id="Vector_8" d="M24.7081 1.71269C11.8605 -1.67599 6.65259 10.4949 11.5901 19.015C15.7176 26.1377 27.1495 30.3084 33.4423 21.9991C38.2477 13.8916 32.693 4.43659 24.7081 1.71269C22.407 0.512174 19.8457 -0.0943898 17.2292 0.0164962C17.4767 0.0115561 17.8064 0.00494003 18.0538 0L18.7999 0.0167607L19.9464 0.102064C20.4764 0.175019 21.1827 0.276642 21.7083 0.375089L22.9846 0.6849C23.4196 0.824014 24.0032 0.999738 24.4316 1.15658L25.6792 1.6744C26.0651 1.86901 26.5863 2.11671 26.9638 2.32622L28.1261 3.03291C28.4701 3.27921 28.9375 3.59599 29.2713 3.85525L30.3153 4.73466C30.6149 5.02903 31.0256 5.41119 31.313 5.71694L32.2128 6.75434C32.4628 7.09335 32.8096 7.53637 33.0457 7.88482L33.777 9.06618C33.9715 9.44603 34.2462 9.94547 34.4245 10.3328L34.9638 11.6442C35.0962 12.0613 35.2896 12.6125 35.4044 13.0343L35.723 14.4356C35.8102 15.0518 35.9241 15.8746 35.9737 16.4949L36 17.8812C35.9737 18.2986 35.9551 18.8566 35.9117 19.2728L35.7148 20.621C35.6224 21.0247 35.5144 21.5668 35.4057 21.9668L34.9997 23.2529C34.8446 23.637 34.6517 24.155 34.4811 24.5328L33.8821 25.7312C33.6666 26.0904 33.3918 26.5767 33.1619 26.9273L32.3922 28.0064C32.1162 28.3376 31.7583 28.7875 31.4688 29.1076L30.5786 30.0173C30.2313 30.3247 29.7737 30.741 29.4129 31.0336L28.5744 31.6631C28.0998 31.978 27.458 32.3855 26.9668 32.6754L26.5847 32.8815C26.1086 33.122 24.9937 33.6852 23.581 34.1359L23.3941 34.194C23.34 34.2103 23.2682 34.2325 23.2139 34.248L23.0493 34.2956L22.8887 34.3403L22.7346 34.3819L22.582 34.4216L22.4297 34.46L22.2766 34.497L22.1181 34.534L21.9564 34.5703L21.7819 34.6077C21.7278 34.6187 21.6559 34.6339 21.6018 34.6445L21.3979 34.684C21.334 34.6955 21.2488 34.7115 21.1849 34.7225L20.9285 34.7657C20.8471 34.7783 20.7385 34.7954 20.6571 34.8075L20.3053 34.8554C20.1909 34.8686 20.0385 34.8874 19.9239 34.8994L19.3906 34.9478C19.2054 34.9591 18.9584 34.9761 18.7731 34.9843L17.8458 35C16.6301 34.9591 16.5307 34.9557 15.7344 34.8622L14.49 34.6649C14.0182 34.5565 13.3873 34.4175 12.9209 34.2886L11.6486 33.8731C11.2401 33.7058 10.6901 33.4942 10.289 33.3109L9.07889 32.6973C8.71387 32.4766 8.21919 32.1942 7.86343 31.9596L6.75621 31.1654C6.43374 30.8949 5.99368 30.545 5.68246 30.2623L4.7068 29.3028C4.43106 28.9858 4.05108 28.5729 3.78849 28.2455L2.96935 27.1351C2.74605 26.7753 2.43393 26.3037 2.2257 25.9355L1.58675 24.6879C1.42225 24.2892 1.18671 23.7635 1.03899 23.3586L0.60356 21.9878L0.597753 21.9667L0.279096 20.5652C0.218849 20.1397 0.121401 19.5742 0.0791196 19.1465L0 17.7548C0.0106158 17.3351 0.00816584 16.7747 0.0362026 16.3557L0.183373 14.9966C0.26104 14.5892 0.348961 14.0429 0.443143 13.6386L0.80263 12.3361C0.94381 11.947 1.11766 11.4228 1.27435 11.0395L1.831 9.81865C2.03289 9.45336 2.28912 8.95936 2.50561 8.60209L3.2391 7.49243C3.50095 7.15483 3.83939 6.69647 4.11495 6.36937L4.98554 5.41454C5.31435 5.10288 5.74588 4.67997 6.08795 4.38216L6.96716 3.6738C7.40232 3.36619 7.98646 2.96058 8.43695 2.67441L8.8487 2.4327C9.47567 2.08981 10.6423 1.45157 12.4209 0.864946L12.6076 0.806901C12.6617 0.790669 12.7339 0.769233 12.7878 0.752914L12.9524 0.705277L13.1133 0.660464L13.2673 0.618914L13.4198 0.579219L13.5722 0.540933L13.7253 0.503883L13.884 0.466921L14.0457 0.430664L14.2201 0.393261C14.2741 0.382235 14.346 0.366709 14.4001 0.356476L14.6041 0.317045C14.6681 0.3054 14.7532 0.289521 14.8172 0.278406L15.0735 0.235269C15.1549 0.222742 15.2636 0.20554 15.345 0.193543L15.6969 0.145642C15.8112 0.132322 15.9636 0.113532 16.0781 0.101447L16.6115 0.0531936C16.7967 0.0419021 17.0436 0.0247002 17.2292 0.0164962C19.8457 -0.0943898 22.407 0.512174 24.7081 1.71269Z" fill="#2147B3"/>
<path id="Vector_9" d="M23.8297 1.28547C11.9514 -1.60607 5.52077 10.0736 10.9529 19.2083C15.6153 27.0485 26.5688 30.4887 33.1784 23.0015C33.3253 22.7955 33.5212 22.5209 33.6682 22.3149C38.6547 13.5238 32.5866 3.96182 23.8297 1.28547C21.7631 0.367675 19.5174 -0.0841184 17.2292 0.0129276C17.7003 0.00348766 18.3289 0.00260528 18.7999 0.0131922L19.9464 0.0985043C20.4764 0.171466 21.1827 0.273099 21.7083 0.371557L22.9846 0.681398C23.4196 0.820527 24.0032 0.996269 24.4316 1.15313L25.6792 1.671C26.0651 1.86562 26.5863 2.11336 26.9638 2.32289L28.1261 3.02965C28.4701 3.27597 28.9375 3.59278 29.2713 3.85207L30.3153 4.73157C30.6149 5.02597 31.0256 5.40816 31.313 5.71394L32.2128 6.75145C32.4628 7.09049 32.8096 7.53355 33.0457 7.88203L33.777 9.06353C33.9715 9.44341 34.2462 9.94296 34.4245 10.3302L34.9638 11.6419C35.0962 12.0589 35.2896 12.6102 35.4044 13.0321L35.723 14.4334C35.8102 15.0498 35.9241 15.8726 35.9737 16.4929L36 17.8794C35.9737 18.2969 35.9551 18.8549 35.9117 19.2711L35.7148 20.6195C35.6224 21.0233 35.5144 21.5654 35.4057 21.9655L34.9997 23.2518C34.8446 23.6359 34.6517 24.1538 34.4811 24.5318L33.8821 25.7302C33.6666 26.0895 33.3918 26.5758 33.1619 26.9265L32.3922 28.0057C32.1162 28.3368 31.7583 28.7868 31.4688 29.1069L30.5786 30.0167C30.2313 30.3242 29.7737 30.7405 29.4129 31.0331L28.5744 31.6627C28.0998 31.9777 27.458 32.3852 26.9668 32.6752L26.5847 32.8812C26.1086 33.1217 24.9937 33.6851 23.581 34.1358L23.3941 34.1938C23.34 34.2101 23.2682 34.2323 23.2139 34.2479L23.0493 34.2954L22.8887 34.3402L22.7346 34.3818L22.582 34.4214L22.4297 34.4598L22.2766 34.4969L22.1181 34.534L21.9564 34.5701L21.7819 34.6076C21.7278 34.6186 21.6559 34.6338 21.6018 34.6445L21.3979 34.6838C21.334 34.6954 21.2488 34.7114 21.1849 34.7225L20.9285 34.7656C20.8471 34.7782 20.7385 34.7954 20.6571 34.8073L20.3053 34.8552C20.1909 34.8685 20.0385 34.8873 19.9239 34.8994L19.3906 34.9477C19.2054 34.9591 18.9584 34.976 18.7731 34.9842L17.8458 35C16.6301 34.9591 16.5307 34.9556 15.7344 34.8622L14.49 34.6648C14.0182 34.5564 13.3873 34.4174 12.9209 34.2885L11.6486 33.8729C11.2401 33.7057 10.6901 33.494 10.289 33.3107L9.07889 32.6969C8.71387 32.4764 8.21919 32.1938 7.86342 31.9592L6.75621 31.165C6.43374 30.8944 5.99368 30.5446 5.68246 30.2618L4.7068 29.3022C4.43106 28.9851 4.05108 28.5722 3.78849 28.2449L2.96935 27.1342C2.74605 26.7744 2.43393 26.3028 2.2257 25.9346L1.58675 24.6867C1.42225 24.288 1.18671 23.7623 1.03899 23.3573L0.60356 21.9864L0.597753 21.9653L0.279096 20.5638C0.218849 20.1382 0.121402 19.5727 0.0791199 19.1449L0 17.7531C0.0106158 17.3333 0.00816624 16.7727 0.0362029 16.3538L0.183373 14.9946C0.26104 14.5871 0.348961 14.0407 0.443143 13.6364L0.80263 12.3337C0.943811 11.9446 1.11766 11.4205 1.27435 11.037L1.831 9.81612C2.03289 9.45074 2.28912 8.95669 2.50561 8.59939L3.2391 7.48962C3.50095 7.15198 3.83939 6.69357 4.11495 6.36644L4.98554 5.41151C5.31435 5.09981 5.74588 4.67687 6.08795 4.37903L6.96716 3.67059C7.40232 3.36296 7.98646 2.9573 8.43695 2.67111L8.8487 2.42937C9.47576 2.08645 10.6424 1.44815 12.421 0.861462L12.6077 0.803412C12.6617 0.787178 12.734 0.76574 12.7879 0.749419L12.9525 0.701778L13.1134 0.65696L13.2674 0.615406L13.4199 0.575706L13.5723 0.537417L13.7254 0.500364L13.8841 0.463397L14.0458 0.427137L14.2202 0.38973C14.2742 0.378703 14.3461 0.363176 14.4002 0.352942L14.6042 0.313506C14.6682 0.30186 14.7533 0.28598 14.8173 0.274864L15.0736 0.231722C15.155 0.219194 15.2636 0.20199 15.3451 0.189992L15.697 0.142087C15.8113 0.128765 15.9637 0.109974 16.0782 0.0978872L16.6116 0.0496287C16.7968 0.038336 17.0437 0.0211324 17.2292 0.0129276C19.5174 -0.0841184 21.7631 0.367675 23.8297 1.28547Z" fill="#2045AD"/>
<path id="Vector_10" d="M22.9366 0.92209C9.19485 -1.49551 4.97773 12.504 11.1871 20.874C14.5549 25.4137 24.2841 32.1456 32.8622 23.9794C39.3347 16.3779 33.7689 3.44846 22.9366 0.92209C21.1228 0.250089 19.1916 -0.0703398 17.2292 0.0129434C17.7003 0.00350346 18.3289 0.00262141 18.7999 0.0132082L19.9464 0.0985211C20.4764 0.171482 21.1827 0.273115 21.7083 0.371573L22.9846 0.681415C23.4196 0.820544 24.0032 0.99629 24.4316 1.15315L25.6792 1.67102C26.0651 1.86565 26.5863 2.11338 26.9638 2.32291L28.1261 3.02967C28.4701 3.27599 28.9375 3.5928 29.2713 3.85209L30.3153 4.7316C30.6149 5.026 31.0256 5.40818 31.313 5.71396L32.2128 6.75148C32.4628 7.09052 32.8096 7.53358 33.0457 7.88206L33.777 9.06356C33.9715 9.44345 34.2462 9.94302 34.4245 10.3303L34.9638 11.6419C35.0962 12.0589 35.2896 12.6102 35.4044 13.0321L35.723 14.4335C35.8102 15.0498 35.9241 15.8727 35.9737 16.493L36 17.8795C35.9737 18.297 35.9551 18.855 35.9117 19.2712L35.7148 20.6196C35.6224 21.0234 35.5144 21.5655 35.4057 21.9655L34.9997 23.2518C34.8446 23.6359 34.6517 24.1539 34.4811 24.5319L33.8821 25.7302C33.6666 26.0895 33.3918 26.5759 33.1619 26.9266L32.3922 28.0058C32.1162 28.3369 31.7583 28.7869 31.4688 29.107L30.5786 30.0168C30.2313 30.3242 29.7737 30.7406 29.4129 31.0332L28.5744 31.6628C28.0998 31.9777 27.458 32.3853 26.9668 32.6753L26.5847 32.8813C26.1086 33.1218 24.9937 33.6851 23.581 34.1358L23.3941 34.1939C23.34 34.2102 23.2682 34.2324 23.2139 34.2479L23.0493 34.2955L22.8887 34.3402L22.7346 34.3819L22.582 34.4215L22.4297 34.4599L22.2766 34.497L22.1181 34.534L21.9564 34.5702L21.7819 34.6077C21.7278 34.6187 21.6559 34.6339 21.6018 34.6445L21.3979 34.6839C21.334 34.6955 21.2488 34.7115 21.1849 34.7225L20.9285 34.7657C20.8471 34.7783 20.7385 34.7954 20.6571 34.8074L20.3053 34.8553C20.1909 34.8686 20.0385 34.8874 19.9239 34.8994L19.3906 34.9478C19.2054 34.9591 18.9584 34.9761 18.7731 34.9843L17.8458 35C16.6301 34.9591 16.5307 34.9557 15.7344 34.8622L14.49 34.6648C14.0182 34.5564 13.3873 34.4175 12.9209 34.2886L11.6486 33.873C11.2401 33.7057 10.6901 33.494 10.289 33.3107L9.07889 32.697C8.71387 32.4764 8.21919 32.1939 7.86342 31.9593L6.75621 31.165C6.43374 30.8945 5.99368 30.5446 5.68246 30.2618L4.7068 29.3023C4.43106 28.9852 4.05108 28.5723 3.78849 28.245L2.96935 27.1343C2.74605 26.7745 2.43393 26.3028 2.2257 25.9346L1.58675 24.6868C1.42225 24.2881 1.18671 23.7623 1.03899 23.3574L0.60356 21.9865L0.597753 21.9653L0.279096 20.5637C0.218849 20.1382 0.121402 19.5726 0.0791199 19.145L0 17.753C0.0106158 17.3333 0.00816624 16.7728 0.0362029 16.3539L0.183373 14.9947C0.26104 14.5872 0.348961 14.0407 0.443143 13.6365L0.80263 12.3337C0.943811 11.9446 1.11766 11.4204 1.27435 11.0371L1.831 9.81608C2.03289 9.45077 2.28912 8.95672 2.50561 8.59941L3.2391 7.48965C3.50095 7.15201 3.83939 6.6936 4.11495 6.36647L4.98554 5.41154C5.31435 5.09984 5.74588 4.67689 6.08795 4.37905L6.96716 3.67061C7.40232 3.36298 7.98646 2.95733 8.43695 2.67112L8.8487 2.4294C9.47576 2.08637 10.6424 1.44808 12.421 0.861391L12.6077 0.803341C12.6617 0.787107 12.734 0.765669 12.7879 0.749348L12.9525 0.701706L13.1134 0.656889L13.2674 0.615335L13.4199 0.575635L13.5723 0.537345L13.7254 0.500292L13.8841 0.463326L14.0458 0.427066L14.2202 0.389659C14.2742 0.378631 14.3461 0.363104 14.4002 0.35287L14.6042 0.313434C14.6682 0.301789 14.7533 0.285908 14.8173 0.274792L15.0736 0.23165C15.155 0.219122 15.2636 0.201919 15.3451 0.18992L15.697 0.142015C15.8113 0.128693 15.9637 0.109901 16.0782 0.0978149L16.6116 0.0495564C16.7968 0.0382637 17.0437 0.0211482 17.2292 0.0129434C19.1916 -0.0703398 21.1228 0.250089 22.9366 0.92209Z" fill="#1F43A8"/>
<path id="Vector_11" d="M22.023 0.616452C8.61978 -1.15218 3.77189 12.6793 11.3217 22.2111C14.8718 26.693 24.7257 32.0954 32.4904 24.9422C32.7003 24.7021 32.98 24.382 33.1899 24.142C39.7589 16.1337 33.3927 2.722 22.023 0.616452C20.4801 0.154776 18.8655 -0.0564318 17.2292 0.0129122C17.7003 0.0034722 18.3289 0.00258982 18.7999 0.0131766L19.9464 0.0984899C20.4764 0.171451 21.1827 0.273084 21.7083 0.371542L22.9846 0.681385C23.4196 0.820513 24.0032 0.996252 24.4316 1.15312L25.6792 1.67099C26.0651 1.86561 26.5863 2.11334 26.9638 2.32288L28.1261 3.02964C28.4701 3.27597 28.9375 3.59277 29.2713 3.85207L30.3153 4.73157C30.6149 5.02597 31.0256 5.40815 31.313 5.71394L32.2128 6.75146C32.4628 7.09049 32.8096 7.53356 33.0457 7.88204L33.777 9.06354C33.9715 9.44343 34.2462 9.94299 34.4245 10.3303L34.9638 11.6418C35.0962 12.0589 35.2896 12.6102 35.4044 13.0321L35.723 14.4335C35.8102 15.0498 35.9241 15.8727 35.9737 16.4929L36 17.8795C35.9737 18.297 35.9551 18.855 35.9117 19.2711L35.7148 20.6196C35.6224 21.0234 35.5144 21.5655 35.4057 21.9655L34.9997 23.2518C34.8446 23.636 34.6517 24.1539 34.4811 24.5319L33.8821 25.7303C33.6666 26.0895 33.3918 26.5759 33.1619 26.9266L32.3922 28.0058C32.1162 28.3369 31.7583 28.7869 31.4688 29.107L30.5786 30.0168C30.2313 30.3242 29.7737 30.7406 29.4129 31.0332L28.5744 31.6628C28.0998 31.9777 27.458 32.3853 26.9668 32.6753L26.5847 32.8813C26.1086 33.1218 24.9937 33.6852 23.581 34.1359L23.3941 34.1939C23.34 34.2102 23.2682 34.2324 23.2139 34.2479L23.0493 34.2955L22.8887 34.3403L22.7346 34.3819L22.582 34.4215L22.4297 34.4599L22.2766 34.497L22.1181 34.5341L21.9564 34.5702L21.7819 34.6077C21.7278 34.6187 21.6559 34.6339 21.6018 34.6445L21.3979 34.6839C21.334 34.6955 21.2488 34.7115 21.1849 34.7225L20.9285 34.7657C20.8471 34.7783 20.7385 34.7955 20.6571 34.8074L20.3053 34.8553C20.1909 34.8686 20.0385 34.8874 19.9239 34.8995L19.3906 34.9478C19.2054 34.9591 18.9584 34.9761 18.7731 34.9843L17.8458 35C16.6301 34.9591 16.5307 34.9557 15.7344 34.8622L14.49 34.6648C14.0182 34.5564 13.3873 34.4175 12.9209 34.2886L11.6486 33.873C11.2401 33.7057 10.6901 33.4941 10.289 33.3107L9.07889 32.697C8.71387 32.4764 8.21919 32.1939 7.86343 31.9593L6.75621 31.1651C6.43374 30.8944 5.99368 30.5447 5.68246 30.2619L4.7068 29.3023C4.43106 28.9852 4.05108 28.5723 3.78849 28.2449L2.96935 27.1343C2.74605 26.7745 2.43393 26.3028 2.2257 25.9346L1.58675 24.6868C1.42225 24.2881 1.18671 23.7623 1.03899 23.3574L0.60356 21.9865L0.597753 21.9653L0.279096 20.5638C0.218849 20.1382 0.121401 19.5727 0.0791196 19.145L0 17.7531C0.0106158 17.3333 0.00816584 16.7728 0.0362026 16.3539L0.183373 14.9947C0.26104 14.5871 0.348961 14.0407 0.443143 13.6365L0.80263 12.3337C0.94381 11.9446 1.11766 11.4205 1.27435 11.037L1.831 9.81605C2.03289 9.45076 2.28912 8.95669 2.50561 8.59939L3.2391 7.48962C3.50095 7.15199 3.83939 6.69358 4.11495 6.36645L4.98554 5.4115C5.31435 5.09981 5.74588 4.67687 6.08795 4.37902L6.96716 3.67059C7.40232 3.36295 7.98646 2.95729 8.43695 2.6711L8.8487 2.42936C9.47567 2.08644 10.6423 1.44814 12.4209 0.861449L12.6076 0.803398C12.6617 0.787165 12.7339 0.765727 12.7878 0.749405L12.9524 0.701764L13.1133 0.656946L13.2673 0.615393L13.4198 0.575692L13.5722 0.537403L13.7253 0.500349L13.884 0.463383L14.0457 0.427123L14.2201 0.389717C14.2741 0.378688 14.346 0.363161 14.4001 0.352927L14.6041 0.313491C14.6681 0.301846 14.7532 0.285965 14.8172 0.274849L15.0735 0.231707C15.1549 0.219179 15.2636 0.201976 15.345 0.189977L15.6969 0.142072C15.8112 0.12875 15.9636 0.109958 16.0781 0.0978718L16.6115 0.0496134C16.7967 0.0383206 17.0436 0.021117 17.2292 0.0129122C18.8655 -0.0564318 20.4801 0.154776 22.023 0.616452Z" fill="#1E41A3"/>
<path id="Vector_12" d="M21.0783 0.367252C7.69929 -0.999685 3.02207 13.4481 10.7722 22.7114C14.7047 27.4113 23.96 32.4339 32.0549 25.9026C32.2481 25.7105 32.5057 25.4545 32.699 25.2625C36.9432 20.2358 36.2244 14.9499 34.8739 11.4008L35.3285 12.7614L35.4044 13.0321L35.723 14.4335C35.8102 15.0498 35.9241 15.8727 35.9737 16.493L36 17.8795C35.9737 18.297 35.9551 18.855 35.9117 19.2712L35.7148 20.6196C35.6224 21.0234 35.5144 21.5655 35.4057 21.9655L34.9997 23.2518C34.8446 23.636 34.6517 24.1539 34.4811 24.5319L33.8821 25.7302C33.6666 26.0895 33.3918 26.5759 33.1619 26.9266L32.3922 28.0058C32.1162 28.3369 31.7583 28.7869 31.4688 29.107L30.5786 30.0168C30.2313 30.3242 29.7737 30.7406 29.4129 31.0332L28.5744 31.6628C28.0998 31.9777 27.458 32.3853 26.9668 32.6753L26.5847 32.8813C26.1086 33.1218 24.9937 33.6852 23.581 34.1358L23.3941 34.1939C23.34 34.2102 23.2682 34.2324 23.2139 34.2479L23.0493 34.2955L22.8887 34.3402L22.7346 34.3819L22.582 34.4215L22.4297 34.4599L22.2766 34.497L22.1181 34.5341L21.9564 34.5702L21.7819 34.6077C21.7278 34.6187 21.6559 34.6339 21.6018 34.6445L21.3979 34.6839C21.334 34.6955 21.2488 34.7115 21.1849 34.7225L20.9285 34.7657C20.8471 34.7783 20.7385 34.7954 20.6571 34.8074L20.3053 34.8553C20.1909 34.8686 20.0385 34.8874 19.9239 34.8994L19.3906 34.9478C19.2054 34.9591 18.9584 34.9761 18.7731 34.9843L17.8458 35C16.6301 34.9591 16.5307 34.9557 15.7344 34.8622L14.49 34.6648C14.0182 34.5564 13.3873 34.4175 12.9209 34.2886L11.6486 33.873C11.2401 33.7057 10.6901 33.494 10.289 33.3107L9.07889 32.697C8.71387 32.4764 8.21919 32.1939 7.86342 31.9593L6.75621 31.1651C6.43374 30.8945 5.99368 30.5446 5.68246 30.2619L4.7068 29.3023C4.43106 28.9852 4.05108 28.5723 3.78849 28.245L2.96935 27.1343C2.74605 26.7745 2.43393 26.3028 2.2257 25.9346L1.58675 24.6868C1.42225 24.2881 1.18671 23.7623 1.03899 23.3574L0.60356 21.9865L0.597753 21.9653L0.279096 20.5638C0.218849 20.1382 0.121401 19.5726 0.0791196 19.145L0 17.753C0.0106158 17.3333 0.00816584 16.7728 0.0362026 16.3539L0.183373 14.9947C0.26104 14.5872 0.348961 14.0407 0.443143 13.6365L0.80263 12.3337C0.94381 11.9446 1.11766 11.4204 1.27435 11.0371L1.831 9.81608C2.03289 9.45077 2.28912 8.95672 2.50561 8.59941L3.2391 7.48965C3.50095 7.15201 3.83939 6.6936 4.11495 6.36647L4.98554 5.41154C5.31435 5.09984 5.74588 4.67689 6.08795 4.37905L6.96716 3.67062C7.40232 3.36298 7.98646 2.95733 8.43695 2.67112L8.8487 2.4294C9.47558 2.08638 10.6423 1.44808 12.4208 0.861393L12.6075 0.803342C12.6616 0.787108 12.7338 0.76567 12.7877 0.749349L12.9524 0.701708L13.1132 0.65689L13.2672 0.615337L13.4197 0.575636L13.5721 0.537347L13.7252 0.500293L13.8839 0.463328L14.0456 0.427068L14.22 0.389661C14.274 0.378633 14.3459 0.363105 14.4 0.352872L14.604 0.313435C14.668 0.301789 14.7531 0.28591 14.8171 0.274793L15.0734 0.231651C15.1548 0.219124 15.2635 0.20192 15.345 0.189922L15.6968 0.142016C15.8112 0.128695 15.9635 0.109903 16.0781 0.0978158L16.6114 0.0495577C16.7967 0.0382651 17.0435 0.0211497 17.2291 0.0129448C18.5345 -0.0424597 19.8259 0.0807889 21.0783 0.367252Z" fill="#1D3F9E"/>
<path id="Vector_13" d="M20.0807 0.17512C7.06062 -0.498643 1.5588 14.3526 11.1611 24.2522C11.5633 24.6668 21.1289 34.3192 31.5511 26.8586C31.6246 26.7958 31.7227 26.712 31.7961 26.6492C33.1831 25.3026 36.8676 21.7258 35.7845 14.7889L35.9526 16.1871L35.9737 16.4929L36 17.8794C35.9737 18.297 35.9551 18.8549 35.9117 19.2711L35.7148 20.6195C35.6224 21.0233 35.5144 21.5655 35.4057 21.9655L34.9997 23.2518C34.8446 23.6359 34.6517 24.1538 34.4811 24.5318L33.8821 25.7302C33.6666 26.0895 33.3918 26.5758 33.1619 26.9265L32.3922 28.0057C32.1162 28.3368 31.7583 28.7868 31.4688 29.1069L30.5786 30.0167C30.2313 30.3242 29.7737 30.7405 29.4129 31.0332L28.5744 31.6627C28.0998 31.9776 27.458 32.3852 26.9668 32.6752L26.5847 32.8812C26.1086 33.1217 24.9937 33.6851 23.581 34.1358L23.3941 34.1938C23.34 34.2101 23.2682 34.2323 23.2139 34.2479L23.0493 34.2954L22.8887 34.3402L22.7346 34.3818L22.582 34.4214L22.4297 34.4598L22.2766 34.4969L22.1181 34.534L21.9564 34.5701L21.7819 34.6076C21.7278 34.6186 21.6559 34.6338 21.6018 34.6444L21.3979 34.6838C21.334 34.6954 21.2488 34.7114 21.1849 34.7225L20.9285 34.7656C20.8471 34.7782 20.7385 34.7954 20.6571 34.8073L20.3053 34.8552C20.1909 34.8685 20.0385 34.8873 19.9239 34.8994L19.3906 34.9477C19.2054 34.9591 18.9584 34.976 18.7731 34.9842L17.8458 35C16.6301 34.9591 16.5307 34.9556 15.7344 34.8622L14.49 34.6648C14.0182 34.5564 13.3873 34.4174 12.9209 34.2885L11.6486 33.8729C11.2401 33.7057 10.6901 33.494 10.289 33.3107L9.07889 32.6969C8.71387 32.4764 8.21919 32.1938 7.86342 31.9592L6.75621 31.165C6.43374 30.8944 5.99368 30.5446 5.68246 30.2618L4.7068 29.3022C4.43106 28.9851 4.05108 28.5722 3.78849 28.2449L2.96935 27.1342C2.74605 26.7744 2.43393 26.3028 2.2257 25.9346L1.58675 24.6868C1.42225 24.288 1.18671 23.7623 1.03899 23.3574L0.60356 21.9864L0.597753 21.9653L0.279096 20.5638C0.218849 20.1382 0.121402 19.5727 0.0791199 19.145L0 17.7531C0.0106158 17.3333 0.00816624 16.7727 0.0362029 16.3538L0.183373 14.9947C0.26104 14.5871 0.348961 14.0407 0.443143 13.6365L0.80263 12.3337C0.943811 11.9446 1.11766 11.4205 1.27435 11.037L1.831 9.81615C2.03289 9.45077 2.28912 8.95672 2.50561 8.59941L3.2391 7.48965C3.50095 7.15201 3.83939 6.6936 4.11495 6.36647L4.98554 5.41154C5.31435 5.09984 5.74588 4.6769 6.08795 4.37906L6.96716 3.67063C7.40232 3.36299 7.98646 2.95734 8.43695 2.67114L8.8487 2.42941C9.47576 2.0864 10.6424 1.44809 12.421 0.861411L12.6077 0.80336C12.6617 0.787127 12.734 0.765689 12.7879 0.749367L12.9525 0.701726L13.1134 0.656909L13.2674 0.615355L13.4199 0.575655L13.5723 0.537366L13.7254 0.500312L13.8841 0.463346L14.0458 0.427086L14.2202 0.389679C14.2742 0.378652 14.3461 0.363124 14.4002 0.35289L14.6042 0.313455C14.6682 0.301809 14.7533 0.285929 14.8173 0.274813L15.0736 0.231671C15.155 0.219143 15.2636 0.201939 15.3451 0.189941L15.697 0.142036C15.8113 0.128714 15.9637 0.109922 16.0782 0.0978362L16.6116 0.0495777C16.7968 0.0382851 17.0437 0.0211696 17.2292 0.0129648C18.1907 -0.0278826 19.1445 0.0282277 20.0807 0.17512Z" fill="#1C3D99"/>
<path id="Vector_14" d="M19.0213 0.0487029C5.03658 -0.129951 1.4562 15.5162 10.3001 24.5358C14.0882 28.399 22.701 33.4405 30.954 27.8314C31.1696 27.6536 31.457 27.4165 31.6727 27.2387C32.7188 26.3182 35.9023 23.5169 36 17.5329L35.9417 18.9081L35.9075 19.2711L35.7107 20.6196C35.6183 21.0233 35.5103 21.5654 35.4016 21.9654L34.9957 23.2517C34.8406 23.6359 34.6477 24.1539 34.4772 24.5318L33.8782 25.7302C33.6628 26.0895 33.3879 26.5759 33.1581 26.9265L32.3885 28.0057C32.1125 28.3369 31.7547 28.7869 31.4652 29.107L30.575 30.0168C30.2279 30.3242 29.7703 30.7406 29.4095 31.0332L28.5711 31.6627C28.0965 31.9777 27.4549 32.3853 26.9638 32.6752L26.5816 32.8813C26.1056 33.1218 24.9909 33.6851 23.5783 34.1358L23.3914 34.1939C23.3373 34.2102 23.2655 34.2324 23.2112 34.2479L23.0467 34.2955L22.886 34.3402L22.732 34.3818L22.5794 34.4215L22.4271 34.4599L22.2741 34.497L22.1155 34.534L21.9539 34.5702L21.7794 34.6076C21.7253 34.6187 21.6534 34.6339 21.5993 34.6445L21.3955 34.6839C21.3315 34.6955 21.2464 34.7115 21.1825 34.7225L20.9261 34.7657C20.8447 34.7783 20.7362 34.7954 20.6547 34.8074L20.303 34.8553C20.1886 34.8686 20.0363 34.8874 19.9216 34.8994L19.3883 34.9478C19.2032 34.9591 18.9563 34.9761 18.7709 34.9843L17.8437 35C16.6282 34.9591 16.5288 34.9557 15.7326 34.8622L14.4883 34.6648C14.0166 34.5564 13.3858 34.4174 12.9194 34.2885L11.6472 33.873C11.2388 33.7057 10.6889 33.494 10.2878 33.3106L9.07785 32.697C8.71287 32.4764 8.21825 32.1939 7.86253 31.9593L6.75543 31.165C6.433 30.8944 5.993 30.5446 5.68181 30.2618L4.70626 29.3023C4.43055 28.9851 4.05061 28.5723 3.78806 28.2448L2.969 27.1343C2.74574 26.7744 2.43365 26.3028 2.22544 25.9345L1.58657 24.6868C1.42209 24.2881 1.18657 23.7623 1.03887 23.3574L0.603491 21.9865L0.597684 21.9653L0.279064 20.5637C0.218824 20.1382 0.121388 19.5726 0.0791108 19.1449L0 17.753C0.0106146 17.3332 0.0081653 16.7728 0.0361988 16.3538L0.183352 14.9946C0.26101 14.5871 0.348921 14.0407 0.443092 13.6364L0.802538 12.3337C0.943703 11.9446 1.11753 11.4204 1.27421 11.037L1.83079 9.81605C2.03266 9.45072 2.28886 8.95666 2.50532 8.59936L3.23873 7.48959C3.50055 7.15196 3.83895 6.69355 4.11448 6.36642L4.98497 5.41148C5.31375 5.09979 5.74523 4.67684 6.08726 4.37899L6.96636 3.67056C7.40147 3.36292 7.98555 2.95726 8.43599 2.67107L8.84769 2.42933C9.47468 2.08641 10.6412 1.44811 12.4196 0.861422L12.6063 0.80337C12.6604 0.787137 12.7325 0.765698 12.7865 0.749377L12.9511 0.701736L13.1119 0.656918L13.2659 0.615365L13.4184 0.575664L13.5708 0.537375L13.7238 0.500321L13.8825 0.463355L14.0442 0.427096L14.2186 0.389688C14.2726 0.37866 14.3444 0.363133 14.3986 0.352899L14.6026 0.313463C14.6665 0.301817 14.7516 0.285938 14.8156 0.274821L15.0719 0.231679C15.1533 0.219152 15.2619 0.201948 15.3433 0.18995L15.6952 0.142044C15.8095 0.128722 15.9619 0.109931 16.0764 0.0978434L16.6097 0.0495854C16.7949 0.0382926 17.0418 0.0211772 17.2272 0.0129723C17.829 -0.0126126 18.4279 -0.000173136 19.0213 0.0487029Z" fill="#1B3B94"/>
<path id="Vector_15" d="M17.9781 5.89049e-05C4.59779 0.393537 0.101082 16.4615 10.6881 26.0498C11.6743 26.9429 20.6056 34.6093 30.3997 28.8511C30.6083 28.7019 30.8863 28.5026 31.0948 28.3533C34.9556 25.4496 35.6874 21.6987 36 20.0971L35.7369 21.4296L35.5992 21.9655L35.1911 23.2518C35.0351 23.6359 34.8411 24.1539 34.6696 24.5319L34.0673 25.7302C33.8506 26.0895 33.5743 26.5759 33.3432 26.9266L32.5693 28.0058C32.2918 28.3369 31.9319 28.7869 31.6408 29.107L30.7457 30.0168C30.3966 30.3242 29.9365 30.7406 29.5737 31.0332L28.7306 31.6628C28.2534 31.9777 27.6081 32.3853 27.1143 32.6753L26.73 32.8813C26.2513 33.1218 25.1304 33.6851 23.7099 34.1358L23.522 34.1939C23.4676 34.2102 23.3954 34.2324 23.3408 34.2479L23.1753 34.2955L23.0138 34.3402L22.8589 34.3819L22.7055 34.4215L22.5523 34.4599L22.3984 34.497L22.239 34.534L22.0764 34.5702L21.901 34.6077C21.8466 34.6187 21.7743 34.6339 21.7199 34.6445L21.5149 34.6839C21.4506 34.6955 21.365 34.7115 21.3007 34.7225L21.0429 34.7657C20.9611 34.7783 20.8519 34.7954 20.77 34.8074L20.4163 34.8553C20.3012 34.8686 20.148 34.8874 20.0328 34.8994L19.4966 34.9478C19.3104 34.9591 19.0621 34.9761 18.8757 34.9843L17.9433 35C16.721 34.9591 16.6211 34.9557 15.8204 34.8622L14.5692 34.6648C14.0948 34.5564 13.4605 34.4175 12.9915 34.2886L11.7123 33.873C11.3016 33.7057 10.7486 33.494 10.3453 33.3107L9.12852 32.697C8.76151 32.4764 8.26412 32.1939 7.90641 31.9593L6.79314 31.165C6.46891 30.8945 6.02645 30.5446 5.71353 30.2618L4.73253 29.3023C4.45529 28.9852 4.07322 28.5723 3.8092 28.245L2.98558 27.1343C2.76107 26.7745 2.44723 26.3028 2.23787 25.9346L1.59543 24.6868C1.43002 24.2881 1.1932 23.7623 1.04467 23.3574L0.606859 21.9865L0.60102 21.9653L0.280622 20.5637C0.220045 20.1382 0.122066 19.5726 0.0795524 19.145L0 17.753C0.0106738 17.3333 0.00821088 16.7728 0.0364008 16.3539L0.184375 14.9947C0.262467 14.5872 0.350869 14.0407 0.445565 13.6364L0.807017 12.3337C0.94897 11.9446 1.12377 11.4204 1.28132 11.0371L1.84101 9.81608C2.044 9.45076 2.30163 8.95671 2.51931 8.59941L3.25681 7.48964C3.52009 7.15201 3.86038 6.69359 4.13744 6.36647L5.01279 5.41153C5.3434 5.09984 5.77729 4.67689 6.12123 4.37904L7.00524 3.67061C7.44278 3.36298 8.03012 2.95732 8.48307 2.67112L8.89707 2.42939C9.52756 2.08637 10.7006 1.44808 12.4889 0.861387L12.6767 0.803337C12.7309 0.787103 12.8036 0.765665 12.8579 0.749344L13.0233 0.701702L13.1851 0.656885L13.34 0.615332L13.4933 0.575631L13.6465 0.537341L13.8004 0.500288L13.96 0.463322L14.1226 0.427062L14.298 0.389655C14.3523 0.378627 14.4245 0.3631 14.479 0.352866L14.6841 0.31343C14.7484 0.301785 14.834 0.285904 14.8983 0.274788L15.156 0.231646C15.2379 0.219118 15.3471 0.201915 15.429 0.189916L15.7828 0.142011C15.8977 0.128689 16.051 0.109897 16.1661 0.097811L16.7024 0.0495526C16.8887 0.0382598 17.1369 0.0211444 17.3234 0.0129396C17.5421 0.00367607 17.7604 -0.000558665 17.9781 5.89049e-05Z" fill="#1A398F"/>
<path id="Vector_16" d="M29.1768 29.9117C29.369 29.7908 29.6253 29.6294 29.8175 29.5085C32.3257 27.8635 34.0694 25.5577 35 22.6548L34.5394 23.9253L34.301 24.4832L33.7051 25.6872C33.4906 26.0481 33.2173 26.5367 32.9886 26.8891L32.2229 27.9733C31.9484 28.306 31.5923 28.758 31.3044 29.0796L30.4187 29.9936C30.0733 30.3025 29.6181 30.7208 29.2592 31.0148L28.4251 31.6473C27.9529 31.9637 27.3145 32.3731 26.8259 32.6645L26.4457 32.8714C25.9722 33.1131 24.8631 33.679 23.4577 34.1318L23.2719 34.1902C23.218 34.2065 23.1466 34.2288 23.0926 34.2444L22.9289 34.2922L22.769 34.3372L22.6158 34.379L22.464 34.4189L22.3125 34.4574L22.1602 34.4946L22.0025 34.5319L21.8416 34.5682L21.6681 34.6059C21.6143 34.6169 21.5427 34.6322 21.4889 34.6428L21.2861 34.6825C21.2225 34.6941 21.1378 34.7101 21.0742 34.7212L20.8192 34.7646C20.7382 34.7772 20.6302 34.7944 20.5491 34.8065L20.1992 34.8547C20.0854 34.8679 19.9338 34.8868 19.8198 34.8989L19.2892 34.9476C19.1051 34.9589 18.8594 34.976 18.675 34.9843L17.7525 35C16.5432 34.9589 16.4443 34.9555 15.6522 34.8615L14.4143 34.6633C13.9449 34.5543 13.3173 34.4148 12.8534 34.2853L11.5877 33.8677C11.1814 33.6996 10.6343 33.487 10.2352 33.3029L9.03145 32.6863C8.66833 32.4646 8.17624 32.1808 7.82234 31.9452L6.7209 31.1473C6.40011 30.8754 5.96236 30.5239 5.65277 30.2399L4.68221 29.2758C4.40791 28.9573 4.0299 28.5424 3.76869 28.2136L2.95383 27.0977C2.7317 26.7363 2.42121 26.2624 2.21407 25.8925L1.57846 24.6389C1.41482 24.2383 1.18051 23.7101 1.03356 23.3033L0.600406 21.926L0.594629 21.9048L0.277638 20.4968C0.217705 20.0691 0.120767 19.501 0.0787064 19.0713L0 17.6729C0.0105603 17.2512 0.00812356 16.6881 0.0360137 16.2673L0.182414 14.9018C0.259676 14.4923 0.347138 13.9433 0.440827 13.5372L0.798435 12.2284C0.938879 11.8375 1.11182 11.3109 1.26769 10.9257L1.82144 9.69907C2.02227 9.33207 2.27716 8.83572 2.49252 8.47675L3.22218 7.36183C3.48266 7.02263 3.81932 6.56209 4.09344 6.23343L4.95948 5.27406C5.28658 4.96092 5.71586 4.53601 6.05614 4.23678L6.93075 3.52505C7.36363 3.21598 7.94473 2.80845 8.39286 2.52092L8.80246 2.27807C9.42624 1.93345 10.5868 1.29219 12.3561 0.702777L12.5419 0.644455C12.5957 0.628146 12.6674 0.606609 12.7211 0.590211L12.8849 0.542349L13.0449 0.497323L13.1981 0.455577L13.3498 0.415692L13.5014 0.377225L13.6536 0.339999L13.8115 0.302861L13.9724 0.266433L14.1459 0.228852C14.1996 0.217772 14.2711 0.202173 14.325 0.191891L14.5279 0.152273C14.5915 0.140573 14.6762 0.124619 14.7398 0.113451L14.9949 0.0701088C15.0758 0.0575225 15.1838 0.0402396 15.2649 0.0281856C15.3247 0.019676 15.4043 0.00842006 15.464 0C15.4608 0.000442799 15.4566 0.000975146 15.4533 0.0015065C1.78804 1.98087 -0.248215 20.0994 12.2493 28.5114C14.8264 30.2461 21.6348 33.8549 29.1768 29.9117Z" fill="#19378A"/>
<path id="Vector_17" d="M28.1914 31.1762C30.7479 29.9356 32.5393 28.2697 34 25.7747L33.308 26.9183L33.2809 26.9593L32.5085 28.0341C32.2315 28.364 31.8723 28.8121 31.5818 29.1309L30.6883 30.037C30.3398 30.3432 29.8806 30.7579 29.5185 31.0493L28.677 31.6763C28.2006 31.99 27.5566 32.3959 27.0636 32.6846L26.6801 32.8899C26.2023 33.1294 25.0834 33.6904 23.6656 34.1393L23.4781 34.1972C23.4238 34.2134 23.3517 34.2355 23.2972 34.2509L23.132 34.2983L22.9708 34.3429L22.8162 34.3843L22.6631 34.4239L22.5102 34.4621L22.3566 34.499L22.1974 34.5359L22.0352 34.572L21.8601 34.6092C21.8058 34.6202 21.7336 34.6354 21.6793 34.6459L21.4747 34.6852C21.4105 34.6967 21.3251 34.7126 21.2609 34.7236L21.0036 34.7667C20.922 34.7792 20.813 34.7962 20.7312 34.8082L20.3782 34.8559C20.2633 34.8691 20.1104 34.8878 19.9954 34.8998L19.4602 34.948C19.2744 34.9592 19.0265 34.9762 18.8405 34.9844L17.9098 35C16.6898 34.9592 16.59 34.9559 15.7909 34.8628L14.542 34.6662C14.0685 34.5582 13.4353 34.4198 12.9673 34.2914L11.6904 33.8775C11.2805 33.7109 10.7285 33.5001 10.3259 33.3175L9.11148 32.7064C8.74515 32.4866 8.24869 32.2053 7.89166 31.9716L6.78046 31.1805C6.45683 30.9111 6.0152 30.5627 5.70286 30.2811L4.7237 29.3254C4.44697 29.0095 4.06562 28.5984 3.80209 28.2723L2.98 27.1662C2.75591 26.8078 2.44267 26.3381 2.23369 25.9713L1.59245 24.7287C1.42735 24.3316 1.19097 23.8079 1.04272 23.4047L0.605726 22.0393L0.599898 22.0182L0.280098 20.6223C0.219635 20.1985 0.121837 19.6352 0.0794035 19.2093L0 17.823C0.0106539 17.4049 0.00819515 16.8468 0.0363325 16.4295L0.184031 15.0758C0.261977 14.67 0.350214 14.1258 0.444733 13.7231L0.80551 12.4257C0.947198 12.0382 1.12167 11.5161 1.27893 11.1343L1.83758 9.91828C2.04019 9.55443 2.29734 9.06238 2.5146 8.70653L3.25073 7.60126C3.51352 7.265 3.85317 6.80845 4.12972 6.48265L5.00343 5.53159C5.33343 5.22116 5.76651 4.79993 6.1098 4.50329L6.99216 3.79773C7.42888 3.49135 8.01513 3.08734 8.46724 2.8023L8.88046 2.56155C9.50968 2.22002 10.6805 1.58431 12.4655 1L12.232 1.076C-0.849582 5.76645 0.274544 24.0625 14.0545 30.7379C16.7628 32.0498 22.2007 33.8513 28.1914 31.1762Z" fill="#183585"/>
<path id="Vector_18" d="M33.5192 10.616C36.165 19.222 27.3725 24.292 19.8508 20.9749C11.1326 17.1303 12.8348 5.68075 20.4979 3.362C25.5726 1.82644 31.9008 5.35177 33.5192 10.616Z" fill="#2755D6"/>
<path id="Vector_19" d="M32.5804 11.1435C34.9118 18.7494 27.1274 24.4329 19.1459 20.9523C11.7509 17.7276 12.5002 6.71953 20.2752 4.36298C25.5449 2.76569 31.2171 6.69632 32.5804 11.1435Z" fill="#2857DB"/>
<path id="Vector_20" d="M31.9475 12.2331C32.834 20.4573 22.2757 23.6038 16.6461 18.5945C11.2622 13.8041 14.6273 4.54366 21.941 4.02294C27.2755 3.64323 31.4959 8.04505 31.9475 12.2331Z" fill="#2959E0"/>
<path id="Vector_21" d="M31.9761 12.7097C32.5315 19.6966 23.2787 23.6933 17.6275 18.9076C12.2479 14.3517 15.6779 5.3899 22.9466 5.01019C27.3338 4.781 31.6376 8.45088 31.9761 12.7097Z" fill="#2A5BE6"/>
<path id="Vector_22" d="M30.9826 13.1737C31.4462 20.2269 22.5419 23.2104 17.6808 19.1979C14.6113 16.6642 14.7665 12.8584 15.3086 11.5112C16.376 8.8584 19.2355 6.00217 22.991 6C26.6227 5.99792 30.7006 8.88001 30.9826 13.1737Z" fill="#2B5DEB"/>
<path id="Vector_23" d="M29.9824 12.5892C30.4271 19.1992 22.3428 22.0505 17.7497 18.3882C12.5314 14.2275 15.3572 7.33707 21.0744 6.15225C25.3709 5.26182 29.7001 8.39004 29.9824 12.5892Z" fill="#2C5FF0"/>
<path id="Vector_24" d="M29.9803 13.0363C30.3937 18.2279 24.2158 22.1973 18.8022 18.6408C13.8305 15.3746 15.8383 8.02959 21.9615 7.08325C25.5608 6.52695 29.6419 8.78628 29.9803 13.0363Z" fill="#2D61F5"/>
<path id="Vector_25" d="M28.9824 12.9926C29.397 19.3183 22.3811 21.9586 18.3722 18.4075C13.1615 13.7918 17.5552 7.46261 21.7898 7.03563C25.8321 6.62801 28.7723 9.78674 28.9824 12.9926Z" fill="#2E63FA"/>
<path id="Vector_26" d="M28.984 13.4971C29.368 19.1799 22.772 22.0838 18.1259 18.2774C13.6236 14.5888 16.9046 8.30145 22.0856 8.0117C26.273 7.77757 28.8224 11.1065 28.984 13.4971Z" fill="#2F65FF"/>
<path id="Vector_27" d="M28.9484 12.9816C29.6036 17.8631 23.8789 20.4373 19.9935 18.1645C15.3581 15.4532 16.4968 9.91324 20.7384 8.34519C23.2613 7.41254 28.3043 8.18296 28.9484 12.9816Z" fill="#4877FF"/>
<path id="Vector_28" d="M27.9581 12.9687C28.5184 17.7052 23.3292 20.4019 19.9483 18.2491C15.1691 15.2057 16.8295 9.67632 20.4709 8.31509C23.4613 7.19723 27.5035 9.12497 27.9581 12.9687Z" fill="#527FFF"/>
<path id="Vector_29" d="M27.8693 15.2003C27.2957 17.3542 24.9108 18.909 23.3658 18.9889C18.995 19.2154 17.4516 15.8923 17.3841 15.7435C16.7999 14.4573 16.9973 13.5386 17.2259 12.4751C17.2282 12.4642 18.3008 10.6145 18.5318 10.4034C19.0291 9.94902 19.815 9.37553 20.4987 9.25708C22.717 8.8726 22.9752 8.91905 24.3292 9.39867C27.7386 10.6062 28.3142 13.5298 27.8693 15.2003Z" fill="#5A85FF"/>
</g>
</svg>
