<svg width="35" height="36" viewBox="0 0 35 36" fill="none" xmlns="http://www.w3.org/2000/svg">
<g id="Group">
<path id="Vector" d="M34.4118 13.4028C34.5926 14.169 35.0724 16.2041 34.9907 18.3881C34.9565 19.3003 34.8766 21.4367 34.0187 23.9134C33.3836 25.7467 32.602 27.2546 31.4844 28.8026C31.0061 29.4652 30.2931 30.2918 29.7218 30.871C29.036 31.5662 28.7686 31.7775 27.7738 32.5638C27.5841 32.7138 25.8461 34.0558 23.2794 34.9813C20.9258 35.8302 19.0248 35.9369 18.3092 35.977C16.4473 36.0815 12.7395 35.9152 8.82542 33.6273C7.72751 32.9856 6.09914 31.859 4.57607 30.1359C4.02147 29.5086 3.34005 28.6148 2.88738 27.9062C2.42749 27.1863 1.91125 26.1633 1.5436 25.3893C1.0061 24.2575 0.408817 22.144 0.272657 21.1488C0.154663 20.2861 0.0155932 19.1292 0.00139516 18.2581C-0.0124502 17.4054 0.0789111 16.2676 0.17962 15.4211C0.341707 14.0585 0.899575 12.1502 1.22807 11.3817C1.55383 10.6197 2.00191 9.60621 2.41127 8.88813C2.81861 8.17377 3.41157 7.24364 3.94227 6.62102C4.46425 6.00855 5.17494 5.20155 5.75839 4.65096C5.76791 4.64199 6.7825 3.70351 7.66506 3.10756C8.383 2.62277 8.90162 2.27244 10.2693 1.61795C10.8094 1.35945 11.6777 0.986076 12.7464 0.675671C14.5406 0.154487 15.8831 0.0678349 16.6854 0.0161157C23.6995 -0.298827 30.2505 4.9063 32.3332 13.0282C30.2505 4.9063 23.6995 -0.298826 16.7468 0.0133031C17.6282 -0.00538841 18.3893 -0.0214488 19.3878 0.101317C21.1406 0.316722 22.1552 0.63847 22.3407 0.700805C23.6942 1.15521 24.2543 1.3434 24.9597 1.71859C26.7534 2.67267 26.8158 2.71994 28.4132 3.93071C28.4336 3.94614 30.4995 5.54907 32.106 8.08576C33.6185 10.4739 34.2225 12.5996 34.4118 13.4028Z" fill="#D1D1D1"/>
<path id="Vector_2" d="M29.5992 6.90785C20.4247 -2.00905 12.2681 5.99224 12.7685 13.7811C13.36 22.9874 25.058 26.4347 30.2764 20.8829C31.8202 19.2405 32.7069 16.8258 32.6484 14.4237C32.6086 14.006 32.5553 13.4494 32.5154 13.0319C32.1409 11.401 31.6279 9.16724 29.5992 6.90785C26.5256 2.41029 21.7415 -0.207057 16.7506 0.0169675C16.9912 0.0118863 17.3117 0.00508116 17.5523 0L18.2777 0.0172399L19.3923 0.10498C19.9077 0.180019 20.5943 0.284545 21.1053 0.385806L22.3462 0.704468C22.7691 0.847556 23.3365 1.0283 23.753 1.18962L24.9659 1.72225C25.3411 1.9224 25.8478 2.17719 26.2148 2.39268L27.3448 3.11956C27.6792 3.37289 28.1337 3.69872 28.4582 3.96539L29.4733 4.86993C29.7645 5.17271 30.1638 5.56578 30.4432 5.88027L31.318 6.94731C31.5611 7.29601 31.8983 7.75168 32.1277 8.11009L32.8387 9.32521C33.0278 9.71592 33.2949 10.2297 33.4682 10.628L33.9926 11.977C34.1213 12.4059 34.3094 12.9728 34.4209 13.4068L34.7307 14.8479C34.8155 15.4819 34.9263 16.3281 34.9744 16.9661L35 18.3921C34.9744 18.8214 34.9563 19.3953 34.9141 19.8233L34.7228 21.2101C34.6328 21.6254 34.5279 22.183 34.4222 22.5944L34.0275 23.9173C33.8767 24.3124 33.6892 24.8451 33.5233 25.2338L32.941 26.4664C32.7314 26.8358 32.4642 27.3361 32.2407 27.6967L31.4924 28.8066C31.2241 29.1472 30.8761 29.6099 30.5947 29.9391L29.7292 30.8749C29.3916 31.1911 28.9467 31.6192 28.5959 31.9202L27.7807 32.5677C27.3192 32.8917 26.6953 33.3107 26.2178 33.609L25.8462 33.8209C25.3834 34.0683 24.2995 34.6477 22.9259 35.1112L22.7443 35.171C22.6917 35.1876 22.6219 35.2105 22.5691 35.2265L22.4091 35.2753L22.2529 35.3215L22.1031 35.3642L21.9547 35.405L21.8067 35.4445L21.6578 35.4826L21.5037 35.5207L21.3465 35.5579L21.1769 35.5965C21.1243 35.6078 21.0544 35.6235 21.0018 35.6343L20.8035 35.6748C20.7414 35.6867 20.6586 35.7031 20.5964 35.7146L20.3472 35.7589C20.268 35.7718 20.1625 35.7896 20.0832 35.8019L19.7413 35.8511C19.63 35.8648 19.4818 35.8841 19.3705 35.8965L18.8519 35.9462C18.6719 35.9579 18.4318 35.9754 18.2516 35.9838L17.35 36C16.1682 35.9579 16.0715 35.9545 15.2974 35.8583L14.0875 35.6553C13.6288 35.5438 13.0154 35.4008 12.562 35.2683L11.325 34.8409C10.9279 34.6688 10.3932 34.4511 10.0032 34.2626L8.8267 33.6315C8.47182 33.4045 7.99088 33.114 7.64499 32.8727L6.56853 32.0558C6.25502 31.7775 5.82719 31.4178 5.52462 31.127L4.57606 30.14C4.30798 29.8139 3.93855 29.3893 3.68325 29.0526L2.88686 27.9103C2.66978 27.5403 2.36632 27.0552 2.16387 26.6765L1.54268 25.3932C1.38274 24.9831 1.15374 24.4424 1.01013 24.0259L0.586794 22.6159L0.581149 22.5942L0.271344 21.1528C0.21277 20.7151 0.11803 20.1335 0.0769221 19.6936L0 18.2621C0.0103209 17.8303 0.0079394 17.2539 0.0351973 16.823L0.178279 15.4251C0.253789 15.006 0.339268 14.444 0.430833 14.0283L0.780334 12.6884C0.917594 12.2882 1.08661 11.7492 1.23896 11.3548L1.78014 10.0992C1.97642 9.72344 2.22553 9.21533 2.43601 8.84786L3.14913 7.70649C3.4037 7.35925 3.73274 6.88779 4.00065 6.55135L4.84705 5.56923C5.16673 5.24867 5.58628 4.81368 5.91884 4.50736L6.77363 3.77876C7.1967 3.46236 7.76462 3.04516 8.20259 2.75082L8.6029 2.5022C9.21255 2.14942 10.3468 1.49296 12.076 0.889567L12.2575 0.829864C12.31 0.813168 12.3802 0.79112 12.4327 0.774334L12.5928 0.725336L12.7491 0.679243L12.8989 0.636506L13.0472 0.595676L13.1953 0.556297L13.3441 0.518189L13.4984 0.48017L13.6556 0.442878L13.8252 0.404406C13.8777 0.393065 13.9476 0.377095 14.0002 0.36657L14.1986 0.326012C14.2607 0.314035 14.3435 0.297702 14.4057 0.28627L14.6549 0.2419C14.7341 0.229015 14.8396 0.211322 14.9189 0.198982L15.2609 0.149713C15.3721 0.136012 15.5203 0.116685 15.6316 0.104255L16.1502 0.0546227C16.3303 0.0430085 16.5703 0.0254059 16.7506 0.0169675C21.7415 -0.207057 26.5256 2.41029 29.5992 6.90785Z" fill="#D1D1D1"/>
<path id="Vector_3" d="M28.4884 5.44707C19.1846 -1.46819 11.5133 5.78002 12.3359 13.9083C13.3629 24.056 25.9693 27.226 31.0481 20.7123C32.1162 19.3425 32.5422 18.0958 32.9171 16.4055C33.6465 24.8259 29.1594 32.8712 21.9273 35.2928C29.1594 32.8712 33.6035 24.8259 32.8978 16.4055C32.986 14.7392 33.3033 9.66824 28.4787 5.44707C25.427 1.84925 21.1701 -0.185249 16.7459 0.0133003C17.2038 0.00359068 17.8173 0.00268344 18.2753 0.0135727L19.3912 0.101323C19.9064 0.176368 20.5937 0.280905 21.1047 0.382176L22.3459 0.700871C22.7687 0.843976 23.3363 1.02473 23.7528 1.18608L24.9658 1.71875C25.341 1.91893 25.8478 2.17374 26.2148 2.38926L27.3448 3.11622C27.6792 3.36957 28.1337 3.69543 28.4582 3.96214L29.4733 4.86676C29.7645 5.16959 30.1638 5.56269 30.4432 5.87721L31.318 6.94436C31.5611 7.29309 31.8983 7.74881 32.1277 8.10726L32.8387 9.3225C33.0278 9.71325 33.2949 10.227 33.4682 10.6254L33.9926 11.9745C34.1213 12.4035 34.3094 12.9705 34.4209 13.4044L34.7307 14.8459C34.8155 15.4797 34.9263 16.3262 34.9744 16.9642L35 18.3903C34.9744 18.8197 34.9563 19.3937 34.9141 19.8218L34.7228 21.2087C34.6328 21.624 34.5279 22.1817 34.4222 22.5931L34.0275 23.9162C33.8767 24.3112 33.6892 24.844 33.5233 25.2328L32.941 26.4654C32.7314 26.8349 32.4642 27.3352 32.2407 27.6959L31.4924 28.8058C31.2241 29.1466 30.8761 29.6094 30.5947 29.9386L29.7292 30.8744C29.3916 31.1906 28.9467 31.6189 28.5959 31.9199L27.7807 32.5674C27.3192 32.8914 26.6953 33.3106 26.2178 33.6088L25.8462 33.8207C25.3834 34.0682 24.2995 34.6475 22.9259 35.1111L22.7443 35.1709C22.6917 35.1876 22.6219 35.2105 22.5691 35.2264L22.4091 35.2754L22.2529 35.3214L22.1031 35.3642L21.9547 35.405L21.8067 35.4445L21.6578 35.4826L21.5037 35.5207L21.3465 35.5579L21.1769 35.5965C21.1243 35.6078 21.0544 35.6234 21.0018 35.6343L20.8035 35.6749C20.7414 35.6868 20.6586 35.7032 20.5964 35.7146L20.3472 35.759C20.268 35.7719 20.1625 35.7895 20.0832 35.8019L19.7413 35.8512C19.63 35.8648 19.4818 35.8841 19.3705 35.8965L18.8519 35.9463C18.6719 35.9579 18.4318 35.9754 18.2516 35.9839L17.35 36C16.1682 35.9579 16.0715 35.9545 15.2974 35.8583L14.0875 35.6553C13.6288 35.5437 13.0154 35.4008 12.562 35.2682L11.325 34.8408C10.9279 34.6687 10.3932 34.451 10.0032 34.2625L8.8267 33.6312C8.47182 33.4043 7.99088 33.1137 7.64499 32.8724L6.56853 32.0554C6.25502 31.7772 5.82719 31.4173 5.52462 31.1265L4.57606 30.1395C4.30798 29.8134 3.93855 29.3886 3.68325 29.0519L2.88686 27.9095C2.66978 27.5395 2.36632 27.0543 2.16387 26.6755L1.54268 25.3922C1.38274 24.982 1.15374 24.4412 1.01013 24.0248L0.586794 22.6147L0.581149 22.5929L0.271344 21.1513C0.21277 20.7135 0.11803 20.1319 0.0769221 19.692L0 18.2603C0.0103209 17.8286 0.0079394 17.252 0.0351973 16.821L0.178279 15.423C0.253789 15.0039 0.339268 14.4419 0.430833 14.026L0.780334 12.6861C0.917594 12.2859 1.08661 11.7467 1.23896 11.3524L1.78014 10.0965C1.97642 9.72078 2.22553 9.21261 2.43601 8.8451L3.14913 7.70362C3.4037 7.35635 3.73274 6.88484 4.00065 6.54836L4.84705 5.56613C5.16673 5.24554 5.58628 4.81051 5.91884 4.50415L6.77363 3.77547C7.1967 3.45905 7.76462 3.0418 8.20259 2.74743L8.6029 2.49879C9.21255 2.14598 10.3468 1.48944 12.076 0.88599L12.2575 0.82628C12.31 0.809583 12.3802 0.787532 12.4327 0.770745L12.5928 0.721742L12.7491 0.675644L12.8989 0.632904L13.0472 0.592069L13.1953 0.552685L13.3441 0.514573L13.4984 0.476551L13.6556 0.439254L13.8252 0.40078C13.8777 0.389436 13.9476 0.373465 14.0002 0.362939L14.1986 0.322376C14.2607 0.310398 14.3435 0.294064 14.4057 0.28263L14.6549 0.238256C14.7341 0.22537 14.8396 0.207675 14.9189 0.195334L15.2609 0.14606C15.3721 0.132357 15.5203 0.113028 15.6316 0.100597L16.1502 0.0509594C16.3303 0.0393441 16.5703 0.0217396 16.7506 0.0133003C21.175 -0.185249 25.4367 1.84916 28.4884 5.44707Z" fill="#CCCCCC"/>
<path id="Vector_4" d="M27.5112 4.39212C16.8921 -1.90534 9.92045 7.19148 12.2115 15.6658C15.0945 26.3295 28.3345 27.5967 32.2472 19.7878C32.2523 19.7779 32.8221 18.5205 32.9926 17.9137C33.0631 17.5307 33.1571 17.0199 33.2276 16.6368C33.6174 13.8658 32.8521 8.16842 27.5112 4.39212C24.5597 1.45848 20.7206 -0.161145 16.7506 0.0169675C16.9912 0.0118863 17.3117 0.00508116 17.5523 0L18.2777 0.0172395L19.3923 0.10498C19.9077 0.180018 20.5943 0.284545 21.1053 0.385806L22.3462 0.704467C22.7691 0.847556 23.3365 1.0283 23.753 1.18962L24.9659 1.72224C25.3411 1.9224 25.8478 2.17719 26.2148 2.39268L27.3448 3.11956C27.6792 3.37289 28.1337 3.69872 28.4582 3.96539L29.4733 4.86993C29.7645 5.17271 30.1638 5.56578 30.4432 5.88027L31.318 6.94731C31.5611 7.29601 31.8983 7.75168 32.1277 8.11008L32.8387 9.3252C33.0278 9.71591 33.2949 10.2297 33.4682 10.628L33.9926 11.977C34.1213 12.4058 34.3094 12.9728 34.4209 13.4068L34.7307 14.848C34.8155 15.4819 34.9263 16.3281 34.9744 16.9661L35 18.392C34.9744 18.8215 34.9563 19.3953 34.9141 19.8233L34.7228 21.2101C34.6328 21.6255 34.5279 22.183 34.4222 22.5944L34.0275 23.9173C33.8767 24.3124 33.6892 24.8451 33.5233 25.2338L32.941 26.4664C32.7314 26.8358 32.4642 27.336 32.2407 27.6967L31.4924 28.8066C31.2241 29.1472 30.8761 29.6099 30.5947 29.9391L29.7292 30.8748C29.3916 31.1911 28.9467 31.6192 28.5959 31.9202L27.7807 32.5677C27.3192 32.8916 26.6953 33.3107 26.2178 33.609L25.8462 33.8209C25.3834 34.0682 24.2995 34.6477 22.9259 35.1112L22.7443 35.1709C22.6917 35.1876 22.6219 35.2105 22.5691 35.2265L22.4091 35.2753L22.2529 35.3215L22.1031 35.3642L21.9547 35.405L21.8067 35.4445L21.6578 35.4825L21.5037 35.5207L21.3465 35.5579L21.1769 35.5965C21.1243 35.6077 21.0544 35.6234 21.0018 35.6342L20.8035 35.6748C20.7414 35.6867 20.6586 35.7031 20.5964 35.7146L20.3472 35.7589C20.268 35.7718 20.1625 35.7896 20.0832 35.8019L19.7413 35.8511C19.63 35.8647 19.4818 35.8841 19.3705 35.8965L18.8519 35.9462C18.6719 35.9579 18.4318 35.9753 18.2516 35.9838L17.35 36C16.1682 35.9579 16.0715 35.9544 15.2974 35.8583L14.0875 35.6553C13.6288 35.5438 13.0154 35.4008 12.562 35.2683L11.325 34.8408C10.9279 34.6688 10.3932 34.4511 10.0032 34.2626L8.8267 33.6314C8.47182 33.4045 7.99088 33.1139 7.645 32.8727L6.56853 32.0558C6.25502 31.7775 5.82719 31.4178 5.52462 31.127L4.57606 30.14C4.30798 29.8139 3.93855 29.3892 3.68325 29.0526L2.88686 27.9103C2.66978 27.5403 2.36632 27.0552 2.16387 26.6765L1.54268 25.3932C1.38274 24.9831 1.15374 24.4423 1.01013 24.0259L0.586794 22.616L0.581149 22.5942L0.271344 21.1528C0.21277 20.7151 0.118029 20.1335 0.0769218 19.6936L0 18.2621C0.0103209 17.8304 0.00793901 17.2539 0.035197 16.823L0.178279 15.4252C0.253789 15.006 0.339268 14.444 0.430833 14.0283L0.780334 12.6885C0.917593 12.2882 1.08661 11.7492 1.23896 11.3549L1.78014 10.0992C1.97642 9.72344 2.22553 9.21533 2.43601 8.84784L3.14913 7.70649C3.4037 7.35925 3.73274 6.88779 4.00065 6.55134L4.84705 5.56923C5.16673 5.24866 5.58628 4.81367 5.91884 4.50735L6.77363 3.77876C7.1967 3.46235 7.76462 3.04516 8.20259 2.75082L8.6029 2.5022C9.21246 2.14952 10.3467 1.49304 12.0759 0.889657L12.2574 0.829954C12.31 0.813259 12.3801 0.791209 12.4326 0.774424L12.5927 0.725427L12.7491 0.679334L12.8988 0.636597L13.0471 0.595767L13.1952 0.556387L13.344 0.518279L13.4983 0.480261L13.6555 0.442968L13.8251 0.404497C13.8776 0.393155 13.9475 0.377186 14.0001 0.36666L14.1985 0.326101C14.2606 0.314125 14.3434 0.297793 14.4056 0.28636L14.6548 0.241991C14.734 0.229106 14.8396 0.211412 14.9188 0.199073L15.2608 0.149803C15.372 0.136103 15.5202 0.116776 15.6315 0.104346L16.1501 0.0547133C16.3302 0.0430992 16.5702 0.0254058 16.7506 0.0169675C20.7206 -0.161145 24.5597 1.45848 27.5112 4.39212Z" fill="#C7C7C7"/>
<path id="Vector_5" d="M26.5961 3.54544C15.0635 -1.99487 8.97499 8.29953 12.1218 17.1971C15.2283 25.9809 28.2866 29.0159 32.7465 19.7508C32.821 19.5961 32.9024 19.3813 32.9691 19.2231C33.0723 18.8778 33.2099 18.4174 33.3131 18.0722C34.8541 8.81306 27.9882 4.3468 26.5961 3.54544C23.7875 1.14778 20.322 -0.146957 16.7506 0.0132973C17.2086 0.0035877 17.8197 0.0026801 18.2777 0.0135695L19.3923 0.10132C19.9077 0.176365 20.5943 0.280902 21.1053 0.382173L22.3462 0.700868C22.7691 0.843972 23.3365 1.02474 23.753 1.18608L24.9659 1.71874C25.3411 1.91893 25.8478 2.17374 26.2148 2.38926L27.3448 3.11621C27.6792 3.36957 28.1337 3.69543 28.4582 3.96213L29.4733 4.86676C29.7645 5.16958 30.1638 5.56269 30.4432 5.8772L31.318 6.94436C31.5611 7.29309 31.8983 7.74881 32.1277 8.10724L32.8387 9.32249C33.0278 9.71324 33.2949 10.227 33.4682 10.6254L33.9926 11.9745C34.1213 12.4035 34.3094 12.9706 34.4209 13.4045L34.7307 14.8459C34.8155 15.4798 34.9263 16.3262 34.9744 16.9642L35 18.3903C34.9744 18.8197 34.9563 19.3937 34.9141 19.8217L34.7228 21.2086C34.6328 21.624 34.5279 22.1816 34.4222 22.593L34.0275 23.9161C33.8767 24.3112 33.6892 24.8439 33.5233 25.2327L32.941 26.4654C32.7314 26.8349 32.4642 27.3352 32.2407 27.6959L31.4924 28.8058C31.2241 29.1466 30.8761 29.6094 30.5947 29.9385L29.7292 30.8744C29.3916 31.1906 28.9467 31.6189 28.5959 31.9198L27.7807 32.5674C27.3192 32.8914 26.6953 33.3105 26.2178 33.6088L25.8462 33.8206C25.3834 34.0682 24.2995 34.6475 22.9259 35.1111L22.7443 35.1709C22.6917 35.1876 22.6219 35.2104 22.5691 35.2264L22.4091 35.2754L22.2529 35.3214L22.1031 35.3641L21.9547 35.405L21.8067 35.4445L21.6578 35.4826L21.5037 35.5207L21.3465 35.5578L21.1769 35.5964C21.1243 35.6078 21.0544 35.6234 21.0018 35.6343L20.8035 35.6749C20.7414 35.6868 20.6586 35.7032 20.5964 35.7146L20.3472 35.759C20.268 35.7718 20.1625 35.7895 20.0832 35.8019L19.7413 35.8512C19.63 35.8648 19.4818 35.8841 19.3705 35.8965L18.8519 35.9463C18.6719 35.9579 18.4318 35.9754 18.2516 35.9839L17.35 36C16.1682 35.9579 16.0715 35.9545 15.2974 35.8583L14.0875 35.6553C13.6288 35.5437 13.0154 35.4008 12.562 35.2682L11.325 34.8408C10.9279 34.6687 10.3932 34.451 10.0032 34.2624L8.8267 33.6312C8.47182 33.4043 7.99088 33.1137 7.64499 32.8724L6.56853 32.0554C6.25502 31.7772 5.82719 31.4173 5.52462 31.1265L4.57606 30.1395C4.30798 29.8133 3.93855 29.3886 3.68325 29.0519L2.88686 27.9095C2.66978 27.5394 2.36632 27.0543 2.16387 26.6755L1.54268 25.3922C1.38274 24.9819 1.15374 24.4412 1.01013 24.0247L0.586794 22.6147L0.581149 22.5928L0.271344 21.1513C0.21277 20.7136 0.11803 20.1319 0.0769221 19.6919L0 18.2603C0.0103209 17.8285 0.0079394 17.252 0.0351973 16.821L0.178279 15.423C0.253789 15.0039 0.339268 14.4418 0.430833 14.026L0.780334 12.6862C0.917594 12.2858 1.08661 11.7467 1.23896 11.3523L1.78014 10.0966C1.97642 9.72077 2.22553 9.2126 2.43601 8.84509L3.14913 7.70361C3.4037 7.35633 3.73274 6.88483 4.00065 6.54834L4.84705 5.56613C5.16673 5.24553 5.58628 4.8105 5.91884 4.50415L6.77363 3.77547C7.1967 3.45904 7.76462 3.0418 8.20259 2.74742L8.6029 2.49879C9.21255 2.14607 10.3468 1.48952 12.076 0.886077L12.2575 0.826367C12.31 0.80967 12.3802 0.787619 12.4327 0.770832L12.5928 0.721829L12.7491 0.675731L12.8989 0.632991L13.0472 0.592156L13.1953 0.552772L13.3441 0.51466L13.4984 0.476638L13.6556 0.439343L13.8252 0.400867C13.8777 0.389523 13.9476 0.373553 14.0002 0.363026L14.1986 0.322464C14.2607 0.310486 14.3435 0.294151 14.4057 0.282718L14.6549 0.238343C14.7341 0.225457 14.8396 0.207763 14.9189 0.195422L15.2609 0.146147C15.3721 0.132444 15.5203 0.113116 15.6316 0.100684L16.1502 0.0510471C16.3303 0.0394318 16.5703 0.0217366 16.7506 0.0132973C20.322 -0.146957 23.7875 1.14778 26.5961 3.54544Z" fill="#C2C2C2"/>
<path id="Vector_6" d="M25.7322 2.86133C14.3793 -2.21984 7.96627 9.01444 11.65 17.6265C15.0965 25.6834 27.3488 30.2636 32.8739 20.4296C32.9613 20.221 33.0779 19.9429 33.1652 19.7344C35.494 11.9479 31.1099 5.64926 25.7322 2.86133C23.0916 0.906444 19.964 -0.127301 16.7506 0.0169675C16.9912 0.0118863 17.3117 0.00508116 17.5523 0L18.2777 0.0172399L19.3923 0.10498C19.9077 0.180019 20.5943 0.284545 21.1053 0.385806L22.3462 0.704468C22.7691 0.847556 23.3365 1.0283 23.753 1.18962L24.9659 1.72225C25.3411 1.9224 25.8478 2.17719 26.2148 2.39268L27.3448 3.11956C27.6792 3.37289 28.1337 3.69872 28.4582 3.96539L29.4733 4.86993C29.7645 5.17271 30.1638 5.56578 30.4432 5.88027L31.318 6.94731C31.5611 7.29601 31.8983 7.75168 32.1277 8.11009L32.8387 9.32521C33.0278 9.71592 33.2949 10.2297 33.4682 10.628L33.9926 11.977C34.1213 12.4059 34.3094 12.9728 34.4209 13.4068L34.7307 14.8479C34.8155 15.4819 34.9263 16.3281 34.9744 16.9661L35 18.3921C34.9744 18.8214 34.9563 19.3953 34.9141 19.8233L34.7228 21.2101C34.6328 21.6254 34.5279 22.183 34.4222 22.5944L34.0275 23.9173C33.8767 24.3124 33.6892 24.8451 33.5233 25.2338L32.941 26.4664C32.7314 26.8358 32.4642 27.3361 32.2407 27.6967L31.4924 28.8066C31.2241 29.1472 30.8761 29.6099 30.5947 29.9391L29.7292 30.8749C29.3916 31.1911 28.9467 31.6192 28.5959 31.9202L27.7807 32.5677C27.3192 32.8917 26.6953 33.3107 26.2178 33.609L25.8462 33.8209C25.3834 34.0683 24.2995 34.6477 22.9259 35.1112L22.7443 35.171C22.6917 35.1876 22.6219 35.2105 22.5691 35.2265L22.4091 35.2753L22.2529 35.3215L22.1031 35.3642L21.9547 35.405L21.8067 35.4445L21.6578 35.4826L21.5037 35.5207L21.3465 35.5579L21.1769 35.5965C21.1243 35.6078 21.0544 35.6235 21.0018 35.6343L20.8035 35.6748C20.7414 35.6867 20.6586 35.7031 20.5964 35.7146L20.3472 35.7589C20.268 35.7718 20.1625 35.7896 20.0832 35.8019L19.7413 35.8511C19.63 35.8648 19.4818 35.8841 19.3705 35.8965L18.8519 35.9462C18.6719 35.9579 18.4318 35.9754 18.2516 35.9838L17.35 36C16.1682 35.9579 16.0715 35.9545 15.2974 35.8583L14.0875 35.6553C13.6288 35.5438 13.0154 35.4008 12.562 35.2683L11.325 34.8409C10.9279 34.6688 10.3932 34.4511 10.0032 34.2626L8.8267 33.6315C8.47182 33.4045 7.99088 33.114 7.645 32.8727L6.56853 32.0558C6.25502 31.7775 5.82719 31.4178 5.52462 31.127L4.57606 30.14C4.30798 29.8139 3.93855 29.3893 3.68325 29.0526L2.88686 27.9103C2.66978 27.5403 2.36632 27.0552 2.16387 26.6765L1.54268 25.3932C1.38274 24.9831 1.15374 24.4424 1.01013 24.0259L0.586794 22.6159L0.581149 22.5942L0.271344 21.1528C0.21277 20.7151 0.118029 20.1335 0.0769218 19.6936L0 18.2621C0.0103209 17.8303 0.00793901 17.2539 0.035197 16.823L0.178279 15.4251C0.253789 15.006 0.339268 14.444 0.430833 14.0283L0.780334 12.6884C0.917593 12.2882 1.08661 11.7492 1.23896 11.3548L1.78014 10.0992C1.97642 9.72344 2.22553 9.21533 2.43601 8.84786L3.14913 7.70649C3.4037 7.35925 3.73274 6.88779 4.00065 6.55135L4.84705 5.56923C5.16673 5.24867 5.58628 4.81368 5.91884 4.50736L6.77363 3.77876C7.1967 3.46236 7.76462 3.04516 8.20259 2.75082L8.6029 2.5022C9.21246 2.14942 10.3467 1.49296 12.0759 0.889567L12.2574 0.829864C12.31 0.813168 12.3801 0.79112 12.4326 0.774334L12.5927 0.725336L12.7491 0.679243L12.8988 0.636506L13.0471 0.595676L13.1952 0.556297L13.344 0.518189L13.4983 0.48017L13.6555 0.442878L13.8251 0.404406C13.8776 0.393065 13.9475 0.377095 14.0001 0.36657L14.1985 0.326012C14.2606 0.314035 14.3434 0.297702 14.4056 0.28627L14.6548 0.2419C14.734 0.229015 14.8396 0.211322 14.9188 0.198982L15.2608 0.149713C15.372 0.136012 15.5202 0.116685 15.6315 0.104255L16.1501 0.0546227C16.3302 0.0430085 16.5702 0.0254059 16.7506 0.0169675C19.964 -0.127301 23.0916 0.906444 25.7322 2.86133Z" fill="#BDBDBD"/>
<path id="Vector_7" d="M24.8774 2.26813C13.1097 -1.84478 7.52794 9.26062 11.0912 17.801C14.2082 25.2715 25.931 31.6015 32.7189 21.5602C32.7502 21.5024 32.7918 21.4253 32.8231 21.3675C36.5185 12.9694 31.4874 5.25915 24.8774 2.26813C22.4283 0.697062 19.6236 -0.115645 16.7506 0.0133029C17.2086 0.00359316 17.8197 0.00268591 18.2777 0.0135753L19.3923 0.101325C19.9077 0.17637 20.5943 0.280909 21.1053 0.382178L22.3462 0.700873C22.7691 0.843978 23.3365 1.02474 23.753 1.18608L24.9659 1.71875C25.3411 1.91894 25.8478 2.17375 26.2148 2.38927L27.3448 3.11622C27.6792 3.36958 28.1337 3.69544 28.4582 3.96214L29.4733 4.86677C29.7645 5.16959 30.1638 5.56269 30.4432 5.87721L31.318 6.94437C31.5611 7.2931 31.8983 7.74881 32.1277 8.10726L32.8387 9.32251C33.0278 9.71325 33.2949 10.227 33.4682 10.6254L33.9926 11.9745C34.1213 12.4035 34.3094 12.9705 34.4209 13.4044L34.7307 14.8459C34.8155 15.4797 34.9263 16.3262 34.9744 16.9642L35 18.3903C34.9744 18.8198 34.9563 19.3937 34.9141 19.8218L34.7228 21.2087C34.6328 21.624 34.5279 22.1817 34.4222 22.5931L34.0275 23.9162C33.8767 24.3112 33.6892 24.844 33.5233 25.2328L32.941 26.4654C32.7314 26.8349 32.4642 27.3352 32.2407 27.6959L31.4924 28.8058C31.2241 29.1466 30.8761 29.6094 30.5947 29.9386L29.7292 30.8744C29.3916 31.1906 28.9467 31.6189 28.5959 31.9199L27.7807 32.5674C27.3192 32.8914 26.6953 33.3106 26.2178 33.6088L25.8462 33.8207C25.3834 34.0682 24.2995 34.6475 22.9259 35.1111L22.7443 35.1709C22.6917 35.1876 22.6219 35.2105 22.5691 35.2264L22.4091 35.2754L22.2529 35.3214L22.1031 35.3642L21.9547 35.405L21.8067 35.4445L21.6578 35.4826L21.5037 35.5207L21.3465 35.5579L21.1769 35.5965C21.1243 35.6078 21.0544 35.6234 21.0018 35.6343L20.8035 35.6749C20.7414 35.6868 20.6586 35.7032 20.5964 35.7146L20.3472 35.759C20.268 35.7719 20.1625 35.7895 20.0832 35.8019L19.7413 35.8512C19.63 35.8648 19.4818 35.8841 19.3705 35.8965L18.8519 35.9463C18.6719 35.9579 18.4318 35.9754 18.2516 35.9839L17.35 36C16.1682 35.9579 16.0715 35.9545 15.2974 35.8583L14.0875 35.6553C13.6288 35.5437 13.0154 35.4008 12.562 35.2682L11.325 34.8408C10.9279 34.6687 10.3932 34.451 10.0032 34.2625L8.8267 33.6312C8.47182 33.4043 7.99088 33.1137 7.645 32.8724L6.56853 32.0554C6.25502 31.7772 5.82719 31.4173 5.52462 31.1265L4.57606 30.1395C4.30798 29.8134 3.93855 29.3886 3.68325 29.0519L2.88686 27.9095C2.66978 27.5395 2.36632 27.0543 2.16387 26.6755L1.54268 25.3922C1.38274 24.982 1.15374 24.4412 1.01013 24.0248L0.586794 22.6147L0.581149 22.5929L0.271344 21.1513C0.21277 20.7135 0.118029 20.1319 0.0769218 19.692L0 18.2603C0.0103209 17.8286 0.00793901 17.252 0.035197 16.821L0.178279 15.423C0.253789 15.0039 0.339268 14.4419 0.430833 14.026L0.780334 12.6861C0.917593 12.2859 1.08661 11.7467 1.23896 11.3524L1.78014 10.0965C1.97642 9.72079 2.22553 9.21262 2.43601 8.8451L3.14913 7.70363C3.4037 7.35635 3.73274 6.88484 4.00065 6.54836L4.84705 5.56614C5.16673 5.24554 5.58628 4.81051 5.91884 4.50416L6.77363 3.77547C7.1967 3.45905 7.76462 3.04181 8.20259 2.74743L8.6029 2.4988C9.21246 2.14598 10.3467 1.48944 12.0759 0.885993L12.2574 0.826282C12.31 0.809585 12.3801 0.787534 12.4326 0.770747L12.5927 0.721745L12.7491 0.675647L12.8988 0.632906L13.0471 0.592072L13.1952 0.552688L13.344 0.514575L13.4983 0.476554L13.6555 0.439258L13.8251 0.400782C13.8776 0.389439 13.9475 0.373467 14.0001 0.362942L14.1985 0.322378C14.2606 0.3104 14.3434 0.294067 14.4056 0.282632L14.6548 0.238258C14.734 0.225373 14.8396 0.207677 14.9188 0.195336L15.2608 0.146062C15.372 0.13236 15.5202 0.113031 15.6315 0.1006L16.1501 0.0509618C16.3302 0.0393466 16.5702 0.021742 16.7506 0.0133029C19.6236 -0.115645 22.4283 0.697062 24.8774 2.26813Z" fill="#B8B8B8"/>
<path id="Vector_8" d="M24.0217 1.76163C11.5311 -1.72387 6.46779 10.7948 11.2681 19.5583C15.281 26.8844 26.3953 31.1743 32.5134 22.6276C37.1853 14.2884 31.7849 4.56334 24.0217 1.76163C21.7845 0.526807 19.2944 -0.0970865 16.7506 0.0169675C16.9912 0.0118863 17.3117 0.00508116 17.5523 0L18.2777 0.0172395L19.3923 0.10498C19.9077 0.180018 20.5943 0.284545 21.1053 0.385806L22.3462 0.704467C22.7691 0.847556 23.3365 1.0283 23.753 1.18962L24.9659 1.72224C25.3411 1.9224 25.8478 2.17719 26.2148 2.39268L27.3448 3.11956C27.6792 3.37289 28.1337 3.69872 28.4582 3.96539L29.4733 4.86993C29.7645 5.17271 30.1638 5.56578 30.4432 5.88027L31.318 6.94731C31.5611 7.29601 31.8983 7.75168 32.1277 8.11008L32.8387 9.3252C33.0278 9.71591 33.2949 10.2297 33.4682 10.628L33.9926 11.977C34.1213 12.4058 34.3094 12.9728 34.4209 13.4068L34.7307 14.848C34.8155 15.4819 34.9263 16.3281 34.9744 16.9661L35 18.392C34.9744 18.8215 34.9563 19.3953 34.9141 19.8233L34.7228 21.2101C34.6328 21.6255 34.5279 22.183 34.4222 22.5944L34.0275 23.9173C33.8767 24.3124 33.6892 24.8451 33.5233 25.2338L32.941 26.4664C32.7314 26.8358 32.4642 27.336 32.2407 27.6967L31.4924 28.8066C31.2241 29.1472 30.8761 29.6099 30.5947 29.9391L29.7292 30.8748C29.3916 31.1911 28.9467 31.6192 28.5959 31.9202L27.7807 32.5677C27.3192 32.8916 26.6953 33.3107 26.2178 33.609L25.8462 33.8209C25.3834 34.0682 24.2995 34.6477 22.9259 35.1112L22.7443 35.1709C22.6917 35.1876 22.6219 35.2105 22.5691 35.2265L22.4091 35.2753L22.2529 35.3215L22.1031 35.3642L21.9547 35.405L21.8067 35.4445L21.6578 35.4825L21.5037 35.5207L21.3465 35.5579L21.1769 35.5965C21.1243 35.6077 21.0544 35.6234 21.0018 35.6342L20.8035 35.6748C20.7414 35.6867 20.6586 35.7031 20.5964 35.7146L20.3472 35.7589C20.268 35.7718 20.1625 35.7896 20.0832 35.8019L19.7413 35.8511C19.63 35.8647 19.4818 35.8841 19.3705 35.8965L18.8519 35.9462C18.6719 35.9579 18.4318 35.9753 18.2516 35.9838L17.35 36C16.1682 35.9579 16.0715 35.9544 15.2974 35.8583L14.0875 35.6553C13.6288 35.5438 13.0154 35.4008 12.562 35.2683L11.325 34.8408C10.9279 34.6688 10.3932 34.4511 10.0032 34.2626L8.8267 33.6314C8.47182 33.4045 7.99088 33.1139 7.645 32.8727L6.56853 32.0558C6.25502 31.7775 5.82719 31.4178 5.52462 31.127L4.57606 30.14C4.30798 29.8139 3.93855 29.3892 3.68325 29.0526L2.88686 27.9103C2.66978 27.5403 2.36632 27.0552 2.16387 26.6765L1.54268 25.3932C1.38274 24.9831 1.15374 24.4423 1.01013 24.0259L0.586794 22.616L0.581149 22.5942L0.271344 21.1528C0.21277 20.7151 0.118029 20.1335 0.0769218 19.6936L0 18.2621C0.0103209 17.8304 0.00793901 17.2539 0.035197 16.823L0.178279 15.4252C0.253789 15.006 0.339268 14.444 0.430833 14.0283L0.780334 12.6885C0.917593 12.2882 1.08661 11.7492 1.23896 11.3549L1.78014 10.0992C1.97642 9.72344 2.22553 9.21533 2.43601 8.84784L3.14913 7.70649C3.4037 7.35925 3.73274 6.88779 4.00065 6.55134L4.84705 5.56923C5.16673 5.24866 5.58628 4.81367 5.91884 4.50735L6.77363 3.77876C7.1967 3.46235 7.76462 3.04516 8.20259 2.75082L8.6029 2.5022C9.21246 2.14952 10.3467 1.49304 12.0759 0.889657L12.2574 0.829954C12.31 0.813259 12.3801 0.791209 12.4326 0.774424L12.5927 0.725427L12.7491 0.679334L12.8988 0.636597L13.0471 0.595767L13.1952 0.556387L13.344 0.518279L13.4983 0.480261L13.6555 0.442968L13.8251 0.404497C13.8776 0.393155 13.9475 0.377186 14.0001 0.36666L14.1985 0.326101C14.2606 0.314125 14.3434 0.297793 14.4056 0.28636L14.6548 0.241991C14.734 0.229106 14.8396 0.211412 14.9188 0.199073L15.2608 0.149803C15.372 0.136103 15.5202 0.116776 15.6315 0.104346L16.1501 0.0547133C16.3302 0.0430992 16.5702 0.0254058 16.7506 0.0169675C19.2944 -0.0970865 21.7845 0.526807 24.0217 1.76163Z" fill="#B3B3B3"/>
<path id="Vector_9" d="M23.1677 1.32219C11.6194 -1.65196 5.36742 10.3614 10.6487 19.7571C15.1815 27.8213 25.8307 31.3598 32.2568 23.6588C32.3996 23.4468 32.5901 23.1643 32.733 22.9525C37.5809 13.9103 31.6814 4.07501 23.1677 1.32219C21.1586 0.378181 18.9752 -0.0865218 16.7506 0.013297C17.2086 0.00358736 17.8197 0.00267976 18.2777 0.0135691L19.3923 0.101319C19.9077 0.176365 20.5943 0.280902 21.1053 0.382173L22.3462 0.700868C22.7691 0.843971 23.3365 1.02474 23.753 1.18608L24.9659 1.71874C25.3411 1.91893 25.8478 2.17374 26.2148 2.38926L27.3448 3.11621C27.6792 3.36957 28.1337 3.69543 28.4582 3.96213L29.4733 4.86676C29.7645 5.16958 30.1638 5.56269 30.4432 5.8772L31.318 6.94436C31.5611 7.29309 31.8983 7.74881 32.1277 8.10724L32.8387 9.32249C33.0278 9.71324 33.2949 10.227 33.4682 10.6254L33.9926 11.9745C34.1213 12.4035 34.3094 12.9706 34.4209 13.4045L34.7307 14.8459C34.8155 15.4798 34.9263 16.3262 34.9744 16.9642L35 18.3903C34.9744 18.8197 34.9563 19.3937 34.9141 19.8217L34.7228 21.2086C34.6328 21.624 34.5279 22.1816 34.4222 22.593L34.0275 23.9161C33.8767 24.3112 33.6892 24.8439 33.5233 25.2327L32.941 26.4654C32.7314 26.8349 32.4642 27.3352 32.2407 27.6959L31.4924 28.8058C31.2241 29.1466 30.8761 29.6094 30.5947 29.9385L29.7292 30.8744C29.3916 31.1906 28.9467 31.6189 28.5959 31.9198L27.7807 32.5674C27.3192 32.8914 26.6953 33.3105 26.2178 33.6088L25.8462 33.8206C25.3834 34.0682 24.2995 34.6475 22.9259 35.1111L22.7443 35.1709C22.6917 35.1876 22.6219 35.2104 22.5691 35.2264L22.4091 35.2754L22.2529 35.3214L22.1031 35.3641L21.9547 35.405L21.8067 35.4445L21.6578 35.4826L21.5037 35.5207L21.3465 35.5578L21.1769 35.5964C21.1243 35.6078 21.0544 35.6234 21.0018 35.6343L20.8035 35.6749C20.7414 35.6868 20.6586 35.7032 20.5964 35.7146L20.3472 35.759C20.268 35.7718 20.1625 35.7895 20.0832 35.8019L19.7413 35.8512C19.63 35.8648 19.4818 35.8841 19.3705 35.8965L18.8519 35.9463C18.6719 35.9579 18.4318 35.9754 18.2516 35.9839L17.35 36C16.1682 35.9579 16.0715 35.9545 15.2974 35.8583L14.0875 35.6553C13.6288 35.5437 13.0154 35.4008 12.562 35.2682L11.325 34.8408C10.9279 34.6687 10.3932 34.451 10.0032 34.2624L8.8267 33.6312C8.47182 33.4043 7.99088 33.1137 7.64499 32.8724L6.56853 32.0554C6.25502 31.7772 5.82719 31.4173 5.52462 31.1265L4.57606 30.1395C4.30798 29.8133 3.93855 29.3886 3.68325 29.0519L2.88686 27.9095C2.66978 27.5394 2.36632 27.0543 2.16387 26.6755L1.54268 25.3922C1.38274 24.9819 1.15374 24.4412 1.01013 24.0247L0.586794 22.6147L0.581149 22.5928L0.271344 21.1513C0.21277 20.7136 0.11803 20.1319 0.0769221 19.6919L0 18.2603C0.0103209 17.8285 0.0079394 17.252 0.0351973 16.821L0.178279 15.423C0.253789 15.0039 0.339268 14.4418 0.430833 14.026L0.780334 12.6862C0.917594 12.2858 1.08661 11.7467 1.23896 11.3523L1.78014 10.0966C1.97642 9.72077 2.22553 9.2126 2.43601 8.84508L3.14913 7.70361C3.4037 7.35633 3.73274 6.88483 4.00065 6.54834L4.84705 5.56613C5.16673 5.24553 5.58628 4.8105 5.91884 4.50415L6.77363 3.77547C7.1967 3.45904 7.76462 3.0418 8.20259 2.74742L8.6029 2.49879C9.21255 2.14607 10.3468 1.48952 12.076 0.886077L12.2575 0.826367C12.31 0.80967 12.3802 0.787619 12.4327 0.770832L12.5928 0.721829L12.7491 0.675731L12.8989 0.63299L13.0472 0.592156L13.1953 0.552772L13.3441 0.51466L13.4984 0.476638L13.6556 0.439342L13.8252 0.400866C13.8777 0.389523 13.9476 0.373553 14.0002 0.363026L14.1986 0.322464C14.2607 0.310486 14.3435 0.294151 14.4057 0.282718L14.6549 0.238343C14.7341 0.225457 14.8396 0.207762 14.9189 0.195421L15.2609 0.146146C15.3721 0.132444 15.5203 0.113116 15.6316 0.100684L16.1502 0.0510467C16.3303 0.0394314 16.5703 0.0217362 16.7506 0.013297C18.9752 -0.0865218 21.1586 0.378181 23.1677 1.32219Z" fill="#ADADAD"/>
<path id="Vector_10" d="M22.2995 0.948435C8.93944 -1.53824 4.83946 12.8612 10.8764 21.4704C14.1506 26.1398 23.6095 33.064 31.9494 24.6645C38.2421 16.8458 32.8309 3.54699 22.2995 0.948435C20.5361 0.257235 18.6585 -0.0723495 16.7506 0.0133132C17.2086 0.00360356 17.8197 0.0026963 18.2777 0.0135856L19.3923 0.101336C19.9077 0.176381 20.5943 0.280919 21.1053 0.38219L22.3462 0.700884C22.7691 0.843988 23.3365 1.02476 23.753 1.1861L24.9659 1.71876C25.3411 1.91895 25.8478 2.17376 26.2148 2.38928L27.3448 3.11623C27.6792 3.36959 28.1337 3.69545 28.4582 3.96215L29.4733 4.86678C29.7645 5.1696 30.1638 5.5627 30.4432 5.87722L31.318 6.94438C31.5611 7.29311 31.8983 7.74882 32.1277 8.10727L32.8387 9.32252C33.0278 9.71326 33.2949 10.2271 33.4682 10.6254L33.9926 11.9745C34.1213 12.4035 34.3094 12.9705 34.4209 13.4044L34.7307 14.8459C34.8155 15.4798 34.9263 16.3262 34.9744 16.9642L35 18.3903C34.9744 18.8198 34.9563 19.3937 34.9141 19.8218L34.7228 21.2087C34.6328 21.6241 34.5279 22.1817 34.4222 22.5931L34.0275 23.9162C33.8767 24.3112 33.6892 24.844 33.5233 25.2328L32.941 26.4654C32.7314 26.8349 32.4642 27.3352 32.2407 27.696L31.4924 28.8059C31.2241 29.1466 30.8761 29.6094 30.5947 29.9386L29.7292 30.8744C29.3916 31.1906 28.9467 31.6189 28.5959 31.9199L27.7807 32.5675C27.3192 32.8914 26.6953 33.3106 26.2178 33.6089L25.8462 33.8207C25.3834 34.0682 24.2995 34.6475 22.9259 35.1111L22.7443 35.1709C22.6917 35.1876 22.6219 35.2105 22.5691 35.2264L22.4091 35.2754L22.2529 35.3214L22.1031 35.3642L21.9547 35.405L21.8067 35.4445L21.6578 35.4826L21.5037 35.5207L21.3465 35.5579L21.1769 35.5965C21.1243 35.6078 21.0544 35.6234 21.0018 35.6343L20.8035 35.6749C20.7414 35.6868 20.6586 35.7032 20.5964 35.7146L20.3472 35.759C20.268 35.7719 20.1625 35.7895 20.0832 35.8019L19.7413 35.8512C19.63 35.8648 19.4818 35.8841 19.3705 35.8965L18.8519 35.9463C18.6719 35.9579 18.4318 35.9754 18.2516 35.9839L17.35 36C16.1682 35.9579 16.0715 35.9545 15.2974 35.8583L14.0875 35.6553C13.6288 35.5437 13.0154 35.4009 12.562 35.2683L11.325 34.8408C10.9279 34.6687 10.3932 34.451 10.0032 34.2625L8.8267 33.6312C8.47182 33.4043 7.99088 33.1137 7.64499 32.8724L6.56853 32.0554C6.25502 31.7772 5.82719 31.4173 5.52462 31.1265L4.57606 30.1395C4.30798 29.8134 3.93855 29.3886 3.68325 29.052L2.88686 27.9095C2.66978 27.5395 2.36632 27.0543 2.16387 26.6756L1.54268 25.3922C1.38274 24.982 1.15374 24.4412 1.01013 24.0248L0.586794 22.6147L0.581149 22.5929L0.271344 21.1513C0.21277 20.7135 0.11803 20.1319 0.0769221 19.692L0 18.2603C0.0103209 17.8286 0.0079394 17.252 0.0351973 16.8211L0.178279 15.4231C0.253789 15.0039 0.339268 14.4419 0.430833 14.0261L0.780334 12.6861C0.917594 12.2859 1.08661 11.7467 1.23896 11.3524L1.78014 10.0965C1.97642 9.7208 2.22553 9.21263 2.43601 8.84511L3.14913 7.70364C3.4037 7.35636 3.73274 6.88485 4.00065 6.54837L4.84705 5.56615C5.16673 5.24555 5.58628 4.81052 5.91884 4.50417L6.77363 3.77548C7.1967 3.45906 7.76462 3.04182 8.20259 2.74744L8.6029 2.49881C9.21255 2.14599 10.3468 1.48945 12.076 0.886003L12.2575 0.826293C12.31 0.809596 12.3802 0.787545 12.4327 0.770758L12.5928 0.721755L12.7491 0.675657L12.8989 0.632916L13.0472 0.592082L13.1953 0.552698L13.3441 0.514586L13.4984 0.476564L13.6556 0.439268L13.8252 0.400792C13.8777 0.389449 13.9476 0.373478 14.0002 0.362952L14.1986 0.322389C14.2607 0.310411 14.3435 0.294077 14.4057 0.282643L14.6549 0.238269C14.7341 0.225383 14.8396 0.207688 14.9189 0.195346L15.2609 0.146073C15.3721 0.13237 15.5203 0.113041 15.6316 0.10061L16.1502 0.0509723C16.3303 0.039357 16.5703 0.0217524 16.7506 0.0133132C18.6585 -0.0723495 20.5361 0.257235 22.2995 0.948435Z" fill="#A8A8A8"/>
<path id="Vector_11" d="M21.4112 0.634064C8.38034 -1.18509 3.66711 13.0416 11.0072 22.8457C14.4587 27.4557 24.0389 33.0123 31.5879 25.6547C31.7919 25.4079 32.0639 25.0787 32.268 24.8318C38.6545 16.5947 32.4651 2.79977 21.4112 0.634064C19.9112 0.159198 18.3414 -0.058044 16.7506 0.0132811C17.2086 0.00357143 17.8197 0.00266384 18.2777 0.0135532L19.3923 0.101304C19.9077 0.176349 20.5943 0.280886 21.1053 0.382157L22.3462 0.700852C22.7691 0.843955 23.3365 1.02472 23.753 1.18607L24.9659 1.71873C25.3411 1.91891 25.8478 2.17372 26.2148 2.38924L27.3448 3.11619C27.6792 3.36955 28.1337 3.69541 28.4582 3.96211L29.4733 4.86674C29.7645 5.16956 30.1638 5.56266 30.4432 5.87718L31.318 6.94433C31.5611 7.29307 31.8983 7.74879 32.1277 8.10723L32.8387 9.32247C33.0278 9.71323 33.2949 10.227 33.4682 10.6254L33.9926 11.9745C34.1213 12.4035 34.3094 12.9704 34.4209 13.4045L34.7307 14.8458C34.8155 15.4798 34.9263 16.3261 34.9744 16.9642L35 18.3903C34.9744 18.8197 34.9563 19.3936 34.9141 19.8217L34.7228 21.2086C34.6328 21.624 34.5279 22.1816 34.4222 22.593L34.0275 23.9161C33.8767 24.3112 33.6892 24.8439 33.5233 25.2327L32.941 26.4654C32.7314 26.8349 32.4642 27.3352 32.2407 27.6959L31.4924 28.8058C31.2241 29.1466 30.8761 29.6093 30.5947 29.9385L29.7292 30.8744C29.3916 31.1906 28.9467 31.6188 28.5959 31.9198L27.7807 32.5674C27.3192 32.8914 26.6953 33.3105 26.2178 33.6088L25.8462 33.8206C25.3834 34.0682 24.2995 34.6475 22.9259 35.1111L22.7443 35.1709C22.6917 35.1875 22.6219 35.2104 22.5691 35.2264L22.4091 35.2753L22.2529 35.3214L22.1031 35.3641L21.9547 35.405L21.8067 35.4444L21.6578 35.4826L21.5037 35.5207L21.3465 35.5578L21.1769 35.5964C21.1243 35.6078 21.0544 35.6234 21.0018 35.6343L20.8035 35.6748C20.7414 35.6867 20.6586 35.7031 20.5964 35.7146L20.3472 35.7589C20.268 35.7718 20.1625 35.7895 20.0832 35.8018L19.7413 35.8512C19.63 35.8648 19.4818 35.884 19.3705 35.8965L18.8519 35.9463C18.6719 35.9579 18.4318 35.9754 18.2516 35.9838L17.35 36C16.1682 35.9579 16.0715 35.9545 15.2974 35.8583L14.0875 35.6553C13.6288 35.5437 13.0154 35.4008 12.562 35.2682L11.325 34.8408C10.9279 34.6687 10.3932 34.451 10.0032 34.2624L8.8267 33.6312C8.47182 33.4043 7.99088 33.1137 7.645 32.8723L6.56853 32.0554C6.25502 31.7771 5.82719 31.4173 5.52462 31.1265L4.57606 30.1395C4.30798 29.8133 3.93855 29.3886 3.68325 29.0519L2.88686 27.9094C2.66978 27.5394 2.36632 27.0543 2.16387 26.6755L1.54268 25.3922C1.38274 24.9819 1.15374 24.4412 1.01013 24.0247L0.586794 22.6147L0.581149 22.5928L0.271344 21.1513C0.21277 20.7136 0.118029 20.1319 0.0769218 19.6919L0 18.2603C0.0103209 17.8285 0.00793901 17.252 0.035197 16.821L0.178279 15.423C0.253789 15.0038 0.339268 14.4418 0.430833 14.026L0.780334 12.6862C0.917593 12.2858 1.08661 11.7467 1.23896 11.3523L1.78014 10.0966C1.97642 9.72075 2.22553 9.21258 2.43601 8.84507L3.14913 7.70359C3.4037 7.35631 3.73274 6.88481 4.00065 6.54833L4.84705 5.56611C5.16673 5.24552 5.58628 4.81049 5.91884 4.50413L6.77363 3.77545C7.1967 3.45903 7.76462 3.04178 8.20259 2.74741L8.6029 2.49877C9.21246 2.14605 10.3467 1.48951 12.0759 0.886061L12.2574 0.826351C12.31 0.809654 12.3801 0.787603 12.4326 0.770816L12.5927 0.721813L12.7491 0.675715L12.8988 0.632975L13.0471 0.59214L13.1952 0.552756L13.344 0.514644L13.4983 0.476622L13.6555 0.439326L13.8251 0.40085C13.8776 0.389507 13.9475 0.373537 14.0001 0.36301L14.1985 0.322448C14.2606 0.310469 14.3434 0.294135 14.4056 0.282702L14.6548 0.238327C14.734 0.225441 14.8396 0.207747 14.9188 0.195405L15.2608 0.146131C15.372 0.132428 15.5202 0.1131 15.6315 0.100668L16.1501 0.0510308C16.3302 0.0394155 16.5702 0.0217202 16.7506 0.0132811C18.3414 -0.058044 19.9112 0.159198 21.4112 0.634064Z" fill="#A3A3A3"/>
<path id="Vector_12" d="M25.843 2.25517C23.5302 0.953944 22.1403 0.690015 20.7962 0.434776C19.561 0.0989725 18.2873 -0.0455047 17 0.0193396C17.244 0.0135479 17.5691 0.0057915 17.8131 0L18.5491 0.0196496L19.6798 0.119656C20.2025 0.205184 20.899 0.324324 21.4174 0.439741L22.6762 0.802951C23.1052 0.966043 23.6808 1.17206 24.1033 1.35593L25.3338 1.963C25.7144 2.19115 26.2284 2.48155 26.6007 2.72718C26.7205 2.80909 26.8802 2.91819 27 3C26.6702 2.78674 26.2304 2.50235 25.9007 2.28909C25.8835 2.27895 25.8605 2.26499 25.843 2.25517Z" fill="#9E9E9E"/>
<path id="Vector_13" d="M20.4928 0.377745C7.48542 -1.02825 2.93812 13.8323 10.473 23.3603C14.2962 28.1945 23.2945 33.3606 31.1645 26.6427C31.3523 26.4451 31.6028 26.1818 31.7907 25.9843C35.917 20.814 35.2182 15.3771 33.9052 11.7266L34.3472 13.126L34.4209 13.4044L34.7307 14.8459C34.8155 15.4798 34.9263 16.3262 34.9744 16.9642L35 18.3903C34.9744 18.8198 34.9563 19.3937 34.9141 19.8218L34.7228 21.2087C34.6328 21.6241 34.5279 22.1817 34.4222 22.5931L34.0275 23.9162C33.8767 24.3113 33.6892 24.844 33.5233 25.2328L32.941 26.4654C32.7314 26.8349 32.4642 27.3352 32.2407 27.696L31.4924 28.8059C31.2241 29.1466 30.8761 29.6094 30.5947 29.9386L29.7292 30.8744C29.3916 31.1906 28.9467 31.6189 28.5959 31.9199L27.7807 32.5675C27.3192 32.8914 26.6953 33.3106 26.2178 33.6089L25.8462 33.8207C25.3834 34.0682 24.2995 34.6476 22.9259 35.1111L22.7443 35.1709C22.6917 35.1876 22.6219 35.2105 22.5691 35.2264L22.4091 35.2754L22.2529 35.3214L22.1031 35.3642L21.9547 35.405L21.8067 35.4445L21.6578 35.4826L21.5037 35.5208L21.3465 35.5579L21.1769 35.5965C21.1243 35.6078 21.0544 35.6234 21.0018 35.6343L20.8035 35.6749C20.7414 35.6868 20.6586 35.7032 20.5964 35.7146L20.3472 35.759C20.268 35.7719 20.1625 35.7895 20.0832 35.8019L19.7413 35.8512C19.63 35.8648 19.4818 35.8841 19.3705 35.8965L18.8519 35.9463C18.6719 35.9579 18.4318 35.9754 18.2516 35.9839L17.35 36C16.1682 35.9579 16.0715 35.9545 15.2974 35.8583L14.0875 35.6553C13.6288 35.5437 13.0154 35.4009 12.562 35.2683L11.325 34.8408C10.9279 34.6687 10.3932 34.451 10.0032 34.2625L8.8267 33.6312C8.47182 33.4043 7.99088 33.1137 7.64499 32.8724L6.56853 32.0555C6.25502 31.7772 5.82719 31.4173 5.52462 31.1266L4.57606 30.1395C4.30798 29.8134 3.93855 29.3886 3.68325 29.052L2.88686 27.9095C2.66978 27.5395 2.36632 27.0543 2.16387 26.6756L1.54268 25.3922C1.38274 24.982 1.15374 24.4412 1.01013 24.0248L0.586794 22.6147L0.581149 22.5929L0.271344 21.1514C0.21277 20.7136 0.118029 20.1319 0.0769218 19.692L0 18.2603C0.0103209 17.8286 0.00793901 17.252 0.035197 16.8211L0.178279 15.4231C0.253789 15.0039 0.339268 14.4419 0.430833 14.0261L0.780334 12.6861C0.917593 12.2859 1.08661 11.7467 1.23896 11.3524L1.78014 10.0965C1.97642 9.7208 2.22553 9.21263 2.43601 8.84511L3.14913 7.70364C3.4037 7.35636 3.73274 6.88485 4.00065 6.54837L4.84705 5.56615C5.16673 5.24555 5.58628 4.81052 5.91884 4.50417L6.77363 3.77549C7.1967 3.45906 7.76462 3.04182 8.20259 2.74744L8.6029 2.49881C9.21237 2.146 10.3467 1.48945 12.0758 0.886005L12.2573 0.826294C12.3099 0.809597 12.38 0.787546 12.4325 0.770759L12.5927 0.721757L12.749 0.675658L12.8987 0.632918L13.047 0.592083L13.1951 0.5527L13.3439 0.514587L13.4982 0.476566L13.6554 0.43927L13.825 0.400794C13.8775 0.389451 13.9474 0.373479 14 0.362954L14.1984 0.32239C14.2605 0.310412 14.3433 0.294079 14.4055 0.282644L14.6547 0.23827C14.7339 0.225385 14.8395 0.207689 14.9188 0.195348L15.2607 0.146074C15.372 0.132372 15.5201 0.113043 15.6315 0.100611L16.15 0.0509737C16.3302 0.0393584 16.5701 0.0217539 16.7505 0.0133147C18.0196 -0.0436728 19.2752 0.0830971 20.4928 0.377745Z" fill="#9E9E9E"/>
<path id="Vector_14" d="M23.3684 0.803137C21.805 0.368772 20.9062 0.263384 19.8936 0.170728C18.9435 0.030436 17.9755 -0.0231852 17 0.015766C17.2511 0.0110446 17.5856 0.00472135 17.8367 0L18.5939 0.0160191L19.7574 0.0975464C20.2952 0.167272 21.0119 0.264396 21.5453 0.358486L22.8405 0.654583L24 1L23.3684 0.803137Z" fill="#999999"/>
<path id="Vector_15" d="M19.5229 0.180124C6.86449 -0.512891 1.5155 14.7627 10.8511 24.9452C11.2421 25.3715 20.542 35.2998 30.6747 27.626C30.7462 27.5614 30.8415 27.4753 30.9129 27.4106C32.2613 26.0255 35.8435 22.3466 34.7905 15.2115L34.9539 16.6497L34.9744 16.9642L35 18.3903C34.9744 18.8197 34.9563 19.3936 34.9141 19.8217L34.7228 21.2086C34.6328 21.624 34.5279 22.1816 34.4222 22.593L34.0275 23.9161C33.8767 24.3112 33.6892 24.8439 33.5233 25.2327L32.941 26.4654C32.7314 26.8349 32.4642 27.3352 32.2407 27.6959L31.4924 28.8058C31.2241 29.1466 30.8761 29.6093 30.5947 29.9385L29.7292 30.8744C29.3916 31.1906 28.9467 31.6189 28.5959 31.9198L27.7807 32.5674C27.3192 32.8914 26.6953 33.3105 26.2178 33.6088L25.8462 33.8206C25.3834 34.0682 24.2995 34.6475 22.9259 35.1111L22.7443 35.1709C22.6917 35.1875 22.6219 35.2104 22.5691 35.2264L22.4091 35.2753L22.2529 35.3214L22.1031 35.3641L21.9547 35.405L21.8067 35.4444L21.6578 35.4826L21.5037 35.5207L21.3465 35.5578L21.1769 35.5964C21.1243 35.6078 21.0544 35.6234 21.0018 35.6343L20.8035 35.6748C20.7414 35.6867 20.6586 35.7032 20.5964 35.7146L20.3472 35.7589C20.268 35.7718 20.1625 35.7895 20.0832 35.8019L19.7413 35.8512C19.63 35.8648 19.4818 35.8841 19.3705 35.8965L18.8519 35.9463C18.6719 35.9579 18.4318 35.9754 18.2516 35.9839L17.35 36C16.1682 35.9579 16.0715 35.9545 15.2974 35.8583L14.0875 35.6553C13.6288 35.5437 13.0154 35.4008 12.562 35.2682L11.325 34.8408C10.9279 34.6687 10.3932 34.451 10.0032 34.2624L8.8267 33.6312C8.47182 33.4043 7.99088 33.1137 7.64499 32.8724L6.56853 32.0554C6.25502 31.7772 5.82719 31.4173 5.52462 31.1265L4.57606 30.1395C4.30798 29.8133 3.93855 29.3886 3.68325 29.0519L2.88686 27.9095C2.66978 27.5394 2.36632 27.0543 2.16387 26.6755L1.54268 25.3922C1.38274 24.982 1.15374 24.4413 1.01013 24.0247L0.586794 22.6147L0.581149 22.5928L0.271344 21.1513C0.21277 20.7136 0.11803 20.1319 0.0769221 19.6919L0 18.2603C0.0103209 17.8285 0.0079394 17.252 0.0351973 16.8211L0.178279 15.4231C0.253789 15.004 0.339268 14.4418 0.430833 14.0261L0.780334 12.6862C0.917594 12.2858 1.08661 11.7467 1.23896 11.3523L1.78014 10.0966C1.97642 9.7208 2.22553 9.21263 2.43601 8.84511L3.14913 7.70365C3.4037 7.35637 3.73274 6.88486 4.00065 6.54838L4.84705 5.56616C5.16673 5.24556 5.58628 4.81053 5.91884 4.50418L6.77363 3.7755C7.1967 3.45908 7.76462 3.04184 8.20259 2.74746L8.6029 2.49882C9.21255 2.14601 10.3468 1.48947 12.076 0.886023L12.2575 0.826314C12.31 0.809617 12.3802 0.787566 12.4327 0.770778L12.5928 0.721776L12.7491 0.675678L12.8989 0.632937L13.0472 0.592103L13.1953 0.552719L13.3441 0.514607L13.4984 0.476585L13.6556 0.439289L13.8252 0.400813C13.8777 0.389471 13.9476 0.3735 14.0002 0.362973L14.1986 0.322411C14.2607 0.310433 14.3435 0.294098 14.4057 0.282665L14.6549 0.238291C14.7341 0.225405 14.8396 0.207709 14.9189 0.195368L15.2609 0.146094C15.3721 0.132392 15.5203 0.113063 15.6316 0.100632L16.1502 0.0509943C16.3303 0.039379 16.5703 0.0217745 16.7506 0.0133353C17.6854 -0.0286793 18.6127 0.0290342 19.5229 0.180124Z" fill="#999999"/>
<path id="Vector_16" d="M18.4929 0.0500943C4.89668 -0.133663 1.41575 15.9596 10.014 25.2368C13.6968 29.2103 22.0704 34.396 30.0941 28.6266C30.3038 28.4437 30.5832 28.1999 30.7929 28.0169C31.8099 27.07 34.905 24.1888 35 18.0338L34.9433 19.4482L34.9101 19.8217L34.7188 21.2086C34.6289 21.624 34.5239 22.1816 34.4182 22.593L34.0236 23.9161C33.8728 24.3112 33.6853 24.8439 33.5195 25.2327L32.9372 26.4654C32.7277 26.8349 32.4605 27.3351 32.237 27.6959L31.4888 28.8058C31.2205 29.1465 30.8726 29.6093 30.5912 29.9385L29.7257 30.8744C29.3882 31.1906 28.9433 31.6188 28.5926 31.9198L27.7775 32.5674C27.3161 32.8914 26.6922 33.3105 26.2148 33.6088L25.8432 33.8206C25.3805 34.0682 24.2967 34.6475 22.9233 35.1111L22.7417 35.1708C22.6891 35.1875 22.6193 35.2104 22.5665 35.2264L22.4065 35.2753L22.2503 35.3214L22.1006 35.3641L21.9522 35.4049L21.8042 35.4444L21.6553 35.4826L21.5012 35.5207L21.344 35.5578L21.1744 35.5964C21.1219 35.6078 21.0519 35.6234 20.9994 35.6343L20.8012 35.6748C20.739 35.6867 20.6562 35.7031 20.5941 35.7146L20.3448 35.7589C20.2657 35.7718 20.1602 35.7895 20.0809 35.8018L19.739 35.8511C19.6278 35.8647 19.4797 35.884 19.3683 35.8965L18.8498 35.9462C18.6698 35.9579 18.4297 35.9754 18.2495 35.9838L17.348 36C16.1663 35.9579 16.0697 35.9544 15.2956 35.8583L14.0859 35.6553C13.6272 35.5437 13.0139 35.4008 12.5606 35.2682L11.3237 34.8408C10.9266 34.6687 10.392 34.451 10.0021 34.2624L8.82569 33.6311C8.47085 33.4043 7.98997 33.1136 7.64413 32.8723L6.56778 32.0554C6.2543 31.7771 5.82652 31.4173 5.52398 31.1265L4.57553 30.1394C4.30748 29.8133 3.93809 29.3886 3.68283 29.0519L2.88653 27.9094C2.66947 27.5394 2.36605 27.0543 2.16363 26.6755L1.5425 25.3922C1.38258 24.9819 1.15361 24.4412 1.01001 24.0247L0.586727 22.6146L0.581082 22.5928L0.271312 21.1513C0.212746 20.7135 0.118016 20.1319 0.0769133 19.6919L0 18.2603C0.0103198 17.8285 0.00793849 17.252 0.0351932 16.821L0.178258 15.423C0.25376 15.0038 0.339229 14.4418 0.430784 14.026L0.780245 12.686C0.917489 12.2858 1.08649 11.7467 1.23881 11.3523L1.77994 10.0965C1.97619 9.72074 2.22528 9.21256 2.43573 8.84505L3.14877 7.70357C3.40331 7.3563 3.73231 6.88479 4.00019 6.54831L4.84649 5.56609C5.16615 5.24549 5.58564 4.81046 5.91817 4.50411L6.77285 3.77542C7.19587 3.459 7.76373 3.04176 8.20165 2.74738L8.60192 2.49875C9.21149 2.14602 10.3456 1.48948 12.0746 0.886033L12.2561 0.826322C12.3087 0.809625 12.3788 0.787575 12.4313 0.770787L12.5913 0.721784L12.7477 0.675686L12.8974 0.632946L13.0457 0.592111L13.1938 0.552728L13.3426 0.514615L13.4969 0.476594L13.654 0.439298L13.8237 0.400822C13.8761 0.389478 13.946 0.373507 13.9986 0.362982L14.1969 0.322419C14.2591 0.31044 14.3419 0.294107 14.404 0.282672L14.6532 0.238298C14.7324 0.225413 14.8379 0.207718 14.9171 0.195377L15.2592 0.146102C15.3703 0.1324 15.5185 0.113072 15.6298 0.100639L16.1483 0.051002C16.3284 0.0393867 16.5684 0.0217822 16.7487 0.0133429C17.3338 -0.0129729 17.916 -0.000178071 18.4929 0.0500943Z" fill="#949494"/>
<path id="Vector_17" d="M17.4788 6.05879e-05C4.47007 0.404781 0.0982743 16.9319 10.3912 26.7941C11.35 27.7127 20.0332 35.5981 29.5553 29.6755C29.758 29.5219 30.0283 29.317 30.2311 29.1634C33.9846 26.1767 34.6961 22.3187 35 20.6713L34.7442 22.0418L34.6104 22.5931L34.2135 23.9162C34.0619 24.3112 33.8733 24.844 33.7065 25.2328L33.121 26.4654C32.9103 26.8349 32.6417 27.3352 32.417 27.696L31.6646 28.8059C31.3948 29.1466 31.0449 29.6094 30.7619 29.9386L29.8917 30.8744C29.5522 31.1906 29.1049 31.6189 28.7522 31.9199L27.9325 32.5675C27.4686 32.8914 26.8412 33.3106 26.3611 33.6089L25.9875 33.8207C25.5221 34.0682 24.4323 34.6475 23.0513 35.1111L22.8686 35.1709C22.8157 35.1876 22.7455 35.2105 22.6925 35.2264L22.5316 35.2754L22.3745 35.3214L22.2239 35.3642L22.0748 35.405L21.9259 35.4445L21.7762 35.4826L21.6212 35.5207L21.4632 35.5579L21.2926 35.5965C21.2397 35.6078 21.1694 35.6234 21.1166 35.6343L20.9173 35.6749C20.8547 35.6868 20.7715 35.7032 20.709 35.7146L20.4584 35.759C20.3788 35.7719 20.2727 35.7895 20.193 35.8019L19.8492 35.8512C19.7373 35.8648 19.5883 35.8841 19.4764 35.8965L18.955 35.9463C18.774 35.9579 18.5326 35.9754 18.3514 35.9839L17.4449 36C16.2566 35.9579 16.1594 35.9545 15.381 35.8583L14.1645 35.6553C13.7033 35.5437 13.0866 35.4009 12.6307 35.2683L11.3869 34.8408C10.9876 34.6687 10.45 34.451 10.0579 34.2625L8.87495 33.6312C8.51813 33.4043 8.03456 33.1137 7.68678 32.8724L6.60444 32.0554C6.28921 31.7772 5.85905 31.4173 5.55482 31.1265L4.60107 30.1395C4.33153 29.8134 3.96008 29.3886 3.70339 29.052L2.90264 27.9095C2.68437 27.5395 2.37926 27.0543 2.1757 26.6756L1.55111 25.3922C1.3903 24.982 1.16005 24.4412 1.01565 24.0248L0.590002 22.6147L0.584325 22.5929L0.272827 21.1513C0.213933 20.7135 0.118675 20.1319 0.0773426 19.692L0 18.2603C0.0103774 17.8286 0.0079828 17.252 0.0353897 16.8211L0.179253 15.4231C0.255176 15.0039 0.341123 14.4419 0.433188 14.026L0.7846 12.6861C0.92261 12.2859 1.09255 11.7467 1.24573 11.3524L1.78987 10.0965C1.98722 9.72079 2.2377 9.21262 2.44933 8.84511L3.16634 7.70363C3.42231 7.35636 3.75314 6.88484 4.02251 6.54837L4.87355 5.56614C5.19498 5.24555 5.61681 4.81052 5.95119 4.50416L6.81065 3.77548C7.23604 3.45906 7.80706 3.04181 8.24743 2.74744L8.64993 2.4988C9.26291 2.14599 10.4033 1.48945 12.142 0.885999L12.3245 0.826289C12.3773 0.809592 12.4479 0.787541 12.5007 0.770754L12.6616 0.721751L12.8188 0.675653L12.9694 0.632913L13.1185 0.592078L13.2675 0.552694L13.417 0.514582L13.5722 0.47656L13.7303 0.439263L13.9008 0.400788C13.9536 0.389445 14.0238 0.373474 14.0768 0.362948L14.2762 0.322385C14.3387 0.310407 14.4219 0.294073 14.4844 0.282639L14.735 0.238265C14.8146 0.225379 14.9207 0.207684 15.0004 0.195342L15.3444 0.146069C15.4561 0.132366 15.6051 0.113037 15.7171 0.100606L16.2384 0.0509683C16.4195 0.039353 16.6609 0.0217485 16.8422 0.0133093C17.0548 0.0037811 17.267 -0.000574627 17.4788 6.05879e-05Z" fill="#8F8F8F"/>
<path id="Vector_18" d="M28.3432 30.7664C28.5299 30.642 28.7789 30.476 28.9656 30.3516C31.4021 28.6596 33.096 26.2879 34 23.302L33.5525 24.6089L33.3209 25.1828L32.7421 26.4211C32.5337 26.7923 32.2682 27.2949 32.0461 27.6574L31.3023 28.7725C31.0356 29.1147 30.6897 29.5797 30.4099 29.9104L29.5496 30.8506C29.2141 31.1683 28.7719 31.5985 28.4232 31.9009L27.6129 32.5515C27.1543 32.8769 26.5341 33.2981 26.0595 33.5978L25.6901 33.8106C25.2301 34.0592 24.1527 34.6412 22.7875 35.107L22.6069 35.167C22.5547 35.1838 22.4853 35.2068 22.4328 35.2228L22.2737 35.272L22.1185 35.3182L21.9697 35.3613L21.8222 35.4022L21.675 35.4419L21.527 35.4802L21.3738 35.5185L21.2176 35.5559L21.049 35.5946C20.9967 35.606 20.9272 35.6217 20.8749 35.6326L20.6779 35.6734C20.6161 35.6853 20.5339 35.7018 20.472 35.7133L20.2243 35.7579C20.1457 35.7709 20.0407 35.7886 19.962 35.801L19.6221 35.8505C19.5115 35.8642 19.3643 35.8836 19.2535 35.8961L18.7381 35.9461C18.5592 35.9577 18.3205 35.9753 18.1414 35.9838L17.2453 36C16.0706 35.9577 15.9745 35.9543 15.205 35.8576L14.0024 35.6537C13.5465 35.5416 12.9368 35.3981 12.4861 35.2649L11.2566 34.8354C10.8619 34.6625 10.3304 34.4438 9.94281 34.2544L8.7734 33.6202C8.42067 33.3922 7.94263 33.1003 7.59884 32.8579L6.52887 32.0372C6.21725 31.7575 5.79201 31.396 5.49126 31.1039L4.54843 30.1122C4.28197 29.7846 3.91476 29.3579 3.66101 29.0197L2.86943 27.8719C2.65365 27.5002 2.35203 27.0128 2.15081 26.6323L1.53336 25.3429C1.37439 24.9308 1.14678 24.3875 1.00403 23.9691L0.583251 22.5525L0.577639 22.5306L0.269705 21.0824C0.211485 20.6425 0.117317 20.0581 0.0764576 19.6162L0 18.1778C0.0102586 17.7441 0.00789146 17.1649 0.0349847 16.732L0.177202 15.3275C0.252257 14.9064 0.337219 14.3417 0.428232 13.924L0.775622 12.5778C0.912053 12.1757 1.08005 11.634 1.23147 11.2379L1.76939 9.97619C1.96449 9.5987 2.21209 9.08817 2.4213 8.71894L3.13011 7.57217C3.38315 7.22327 3.7102 6.74957 3.97649 6.41153L4.81778 5.42475C5.13553 5.10266 5.55255 4.66561 5.88311 4.35783L6.73272 3.62576C7.15324 3.30787 7.71773 2.88869 8.15306 2.59294L8.55096 2.34315C9.15692 1.98869 10.2843 1.32911 12.003 0.722856L12.1835 0.662868C12.2358 0.646093 12.3055 0.62394 12.3577 0.607075L12.5167 0.557844L12.6722 0.511532L12.821 0.468593L12.9684 0.427569L13.1157 0.388003L13.2635 0.349713L13.4169 0.311514L13.5732 0.274045L13.7418 0.235391C13.7939 0.223994 13.8633 0.207949 13.9157 0.197374L14.1128 0.156623C14.1746 0.144589 14.2569 0.12818 14.3187 0.116692L14.5664 0.0721119C14.6451 0.059166 14.75 0.0413893 14.8288 0.0289909C14.8869 0.0202382 14.9642 0.00866064 15.0222 0C15.0191 0.00045545 15.015 0.00100301 15.0118 0.00154955C1.73695 2.03747 -0.241123 20.6737 11.8993 29.326C14.4028 31.1103 21.0167 34.8222 28.3432 30.7664Z" fill="#8A8A8A"/>
<path id="Vector_19" d="M27.3623 32.0638C29.8435 30.7867 31.5823 29.0718 33 26.5033L32.3284 27.6806L32.3021 27.7228L31.5523 28.8292C31.2835 29.1688 30.9349 29.6301 30.6529 29.9583L29.7857 30.891C29.4475 31.2062 29.0017 31.6331 28.6503 31.9331L27.8335 32.5785C27.3712 32.9015 26.7461 33.3193 26.2676 33.6165L25.8954 33.8278C25.4317 34.0744 24.3457 34.6519 22.9696 35.114L22.7876 35.1736C22.7349 35.1902 22.6649 35.213 22.612 35.2289L22.4517 35.2777L22.2952 35.3236L22.1452 35.3662L21.9965 35.4069L21.8482 35.4463L21.699 35.4843L21.5446 35.5222L21.3871 35.5594L21.2172 35.5977C21.1645 35.6091 21.0944 35.6246 21.0417 35.6355L20.8431 35.676C20.7808 35.6878 20.6979 35.7042 20.6356 35.7155L20.3859 35.7598C20.3066 35.7727 20.2008 35.7902 20.1215 35.8026L19.7788 35.8517C19.6674 35.8652 19.5189 35.8845 19.4073 35.8969L18.8878 35.9465C18.7075 35.958 18.4669 35.9755 18.2863 35.9839L17.383 36C16.1989 35.958 16.1021 35.9546 15.3265 35.8587L14.1143 35.6564C13.6547 35.5452 13.0402 35.4027 12.5859 35.2706L11.3466 34.8445C10.9487 34.673 10.413 34.456 10.0222 34.268L8.84349 33.6389C8.48794 33.4127 8.00609 33.1231 7.65955 32.8826L6.58103 32.0682C6.26692 31.7909 5.83828 31.4322 5.53513 31.1423L4.58477 30.1585C4.31617 29.8333 3.94604 29.4101 3.69026 29.0744L2.89236 27.9358C2.67485 27.5668 2.37082 27.0833 2.16799 26.7058L1.54561 25.4266C1.38537 25.0178 1.15594 24.4787 1.01205 24.0636L0.587911 22.6581L0.582254 22.6364L0.27186 21.1995C0.213175 20.7631 0.118253 20.1833 0.0770681 19.7448L0 18.3178C0.0103406 17.8874 0.00795412 17.3128 0.0352639 16.8833L0.178618 15.4898C0.254272 15.0721 0.339913 14.5118 0.431653 14.0973L0.781819 12.7618C0.919339 12.3628 1.08868 11.8254 1.24131 11.4324L1.78353 10.1806C1.98018 9.80603 2.22977 9.29951 2.44064 8.93319L3.15512 7.79542C3.41018 7.44926 3.73984 6.97929 4.00826 6.64391L4.85627 5.66487C5.17656 5.34531 5.59691 4.9117 5.9301 4.60633L6.78651 3.88002C7.21039 3.56462 7.77939 3.14873 8.2182 2.85531L8.61927 2.60748C9.22999 2.2559 10.3663 1.6015 12.0988 1L11.8723 1.07824C-0.824595 5.90664 0.266469 24.7408 13.6412 31.6125C16.2698 32.963 21.5477 34.8175 27.3623 32.0638Z" fill="#858585"/>
<path id="Vector_20" d="M31.5432 12.0169C34.0567 21.0758 25.7039 26.4126 18.5583 22.921C10.276 18.874 11.8931 6.82184 19.173 4.38105C23.994 2.76467 30.0058 6.47554 31.5432 12.0169Z" fill="#D6D6D6"/>
<path id="Vector_21" d="M31.6025 11.5404C33.8112 19.5688 26.4364 25.5681 18.8751 21.8941C11.8692 18.4902 12.5791 6.87063 19.9449 4.38314C24.9373 2.69712 30.3109 6.84612 31.6025 11.5404Z" fill="#DBDBDB"/>
<path id="Vector_22" d="M30.9504 13.7174C31.7877 22.4254 21.8159 25.757 16.4991 20.453C11.4143 15.3808 14.5924 5.57563 21.4999 5.02429C26.538 4.62224 30.5239 9.283 30.9504 13.7174Z" fill="#E0E0E0"/>
<path id="Vector_23" d="M29.9775 13.1915C30.5003 20.6151 21.7917 24.8616 16.473 19.7768C11.4098 14.9362 14.6381 5.41427 21.4792 5.01083C25.6083 4.76732 29.6589 8.66656 29.9775 13.1915Z" fill="#E6E6E6"/>
<path id="Vector_24" d="M29.9837 13.652C30.4184 21.1753 22.0705 24.3578 17.5133 20.0778C14.6356 17.3752 14.7811 13.3156 15.2893 11.8786C16.29 9.04896 18.9707 6.00231 22.4916 6C25.8963 5.99778 29.7193 9.07201 29.9837 13.652Z" fill="#EBEBEB"/>
<path id="Vector_25" d="M29.9824 13.0599C30.4271 20.142 22.3428 23.197 17.7497 19.2731C12.5314 14.8152 15.3572 7.43258 21.0744 6.16312C25.3709 5.20909 29.7001 8.56076 29.9824 13.0599Z" fill="#F0F0F0"/>
<path id="Vector_26" d="M28.9803 13.5007C29.3937 19.0915 23.2158 23.3663 17.8022 19.5363C12.8305 16.0189 14.8383 8.1088 20.9615 7.08965C24.5608 6.49056 28.6419 8.92368 28.9803 13.5007Z" fill="#F5F5F5"/>
<path id="Vector_27" d="M28.9824 12.9927C29.397 19.3182 22.3811 21.9586 18.3722 18.4076C13.1615 13.7917 17.5552 7.46261 21.7898 7.03563C25.8321 6.62801 28.7723 9.78677 28.9824 12.9927Z" fill="#FAFAFA"/>
<path id="Vector_28" d="M27.9852 13.4971C28.3397 19.1799 22.251 22.0838 17.9624 18.2774C13.8064 14.5888 16.8351 8.30145 21.6174 8.0117C25.4827 7.77757 27.836 11.1065 27.9852 13.4971Z" fill="white"/>
<path id="Vector_29" d="M27.9484 13.4344C28.6036 18.7596 22.8789 21.568 18.9935 19.0886C14.3581 16.1308 15.4968 10.0872 19.7384 8.37657C22.2613 7.35914 27.3043 8.19959 27.9484 13.4344Z" fill="white"/>
<path id="Vector_30" d="M26.9581 13.9687C27.5184 18.7052 22.3292 21.4019 18.9483 19.2491C14.1691 16.2057 15.8295 10.6763 19.4709 9.31509C22.4613 8.19723 26.5035 10.125 26.9581 13.9687Z" fill="white"/>
<path id="Vector_31" d="M27.8693 15.8204C27.2957 18.1896 24.9108 19.8999 23.3658 19.9878C18.995 20.237 17.4516 16.5815 17.3841 16.4179C16.7999 15.003 16.9973 13.9924 17.2259 12.8227C17.2282 12.8106 18.3008 10.7759 18.5318 10.5438C19.0291 10.0439 19.815 9.41309 20.4987 9.28278C22.717 8.85986 22.9752 8.91096 24.3292 9.43854C27.7386 10.7668 28.3142 13.9828 27.8693 15.8204Z" fill="white"/>
<path id="Vector_32" d="M26.8339 15.304C26.476 16.7168 25.4302 17.681 24.8683 18.1989C24.3821 18.6472 23.4853 18.9623 22.8328 18.9925C19.4703 19.1479 17.8485 16.8549 17.3871 15.7411C15.7158 11.7059 19.7943 7.97941 23.1627 9.25452C27.4485 10.877 27.1579 14.0256 26.8339 15.304Z" fill="white"/>
<path id="Vector_33" d="M25.8249 15.7735C25.8076 15.8289 25.388 17.1437 24.2397 18.1908C23.7682 18.6208 22.9188 18.9784 22.2869 19L20.0261 18.7224C18.6559 17.9143 17.9012 17.4692 17.3099 16.0651C16.8416 14.9529 16.7639 13.0567 18.0859 11.3728C18.4931 10.8543 19.2995 10.3922 19.9185 10.1864C20.5191 9.98695 21.3992 9.94892 22.0203 10.0658C22.7598 10.2049 23.6827 10.6902 24.3019 11.1257C24.7421 11.4353 25.1737 12.044 25.4744 12.4951C26.2857 13.712 25.9478 15.3121 25.8249 15.7735Z" fill="white"/>
<path id="Vector_34" d="M25.9837 14.8502C25.9599 15.1508 26.0282 15.5768 25.9081 15.8524C25.6211 16.5104 25.128 17.3487 24.659 17.8878C24.3336 18.2618 22.3935 18.9917 22.3743 18.9986C22.3065 19.0231 20.0915 18.7139 19.9311 18.6575C19.3993 18.4705 18.7765 17.9938 18.3745 17.5933C16.3764 15.6027 17.0606 13.0575 17.3531 12.4848C17.9781 11.2618 18.074 11.0738 19.9825 10.1064C20.0047 10.0952 22.2124 9.99229 22.2539 10.0005C23.5493 10.2576 26.2335 11.6859 25.9837 14.8502Z" fill="white"/>
<path id="Vector_35" d="M25.8056 15.3405C25.6063 15.9289 25.1561 16.6724 24.6925 17.0766C24.6041 17.1536 22.8301 17.9989 22.7556 17.9996C20.615 18.0178 19.1449 17.3679 18.3051 15.4046C17.3998 13.2886 18.7959 11.3841 18.8108 11.3665C19.2423 10.8571 20.0253 10.345 20.6549 10.1452C21.2687 9.95047 22.1678 9.96761 22.7969 10.1021C24.5926 10.4859 26.6471 12.8549 25.8056 15.3405Z" fill="white"/>
<path id="Vector_36" d="M25.7579 15.4741C25.583 15.9687 25.2157 16.6063 24.8191 16.9414C24.7251 17.021 22.8284 18.0004 22.7693 18C22.6881 17.9993 20.3449 17.5908 20.3113 17.5714C19.6586 17.1937 18.7817 16.514 18.3099 15.4201C17.4343 13.3898 18.691 11.4889 18.7052 11.4732C19.1807 10.9361 19.9865 10.3351 20.6647 10.1253C21.3285 9.91988 22.2996 9.99477 22.9759 10.1514C23.7368 10.3276 26.8881 12.2764 25.7579 15.4741Z" fill="white"/>
<path id="Vector_37" d="M24.7552 15.9293C24.6295 16.2695 24.3844 16.7181 24.1046 16.944C23.5931 17.3572 22.8439 18.0164 22.1912 17.9997C21.4825 17.9817 20.486 17.915 19.8675 17.5625C18.9133 17.019 18.2712 15.7755 18.2661 15.7636C17.5573 14.1389 18.4875 12.4218 18.4991 12.4093C18.9637 11.912 19.6933 11.2916 20.3398 11.0965C20.9726 10.9054 21.8967 11.031 22.5382 11.1897C23.18 11.3486 25.8045 13.0898 24.7552 15.9293Z" fill="white"/>
<path id="Vector_38" d="M24.7115 16.07C24.6213 16.3078 24.4583 16.6298 24.2596 16.783C23.6918 17.2208 22.9195 18.0326 22.2103 17.999C21.4405 17.9623 20.3651 17.8697 19.6903 17.4875C19.1155 17.1619 18.2701 15.7761 18.2649 15.7639C17.7214 14.5159 18.1416 12.8096 18.3986 12.5479C19.4387 11.488 20.3449 11.0021 20.3512 11.0001C20.3637 10.9961 22.6316 11.1291 22.7535 11.1897C23.3075 11.4661 24.1128 11.9339 24.3474 12.5187C24.547 13.0162 24.9314 13.653 24.9862 14.188C25.0442 14.7558 24.9131 15.5381 24.7115 16.07Z" fill="white"/>
<path id="Vector_39" d="M23.6993 15.5203C23.4789 16.0874 21.6686 17.0011 21.6543 17C20.9821 16.9501 20.0475 16.858 19.4551 16.5252C19.0663 16.3068 18.3135 15.1311 18.3093 15.121C18.1154 14.6731 17.9089 13.9791 18.0426 13.5081C18.3282 12.502 18.3282 12.502 19.3169 11.5705C19.5236 11.3758 19.8012 11.038 20.0798 11.0164C20.7579 10.9639 21.714 11.0289 22.325 11.338C23.4815 11.9231 24.5355 13.3695 23.6993 15.5203Z" fill="white"/>
<path id="Vector_40" d="M24.6234 16.5856C24.5034 16.8665 22.6355 18.0012 22.622 18C20.4168 17.8198 19.5754 16.893 19.2579 16.147C19.2525 16.1346 18.7605 14.8231 19.1497 13.8052C19.4 13.15 20.2526 12.6193 20.7774 12.1718C20.9428 12.0308 21.26 11.9813 21.4726 12.0062C22.1052 12.0799 22.9715 12.2004 23.5417 12.4943C23.9158 12.6872 24.4812 12.9787 24.9609 14.793C25.1006 15.3213 24.8375 16.0847 24.6234 16.5856Z" fill="white"/>
<path id="Vector_41" d="M23.7988 15.3969C23.3546 16.4588 22.0542 16.9994 22.0432 16.9997C21.2884 17.0171 19.5463 16.254 19.2264 15.5021C19.2216 15.491 18.9273 13.997 19.017 13.7908C19.3127 13.1109 20.0337 12.2442 20.7309 12.042C21.4221 11.8416 22.3693 12.4119 23.0552 12.6306C23.1617 12.6646 23.265 12.7909 23.3413 12.8744C23.6705 13.2342 23.8983 13.8958 23.9864 14.3812C24.0417 14.6862 23.918 15.1121 23.7988 15.3969Z" fill="white"/>
<path id="Vector_42" d="M23.9308 14.849C23.9226 14.8684 22.7936 16.8491 22.0009 16.9919C21.801 17.0279 21.5218 16.9375 21.3395 16.8486C20.6421 16.5086 19.6088 16.1478 19.0908 15.5729C18.9468 15.4131 19.0159 13.6977 19.0211 13.6853C19.2842 13.0478 19.9817 12.2366 20.6516 12.0559C21.4079 11.8519 22.5765 12.2348 23.1713 12.7415C23.1836 12.7519 24.2819 14.0265 23.9308 14.849Z" fill="white"/>
<path id="Vector_43" d="M22.4502 15.9715C22.4382 15.9822 22.4207 15.997 22.4046 15.9998C22.3031 16.0174 20.1681 14.8055 20.1594 14.791C19.8959 14.3509 19.9968 13.5715 20.1901 13.099C20.3613 12.6806 20.8359 12.1517 21.2876 12.0343C21.8001 11.9009 22.5673 12.179 22.9955 12.4808C23.4371 12.792 24.0167 13.4199 23.9996 13.9459C23.9752 14.6998 23.0232 15.4561 22.4502 15.9715Z" fill="white"/>
<path id="Vector_44" d="M21.8121 15.9865C21.2458 16.0877 20.4194 15.5997 20.1363 15.1649C19.8713 14.7578 20.0478 14.0573 20.2024 13.61C20.2848 13.3719 20.5992 13.0854 20.8774 13.0206C21.1948 12.9466 21.6863 13.0818 21.9353 13.2671C22.3615 13.584 23.0126 14.1137 22.9998 14.5989C22.9862 15.1161 22.3997 15.8815 21.8121 15.9865Z" fill="white"/>
<path id="Vector_45" d="M22.2171 15.9885C21.8444 16.0734 21.2962 15.6711 21.1142 15.3107C20.8433 14.7736 21.1275 13.8798 21.2187 13.2765C21.2355 13.166 21.3616 13.0399 21.462 13.0106C21.577 12.9769 21.766 13.0261 21.8458 13.1215C22.2426 13.5947 23.0076 14.2078 22.9999 14.845C22.995 15.271 22.6047 15.9003 22.2171 15.9885Z" fill="white"/>
<path id="Vector_46" d="M21.6142 14.9969C21.4304 15.02 21.1601 14.91 21.0715 14.8115C20.878 14.5963 21.1354 14.2434 21.1628 14C21.414 14.2053 22.001 14.4305 22 14.6845C21.9996 14.8008 21.8055 14.9729 21.6142 14.9969Z" fill="white"/>
</g>
</svg>
