<svg width="39" height="9" viewBox="0 0 39 9" fill="none" xmlns="http://www.w3.org/2000/svg">
<path id="Vector" d="M6.56028 2.5536H5.15368C5.06699 1.60782 4.45628 1.13494 3.32154 1.13494C2.81718 1.13494 2.42319 1.23708 2.13945 1.44136C1.85582 1.63809 1.714 1.91047 1.714 2.25852C1.714 2.58387 1.81637 2.80708 2.02131 2.92813C2.23403 3.0492 2.69893 3.19677 3.41611 3.37072C3.60517 3.42374 3.75098 3.46152 3.85345 3.48425C4.79115 3.71123 5.42943 3.91548 5.76829 4.0971C6.51693 4.48297 6.89125 5.08451 6.89125 5.90171C6.89125 6.25728 6.82823 6.57881 6.70209 6.86639C6.57605 7.15387 6.40657 7.396 6.19384 7.59268C5.98112 7.78188 5.72894 7.94077 5.43732 8.06936C5.14579 8.19805 4.84238 8.28886 4.52719 8.34179C4.21199 8.4023 3.88491 8.4326 3.54615 8.4326C2.4901 8.4326 1.6351 8.19047 0.981142 7.70622C0.327083 7.22196 0 6.51072 0 5.57251H1.45394C1.45394 6.16273 1.65488 6.60153 2.05676 6.88902C2.45864 7.16902 2.98267 7.30903 3.62884 7.30903C4.19621 7.30903 4.63755 7.19923 4.95274 6.97983C5.27583 6.75285 5.43732 6.4389 5.43732 6.03787C5.43732 5.78059 5.35063 5.57251 5.17725 5.41361C5.01186 5.24714 4.83059 5.12987 4.63355 5.06178C4.4366 4.9937 4.09374 4.89915 3.60517 4.77804C3.55004 4.76298 3.5067 4.75157 3.47514 4.74399C2.42709 4.48681 1.73757 4.27489 1.40659 4.10851C0.721075 3.768 0.354646 3.24212 0.307306 2.53091C0.307306 2.47794 0.307306 2.42498 0.307306 2.37201C0.307306 1.65322 0.587049 1.08197 1.14653 0.658265C1.714 0.226988 2.47043 0.011344 3.41611 0.011344C4.33014 0.011344 5.07488 0.219422 5.65014 0.635567C6.22541 1.0517 6.52872 1.69105 6.56028 2.5536ZM10.8207 2.22447C11.7506 2.22447 12.4914 2.50442 13.0429 3.06433C13.5945 3.62425 13.8704 4.37711 13.8704 5.3228C13.8704 6.27617 13.5945 7.03286 13.0429 7.59268C12.4992 8.1526 11.7585 8.4326 10.8207 8.4326C9.86723 8.4326 9.1108 8.1526 8.55122 7.59268C7.99174 7.03286 7.71199 6.27617 7.71199 5.3228C7.71199 4.37711 7.99174 3.62425 8.55122 3.06433C9.11859 2.50442 9.87512 2.22447 10.8207 2.22447ZM12.05 3.80204C11.7506 3.43132 11.3329 3.24596 10.7971 3.24596C10.2612 3.24596 9.83966 3.43132 9.53236 3.80204C9.22505 4.17276 9.07135 4.67975 9.07135 5.3228C9.07135 5.98111 9.22505 6.49557 9.53236 6.86639C9.83966 7.23711 10.2652 7.42247 10.8089 7.42247C11.3369 7.42247 11.7506 7.23711 12.05 6.86639C12.3574 6.48809 12.511 5.96979 12.511 5.31149C12.511 4.66833 12.3574 4.16519 12.05 3.80204ZM22.7211 8.22826L22 9L20.7471 7.97865C20.2349 8.28886 19.5691 8.44392 18.7495 8.44392C17.5595 8.44392 16.5943 8.05805 15.8535 7.2863C15.1128 6.50698 14.7424 5.48927 14.7424 4.23327C14.7424 2.98488 15.1167 1.96722 15.8653 1.18033C16.6218 0.393438 17.599 0 18.7968 0C19.9788 0 20.9441 0.393438 21.6927 1.18033C22.4414 1.95965 22.8157 2.96596 22.8157 4.19923C22.8157 4.84238 22.7093 5.43634 22.4965 5.98111C22.2917 6.52587 22 6.97225 21.6218 7.32034L22.7211 8.22826ZM20.5817 6.44647C21.086 5.83353 21.3381 5.08825 21.3381 4.21064C21.3381 3.29506 21.1057 2.56496 20.6408 2.02018C20.1758 1.46785 19.5533 1.19168 18.7731 1.19168C18.0009 1.19168 17.3823 1.46785 16.9174 2.02018C16.4603 2.56496 16.2318 3.29506 16.2318 4.21064C16.2318 5.14885 16.4643 5.89787 16.9292 6.45779C17.3941 7.01013 18.0167 7.2863 18.7968 7.2863C19.1277 7.2863 19.4429 7.22196 19.7424 7.09337L18.8795 6.38971L19.5887 5.61796L20.5817 6.44647ZM29.3377 2.39471V8.25098H28.0729V7.37711C27.5607 8.06562 26.8909 8.40988 26.0635 8.40988C25.3937 8.40988 24.8775 8.22826 24.515 7.86511C24.1605 7.49439 23.9831 6.96468 23.9831 6.27617V2.39471H25.3307V5.74281C25.3307 5.94706 25.3346 6.11353 25.3424 6.24213C25.3503 6.36324 25.374 6.50315 25.4134 6.66204C25.4607 6.81336 25.5237 6.93064 25.6025 7.01387C25.6892 7.09711 25.8073 7.16903 25.9571 7.22953C26.1148 7.29004 26.3038 7.32034 26.5244 7.32034C27.0288 7.32034 27.3992 7.15013 27.6356 6.80962C27.872 6.46153 27.9901 6.02272 27.9901 5.49311V2.39471H29.3377ZM32.1535 0.136187V1.40732H30.806V0.136187H32.1535ZM32.1535 2.39471V8.25098H30.806V2.39471H32.1535ZM34.9102 2.39471V3.25727C35.3987 2.5763 36.0725 2.23582 36.9315 2.23582C37.6249 2.23582 38.141 2.41742 38.4799 2.78059C38.8266 3.14377 39 3.66587 39 4.34681V8.25098H37.6524V4.84622C37.6524 4.61166 37.6407 4.41873 37.617 4.26731C37.5933 4.10851 37.5422 3.94962 37.4634 3.79072C37.3924 3.63183 37.2742 3.51455 37.1087 3.43889C36.9432 3.35566 36.7305 3.31404 36.4705 3.31404C35.4775 3.31404 34.9811 3.908 34.9811 5.09582V8.25098H33.6336V2.39471H34.9102Z" fill="#04A201"/>
</svg>
