<svg width="35" height="36" viewBox="0 0 35 36" fill="none" xmlns="http://www.w3.org/2000/svg">
<g id="Group">
<path id="Vector" d="M22.9285 35.1022C25.4887 34.2339 27.0718 33.0769 27.9223 32.4553C28.4385 32.0781 29.0883 31.5175 29.5385 31.0598C30.4661 30.1169 30.4661 30.1169 31.4314 28.8883C31.95 28.2282 32.5284 27.2565 32.9197 26.5094C33.3078 25.7685 33.7202 24.7258 34.0218 23.9436C34.3913 22.9846 34.8517 20.8762 34.9175 19.842C34.9719 18.9853 35.0306 17.8378 34.9817 16.9806C34.9317 16.1038 34.7574 14.9419 34.5883 14.081C34.4098 13.1724 33.8436 11.1504 32.854 9.33674C31.003 5.9446 28.377 3.3936 25.0486 1.75469C21.2881 -0.0969826 18.1088 -0.0214968 16.7511 0.0108023C15.4436 0.0904616 11.4644 0.332796 7.29051 3.37318C5.34136 4.79299 4.01052 6.52716 3.99728 6.54449C3.51001 7.18431 2.88289 8.05983 2.47954 8.75871C2.05722 9.49052 1.54198 10.5021 1.25335 11.2996C0.854149 12.403 0.185903 14.2497 0.0321877 16.79C-0.0198742 17.6507 -0.00990314 18.8058 0.0703076 19.6643C0.15246 20.5444 0.386297 21.7029 0.571603 22.5662C0.779321 23.5342 1.5486 25.6089 2.15049 26.6506C2.57396 27.3834 3.15873 28.3524 3.66646 29.0264C4.16732 29.6913 4.90563 30.5237 5.50205 31.0993C10.1901 35.6245 16.8674 37.1583 22.9285 35.1022Z" fill="#818181"/>
<path id="Vector_2" d="M1.23708 10.9962C0.646938 12.7351 0.635667 12.7683 0.430411 13.7082L0.181833 15.1C0.137629 15.5331 0.0631352 16.1089 0.035486 16.5434L0 17.9816C0.0228943 18.4238 0.036983 19.0148 0.0770479 19.4555L0.267687 20.9158C0.3612 21.3605 0.469508 21.9576 0.580368 22.3981L1.00145 23.8293L1.00866 23.8505L1.53215 25.2188C1.72041 25.6152 1.95675 26.1514 2.16025 26.5394L2.86996 27.772C3.11185 28.1255 3.4218 28.6066 3.67699 28.9498L4.54997 30.0322C4.83931 30.339 5.21442 30.7595 5.51504 31.0543L6.52731 31.9716C6.85832 32.228 7.2912 32.5826 7.63162 32.8252L8.75607 33.562C9.12458 33.7647 9.60967 34.0479 9.98562 34.2352L11.1842 34.7737C11.5905 34.9198 12.1283 35.1269 12.5399 35.2555L13.7306 35.5753C14.1918 35.6636 14.8059 35.7875 15.2704 35.854L16.1959 35.9502C17.3901 36.008 17.4615 36.0114 18.2192 35.9814L18.7589 35.9481C18.9321 35.9318 19.1631 35.9122 19.3361 35.8929L19.6934 35.8487C19.7996 35.8331 19.9415 35.8135 20.0475 35.7969L20.3075 35.754C20.3831 35.7402 20.4842 35.7226 20.5598 35.7084L20.7654 35.6681C20.8252 35.6557 20.9048 35.6395 20.9645 35.6268L21.1388 35.5885C21.1897 35.5767 21.2577 35.5611 21.3085 35.5493L21.4653 35.5115L21.6194 35.4729L21.7679 35.4342L21.9158 35.3942L22.0638 35.3527L22.2133 35.3094L22.3693 35.2626C22.4173 35.2477 22.4812 35.2285 22.529 35.2131L22.7035 35.1568L22.8256 35.1164L23.1109 35.0166C35.7613 30.1025 34.6742 10.9356 21.3484 3.94301C15.1668 0.699374 6.49527 0.941184 2.06382 9.13721L1.48108 10.3885L1.23708 10.9962Z" fill="#858585"/>
</g>
</svg>
