<svg width="36" height="36" viewBox="0 0 36 36" fill="none" xmlns="http://www.w3.org/2000/svg">
<g id="Group">
<path id="Vector" d="M35.395 13.4027C35.5809 14.1689 36.0745 16.204 35.9905 18.388C35.9552 19.3003 35.8731 21.4367 34.9906 23.9133C34.3374 25.7467 33.5335 27.2545 32.384 28.8026C31.892 29.4651 31.1587 30.2917 30.571 30.871C29.8656 31.5661 29.5905 31.7774 28.5673 32.5637C28.3722 32.7137 26.5845 34.0557 23.9446 34.9813C21.5236 35.8301 19.5683 35.9369 18.8323 35.9771C16.9172 36.0814 13.1035 35.9151 9.07758 33.6274C7.94829 32.9856 6.2734 31.8589 4.70681 30.136C4.13636 29.5085 3.43548 28.6148 2.96988 27.9063C2.49685 27.1862 1.96586 26.1633 1.5877 25.3892C1.03485 24.2574 0.420497 22.144 0.280447 21.1488C0.159082 20.286 0.0160387 19.1291 0.00143503 18.2581C-0.0128059 17.4054 0.0811657 16.2676 0.184752 15.421C0.35147 14.0585 0.925277 12.1501 1.26316 11.3817C1.59823 10.6197 2.0591 9.6062 2.48016 8.88812C2.89914 8.17376 3.50904 7.24363 4.05491 6.62101C4.5918 6.00854 5.3228 5.20154 5.92291 4.65097C5.93271 4.64198 6.97628 3.7035 7.88407 3.10756C8.62251 2.62276 9.15595 2.27243 10.5627 1.61796C11.1182 1.35945 12.0114 0.986075 13.1106 0.67567C14.956 0.154487 16.3369 0.0678348 17.1621 0.0161156C24.3767 -0.298827 31.1147 4.90629 33.2571 13.0282C31.1147 4.90629 24.3767 -0.298826 17.2253 0.0133031C18.1318 -0.00538842 18.9147 -0.0214488 19.9417 0.101316C21.7447 0.316721 22.7882 0.638469 22.9791 0.700804C24.3711 1.1552 24.9472 1.34339 25.6728 1.71858C27.5178 2.67266 27.582 2.71994 29.225 3.93071C29.2459 3.94613 31.3709 5.54906 33.0233 8.08574C34.579 10.4739 35.2003 12.5996 35.395 13.4027Z" fill="#2753D1"/>
<path id="Vector_2" d="M30.4449 6.90785C21.0083 -2.00906 12.6186 5.99224 13.1334 13.7812C13.7417 22.9874 25.774 26.4348 31.1414 20.883C32.7294 19.2405 33.6414 16.8258 33.5812 14.4236C33.5402 14.0061 33.4855 13.4495 33.4445 13.0319C33.0592 11.4009 32.5315 9.16725 30.4449 6.90785C27.2834 2.41029 22.3627 -0.207058 17.2292 0.0169675C17.4767 0.0118863 17.8064 0.00508117 18.0538 0L18.7999 0.0172399L19.9464 0.10498C20.4764 0.180019 21.1827 0.284546 21.7083 0.385806L22.9846 0.704468C23.4196 0.847557 24.0032 1.0283 24.4316 1.18963L25.6792 1.72224C26.0651 1.92241 26.5863 2.17719 26.9638 2.39269L28.1261 3.11957C28.4701 3.3729 28.9375 3.69873 29.2713 3.9654L30.3153 4.86994C30.6149 5.17272 31.0256 5.56579 31.313 5.88028L32.2128 6.94732C32.4628 7.29602 32.8096 7.75169 33.0457 8.1101L33.777 9.32522C33.9715 9.71592 34.2462 10.2296 34.4245 10.628L34.9638 11.9769C35.0962 12.4059 35.2896 12.9729 35.4044 13.4067L35.723 14.848C35.8102 15.4818 35.9241 16.3282 35.9737 16.9661L36 18.3921C35.9737 18.8214 35.9551 19.3954 35.9117 19.8234L35.7148 21.2102C35.6224 21.6254 35.5144 22.183 35.4057 22.5944L34.9997 23.9173C34.8446 24.3124 34.6517 24.8451 34.4811 25.2338L33.8821 26.4663C33.6666 26.8358 33.3918 27.3361 33.1619 27.6967L32.3922 28.8066C32.1162 29.1472 31.7583 29.61 31.4688 29.9392L30.5786 30.8749C30.2313 31.1911 29.7737 31.6193 29.4129 31.9203L28.5744 32.5677C28.0998 32.8917 27.458 33.3108 26.9668 33.609L26.5847 33.8209C26.1086 34.0683 24.9937 34.6477 23.581 35.1112L23.3941 35.171C23.34 35.1877 23.2682 35.2106 23.2139 35.2265L23.0493 35.2754L22.8887 35.3215L22.7346 35.3643L22.582 35.4051L22.4297 35.4446L22.2766 35.4826L22.1181 35.5207L21.9564 35.558L21.7819 35.5965C21.7278 35.6078 21.6559 35.6235 21.6018 35.6343L21.3979 35.6749C21.334 35.6868 21.2488 35.7032 21.1849 35.7146L20.9285 35.759C20.8471 35.7719 20.7385 35.7896 20.6571 35.802L20.3053 35.8512C20.1909 35.8648 20.0385 35.8842 19.9239 35.8965L19.3906 35.9463C19.2054 35.9579 18.9584 35.9754 18.7731 35.9839L17.8458 36C16.6301 35.9579 16.5307 35.9545 15.7344 35.8583L14.49 35.6553C14.0182 35.5438 13.3873 35.4008 12.9209 35.2683L11.6486 34.8409C11.2401 34.6688 10.6901 34.4511 10.289 34.2627L9.07889 33.6315C8.71387 33.4045 8.21919 33.114 7.86342 32.8727L6.75621 32.0558C6.43374 31.7776 5.99368 31.4178 5.68246 31.1269L4.7068 30.1401C4.43106 29.814 4.05108 29.3893 3.78849 29.0526L2.96935 27.9103C2.74605 27.5404 2.43393 27.0552 2.2257 26.6765L1.58675 25.3932C1.42225 24.9832 1.18671 24.4424 1.03899 24.026L0.60356 22.616L0.597753 22.5943L0.279096 21.1528C0.218849 20.7151 0.121402 20.1335 0.0791199 19.6936L0 18.2621C0.0106158 17.8304 0.00816624 17.2539 0.0362029 16.823L0.183373 15.4251C0.26104 15.0061 0.348961 14.4441 0.443143 14.0283L0.80263 12.6885C0.943811 12.2883 1.11766 11.7492 1.27435 11.3549L1.831 10.0992C2.03289 9.72346 2.28912 9.21534 2.50561 8.84787L3.2391 7.7065C3.50095 7.35926 3.83939 6.8878 4.11495 6.55135L4.98554 5.56924C5.31435 5.24867 5.74588 4.81368 6.08795 4.50736L6.96716 3.77876C7.40232 3.46237 7.98646 3.04516 8.43695 2.75082L8.8487 2.5022C9.47576 2.14943 10.6424 1.49295 12.421 0.889568L12.6077 0.829865C12.6617 0.813169 12.734 0.79112 12.7879 0.774335L12.9525 0.725337L13.1134 0.679244L13.2674 0.636507L13.4199 0.595677L13.5723 0.556298L13.7254 0.518189L13.8841 0.480171L14.0458 0.442878L14.2202 0.404407C14.2742 0.393065 14.3461 0.377096 14.4002 0.36657L14.6042 0.326011C14.6682 0.314035 14.7533 0.297702 14.8173 0.28627L15.0736 0.2419C15.155 0.229016 15.2636 0.211322 15.3451 0.198982L15.697 0.149713C15.8113 0.136012 15.9637 0.116686 16.0782 0.104255L16.6116 0.0546227C16.7968 0.0430086 17.0437 0.0254058 17.2292 0.0169675C22.3627 -0.207058 27.2834 2.41029 30.4449 6.90785Z" fill="#2753D1"/>
<path id="Vector_3" d="M29.3024 5.44707C19.7327 -1.46819 11.8423 5.78002 12.6883 13.9083C13.7447 24.0559 26.7113 27.2259 31.9352 20.7122C33.0338 19.3425 33.472 18.0958 33.8576 16.4055C34.6078 24.8258 29.9925 32.8712 22.5538 35.2927C29.9925 32.8712 34.5636 24.8258 33.8377 16.4055C33.9285 14.7391 34.2548 9.66823 29.2924 5.44707C26.1534 1.84924 21.775 -0.185249 17.2243 0.0133004C17.6954 0.00359075 18.3263 0.00268351 18.7975 0.0135729L19.9452 0.101323C20.4751 0.176368 21.1821 0.280905 21.7077 0.382176L22.9843 0.700871C23.4192 0.843974 24.003 1.02474 24.4314 1.18609L25.6791 1.71875C26.065 1.91893 26.5863 2.17374 26.9638 2.38926L28.1261 3.11621C28.4701 3.36957 28.9375 3.69543 29.2713 3.96213L30.3153 4.86676C30.6149 5.16958 31.0256 5.56269 31.313 5.8772L32.2128 6.94436C32.4628 7.29309 32.8096 7.74881 33.0457 8.10725L33.777 9.32249C33.9715 9.71325 34.2462 10.227 34.4245 10.6255L34.9638 11.9745C35.0962 12.4035 35.2896 12.9706 35.4044 13.4045L35.723 14.8459C35.8102 15.4798 35.9241 16.3262 35.9737 16.9642L36 18.3903C35.9737 18.8197 35.9551 19.3937 35.9117 19.8217L35.7148 21.2086C35.6224 21.624 35.5144 22.1816 35.4057 22.593L34.9997 23.9161C34.8446 24.3112 34.6517 24.8439 34.4811 25.2327L33.8821 26.4654C33.6666 26.8349 33.3918 27.3352 33.1619 27.6959L32.3922 28.8058C32.1162 29.1466 31.7583 29.6094 31.4688 29.9385L30.5786 30.8744C30.2313 31.1906 29.7737 31.6189 29.4129 31.9198L28.5744 32.5674C28.0998 32.8914 27.458 33.3105 26.9668 33.6088L26.5847 33.8206C26.1086 34.0682 24.9937 34.6475 23.581 35.1111L23.3941 35.1709C23.34 35.1876 23.2682 35.2104 23.2139 35.2264L23.0493 35.2754L22.8887 35.3214L22.7346 35.3641L22.582 35.405L22.4297 35.4445L22.2766 35.4826L22.1181 35.5207L21.9564 35.5578L21.7819 35.5964C21.7278 35.6078 21.6559 35.6234 21.6018 35.6343L21.3979 35.6749C21.334 35.6868 21.2488 35.7032 21.1849 35.7146L20.9285 35.759C20.8471 35.7718 20.7385 35.7895 20.6571 35.8019L20.3053 35.8512C20.1909 35.8648 20.0385 35.8841 19.9239 35.8965L19.3906 35.9463C19.2054 35.9579 18.9584 35.9754 18.7731 35.9839L17.8458 36C16.6301 35.9579 16.5307 35.9545 15.7344 35.8583L14.49 35.6553C14.0182 35.5437 13.3873 35.4008 12.9209 35.2682L11.6486 34.8408C11.2401 34.6687 10.6901 34.451 10.289 34.2624L9.07889 33.6312C8.71387 33.4043 8.21919 33.1137 7.86342 32.8724L6.75621 32.0554C6.43374 31.7772 5.99368 31.4173 5.68246 31.1265L4.7068 30.1395C4.43106 29.8133 4.05108 29.3886 3.78849 29.0519L2.96935 27.9095C2.74605 27.5394 2.43393 27.0543 2.2257 26.6755L1.58675 25.3922C1.42225 24.982 1.18671 24.4412 1.03899 24.0247L0.60356 22.6147L0.597753 22.5929L0.279096 21.1513C0.218849 20.7136 0.121402 20.1319 0.0791199 19.6919L0 18.2603C0.0106158 17.8285 0.00816624 17.252 0.0362029 16.821L0.183373 15.423C0.26104 15.0039 0.348961 14.4418 0.443143 14.026L0.80263 12.6862C0.943811 12.2858 1.11766 11.7467 1.27435 11.3523L1.831 10.0966C2.03289 9.72077 2.28912 9.2126 2.50561 8.84509L3.2391 7.70361C3.50095 7.35633 3.83939 6.88483 4.11495 6.54834L4.98554 5.56613C5.31435 5.24554 5.74588 4.81051 6.08795 4.50415L6.96716 3.77547C7.40232 3.45905 7.98646 3.0418 8.43695 2.74743L8.8487 2.49879C9.47576 2.14598 10.6424 1.48944 12.421 0.885989L12.6077 0.82628C12.6617 0.809583 12.734 0.787532 12.7879 0.770744L12.9525 0.721742L13.1134 0.675644L13.2674 0.632903L13.4199 0.592068L13.5723 0.552685L13.7254 0.514573L13.8841 0.47655L14.0458 0.439254L14.2202 0.40078C14.2742 0.389436 14.3461 0.373465 14.4002 0.362938L14.6042 0.322376C14.6682 0.310398 14.7533 0.294063 14.8173 0.28263L15.0736 0.238256C15.155 0.22537 15.2636 0.207675 15.3451 0.195333L15.697 0.14606C15.8113 0.132357 15.9637 0.113028 16.0782 0.100597L16.6116 0.0509594C16.7968 0.0393441 17.0437 0.0217396 17.2292 0.0133004C21.78 -0.185249 26.1634 1.84915 29.3024 5.44707Z" fill="#2651CC"/>
<path id="Vector_4" d="M28.2972 4.39212C17.3747 -1.90535 10.2039 7.19149 12.5604 15.6658C15.5258 26.3296 29.144 27.5968 33.1685 19.7878C33.1738 19.7779 33.7598 18.5205 33.9352 17.9136C34.0077 17.5307 34.1044 17.0199 34.177 16.6369C34.5779 13.8658 33.7908 8.16843 28.2972 4.39212C25.2614 1.45847 21.3126 -0.161145 17.2292 0.0169675C17.4767 0.0118864 17.8064 0.00508117 18.0538 0L18.7999 0.0172396L19.9464 0.10498C20.4764 0.180018 21.1827 0.284546 21.7083 0.385806L22.9846 0.704468C23.4196 0.847557 24.0032 1.0283 24.4316 1.18963L25.6792 1.72224C26.0651 1.92241 26.5863 2.17719 26.9638 2.39269L28.1261 3.11957C28.4701 3.3729 28.9375 3.69873 29.2713 3.9654L30.3153 4.86994C30.6149 5.17272 31.0256 5.56579 31.313 5.88028L32.2128 6.94732C32.4628 7.29602 32.8096 7.75169 33.0457 8.11009L33.777 9.32522C33.9715 9.71592 34.2462 10.2296 34.4245 10.6279L34.9638 11.977C35.0962 12.4059 35.2896 12.9729 35.4044 13.4068L35.723 14.848C35.8102 15.4819 35.9241 16.3281 35.9737 16.9661L36 18.3921C35.9737 18.8214 35.9551 19.3953 35.9117 19.8233L35.7148 21.2101C35.6224 21.6254 35.5144 22.183 35.4057 22.5944L34.9997 23.9173C34.8446 24.3124 34.6517 24.8451 34.4811 25.2338L33.8821 26.4664C33.6666 26.8358 33.3918 27.3361 33.1619 27.6967L32.3922 28.8066C32.1162 29.1473 31.7583 29.6099 31.4688 29.9391L30.5786 30.8749C30.2313 31.1911 29.7737 31.6193 29.4129 31.9202L28.5744 32.5677C28.0998 32.8917 27.458 33.3107 26.9668 33.609L26.5847 33.8209C26.1086 34.0684 24.9937 34.6477 23.581 35.1112L23.3941 35.171C23.34 35.1876 23.2682 35.2105 23.2139 35.2265L23.0493 35.2754L22.8887 35.3215L22.7346 35.3642L22.582 35.4051L22.4297 35.4445L22.2766 35.4826L22.1181 35.5207L21.9564 35.5579L21.7819 35.5965C21.7278 35.6078 21.6559 35.6235 21.6018 35.6343L21.3979 35.6749C21.334 35.6867 21.2488 35.7032 21.1849 35.7146L20.9285 35.7589C20.8471 35.7718 20.7385 35.7896 20.6571 35.802L20.3053 35.8512C20.1909 35.8648 20.0385 35.8842 19.9239 35.8965L19.3906 35.9463C19.2054 35.9579 18.9584 35.9754 18.7731 35.9839L17.8458 36C16.6301 35.9579 16.5307 35.9545 15.7344 35.8583L14.49 35.6553C14.0182 35.5438 13.3873 35.4008 12.9209 35.2683L11.6486 34.8409C11.2401 34.6688 10.6901 34.4511 10.289 34.2626L9.07889 33.6315C8.71387 33.4045 8.21919 33.114 7.86343 32.8728L6.75621 32.0558C6.43374 31.7776 5.99368 31.4178 5.68246 31.127L4.7068 30.1401C4.43106 29.8139 4.05108 29.3893 3.78849 29.0526L2.96935 27.9104C2.74605 27.5403 2.43393 27.0552 2.2257 26.6765L1.58675 25.3932C1.42225 24.9831 1.18671 24.4424 1.03899 24.0259L0.60356 22.616L0.597753 22.5942L0.279096 21.1528C0.218849 20.7151 0.121401 20.1335 0.0791196 19.6936L0 18.2621C0.0106158 17.8303 0.00816584 17.2539 0.0362026 16.823L0.183373 15.4251C0.26104 15.0061 0.348961 14.444 0.443143 14.0283L0.80263 12.6885C0.94381 12.2882 1.11766 11.7492 1.27435 11.3548L1.831 10.0992C2.03289 9.72345 2.28912 9.21534 2.50561 8.84785L3.2391 7.7065C3.50095 7.35926 3.83939 6.8878 4.11495 6.55135L4.98554 5.56924C5.31435 5.24866 5.74588 4.81368 6.08795 4.50736L6.96716 3.77876C7.40232 3.46236 7.98646 3.04516 8.43695 2.75081L8.8487 2.50221C9.47567 2.14952 10.6423 1.49304 12.4209 0.889658L12.6076 0.829954C12.6617 0.81326 12.7339 0.79121 12.7878 0.774425L12.9524 0.725428L13.1133 0.679334L13.2673 0.636597L13.4198 0.595767L13.5722 0.556388L13.7253 0.51828L13.884 0.480261L14.0457 0.442969L14.2201 0.404497C14.2741 0.393156 14.346 0.377187 14.4001 0.366661L14.6041 0.326102C14.6681 0.314126 14.7532 0.297793 14.8172 0.286361L15.0735 0.241991C15.1549 0.229106 15.2636 0.211413 15.345 0.199073L15.6969 0.149803C15.8112 0.136103 15.9636 0.116776 16.0781 0.104346L16.6115 0.0547134C16.7967 0.0430993 17.0436 0.0254059 17.2292 0.0169675C21.3126 -0.161145 25.2614 1.45847 28.2972 4.39212Z" fill="#254FC7"/>
<path id="Vector_5" d="M27.356 3.54543C15.4939 -1.99487 9.23142 8.29953 12.4681 17.1971C15.6634 25.9809 29.0948 29.0158 33.6821 19.7508C33.7587 19.5961 33.8424 19.3813 33.911 19.2231C34.0172 18.8778 34.1587 18.4174 34.2649 18.0722C35.8499 8.81305 28.7879 4.3468 27.356 3.54543C24.4671 1.14779 20.9026 -0.146957 17.2292 0.0132973C17.7003 0.00358769 18.3289 0.0026801 18.7999 0.0135694L19.9464 0.10132C20.4764 0.176365 21.1827 0.280902 21.7083 0.382173L22.9846 0.700867C23.4196 0.843972 24.0032 1.02474 24.4316 1.18608L25.6792 1.71875C26.0651 1.91893 26.5863 2.17374 26.9638 2.38926L28.1261 3.11621C28.4701 3.36957 28.9375 3.69543 29.2713 3.96213L30.3153 4.86676C30.6149 5.16957 31.0256 5.56267 31.313 5.8772L32.2128 6.94435C32.4628 7.29309 32.8096 7.74881 33.0457 8.10724L33.777 9.32249C33.9715 9.71323 34.2462 10.227 34.4245 10.6254L34.9638 11.9745C35.0962 12.4035 35.2896 12.9705 35.4044 13.4045L35.723 14.8458C35.8102 15.4798 35.9241 16.3261 35.9737 16.9641L36 18.3903C35.9737 18.8197 35.9551 19.3936 35.9117 19.8217L35.7148 21.2086C35.6224 21.624 35.5144 22.1816 35.4057 22.593L34.9997 23.9161C34.8446 24.3112 34.6517 24.8439 34.4811 25.2327L33.8821 26.4654C33.6666 26.8349 33.3918 27.3352 33.1619 27.6959L32.3922 28.8058C32.1162 29.1465 31.7583 29.6093 31.4688 29.9385L30.5786 30.8744C30.2313 31.1906 29.7737 31.6188 29.4129 31.9198L28.5744 32.5674C28.0998 32.8914 27.458 33.3105 26.9668 33.6088L26.5847 33.8206C26.1086 34.0681 24.9937 34.6475 23.581 35.1111L23.3941 35.1709C23.34 35.1875 23.2682 35.2104 23.2139 35.2264L23.0493 35.2753L22.8887 35.3214L22.7346 35.3641L22.582 35.4049L22.4297 35.4444L22.2766 35.4826L22.1181 35.5207L21.9564 35.5578L21.7819 35.5964C21.7278 35.6078 21.6559 35.6234 21.6018 35.6343L21.3979 35.6748C21.334 35.6867 21.2488 35.7031 21.1849 35.7146L20.9285 35.7589C20.8471 35.7718 20.7385 35.7895 20.6571 35.8018L20.3053 35.8511C20.1909 35.8648 20.0385 35.884 19.9239 35.8965L19.3906 35.9462C19.2054 35.9579 18.9584 35.9754 18.7731 35.9838L17.8458 36C16.6301 35.9579 16.5307 35.9545 15.7344 35.8583L14.49 35.6553C14.0182 35.5437 13.3873 35.4008 12.9209 35.2682L11.6486 34.8407C11.2401 34.6687 10.6901 34.451 10.289 34.2624L9.07889 33.6311C8.71387 33.4043 8.21919 33.1137 7.86342 32.8723L6.75621 32.0554C6.43374 31.7771 5.99368 31.4173 5.68246 31.1265L4.7068 30.1394C4.43106 29.8133 4.05108 29.3886 3.78849 29.0519L2.96935 27.9094C2.74605 27.5394 2.43393 27.0543 2.2257 26.6755L1.58675 25.3922C1.42225 24.9819 1.18671 24.4413 1.03899 24.0247L0.60356 22.6146L0.597753 22.5928L0.279096 21.1513C0.218849 20.7136 0.121402 20.1319 0.0791199 19.6919L0 18.2603C0.0106158 17.8285 0.00816624 17.252 0.0362029 16.8211L0.183373 15.4231C0.26104 15.0039 0.348961 14.4418 0.443143 14.026L0.80263 12.6861C0.943811 12.2858 1.11766 11.7467 1.27435 11.3523L1.831 10.0966C2.03289 9.72077 2.28912 9.2126 2.50561 8.84508L3.2391 7.70361C3.50095 7.35633 3.83939 6.88482 4.11495 6.54834L4.98554 5.56613C5.31435 5.24552 5.74588 4.8105 6.08795 4.50415L6.96716 3.77546C7.40232 3.45904 7.98646 3.0418 8.43695 2.74742L8.8487 2.49879C9.47576 2.14606 10.6424 1.48953 12.421 0.886076L12.6077 0.826367C12.6617 0.80967 12.734 0.787619 12.7879 0.770831L12.9525 0.721829L13.1134 0.675731L13.2674 0.632991L13.4199 0.592156L13.5723 0.552772L13.7254 0.51466L13.8841 0.476638L14.0458 0.439342L14.2202 0.400867C14.2742 0.389523 14.3461 0.373552 14.4002 0.363026L14.6042 0.322464C14.6682 0.310485 14.7533 0.294151 14.8173 0.282718L15.0736 0.238343C15.155 0.225457 15.2636 0.207763 15.3451 0.195421L15.697 0.146147C15.8113 0.132444 15.9637 0.113116 16.0782 0.100684L16.6116 0.051047C16.7968 0.0394317 17.0437 0.0217365 17.2292 0.0132973C20.9026 -0.146957 24.4671 1.14779 27.356 3.54543Z" fill="#244DC2"/>
<path id="Vector_6" d="M26.4674 2.86134C14.7902 -2.21984 8.19388 9.01445 11.9829 17.6265C15.5278 25.6834 28.1302 30.2637 33.8131 20.4296C33.9031 20.2211 34.0229 19.943 34.1128 19.7344C36.5081 11.9478 31.9988 5.64927 26.4674 2.86134C23.7513 0.906445 20.5344 -0.127301 17.2292 0.0169675C17.4767 0.0118863 17.8064 0.00508117 18.0538 0L18.7999 0.0172399L19.9464 0.10498C20.4764 0.180019 21.1827 0.284546 21.7083 0.385806L22.9846 0.704468C23.4196 0.847557 24.0032 1.0283 24.4316 1.18963L25.6792 1.72224C26.0651 1.92241 26.5863 2.17719 26.9638 2.39269L28.1261 3.11957C28.4701 3.3729 28.9375 3.69873 29.2713 3.9654L30.3153 4.86994C30.6149 5.17272 31.0256 5.56579 31.313 5.88028L32.2128 6.94732C32.4628 7.29602 32.8096 7.75169 33.0457 8.1101L33.777 9.32522C33.9715 9.71592 34.2462 10.2296 34.4245 10.628L34.9638 11.9769C35.0962 12.4059 35.2896 12.9729 35.4044 13.4067L35.723 14.848C35.8102 15.4818 35.9241 16.3282 35.9737 16.9661L36 18.3921C35.9737 18.8214 35.9551 19.3954 35.9117 19.8234L35.7148 21.2102C35.6224 21.6254 35.5144 22.183 35.4057 22.5944L34.9997 23.9173C34.8446 24.3124 34.6517 24.8451 34.4811 25.2338L33.8821 26.4663C33.6666 26.8358 33.3918 27.3361 33.1619 27.6967L32.3922 28.8066C32.1162 29.1472 31.7583 29.61 31.4688 29.9392L30.5786 30.8749C30.2313 31.1911 29.7737 31.6193 29.4129 31.9203L28.5744 32.5677C28.0998 32.8917 27.458 33.3108 26.9668 33.609L26.5847 33.8209C26.1086 34.0683 24.9937 34.6477 23.581 35.1112L23.3941 35.171C23.34 35.1877 23.2682 35.2106 23.2139 35.2265L23.0493 35.2754L22.8887 35.3215L22.7346 35.3643L22.582 35.4051L22.4297 35.4446L22.2766 35.4826L22.1181 35.5207L21.9564 35.558L21.7819 35.5965C21.7278 35.6078 21.6559 35.6235 21.6018 35.6343L21.3979 35.6749C21.334 35.6868 21.2488 35.7032 21.1849 35.7146L20.9285 35.759C20.8471 35.7719 20.7385 35.7896 20.6571 35.802L20.3053 35.8512C20.1909 35.8648 20.0385 35.8842 19.9239 35.8965L19.3906 35.9463C19.2054 35.9579 18.9584 35.9754 18.7731 35.9839L17.8458 36C16.6301 35.9579 16.5307 35.9545 15.7344 35.8583L14.49 35.6553C14.0182 35.5438 13.3873 35.4008 12.9209 35.2683L11.6486 34.8409C11.2401 34.6688 10.6901 34.4511 10.289 34.2627L9.07889 33.6315C8.71387 33.4045 8.21919 33.114 7.86343 32.8727L6.75621 32.0558C6.43374 31.7776 5.99368 31.4178 5.68246 31.1269L4.7068 30.1401C4.43106 29.814 4.05108 29.3893 3.78849 29.0526L2.96935 27.9103C2.74605 27.5404 2.43393 27.0552 2.2257 26.6765L1.58675 25.3932C1.42225 24.9832 1.18671 24.4424 1.03899 24.026L0.60356 22.616L0.597753 22.5943L0.279096 21.1528C0.218849 20.7151 0.121401 20.1335 0.0791196 19.6936L0 18.2621C0.0106158 17.8304 0.00816584 17.2539 0.0362026 16.823L0.183373 15.4251C0.26104 15.0061 0.348961 14.4441 0.443143 14.0283L0.80263 12.6885C0.94381 12.2883 1.11766 11.7492 1.27435 11.3549L1.831 10.0992C2.03289 9.72346 2.28912 9.21534 2.50561 8.84787L3.2391 7.7065C3.50095 7.35926 3.83939 6.8878 4.11495 6.55135L4.98554 5.56924C5.31435 5.24867 5.74588 4.81368 6.08795 4.50736L6.96716 3.77876C7.40232 3.46237 7.98646 3.04516 8.43695 2.75082L8.8487 2.5022C9.47567 2.14943 10.6423 1.49295 12.4209 0.889568L12.6076 0.829865C12.6617 0.813169 12.7339 0.79112 12.7878 0.774335L12.9524 0.725337L13.1133 0.679244L13.2673 0.636507L13.4198 0.595677L13.5722 0.556298L13.7253 0.518189L13.884 0.480171L14.0457 0.442878L14.2201 0.404407C14.2741 0.393065 14.346 0.377096 14.4001 0.36657L14.6041 0.326011C14.6681 0.314035 14.7532 0.297702 14.8172 0.28627L15.0735 0.2419C15.1549 0.229016 15.2636 0.211322 15.345 0.198982L15.6969 0.149713C15.8112 0.136012 15.9636 0.116686 16.0781 0.104255L16.6115 0.0546227C16.7967 0.0430086 17.0436 0.0254058 17.2292 0.0169675C20.5344 -0.127301 23.7513 0.906445 26.4674 2.86134Z" fill="#234BBD"/>
<path id="Vector_7" d="M25.5881 2.26812C13.4843 -1.84478 7.74303 9.26061 11.4081 17.801C14.6141 25.2715 26.6719 31.6015 33.6538 21.5602C33.6859 21.5024 33.7287 21.4253 33.7609 21.3675C37.5619 12.9694 32.3871 5.25915 25.5881 2.26812C23.0691 0.697062 20.1843 -0.115645 17.2292 0.0133028C17.7003 0.00359317 18.3289 0.00268592 18.7999 0.0135752L19.9464 0.101325C20.4764 0.17637 21.1827 0.280908 21.7083 0.382178L22.9846 0.700873C23.4196 0.843977 24.0032 1.02474 24.4316 1.18609L25.6792 1.71875C26.0651 1.91893 26.5863 2.17375 26.9638 2.38926L28.1261 3.11622C28.4701 3.36958 28.9375 3.69543 29.2713 3.96214L30.3153 4.86677C30.6149 5.16959 31.0256 5.56269 31.313 5.8772L32.2128 6.94437C32.4628 7.29309 32.8096 7.74881 33.0457 8.10725L33.777 9.32249C33.9715 9.71325 34.2462 10.227 34.4245 10.6255L34.9638 11.9745C35.0962 12.4035 35.2896 12.9706 35.4044 13.4045L35.723 14.8459C35.8102 15.4798 35.9241 16.3262 35.9737 16.9642L36 18.3903C35.9737 18.8197 35.9551 19.3937 35.9117 19.8217L35.7148 21.2086C35.6224 21.624 35.5144 22.1816 35.4057 22.593L34.9997 23.9161C34.8446 24.3112 34.6517 24.8439 34.4811 25.2327L33.8821 26.4654C33.6666 26.8349 33.3918 27.3352 33.1619 27.6959L32.3922 28.8058C32.1162 29.1466 31.7583 29.6094 31.4688 29.9385L30.5786 30.8744C30.2313 31.1906 29.7737 31.6189 29.4129 31.9198L28.5744 32.5674C28.0998 32.8914 27.458 33.3105 26.9668 33.6088L26.5847 33.8206C26.1086 34.0682 24.9937 34.6475 23.581 35.1111L23.3941 35.1709C23.34 35.1876 23.2682 35.2104 23.2139 35.2264L23.0493 35.2754L22.8887 35.3214L22.7346 35.3641L22.582 35.405L22.4297 35.4445L22.2766 35.4826L22.1181 35.5207L21.9564 35.5578L21.7819 35.5964C21.7278 35.6078 21.6559 35.6234 21.6018 35.6343L21.3979 35.6749C21.334 35.6868 21.2488 35.7032 21.1849 35.7146L20.9285 35.759C20.8471 35.7718 20.7385 35.7895 20.6571 35.8019L20.3053 35.8512C20.1909 35.8648 20.0385 35.8841 19.9239 35.8965L19.3906 35.9463C19.2054 35.9579 18.9584 35.9754 18.7731 35.9839L17.8458 36C16.6301 35.9579 16.5307 35.9545 15.7344 35.8583L14.49 35.6553C14.0182 35.5437 13.3873 35.4008 12.9209 35.2682L11.6486 34.8408C11.2401 34.6687 10.6901 34.451 10.289 34.2624L9.07889 33.6312C8.71387 33.4043 8.21919 33.1137 7.86343 32.8724L6.75621 32.0554C6.43374 31.7772 5.99368 31.4173 5.68246 31.1265L4.7068 30.1395C4.43106 29.8133 4.05108 29.3886 3.78849 29.0519L2.96935 27.9095C2.74605 27.5394 2.43393 27.0543 2.2257 26.6755L1.58675 25.3922C1.42225 24.982 1.18671 24.4412 1.03899 24.0247L0.60356 22.6147L0.597753 22.5929L0.279096 21.1513C0.218849 20.7136 0.121401 20.1319 0.0791196 19.6919L0 18.2603C0.0106158 17.8285 0.00816584 17.252 0.0362026 16.821L0.183373 15.423C0.26104 15.0039 0.348961 14.4418 0.443143 14.026L0.80263 12.6862C0.94381 12.2858 1.11766 11.7467 1.27435 11.3523L1.831 10.0966C2.03289 9.72077 2.28912 9.2126 2.50561 8.84509L3.2391 7.70361C3.50095 7.35634 3.83939 6.88484 4.11495 6.54835L4.98554 5.56613C5.31435 5.24554 5.74588 4.81051 6.08795 4.50415L6.96716 3.77547C7.40232 3.45905 7.98646 3.0418 8.43695 2.74743L8.8487 2.49879C9.47567 2.14598 10.6423 1.48944 12.4209 0.885992L12.6076 0.826282C12.6617 0.809585 12.7339 0.787534 12.7878 0.770746L12.9524 0.721745L13.1133 0.675647L13.2673 0.632905L13.4198 0.592071L13.5722 0.552688L13.7253 0.514575L13.884 0.476553L14.0457 0.439257L14.2201 0.400782C14.2741 0.389439 14.346 0.373467 14.4001 0.362941L14.6041 0.322378C14.6681 0.3104 14.7532 0.294066 14.8172 0.282632L15.0735 0.238258C15.1549 0.225373 15.2636 0.207677 15.345 0.195336L15.6969 0.146062C15.8112 0.13236 15.9636 0.113031 16.0781 0.1006L16.6115 0.0509619C16.7967 0.0393465 17.0436 0.0217421 17.2292 0.0133028C20.1843 -0.115645 23.0691 0.697062 25.5881 2.26812Z" fill="#2249B8"/>
<path id="Vector_8" d="M24.7081 1.76162C11.8605 -1.72388 6.65259 10.7948 11.5901 19.5583C15.7176 26.8845 27.1495 31.1743 33.4423 22.6276C38.2477 14.2885 32.693 4.56335 24.7081 1.76162C22.407 0.526808 19.8457 -0.0970866 17.2292 0.0169675C17.4767 0.0118864 17.8064 0.00508117 18.0538 0L18.7999 0.0172396L19.9464 0.10498C20.4764 0.180018 21.1827 0.284546 21.7083 0.385806L22.9846 0.704468C23.4196 0.847557 24.0032 1.0283 24.4316 1.18963L25.6792 1.72224C26.0651 1.92241 26.5863 2.17719 26.9638 2.39269L28.1261 3.11957C28.4701 3.3729 28.9375 3.69873 29.2713 3.9654L30.3153 4.86994C30.6149 5.17272 31.0256 5.56579 31.313 5.88028L32.2128 6.94732C32.4628 7.29602 32.8096 7.75169 33.0457 8.11009L33.777 9.32522C33.9715 9.71592 34.2462 10.2296 34.4245 10.6279L34.9638 11.977C35.0962 12.4059 35.2896 12.9729 35.4044 13.4068L35.723 14.848C35.8102 15.4819 35.9241 16.3281 35.9737 16.9661L36 18.3921C35.9737 18.8214 35.9551 19.3953 35.9117 19.8233L35.7148 21.2101C35.6224 21.6254 35.5144 22.183 35.4057 22.5944L34.9997 23.9173C34.8446 24.3124 34.6517 24.8451 34.4811 25.2338L33.8821 26.4664C33.6666 26.8358 33.3918 27.3361 33.1619 27.6967L32.3922 28.8066C32.1162 29.1473 31.7583 29.6099 31.4688 29.9391L30.5786 30.8749C30.2313 31.1911 29.7737 31.6193 29.4129 31.9202L28.5744 32.5677C28.0998 32.8917 27.458 33.3107 26.9668 33.609L26.5847 33.8209C26.1086 34.0684 24.9937 34.6477 23.581 35.1112L23.3941 35.171C23.34 35.1876 23.2682 35.2105 23.2139 35.2265L23.0493 35.2754L22.8887 35.3215L22.7346 35.3642L22.582 35.4051L22.4297 35.4445L22.2766 35.4826L22.1181 35.5207L21.9564 35.5579L21.7819 35.5965C21.7278 35.6078 21.6559 35.6235 21.6018 35.6343L21.3979 35.6749C21.334 35.6867 21.2488 35.7032 21.1849 35.7146L20.9285 35.7589C20.8471 35.7718 20.7385 35.7896 20.6571 35.802L20.3053 35.8512C20.1909 35.8648 20.0385 35.8842 19.9239 35.8965L19.3906 35.9463C19.2054 35.9579 18.9584 35.9754 18.7731 35.9839L17.8458 36C16.6301 35.9579 16.5307 35.9545 15.7344 35.8583L14.49 35.6553C14.0182 35.5438 13.3873 35.4008 12.9209 35.2683L11.6486 34.8409C11.2401 34.6688 10.6901 34.4511 10.289 34.2626L9.07889 33.6315C8.71387 33.4045 8.21919 33.114 7.86343 32.8728L6.75621 32.0558C6.43374 31.7776 5.99368 31.4178 5.68246 31.127L4.7068 30.1401C4.43106 29.8139 4.05108 29.3893 3.78849 29.0526L2.96935 27.9104C2.74605 27.5403 2.43393 27.0552 2.2257 26.6765L1.58675 25.3932C1.42225 24.9831 1.18671 24.4424 1.03899 24.0259L0.60356 22.616L0.597753 22.5942L0.279096 21.1528C0.218849 20.7151 0.121401 20.1335 0.0791196 19.6936L0 18.2621C0.0106158 17.8303 0.00816584 17.2539 0.0362026 16.823L0.183373 15.4251C0.26104 15.0061 0.348961 14.444 0.443143 14.0283L0.80263 12.6885C0.94381 12.2882 1.11766 11.7492 1.27435 11.3548L1.831 10.0992C2.03289 9.72345 2.28912 9.21534 2.50561 8.84785L3.2391 7.7065C3.50095 7.35926 3.83939 6.8878 4.11495 6.55135L4.98554 5.56924C5.31435 5.24866 5.74588 4.81368 6.08795 4.50736L6.96716 3.77876C7.40232 3.46236 7.98646 3.04516 8.43695 2.75081L8.8487 2.50221C9.47567 2.14952 10.6423 1.49304 12.4209 0.889658L12.6076 0.829954C12.6617 0.81326 12.7339 0.79121 12.7878 0.774425L12.9524 0.725428L13.1133 0.679334L13.2673 0.636597L13.4198 0.595767L13.5722 0.556388L13.7253 0.51828L13.884 0.480261L14.0457 0.442969L14.2201 0.404497C14.2741 0.393156 14.346 0.377187 14.4001 0.366661L14.6041 0.326102C14.6681 0.314126 14.7532 0.297793 14.8172 0.286361L15.0735 0.241991C15.1549 0.229106 15.2636 0.211413 15.345 0.199073L15.6969 0.149803C15.8112 0.136103 15.9636 0.116776 16.0781 0.104346L16.6115 0.0547134C16.7967 0.0430993 17.0436 0.0254059 17.2292 0.0169675C19.8457 -0.0970866 22.407 0.526808 24.7081 1.76162Z" fill="#2147B3"/>
<path id="Vector_9" d="M23.8297 1.32219C11.9514 -1.65195 5.52077 10.3614 10.9529 19.7571C15.6153 27.8213 26.5688 31.3598 33.1784 23.6588C33.3253 23.4468 33.5212 23.1643 33.6682 22.9525C38.6547 13.9103 32.5866 4.07501 23.8297 1.32219C21.7631 0.378181 19.5174 -0.0865218 17.2292 0.013297C17.7003 0.00358731 18.3289 0.00267971 18.7999 0.013569L19.9464 0.101319C20.4764 0.176364 21.1827 0.280902 21.7083 0.382173L22.9846 0.700867C23.4196 0.843971 24.0032 1.02474 24.4316 1.18608L25.6792 1.71875C26.0651 1.91893 26.5863 2.17374 26.9638 2.38926L28.1261 3.11621C28.4701 3.36957 28.9375 3.69543 29.2713 3.96213L30.3153 4.86676C30.6149 5.16957 31.0256 5.56267 31.313 5.87719L32.2128 6.94435C32.4628 7.29309 32.8096 7.7488 33.0457 8.10724L33.777 9.32249C33.9715 9.71323 34.2462 10.227 34.4245 10.6254L34.9638 11.9745C35.0962 12.4035 35.2896 12.9705 35.4044 13.4045L35.723 14.8458C35.8102 15.4798 35.9241 16.3261 35.9737 16.9641L36 18.3903C35.9737 18.8197 35.9551 19.3936 35.9117 19.8217L35.7148 21.2086C35.6224 21.624 35.5144 22.1816 35.4057 22.593L34.9997 23.9161C34.8446 24.3112 34.6517 24.8439 34.4811 25.2327L33.8821 26.4654C33.6666 26.8349 33.3918 27.3352 33.1619 27.6959L32.3922 28.8058C32.1162 29.1465 31.7583 29.6093 31.4688 29.9385L30.5786 30.8744C30.2313 31.1906 29.7737 31.6188 29.4129 31.9198L28.5744 32.5674C28.0998 32.8914 27.458 33.3105 26.9668 33.6088L26.5847 33.8206C26.1086 34.0681 24.9937 34.6475 23.581 35.1111L23.3941 35.1709C23.34 35.1875 23.2682 35.2104 23.2139 35.2264L23.0493 35.2753L22.8887 35.3214L22.7346 35.3641L22.582 35.4049L22.4297 35.4444L22.2766 35.4826L22.1181 35.5207L21.9564 35.5578L21.7819 35.5964C21.7278 35.6078 21.6559 35.6234 21.6018 35.6343L21.3979 35.6748C21.334 35.6867 21.2488 35.7031 21.1849 35.7146L20.9285 35.7589C20.8471 35.7718 20.7385 35.7895 20.6571 35.8018L20.3053 35.8511C20.1909 35.8648 20.0385 35.884 19.9239 35.8965L19.3906 35.9462C19.2054 35.9579 18.9584 35.9754 18.7731 35.9838L17.8458 36C16.6301 35.9579 16.5307 35.9545 15.7344 35.8583L14.49 35.6553C14.0182 35.5437 13.3873 35.4008 12.9209 35.2682L11.6486 34.8407C11.2401 34.6687 10.6901 34.451 10.289 34.2624L9.07889 33.6311C8.71387 33.4043 8.21919 33.1137 7.86342 32.8723L6.75621 32.0554C6.43374 31.7771 5.99368 31.4173 5.68246 31.1265L4.7068 30.1394C4.43106 29.8133 4.05108 29.3886 3.78849 29.0519L2.96935 27.9094C2.74605 27.5394 2.43393 27.0543 2.2257 26.6755L1.58675 25.3922C1.42225 24.9819 1.18671 24.4413 1.03899 24.0247L0.60356 22.6146L0.597753 22.5928L0.279096 21.1513C0.218849 20.7136 0.121402 20.1319 0.0791199 19.6919L0 18.2603C0.0106158 17.8285 0.00816624 17.252 0.0362029 16.8211L0.183373 15.4231C0.26104 15.0039 0.348961 14.4418 0.443143 14.026L0.80263 12.6861C0.943811 12.2858 1.11766 11.7467 1.27435 11.3523L1.831 10.0966C2.03289 9.72077 2.28912 9.2126 2.50561 8.84508L3.2391 7.70361C3.50095 7.35633 3.83939 6.88482 4.11495 6.54834L4.98554 5.56613C5.31435 5.24552 5.74588 4.8105 6.08795 4.50415L6.96716 3.77546C7.40232 3.45904 7.98646 3.0418 8.43695 2.74742L8.8487 2.49879C9.47576 2.14606 10.6424 1.48953 12.421 0.886076L12.6077 0.826367C12.6617 0.80967 12.734 0.787618 12.7879 0.770831L12.9525 0.721829L13.1134 0.675731L13.2674 0.63299L13.4199 0.592156L13.5723 0.552772L13.7254 0.51466L13.8841 0.476638L14.0458 0.439342L14.2202 0.400866C14.2742 0.389523 14.3461 0.373552 14.4002 0.363026L14.6042 0.322463C14.6682 0.310485 14.7533 0.294151 14.8173 0.282718L15.0736 0.238343C15.155 0.225457 15.2636 0.207762 15.3451 0.195421L15.697 0.146146C15.8113 0.132444 15.9637 0.113116 16.0782 0.100684L16.6116 0.0510467C16.7968 0.0394313 17.0437 0.0217362 17.2292 0.013297C19.5174 -0.0865218 21.7631 0.378181 23.8297 1.32219Z" fill="#2045AD"/>
<path id="Vector_10" d="M22.9366 0.948436C9.19485 -1.53824 4.97773 12.8612 11.1871 21.4704C14.5549 26.1398 24.2841 33.0641 32.8622 24.6645C39.3347 16.8458 33.7689 3.54699 22.9366 0.948436C21.1228 0.257234 19.1916 -0.0723495 17.2292 0.0133132C17.7003 0.00360357 18.3289 0.00269633 18.7999 0.0135856L19.9464 0.101335C20.4764 0.176382 21.1827 0.280919 21.7083 0.38219L22.9846 0.700885C23.4196 0.843988 24.0032 1.02475 24.4316 1.1861L25.6792 1.71877C26.0651 1.91894 26.5863 2.17375 26.9638 2.38927L28.1261 3.11623C28.4701 3.36958 28.9375 3.69545 29.2713 3.96215L30.3153 4.86678C30.6149 5.16959 31.0256 5.5627 31.313 5.87722L32.2128 6.94437C32.4628 7.29311 32.8096 7.74883 33.0457 8.10727L33.777 9.32252C33.9715 9.71327 34.2462 10.2271 34.4245 10.6254L34.9638 11.9745C35.0962 12.4034 35.2896 12.9705 35.4044 13.4045L35.723 14.8459C35.8102 15.4798 35.9241 16.3262 35.9737 16.9642L36 18.3903C35.9737 18.8198 35.9551 19.3937 35.9117 19.8218L35.7148 21.2087C35.6224 21.6241 35.5144 22.1817 35.4057 22.5931L34.9997 23.9162C34.8446 24.3113 34.6517 24.844 34.4811 25.2328L33.8821 26.4655C33.6666 26.8349 33.3918 27.3352 33.1619 27.6959L32.3922 28.8059C32.1162 29.1465 31.7583 29.6094 31.4688 29.9386L30.5786 30.8744C30.2313 31.1906 29.7737 31.6189 29.4129 31.9199L28.5744 32.5675C28.0998 32.8914 27.458 33.3106 26.9668 33.6089L26.5847 33.8207C26.1086 34.0681 24.9937 34.6476 23.581 35.1112L23.3941 35.1709C23.34 35.1876 23.2682 35.2105 23.2139 35.2264L23.0493 35.2754L22.8887 35.3215L22.7346 35.3642L22.582 35.405L22.4297 35.4445L22.2766 35.4826L22.1181 35.5208L21.9564 35.5579L21.7819 35.5965C21.7278 35.6078 21.6559 35.6234 21.6018 35.6343L21.3979 35.6749C21.334 35.6868 21.2488 35.7032 21.1849 35.7147L20.9285 35.759C20.8471 35.7719 20.7385 35.7896 20.6571 35.8019L20.3053 35.8512C20.1909 35.8648 20.0385 35.8841 19.9239 35.8966L19.3906 35.9463C19.2054 35.9579 18.9584 35.9754 18.7731 35.9839L17.8458 36C16.6301 35.9579 16.5307 35.9545 15.7344 35.8583L14.49 35.6553C14.0182 35.5437 13.3873 35.4009 12.9209 35.2683L11.6486 34.8407C11.2401 34.6687 10.6901 34.4511 10.289 34.2625L9.07889 33.6312C8.71387 33.4042 8.21919 33.1137 7.86342 32.8724L6.75621 32.0555C6.43374 31.7771 5.99368 31.4174 5.68246 31.1265L4.7068 30.1395C4.43106 29.8134 4.05108 29.3886 3.78849 29.0519L2.96935 27.9095C2.74605 27.5395 2.43393 27.0543 2.2257 26.6756L1.58675 25.3922C1.42225 24.982 1.18671 24.4412 1.03899 24.0248L0.60356 22.6147L0.597753 22.5929L0.279096 21.1514C0.218849 20.7135 0.121402 20.1319 0.0791199 19.692L0 18.2603C0.0106158 17.8286 0.00816624 17.252 0.0362029 16.8211L0.183373 15.4231C0.26104 15.0039 0.348961 14.4419 0.443143 14.0261L0.80263 12.6861C0.943811 12.2859 1.11766 11.7468 1.27435 11.3524L1.831 10.0965C2.03289 9.72079 2.28912 9.21263 2.50561 8.84511L3.2391 7.70363C3.50095 7.35636 3.83939 6.88485 4.11495 6.54837L4.98554 5.56615C5.31435 5.24555 5.74588 4.81052 6.08795 4.50416L6.96716 3.77549C7.40232 3.45906 7.98646 3.04182 8.43695 2.74745L8.8487 2.4988C9.47576 2.14599 10.6424 1.48946 12.421 0.886003L12.6077 0.826294C12.6617 0.809596 12.734 0.787546 12.7879 0.770758L12.9525 0.721756L13.1134 0.675658L13.2674 0.632916L13.4199 0.592082L13.5723 0.552698L13.7254 0.514586L13.8841 0.476564L14.0458 0.439268L14.2202 0.400792C14.2742 0.389449 14.3461 0.373479 14.4002 0.362952L14.6042 0.32239C14.6682 0.310411 14.7533 0.294077 14.8173 0.282643L15.0736 0.238269C15.155 0.225383 15.2636 0.207688 15.3451 0.195347L15.697 0.146072C15.8113 0.13237 15.9637 0.113041 16.0782 0.10061L16.6116 0.0509723C16.7968 0.039357 17.0437 0.0217525 17.2292 0.0133132C19.1916 -0.0723495 21.1228 0.257234 22.9366 0.948436Z" fill="#1F43A8"/>
<path id="Vector_11" d="M22.023 0.634064C8.61978 -1.18509 3.77189 13.0416 11.3217 22.8457C14.8718 27.4557 24.7257 33.0123 32.4904 25.6547C32.7003 25.4078 32.98 25.0786 33.1899 24.8317C39.7589 16.5946 33.3927 2.79977 22.023 0.634064C20.4801 0.159198 18.8655 -0.058044 17.2292 0.0132811C17.7003 0.00357138 18.3289 0.00266379 18.7999 0.0135531L19.9464 0.101303C20.4764 0.176349 21.1827 0.280886 21.7083 0.382157L22.9846 0.700851C23.4196 0.843955 24.0032 1.02472 24.4316 1.18606L25.6792 1.71873C26.0651 1.91891 26.5863 2.17372 26.9638 2.38924L28.1261 3.11619C28.4701 3.36955 28.9375 3.69541 29.2713 3.96211L30.3153 4.86674C30.6149 5.16955 31.0256 5.56266 31.313 5.87718L32.2128 6.94433C32.4628 7.29307 32.8096 7.74879 33.0457 8.10723L33.777 9.32247C33.9715 9.71322 34.2462 10.227 34.4245 10.6254L34.9638 11.9745C35.0962 12.4034 35.2896 12.9705 35.4044 13.4045L35.723 14.8458C35.8102 15.4798 35.9241 16.3261 35.9737 16.9641L36 18.3903C35.9737 18.8197 35.9551 19.3936 35.9117 19.8217L35.7148 21.2086C35.6224 21.624 35.5144 22.1816 35.4057 22.593L34.9997 23.9161C34.8446 24.3112 34.6517 24.8439 34.4811 25.2327L33.8821 26.4654C33.6666 26.8349 33.3918 27.3351 33.1619 27.6959L32.3922 28.8058C32.1162 29.1465 31.7583 29.6093 31.4688 29.9385L30.5786 30.8743C30.2313 31.1906 29.7737 31.6188 29.4129 31.9198L28.5744 32.5674C28.0998 32.8914 27.458 33.3105 26.9668 33.6088L26.5847 33.8206C26.1086 34.0681 24.9937 34.6475 23.581 35.1111L23.3941 35.1708C23.34 35.1875 23.2682 35.2104 23.2139 35.2264L23.0493 35.2753L22.8887 35.3214L22.7346 35.3641L22.582 35.4049L22.4297 35.4444L22.2766 35.4825L22.1181 35.5207L21.9564 35.5578L21.7819 35.5964C21.7278 35.6077 21.6559 35.6233 21.6018 35.6343L21.3979 35.6748C21.334 35.6867 21.2488 35.7031 21.1849 35.7146L20.9285 35.7589C20.8471 35.7718 20.7385 35.7895 20.6571 35.8018L20.3053 35.8511C20.1909 35.8647 20.0385 35.884 19.9239 35.8965L19.3906 35.9462C19.2054 35.9579 18.9584 35.9753 18.7731 35.9838L17.8458 36C16.6301 35.9579 16.5307 35.9544 15.7344 35.8583L14.49 35.6553C14.0182 35.5437 13.3873 35.4008 12.9209 35.2682L11.6486 34.8406C11.2401 34.6687 10.6901 34.451 10.289 34.2624L9.07889 33.6311C8.71387 33.4043 8.21919 33.1136 7.86343 32.8723L6.75621 32.0554C6.43374 31.7771 5.99368 31.4173 5.68246 31.1265L4.7068 30.1394C4.43106 29.8133 4.05108 29.3885 3.78849 29.0519L2.96935 27.9094C2.74605 27.5394 2.43393 27.0543 2.2257 26.6755L1.58675 25.3921C1.42225 24.9819 1.18671 24.4413 1.03899 24.0247L0.60356 22.6146L0.597753 22.5928L0.279096 21.1513C0.218849 20.7136 0.121401 20.1319 0.0791196 19.6919L0 18.2603C0.0106158 17.8285 0.00816584 17.2519 0.0362026 16.8211L0.183373 15.4231C0.26104 15.0039 0.348961 14.4418 0.443143 14.026L0.80263 12.6861C0.94381 12.2858 1.11766 11.7467 1.27435 11.3523L1.831 10.0966C2.03289 9.72075 2.28912 9.21258 2.50561 8.84507L3.2391 7.70359C3.50095 7.35631 3.83939 6.8848 4.11495 6.54832L4.98554 5.56611C5.31435 5.24551 5.74588 4.81049 6.08795 4.50413L6.96716 3.77545C7.40232 3.45903 7.98646 3.04178 8.43695 2.74741L8.8487 2.49877C9.47567 2.14605 10.6423 1.48952 12.4209 0.88606L12.6076 0.826351C12.6617 0.809654 12.7339 0.787603 12.7878 0.770815L12.9524 0.721813L13.1133 0.675715L13.2673 0.632975L13.4198 0.59214L13.5722 0.552756L13.7253 0.514644L13.884 0.476622L14.0457 0.439326L14.2201 0.40085C14.2741 0.389507 14.346 0.373536 14.4001 0.36301L14.6041 0.322448C14.6681 0.310469 14.7532 0.294135 14.8172 0.282701L15.0735 0.238327C15.1549 0.225441 15.2636 0.207747 15.345 0.195405L15.6969 0.146131C15.8112 0.132428 15.9636 0.1131 16.0781 0.100668L16.6115 0.0510308C16.7967 0.0394154 17.0436 0.0217203 17.2292 0.0132811C18.8655 -0.058044 20.4801 0.159198 22.023 0.634064Z" fill="#1E41A3"/>
<path id="Vector_12" d="M25.843 2.25517C23.5302 0.953943 22.1403 0.690015 20.7962 0.434776C19.561 0.0989724 18.2873 -0.0455046 17 0.0193395C17.244 0.013548 17.5691 0.0057915 17.8131 0L18.5491 0.0196496L19.6798 0.119656C20.2025 0.205184 20.899 0.324324 21.4174 0.439741L22.6762 0.80295C23.1052 0.966043 23.6808 1.17206 24.1033 1.35593L25.3338 1.963C25.7144 2.19115 26.2284 2.48155 26.6007 2.72718C26.7205 2.80909 26.8802 2.91819 27 3C26.6702 2.78674 26.2304 2.50235 25.9007 2.28909C25.8835 2.27895 25.8605 2.26499 25.843 2.25517Z" fill="#1D3F9E"/>
<path id="Vector_13" d="M21.0783 0.377744C7.69929 -1.02824 3.02207 13.8322 10.7722 23.3602C14.7047 28.1945 23.96 33.3605 32.0549 26.6426C32.2481 26.445 32.5057 26.1817 32.699 25.9842C36.9432 20.8139 36.2244 15.377 34.8739 11.7265L35.3285 13.1259L35.4044 13.4045L35.723 14.8458C35.8102 15.4798 35.9241 16.3261 35.9737 16.9641L36 18.3903C35.9737 18.8197 35.9551 19.3936 35.9117 19.8217L35.7148 21.2086C35.6224 21.624 35.5144 22.1816 35.4057 22.593L34.9997 23.9161C34.8446 24.3112 34.6517 24.8439 34.4811 25.2327L33.8821 26.4654C33.6666 26.8349 33.3918 27.3352 33.1619 27.6959L32.3922 28.8058C32.1162 29.1465 31.7583 29.6093 31.4688 29.9385L30.5786 30.8744C30.2313 31.1906 29.7737 31.6188 29.4129 31.9198L28.5744 32.5674C28.0998 32.8914 27.458 33.3105 26.9668 33.6088L26.5847 33.8206C26.1086 34.0682 24.9937 34.6475 23.581 35.1111L23.3941 35.1709C23.34 35.1875 23.2682 35.2104 23.2139 35.2264L23.0493 35.2753L22.8887 35.3214L22.7346 35.3641L22.582 35.4049L22.4297 35.4444L22.2766 35.4826L22.1181 35.5207L21.9564 35.5578L21.7819 35.5964C21.7278 35.6078 21.6559 35.6234 21.6018 35.6343L21.3979 35.6748C21.334 35.6867 21.2488 35.7031 21.1849 35.7146L20.9285 35.7589C20.8471 35.7718 20.7385 35.7895 20.6571 35.8018L20.3053 35.8511C20.1909 35.8648 20.0385 35.884 19.9239 35.8965L19.3906 35.9462C19.2054 35.9579 18.9584 35.9754 18.7731 35.9838L17.8458 36C16.6301 35.9579 16.5307 35.9545 15.7344 35.8583L14.49 35.6553C14.0182 35.5437 13.3873 35.4008 12.9209 35.2682L11.6486 34.8408C11.2401 34.6687 10.6901 34.451 10.289 34.2624L9.07889 33.6311C8.71387 33.4043 8.21919 33.1137 7.86342 32.8723L6.75621 32.0554C6.43374 31.7771 5.99368 31.4173 5.68246 31.1265L4.7068 30.1394C4.43106 29.8133 4.05108 29.3886 3.78849 29.0519L2.96935 27.9094C2.74605 27.5394 2.43393 27.0543 2.2257 26.6755L1.58675 25.3922C1.42225 24.982 1.18671 24.4413 1.03899 24.0247L0.60356 22.6146L0.597753 22.5928L0.279096 21.1513C0.218849 20.7136 0.121401 20.1319 0.0791196 19.6919L0 18.2603C0.0106158 17.8285 0.00816584 17.252 0.0362026 16.8211L0.183373 15.4231C0.26104 15.0039 0.348961 14.4418 0.443143 14.0261L0.80263 12.6861C0.94381 12.2858 1.11766 11.7467 1.27435 11.3523L1.831 10.0966C2.03289 9.72078 2.28912 9.21261 2.50561 8.84509L3.2391 7.70363C3.50095 7.35635 3.83939 6.88484 4.11495 6.54836L4.98554 5.56614C5.31435 5.24554 5.74588 4.81051 6.08795 4.50416L6.96716 3.77548C7.40232 3.45906 7.98646 3.04182 8.43695 2.74744L8.8487 2.4988C9.47558 2.14598 10.6423 1.48945 12.4208 0.886003L12.6075 0.826293C12.6616 0.809596 12.7338 0.787545 12.7877 0.770757L12.9524 0.721756L13.1132 0.675657L13.2672 0.632917L13.4197 0.592082L13.5721 0.552699L13.7252 0.514586L13.8839 0.476565L14.0456 0.439269L14.22 0.400793C14.274 0.389449 14.3459 0.373479 14.4 0.362953L14.604 0.32239C14.668 0.310412 14.7531 0.294078 14.8171 0.282644L15.0734 0.23827C15.1548 0.225385 15.2635 0.207689 15.345 0.195348L15.6968 0.146074C15.8112 0.132372 15.9635 0.113043 16.0781 0.10061L16.6114 0.0509736C16.7967 0.0393584 17.0435 0.0217539 17.2291 0.0133146C18.5345 -0.0436727 19.8259 0.0830969 21.0783 0.377744Z" fill="#1D3F9E"/>
<path id="Vector_14" d="M23.3684 0.803136C21.805 0.368771 20.9062 0.263384 19.8936 0.170728C18.9435 0.0304359 17.9755 -0.0231852 17 0.015766C17.2511 0.0110446 17.5856 0.00472135 17.8367 0L18.5939 0.0160191L19.7574 0.0975463C20.2952 0.16727 21.0119 0.264396 21.5453 0.358486L22.8405 0.654582L24 1L23.3684 0.803136Z" fill="#1C3D99"/>
<path id="Vector_15" d="M20.0807 0.180124C7.06062 -0.512891 1.5588 14.7627 11.1611 24.9452C11.5633 25.3715 21.1289 35.2998 31.5511 27.626C31.6246 27.5614 31.7227 27.4753 31.7961 27.4106C33.1831 26.0255 36.8676 22.3466 35.7845 15.2115L35.9526 16.6497L35.9737 16.9642L36 18.3903C35.9737 18.8197 35.9551 19.3936 35.9117 19.8217L35.7148 21.2086C35.6224 21.624 35.5144 22.1816 35.4057 22.593L34.9997 23.9161C34.8446 24.3112 34.6517 24.8439 34.4811 25.2327L33.8821 26.4654C33.6666 26.8349 33.3918 27.3352 33.1619 27.6959L32.3922 28.8058C32.1162 29.1466 31.7583 29.6093 31.4688 29.9385L30.5786 30.8744C30.2313 31.1906 29.7737 31.6189 29.4129 31.9198L28.5744 32.5674C28.0998 32.8914 27.458 33.3105 26.9668 33.6088L26.5847 33.8206C26.1086 34.0682 24.9937 34.6475 23.581 35.1111L23.3941 35.1709C23.34 35.1875 23.2682 35.2104 23.2139 35.2264L23.0493 35.2753L22.8887 35.3214L22.7346 35.3641L22.582 35.405L22.4297 35.4444L22.2766 35.4826L22.1181 35.5207L21.9564 35.5578L21.7819 35.5964C21.7278 35.6078 21.6559 35.6234 21.6018 35.6343L21.3979 35.6748C21.334 35.6867 21.2488 35.7032 21.1849 35.7146L20.9285 35.7589C20.8471 35.7718 20.7385 35.7895 20.6571 35.8019L20.3053 35.8512C20.1909 35.8648 20.0385 35.8841 19.9239 35.8965L19.3906 35.9463C19.2054 35.9579 18.9584 35.9754 18.7731 35.9839L17.8458 36C16.6301 35.9579 16.5307 35.9545 15.7344 35.8583L14.49 35.6553C14.0182 35.5437 13.3873 35.4008 12.9209 35.2682L11.6486 34.8408C11.2401 34.6687 10.6901 34.451 10.289 34.2624L9.07889 33.6312C8.71387 33.4043 8.21919 33.1137 7.86342 32.8724L6.75621 32.0554C6.43374 31.7772 5.99368 31.4173 5.68246 31.1265L4.7068 30.1395C4.43106 29.8133 4.05108 29.3886 3.78849 29.0519L2.96935 27.9095C2.74605 27.5394 2.43393 27.0543 2.2257 26.6755L1.58675 25.3922C1.42225 24.982 1.18671 24.4413 1.03899 24.0247L0.60356 22.6147L0.597753 22.5928L0.279096 21.1513C0.218849 20.7136 0.121402 20.1319 0.0791199 19.6919L0 18.2603C0.0106158 17.8285 0.00816624 17.252 0.0362029 16.8211L0.183373 15.4231C0.26104 15.004 0.348961 14.4418 0.443143 14.0261L0.80263 12.6862C0.943811 12.2858 1.11766 11.7467 1.27435 11.3523L1.831 10.0966C2.03289 9.7208 2.28912 9.21263 2.50561 8.84511L3.2391 7.70365C3.50095 7.35637 3.83939 6.88486 4.11495 6.54838L4.98554 5.56616C5.31435 5.24556 5.74588 4.81053 6.08795 4.50418L6.96716 3.7755C7.40232 3.45908 7.98646 3.04184 8.43695 2.74746L8.8487 2.49882C9.47576 2.14601 10.6424 1.48947 12.421 0.886023L12.6077 0.826314C12.6617 0.809617 12.734 0.787566 12.7879 0.770778L12.9525 0.721776L13.1134 0.675678L13.2674 0.632937L13.4199 0.592103L13.5723 0.552719L13.7254 0.514607L13.8841 0.476585L14.0458 0.439289L14.2202 0.400813C14.2742 0.389471 14.3461 0.3735 14.4002 0.362973L14.6042 0.322411C14.6682 0.310433 14.7533 0.294098 14.8173 0.282665L15.0736 0.238291C15.155 0.225405 15.2636 0.207709 15.3451 0.195368L15.697 0.146094C15.8113 0.132392 15.9637 0.113063 16.0782 0.100632L16.6116 0.0509943C16.7968 0.039379 17.0437 0.0217745 17.2292 0.0133353C18.1907 -0.0286793 19.1445 0.0290342 20.0807 0.180124Z" fill="#1C3D99"/>
<path id="Vector_16" d="M19.0213 0.0500944C5.03658 -0.133664 1.4562 15.9596 10.3001 25.2368C14.0882 29.2104 22.701 34.396 30.954 28.6266C31.1696 28.4437 31.457 28.1999 31.6727 28.0169C32.7188 27.0701 35.9023 24.1888 36 18.0339L35.9417 19.4483L35.9075 19.8217L35.7107 21.2087C35.6183 21.6239 35.5103 22.1816 35.4016 22.593L34.9957 23.9161C34.8406 24.3112 34.6477 24.844 34.4772 25.2327L33.8782 26.4654C33.6628 26.8349 33.3879 27.3352 33.1581 27.6958L32.3885 28.8058C32.1125 29.1465 31.7547 29.6094 31.4652 29.9386L30.575 30.8744C30.2279 31.1906 29.7703 31.6189 29.4095 31.9199L28.5711 32.5674C28.0965 32.8914 27.4549 33.3106 26.9638 33.6088L26.5816 33.8207C26.1056 34.0681 24.9909 34.6475 23.5783 35.1111L23.3914 35.1709C23.3373 35.1876 23.2655 35.2105 23.2112 35.2264L23.0467 35.2754L22.886 35.3214L22.732 35.3641L22.5794 35.405L22.4271 35.4445L22.2741 35.4826L22.1155 35.5207L21.9539 35.5579L21.7794 35.5964C21.7253 35.6078 21.6534 35.6234 21.5993 35.6343L21.3955 35.6749C21.3315 35.6868 21.2464 35.7032 21.1825 35.7146L20.9261 35.759C20.8447 35.7719 20.7362 35.7895 20.6547 35.8019L20.303 35.8512C20.1886 35.8648 20.0363 35.8841 19.9216 35.8965L19.3883 35.9463C19.2032 35.9579 18.9563 35.9754 18.7709 35.9839L17.8437 36C16.6282 35.9579 16.5288 35.9545 15.7326 35.8583L14.4883 35.6553C14.0166 35.5437 13.3858 35.4008 12.9194 35.2682L11.6472 34.8408C11.2388 34.6687 10.6889 34.451 10.2878 34.2624L9.07785 33.6312C8.71287 33.4043 8.21825 33.1137 7.86253 32.8724L6.75543 32.0554C6.433 31.7771 5.993 31.4173 5.68181 31.1264L4.70626 30.1395C4.43055 29.8133 4.05061 29.3886 3.78806 29.0518L2.969 27.9095C2.74574 27.5394 2.43365 27.0543 2.22544 26.6755L1.58657 25.3921C1.42209 24.982 1.18657 24.4412 1.03887 24.0248L0.603491 22.6147L0.597684 22.5929L0.279064 21.1513C0.218824 20.7135 0.121388 20.1318 0.0791108 19.6919L0 18.2602C0.0106146 17.8284 0.0081653 17.252 0.0361988 16.821L0.183352 15.423C0.26101 15.0039 0.348921 14.4419 0.443092 14.026L0.802538 12.6861C0.943703 12.2859 1.11753 11.7467 1.27421 11.3524L1.83079 10.0965C2.03266 9.72074 2.28886 9.21257 2.50532 8.84506L3.23873 7.70358C3.50055 7.35631 3.83895 6.8848 4.11448 6.54831L4.98497 5.56609C5.31375 5.24549 5.74523 4.81046 6.08726 4.5041L6.96636 3.77543C7.40147 3.459 7.98555 3.04176 8.43599 2.74739L8.84769 2.49874C9.47468 2.14602 10.6412 1.48949 12.4196 0.886034L12.6063 0.826323C12.6604 0.809626 12.7325 0.787576 12.7865 0.770788L12.9511 0.721785L13.1119 0.675687L13.2659 0.632947L13.4184 0.592112L13.5708 0.552729L13.7238 0.514616L13.8825 0.476593L14.0442 0.439298L14.2186 0.400822C14.2726 0.389479 14.3444 0.373508 14.3986 0.362982L14.6026 0.322419C14.6665 0.310441 14.7516 0.294107 14.8156 0.282673L15.0719 0.238298C15.1533 0.225413 15.2619 0.207718 15.3433 0.195377L15.6952 0.146102C15.8095 0.1324 15.9619 0.113072 16.0764 0.100639L16.6097 0.0510021C16.7949 0.0393867 17.0418 0.0217822 17.2272 0.013343C17.829 -0.012973 18.4279 -0.000178082 19.0213 0.0500944Z" fill="#1B3B94"/>
<path id="Vector_17" d="M17.9781 6.05861e-05C4.59779 0.40478 0.101082 16.9319 10.6881 26.794C11.6743 27.7127 20.6056 35.598 30.3997 29.6755C30.6083 29.5219 30.8863 29.317 31.0948 29.1633C34.9556 26.1767 35.6874 22.3186 36 20.6713L35.7369 22.0418L35.5992 22.593L35.1911 23.9161C35.0351 24.3112 34.8411 24.8439 34.6696 25.2327L34.0673 26.4654C33.8506 26.8349 33.5743 27.3351 33.3432 27.6959L32.5693 28.8058C32.2918 29.1465 31.9319 29.6093 31.6408 29.9385L30.7457 30.8744C30.3966 31.1906 29.9365 31.6188 29.5737 31.9198L28.7306 32.5674C28.2534 32.8914 27.6081 33.3105 27.1143 33.6088L26.73 33.8206C26.2513 34.0682 25.1304 34.6475 23.7099 35.1111L23.522 35.1708C23.4676 35.1875 23.3954 35.2104 23.3408 35.2264L23.1753 35.2753L23.0138 35.3214L22.8589 35.3641L22.7055 35.4049L22.5523 35.4444L22.3984 35.4826L22.239 35.5207L22.0764 35.5578L21.901 35.5964C21.8466 35.6078 21.7743 35.6234 21.7199 35.6343L21.5149 35.6748C21.4506 35.6867 21.365 35.7031 21.3007 35.7146L21.0429 35.7589C20.9611 35.7718 20.8519 35.7895 20.77 35.8018L20.4163 35.8511C20.3012 35.8648 20.148 35.884 20.0328 35.8965L19.4966 35.9462C19.3104 35.9579 19.0621 35.9754 18.8757 35.9838L17.9433 36C16.721 35.9579 16.6211 35.9544 15.8204 35.8583L14.5692 35.6553C14.0948 35.5437 13.4605 35.4008 12.9915 35.2682L11.7123 34.8408C11.3016 34.6687 10.7486 34.451 10.3453 34.2624L9.12852 33.6311C8.76151 33.4043 8.26412 33.1136 7.90641 32.8723L6.79314 32.0554C6.46891 31.7771 6.02645 31.4173 5.71353 31.1265L4.73253 30.1394C4.45529 29.8133 4.07322 29.3886 3.8092 29.0519L2.98558 27.9094C2.76107 27.5394 2.44723 27.0543 2.23787 26.6755L1.59543 25.3922C1.43002 24.982 1.1932 24.4413 1.04467 24.0247L0.606859 22.6146L0.60102 22.5928L0.280622 21.1513C0.220045 20.7136 0.122066 20.1319 0.0795524 19.6919L0 18.2603C0.0106738 17.8285 0.00821088 17.252 0.0364008 16.8211L0.184375 15.4231C0.262467 15.0039 0.350869 14.4418 0.445565 14.0261L0.807017 12.6861C0.94897 12.2858 1.12377 11.7467 1.28132 11.3523L1.84101 10.0966C2.044 9.72077 2.30163 9.2126 2.51931 8.84509L3.25681 7.70362C3.52009 7.35633 3.86038 6.88483 4.13744 6.54835L5.01279 5.56613C5.3434 5.24554 5.77729 4.81051 6.12123 4.50415L7.00524 3.77548C7.44278 3.45906 8.03012 3.04181 8.48307 2.74744L8.89707 2.49879C9.52756 2.14598 10.7006 1.48945 12.4889 0.885997L12.6767 0.826288C12.7309 0.809591 12.8036 0.78754 12.8579 0.770752L13.0233 0.72175L13.1851 0.675652L13.34 0.632912L13.4933 0.592077L13.6465 0.552693L13.8004 0.514581L13.96 0.476559L14.1226 0.439263L14.298 0.400787C14.3523 0.389444 14.4245 0.373474 14.479 0.362947L14.6841 0.322385C14.7484 0.310407 14.834 0.294072 14.8983 0.282639L15.156 0.238265C15.2379 0.225379 15.3471 0.207684 15.429 0.195342L15.7828 0.146069C15.8977 0.132366 16.051 0.113037 16.1661 0.100605L16.7024 0.0509682C16.8887 0.0393529 17.1369 0.0217485 17.3234 0.0133093C17.5421 0.00378109 17.7604 -0.000574618 17.9781 6.05861e-05Z" fill="#1A398F"/>
<path id="Vector_18" d="M29.1768 30.7663C29.369 30.642 29.6253 30.4759 29.8175 30.3516C32.3257 28.6596 34.0694 26.2878 35 23.302L34.5394 24.6089L34.301 25.1827L33.7051 26.4211C33.4906 26.7923 33.2173 27.2949 32.9886 27.6573L32.2229 28.7724C31.9484 29.1146 31.5923 29.5796 31.3044 29.9103L30.4187 30.8506C30.0733 31.1683 29.6181 31.5984 29.2592 31.9009L28.4251 32.5514C27.9529 32.8769 27.3145 33.298 26.8259 33.5977L26.4457 33.8105C25.9722 34.0592 24.8631 34.6412 23.4577 35.107L23.2719 35.167C23.218 35.1837 23.1466 35.2067 23.0926 35.2228L22.9289 35.2719L22.769 35.3182L22.6158 35.3612L22.464 35.4021L22.3125 35.4418L22.1602 35.4802L22.0025 35.5184L21.8416 35.5558L21.6681 35.5945C21.6143 35.606 21.5427 35.6217 21.4889 35.6326L21.2861 35.6733C21.2225 35.6852 21.1378 35.7017 21.0742 35.7133L20.8192 35.7578C20.7382 35.7708 20.6302 35.7886 20.5491 35.8009L20.1992 35.8504C20.0854 35.8642 19.9338 35.8835 19.8198 35.8961L19.2892 35.9459C19.1051 35.9577 18.8594 35.9753 18.675 35.9837L17.7525 36C16.5432 35.9577 16.4443 35.9543 15.6522 35.8576L14.4143 35.6537C13.9449 35.5416 13.3173 35.398 12.8534 35.2648L11.5877 34.8354C11.1814 34.6625 10.6343 34.4438 10.2352 34.2543L9.03145 33.6201C8.66833 33.3922 8.17624 33.1002 7.82234 32.8578L6.7209 32.0371C6.40011 31.7574 5.96236 31.396 5.65277 31.1038L4.68221 30.1122C4.40791 29.7845 4.0299 29.3579 3.76869 29.0196L2.95383 27.8718C2.7317 27.5001 2.42121 27.0128 2.21407 26.6322L1.57846 25.3429C1.41482 24.9308 1.18051 24.3876 1.03356 23.969L0.600406 22.5524L0.594629 22.5305L0.277638 21.0823C0.217705 20.6425 0.120767 20.0582 0.0787064 19.6162L0 18.1779C0.0105603 17.7441 0.00812356 17.1649 0.0360137 16.732L0.182414 15.3275C0.259676 14.9063 0.347138 14.3417 0.440827 13.924L0.798435 12.5778C0.938879 12.1756 1.11182 11.6341 1.26769 11.2378L1.82144 9.97623C2.02227 9.59868 2.27716 9.08815 2.49252 8.71893L3.22218 7.57215C3.48266 7.22326 3.81932 6.74956 4.09344 6.41152L4.95948 5.42474C5.28658 5.10265 5.71586 4.6656 6.05614 4.35783L6.93075 3.62576C7.36363 3.30786 7.94473 2.88868 8.39286 2.59294L8.80246 2.34315C9.42624 1.98869 10.5868 1.32911 12.3561 0.722855L12.5419 0.662867C12.5957 0.646092 12.6674 0.623939 12.7211 0.607073L12.8849 0.557843L13.0449 0.511531L13.1981 0.468593L13.3498 0.427568L13.5014 0.388001L13.6536 0.349712L13.8115 0.311513L13.9724 0.274045L14.1459 0.23539C14.1996 0.223994 14.2711 0.207949 14.325 0.197374L14.5279 0.156623C14.5915 0.144589 14.6762 0.128179 14.7398 0.116692L14.9949 0.0721118C15.0758 0.0591659 15.1838 0.0413892 15.2649 0.0289909C15.3247 0.0202382 15.4043 0.00866062 15.464 0C15.4608 0.000455449 15.4566 0.00100301 15.4533 0.00154954C1.78804 2.03746 -0.248215 20.6737 12.2493 29.3259C14.8264 31.1102 21.6348 34.8222 29.1768 30.7663Z" fill="#19378A"/>
<path id="Vector_19" d="M28.1914 32.0639C30.7479 30.7868 32.5393 29.0719 34 26.5033L33.308 27.6806L33.2809 27.7229L32.5085 28.8293C32.2315 29.1688 31.8723 29.6301 31.5818 29.9583L30.6883 30.891C30.3398 31.2062 29.8806 31.6331 29.5185 31.9331L28.677 32.5786C28.2006 32.9015 27.5566 33.3193 27.0636 33.6166L26.6801 33.8278C26.2023 34.0744 25.0834 34.652 23.6656 35.1141L23.4781 35.1736C23.4238 35.1902 23.3517 35.213 23.2972 35.229L23.132 35.2777L22.9708 35.3237L22.8162 35.3663L22.6631 35.4069L22.5102 35.4463L22.3566 35.4843L22.1974 35.5223L22.0352 35.5594L21.8601 35.5978C21.8058 35.6091 21.7336 35.6246 21.6793 35.6355L21.4747 35.676C21.4105 35.6878 21.3251 35.7042 21.2609 35.7156L21.0036 35.7598C20.922 35.7727 20.813 35.7903 20.7312 35.8026L20.3782 35.8517C20.2633 35.8652 20.1104 35.8845 19.9954 35.897L19.4602 35.9465C19.2744 35.958 19.0265 35.9755 18.8405 35.9839L17.9098 36C16.6898 35.958 16.59 35.9546 15.7909 35.8587L14.542 35.6564C14.0685 35.5452 13.4353 35.4028 12.9673 35.2707L11.6904 34.8445C11.2805 34.673 10.7285 34.4561 10.3259 34.2681L9.11148 33.6389C8.74515 33.4127 8.24869 33.1231 7.89166 32.8826L6.78046 32.0683C6.45683 31.7908 6.0152 31.4323 5.70286 31.1424L4.7237 30.1585C4.44697 29.8334 4.06562 29.4101 3.80209 29.0745L2.98 27.9358C2.75591 27.5669 2.44267 27.0833 2.23369 26.7059L1.59245 25.4266C1.42735 25.0178 1.19097 24.4787 1.04272 24.0636L0.605726 22.6581L0.599898 22.6364L0.280098 21.1995C0.219635 20.7631 0.121837 20.1834 0.0794035 19.7449L0 18.3179C0.0106539 17.8875 0.00819515 17.3128 0.0363325 16.8833L0.184031 15.4899C0.261977 15.072 0.350214 14.5118 0.444733 14.0974L0.80551 12.7618C0.947198 12.3628 1.12167 11.8255 1.27893 11.4323L1.83758 10.1806C2.04019 9.80604 2.29734 9.29952 2.5146 8.9332L3.25073 7.79543C3.51352 7.44927 3.85317 6.97929 4.12972 6.6439L5.00343 5.66487C5.33343 5.34532 5.76651 4.9117 6.1098 4.60634L6.99216 3.88002C7.42888 3.56463 8.01513 3.14873 8.46724 2.85532L8.88046 2.60748C9.50968 2.2559 10.6805 1.6015 12.4655 1L12.232 1.07824C-0.849582 5.90665 0.274544 24.7409 14.0545 31.6126C16.7628 32.9631 22.2007 34.8176 28.1914 32.0639Z" fill="#183585"/>
<path id="Vector_20" d="M33.5192 12.0169C36.165 21.0758 27.3725 26.4126 19.8508 22.921C11.1326 18.874 12.8348 6.82184 20.4979 4.38105C25.5726 2.76467 31.9008 6.47554 33.5192 12.0169Z" fill="#2755D6"/>
<path id="Vector_21" d="M32.5804 11.5404C34.9118 19.5688 27.1274 25.5681 19.1459 21.8941C11.7509 18.4902 12.5002 6.87063 20.2752 4.38314C25.5449 2.69712 31.2171 6.84612 32.5804 11.5404Z" fill="#2857DB"/>
<path id="Vector_22" d="M31.9475 13.7174C32.834 22.4254 22.2757 25.757 16.6461 20.453C11.2622 15.3808 14.6273 5.57563 21.941 5.02429C27.2755 4.62224 31.4959 9.283 31.9475 13.7174Z" fill="#2959E0"/>
<path id="Vector_23" d="M31.9761 13.1916C32.5315 20.6151 23.2787 24.8617 17.6275 19.7768C12.2479 14.9362 15.6779 5.41426 22.9466 5.01083C27.3338 4.76732 31.6376 8.66657 31.9761 13.1916Z" fill="#2A5BE6"/>
<path id="Vector_24" d="M30.9826 13.652C31.4462 21.1754 22.5419 24.3577 17.6808 20.0778C14.6113 17.3752 14.7665 13.3156 15.3086 11.8787C16.376 9.04895 19.2355 6.00231 22.991 6C26.6227 5.99778 30.7006 9.072 30.9826 13.652Z" fill="#2B5DEB"/>
<path id="Vector_25" d="M29.9824 13.0599C30.4271 20.142 22.3428 23.197 17.7497 19.2731C12.5314 14.8152 15.3572 7.43258 21.0744 6.16312C25.3709 5.20909 29.7001 8.56076 29.9824 13.0599Z" fill="#2C5FF0"/>
<path id="Vector_26" d="M29.9803 13.5007C30.3937 19.0915 24.2158 23.3663 18.8022 19.5363C13.8305 16.0189 15.8383 8.1088 21.9615 7.08965C25.5608 6.49056 29.6419 8.92368 29.9803 13.5007Z" fill="#2D61F5"/>
<path id="Vector_27" d="M28.9824 12.9927C29.397 19.3182 22.3811 21.9586 18.3722 18.4076C13.1615 13.7917 17.5552 7.46261 21.7898 7.03563C25.8321 6.62801 28.7723 9.78677 28.9824 12.9927Z" fill="#2E63FA"/>
<path id="Vector_28" d="M28.984 13.497C29.368 19.18 22.772 22.0838 18.1259 18.2774C13.6236 14.5888 16.9047 8.30144 22.0856 8.0117C26.2729 7.77757 28.8224 11.1065 28.984 13.497Z" fill="#2F65FF"/>
<path id="Vector_29" d="M28.9484 13.4344C29.6036 18.7596 23.8789 21.568 19.9935 19.0886C15.3581 16.1308 16.4968 10.0872 20.7384 8.37657C23.2613 7.35914 28.3043 8.19959 28.9484 13.4344Z" fill="#4877FF"/>
<path id="Vector_30" d="M27.9581 13.9686C28.5184 18.7051 23.3292 21.402 19.9483 19.249C15.1691 16.2057 16.8295 10.6764 20.4709 9.31509C23.4613 8.19723 27.5035 10.125 27.9581 13.9686Z" fill="#527FFF"/>
<path id="Vector_31" d="M27.8693 15.8204C27.2957 18.1895 24.9108 19.8999 23.3658 19.9878C18.995 20.237 17.4516 16.5815 17.3841 16.4179C16.7999 15.0029 16.9973 13.9924 17.2259 12.8227C17.2282 12.8107 18.3008 10.776 18.5318 10.5438C19.0291 10.0439 19.815 9.41309 20.4987 9.28279C22.717 8.85986 22.9752 8.91095 24.3292 9.43855C27.7386 10.7668 28.3142 13.9828 27.8693 15.8204Z" fill="#5A85FF"/>
<path id="Vector_32" d="M26.8339 15.304C26.476 16.7168 25.4302 17.681 24.8683 18.1989C24.3821 18.6472 23.4853 18.9623 22.8328 18.9925C19.4703 19.1479 17.8485 16.8549 17.3871 15.7411C15.7158 11.7059 19.7943 7.97941 23.1627 9.25452C27.4485 10.877 27.1579 14.0256 26.8339 15.304Z" fill="#618AFF"/>
<path id="Vector_33" d="M27.8054 15.7734C27.7862 15.829 27.3199 17.1438 26.0441 18.1908C25.5203 18.6208 24.5764 18.9783 23.8743 19L21.3624 18.7223C19.8399 17.9143 19.0013 17.4692 18.3443 16.065C17.824 14.9528 17.7377 13.0566 19.2065 11.3728C19.659 10.8543 20.555 10.3922 21.2428 10.1864C21.9101 9.98695 22.888 9.94892 23.5781 10.0658C24.3998 10.2049 25.4252 10.6903 26.1133 11.1258C26.6023 11.4354 27.0819 12.044 27.416 12.495C28.3175 13.7119 27.942 15.3121 27.8054 15.7734Z" fill="#678EFF"/>
<path id="Vector_34" d="M26.9837 14.8502C26.9599 15.1508 27.0282 15.5768 26.9081 15.8525C26.6211 16.5104 26.128 17.3488 25.659 17.8878C25.3336 18.2619 23.3935 18.9917 23.3743 18.9986C23.3065 19.0231 21.0915 18.7139 20.9311 18.6574C20.3993 18.4705 19.7765 17.9939 19.3745 17.5933C17.3764 15.6027 18.0606 13.0575 18.3531 12.4848C18.9781 11.2618 19.074 11.0739 20.9825 10.1064C21.0047 10.0952 23.2124 9.99229 23.2539 10.0005C24.5493 10.2576 27.2335 11.6859 26.9837 14.8502Z" fill="#6C92FF"/>
<path id="Vector_35" d="M26.7813 15.3405C26.5571 15.9289 26.0506 16.6724 25.5291 17.0766C25.4297 17.1536 23.4339 17.9989 23.3501 17.9996C20.9418 18.0178 19.288 17.3679 18.3433 15.4046C17.3248 13.2886 18.8954 11.3841 18.9122 11.3665C19.3975 10.8571 20.2785 10.345 20.9868 10.1452C21.6773 9.95047 22.6888 9.96761 23.3965 10.1021C25.4166 10.4859 27.7279 12.8549 26.7813 15.3405Z" fill="#7196FF"/>
<path id="Vector_36" d="M25.7579 15.4742C25.583 15.9688 25.2157 16.6063 24.8191 16.9415C24.7251 17.021 22.8284 18.0005 22.7693 18C22.6881 17.9994 20.3449 17.5908 20.3113 17.5714C19.6586 17.1937 18.7817 16.514 18.3099 15.4202C17.4343 13.3898 18.691 11.489 18.7052 11.4732C19.1807 10.9361 19.9865 10.3352 20.6647 10.1254C21.3285 9.91986 22.2996 9.99475 22.9759 10.1514C23.7368 10.3277 26.8881 12.2765 25.7579 15.4742Z" fill="#7699FF"/>
<path id="Vector_37" d="M25.7552 15.9292C25.6295 16.2695 25.3844 16.718 25.1046 16.944C24.5931 17.3571 23.8439 18.0164 23.1912 17.9997C22.4825 17.9817 21.486 17.9149 20.8675 17.5625C19.9133 17.0189 19.2712 15.7754 19.2661 15.7636C18.5573 14.139 19.4875 12.4219 19.4991 12.4094C19.9637 11.912 20.6933 11.2917 21.3398 11.0964C21.9726 10.9054 22.8967 11.031 23.5382 11.1897C24.18 11.3486 26.8045 13.0897 25.7552 15.9292Z" fill="#7A9CFF"/>
<path id="Vector_38" d="M25.7115 16.07C25.6213 16.3078 25.4583 16.6298 25.2596 16.783C24.6918 17.2208 23.9195 18.0326 23.2103 17.999C22.4405 17.9623 21.3651 17.8697 20.6903 17.4875C20.1155 17.1619 19.2701 15.7761 19.2649 15.7639C18.7214 14.5159 19.1416 12.8096 19.3986 12.5479C20.4387 11.488 21.3449 11.0021 21.3512 11.0001C21.3637 10.9961 23.6316 11.1291 23.7535 11.1897C24.3075 11.4661 25.1128 11.9339 25.3474 12.5187C25.547 13.0162 25.9314 13.653 25.9862 14.188C26.0442 14.7558 25.9131 15.5381 25.7115 16.07Z" fill="#7E9FFF"/>
<path id="Vector_39" d="M25.6492 15.5203C25.392 16.0874 23.28 17.0011 23.2634 17C22.4791 16.9501 21.3888 16.858 20.6976 16.5252C20.244 16.3068 19.3658 15.1311 19.3608 15.121C19.1346 14.6731 18.8937 13.9791 19.0497 13.5081C19.3829 12.502 19.3829 12.502 20.5364 11.5705C20.7776 11.3758 21.1014 11.038 21.4265 11.0164C22.2176 10.9639 23.333 11.0289 24.0458 11.338C25.3951 11.9231 26.6248 13.3695 25.6492 15.5203Z" fill="#82A2FF"/>
<path id="Vector_40" d="M24.6234 16.5855C24.5034 16.8664 22.6355 18.001 22.622 18C20.4168 17.8197 19.5754 16.8929 19.2579 16.147C19.2525 16.1347 18.7605 14.8231 19.1497 13.8052C19.4 13.15 20.2526 12.6193 20.7774 12.1718C20.9428 12.0308 21.26 11.9813 21.4726 12.0062C22.1052 12.08 22.9715 12.2005 23.5417 12.4944C23.9158 12.6873 24.4812 12.9787 24.9609 14.7929C25.1006 15.3213 24.8375 16.0846 24.6234 16.5855Z" fill="#85A5FF"/>
<path id="Vector_41" d="M24.7988 15.397C24.3546 16.4588 23.0542 16.9994 23.0432 16.9997C22.2884 17.017 20.5463 16.254 20.2264 15.5021C20.2216 15.491 19.9273 13.997 20.017 13.7909C20.3127 13.1109 21.0337 12.2443 21.7309 12.042C22.4221 11.8416 23.3693 12.412 24.0552 12.6307C24.1617 12.6645 24.265 12.7908 24.3413 12.8743C24.6705 13.2342 24.8983 13.8957 24.9864 14.3812C25.0417 14.6861 24.918 15.112 24.7988 15.397Z" fill="#89A8FF"/>
<path id="Vector_42" d="M24.9308 14.849C24.9226 14.8684 23.7936 16.8491 23.0009 16.9919C22.801 17.0279 22.5218 16.9375 22.3395 16.8486C21.6421 16.5086 20.6088 16.1478 20.0908 15.5729C19.9468 15.4131 20.0159 13.6977 20.0211 13.6853C20.2842 13.0478 20.9817 12.2366 21.6516 12.0559C22.4079 11.8519 23.5765 12.2348 24.1713 12.7415C24.1836 12.7519 25.2819 14.0265 24.9308 14.849Z" fill="#8CAAFF"/>
<path id="Vector_43" d="M22.4502 15.9715C22.4382 15.9822 22.4207 15.997 22.4046 15.9998C22.3031 16.0174 20.1681 14.8055 20.1594 14.791C19.8959 14.3509 19.9968 13.5715 20.1901 13.099C20.3613 12.6806 20.8359 12.1517 21.2876 12.0343C21.8001 11.9009 22.5673 12.179 22.9955 12.4808C23.4371 12.792 24.0167 13.4199 23.9996 13.9459C23.9752 14.6998 23.0232 15.4561 22.4502 15.9715Z" fill="#90ADFF"/>
<path id="Vector_44" d="M22.8121 15.9865C22.2458 16.0877 21.4194 15.5997 21.1363 15.1649C20.8713 14.7578 21.0478 14.0573 21.2024 13.61C21.2848 13.3719 21.5992 13.0854 21.8774 13.0206C22.1948 12.9466 22.6863 13.0818 22.9353 13.2671C23.3615 13.584 24.0126 14.1137 23.9998 14.5989C23.9862 15.1161 23.3997 15.8815 22.8121 15.9865Z" fill="#93AFFF"/>
<path id="Vector_45" d="M22.2171 15.9885C21.8444 16.0734 21.2962 15.6711 21.1142 15.3108C20.8433 14.7736 21.1275 13.8798 21.2187 13.2765C21.2355 13.166 21.3616 13.0399 21.462 13.0106C21.577 12.9769 21.766 13.0261 21.8458 13.1215C22.2426 13.5948 23.0076 14.2078 22.9999 14.8451C22.995 15.2712 22.6047 15.9004 22.2171 15.9885Z" fill="#96B1FF"/>
<path id="Vector_46" d="M22.6142 14.9969C22.4304 15.02 22.1601 14.91 22.0715 14.8115C21.878 14.5963 22.1354 14.2435 22.1628 14C22.414 14.2054 23.001 14.4305 23 14.6845C22.9996 14.8008 22.8055 14.9729 22.6142 14.9969Z" fill="#99B3FF"/>
</g>
</svg>
