<svg width="37" height="35" viewBox="0 0 37 35" fill="none" xmlns="http://www.w3.org/2000/svg">
<g id="Group">
<path id="Vector" d="M36.3782 13.0305C36.5693 13.7754 37.0765 15.754 36.9902 17.8773C36.954 18.7642 36.8695 20.8413 35.9626 23.2491C35.2912 25.0315 34.465 26.4975 33.2835 28.0026C32.7778 28.6467 32.0242 29.4503 31.4202 30.0135C30.6952 30.6893 30.4125 30.8948 29.3609 31.6593C29.1603 31.8051 27.323 33.1098 24.6097 34.0096C22.1215 34.8349 20.1119 34.9386 19.3554 34.9777C17.3871 35.0792 13.4674 34.9175 9.32973 32.6933C8.16908 32.0693 6.44766 30.974 4.83756 29.2988C4.25126 28.6889 3.53091 27.8199 3.05238 27.131C2.56621 26.4311 2.02046 25.4366 1.63181 24.684C1.06359 23.5837 0.432178 21.5289 0.288237 20.5614C0.163501 19.7226 0.0164842 18.5978 0.00147489 17.7509C-0.0131616 16.9219 0.0834203 15.8158 0.189884 14.9927C0.361233 13.6679 0.950979 11.8127 1.29824 11.0655C1.64262 10.3247 2.1163 9.33937 2.54906 8.64123C2.97967 7.94672 3.60651 7.04243 4.16754 6.4371C4.71935 5.84165 5.47065 5.05706 6.08744 4.52177C6.09751 4.51304 7.17007 3.60063 8.10307 3.02124C8.86203 2.54991 9.41029 2.20931 10.8561 1.57301C11.4271 1.32169 12.345 0.958685 13.4748 0.656902C15.3715 0.150196 16.7908 0.0659506 17.6388 0.0156681C25.0538 -0.290526 31.979 4.77001 34.1809 12.6663C31.979 4.77001 25.0538 -0.290525 17.7038 0.0129335C18.6355 -0.00523873 19.4401 -0.020853 20.4957 0.0985022C22.3487 0.307924 23.4212 0.620735 23.6174 0.681338C25.0481 1.12312 25.6402 1.30608 26.3859 1.67085C28.2822 2.59843 28.3481 2.64439 30.0368 3.82153C30.0583 3.83652 32.2423 5.39493 33.9406 7.86115C35.5396 10.1829 36.1781 12.2497 36.3782 13.0305Z" fill="#D1D1D1"/>
<path id="Vector_2" d="M31.2906 6.71596C21.5919 -1.95325 12.9691 5.82578 13.4982 13.3983C14.1234 22.3488 26.4899 25.7004 32.0065 20.3029C33.6385 18.706 34.5759 16.3584 34.5141 14.023C34.4719 13.617 34.4156 13.0758 34.3735 12.6699C33.9775 11.0843 33.4352 8.91259 31.2906 6.71596C28.0413 2.34334 22.9839 -0.201306 17.7078 0.0164962C17.9621 0.0115562 18.301 0.00494002 18.5553 0L19.3221 0.016761L20.5005 0.102064C21.0452 0.175019 21.7711 0.276641 22.3113 0.375089L23.6231 0.684899C24.0701 0.824013 24.67 0.999736 25.1103 1.15658L26.3925 1.67441C26.7891 1.869 27.3248 2.11671 27.7128 2.32622L28.9073 3.03291C29.2609 3.2792 29.7414 3.59598 30.0844 3.85524L31.1574 4.73466C31.4653 5.02903 31.8874 5.41118 32.1828 5.71693L33.1076 6.75433C33.3646 7.09334 33.721 7.53636 33.9636 7.88481L34.7152 9.06617C34.9151 9.44603 35.1975 9.9455 35.3807 10.3327L35.935 11.6443C36.0711 12.0613 36.2699 12.6125 36.3878 13.0344L36.7153 14.4355C36.805 15.0518 36.922 15.8746 36.973 16.4948L37 17.8812C36.973 18.2986 36.9538 18.8566 36.9092 19.2727L36.7069 20.621C36.6119 21.0247 36.5009 21.5668 36.3892 21.9668L35.972 23.2529C35.8125 23.637 35.6143 24.1549 35.4389 24.5329L34.8233 25.7312C34.6017 26.0904 34.3193 26.5767 34.0831 26.9274L33.292 28.0064C33.0083 28.3375 32.6405 28.7874 32.343 29.1075L31.428 30.0173C31.0711 30.3247 30.6008 30.7409 30.2299 31.0336L29.3681 31.6631C28.8803 31.978 28.2207 32.3854 27.7159 32.6754L27.3231 32.8814C26.8339 33.122 25.688 33.6852 24.236 34.1359L24.044 34.194C23.9884 34.2102 23.9145 34.2324 23.8587 34.248L23.6896 34.2955L23.5244 34.3403L23.3662 34.3818L23.2093 34.4215L23.0528 34.4599L22.8954 34.497L22.7324 34.534L22.5663 34.5702L22.387 34.6077C22.3314 34.6187 22.2575 34.6339 22.2019 34.6445L21.9923 34.6839C21.9266 34.6954 21.8391 34.7114 21.7734 34.7225L21.5099 34.7656C21.4262 34.7782 21.3146 34.7954 21.2309 34.8074L20.8693 34.8553C20.7517 34.8686 20.5951 34.8873 20.4774 34.8994L19.9292 34.9477C19.7389 34.9591 19.4851 34.9761 19.2946 34.9842L18.3415 35C17.0921 34.9591 16.9899 34.9557 16.1715 34.8622L14.8925 34.6649C14.4076 34.5565 13.7592 34.4175 13.2798 34.2886L11.9722 33.8731C11.5523 33.7058 10.9871 33.4942 10.5748 33.3108L9.33109 32.6973C8.95593 32.4766 8.4475 32.1942 8.08185 31.9595L6.94388 31.1654C6.61245 30.8948 6.16017 30.5451 5.84031 30.2623L4.83755 29.3028C4.55415 28.9857 4.16361 28.5729 3.89373 28.2456L3.05183 27.135C2.82233 26.7753 2.50154 26.3037 2.28752 25.9355L1.63083 24.6879C1.46176 24.2891 1.21967 23.7635 1.06785 23.3585L0.620326 21.9877L0.614357 21.9666L0.286849 20.5652C0.224928 20.1397 0.124774 19.5742 0.0813176 19.1465L0 17.7548C0.0109107 17.3351 0.00839308 16.7747 0.0372085 16.3557L0.188466 14.9967C0.268291 14.5892 0.358655 14.0428 0.455452 13.6386L0.824925 12.336C0.970028 11.9469 1.1487 11.4228 1.30975 11.0394L1.88187 9.81868C2.08936 9.45335 2.35271 8.95935 2.57521 8.60208L3.32908 7.49242C3.5982 7.15483 3.94604 6.69646 4.22925 6.36937L5.12402 5.41453C5.46197 5.10287 5.90549 4.67997 6.25706 4.38215L7.16069 3.67379C7.60794 3.36619 8.20831 2.96057 8.67131 2.67441L9.0945 2.4327C9.73898 2.08972 10.938 1.45149 12.766 0.864857L12.958 0.806812C13.0134 0.79058 13.0877 0.769144 13.1432 0.752825L13.3123 0.705188L13.4777 0.660375L13.636 0.618826L13.7927 0.57913L13.9494 0.540844L14.1066 0.503795L14.2698 0.466832L14.4359 0.430576L14.6153 0.393173C14.6707 0.382146 14.7446 0.366621 14.8003 0.356387L15.0099 0.316956C15.0756 0.305312 15.1631 0.289433 15.2289 0.278318L15.4923 0.235181C15.576 0.222654 15.6876 0.205452 15.7714 0.193455L16.133 0.145554C16.2505 0.132234 16.4071 0.113444 16.5248 0.101359L17.073 0.0531054C17.2634 0.0418138 17.5172 0.0247002 17.7078 0.0164962C22.9839 -0.201306 28.0413 2.34334 31.2906 6.71596Z" fill="#D1D1D1"/>
<path id="Vector_3" d="M30.1164 5.29577C20.2809 -1.42741 12.1712 5.61946 13.0408 13.5219C14.1265 23.3878 27.4533 26.4697 32.8223 20.137C33.9514 18.8052 34.4017 17.5932 34.798 15.9498C35.5691 24.1363 30.8256 31.9581 23.1803 34.3124C30.8256 31.9581 35.5237 24.1363 34.7776 15.9498C34.8709 14.3298 35.2064 9.39968 30.1061 5.29577C26.8799 1.79788 22.3798 -0.180103 17.7028 0.0129309C18.1869 0.00349094 18.8354 0.0026089 19.3196 0.0131957L20.4992 0.0985084C21.0439 0.171469 21.7705 0.273103 22.3107 0.37156L23.6228 0.681402C24.0697 0.820532 24.6698 0.99627 25.1101 1.15314L26.3924 1.67101C26.789 1.86563 27.3248 2.11336 27.7128 2.32289L28.9073 3.02966C29.2609 3.27597 29.7414 3.59278 30.0844 3.85208L31.1574 4.73158C31.4653 5.02599 31.8874 5.40817 32.1828 5.71395L33.1076 6.75146C33.3646 7.0905 33.721 7.53357 33.9636 7.88205L34.7152 9.06354C34.9151 9.44344 35.1975 9.94292 35.3807 10.3303L35.935 11.6419C36.0711 12.0589 36.2699 12.6102 36.3878 13.0321L36.7153 14.4335C36.805 15.0498 36.922 15.8727 36.973 16.493L37 17.8795C36.973 18.2969 36.9538 18.855 36.9092 19.2712L36.7069 20.6196C36.6119 21.0233 36.5009 21.5655 36.3892 21.9655L35.972 23.2518C35.8125 23.6359 35.6143 24.1539 35.4389 24.5319L34.8233 25.7302C34.6017 26.0895 34.3193 26.5759 34.0831 26.9265L33.292 28.0057C33.0083 28.3369 32.6405 28.7869 32.343 29.107L31.428 30.0168C31.0711 30.3242 30.6008 30.7406 30.2299 31.0332L29.3681 31.6627C28.8803 31.9777 28.2207 32.3853 27.7159 32.6752L27.3231 32.8813C26.8339 33.1218 25.688 33.6851 24.236 34.1358L24.044 34.1939C23.9884 34.2102 23.9145 34.2324 23.8587 34.2479L23.6896 34.2955L23.5244 34.3402L23.3662 34.3819L23.2093 34.4215L23.0528 34.4599L22.8954 34.497L22.7324 34.534L22.5663 34.5702L22.387 34.6077C22.3314 34.6187 22.2575 34.6339 22.2019 34.6445L21.9923 34.6839C21.9266 34.6955 21.8391 34.7115 21.7734 34.7225L21.5099 34.7657C21.4262 34.7783 21.3146 34.7954 21.2309 34.8074L20.8693 34.8553C20.7517 34.8686 20.5951 34.8874 20.4774 34.8994L19.9292 34.9478C19.7389 34.9591 19.4851 34.9761 19.2946 34.9843L18.3415 35C17.0921 34.9591 16.9899 34.9557 16.1715 34.8622L14.8925 34.6648C14.4076 34.5564 13.7592 34.4174 13.2798 34.2885L11.9722 33.873C11.5523 33.7057 10.9871 33.494 10.5748 33.3107L9.33109 32.697C8.95593 32.4764 8.4475 32.1939 8.08185 31.9593L6.94388 31.165C6.61245 30.8945 6.16017 30.5446 5.84031 30.2618L4.83755 29.3023C4.55415 28.9852 4.16361 28.5723 3.89373 28.2449L3.05183 27.1343C2.82233 26.7745 2.50154 26.3028 2.28752 25.9345L1.63083 24.6868C1.46176 24.2881 1.21967 23.7623 1.06785 23.3574L0.620326 21.9865L0.614357 21.9653L0.286849 20.5637C0.224928 20.1382 0.124774 19.5726 0.0813176 19.145L0 17.753C0.0109107 17.3333 0.00839308 16.7728 0.0372085 16.3538L0.188466 14.9946C0.268291 14.5872 0.358655 14.0407 0.455452 13.6364L0.824925 12.3337C0.970028 11.9446 1.1487 11.4204 1.30975 11.0371L1.88187 9.81608C2.08936 9.45075 2.35271 8.9567 2.57521 8.5994L3.32908 7.48963C3.5982 7.152 3.94604 6.69359 4.22925 6.36646L5.12402 5.41152C5.46197 5.09983 5.90549 4.67688 6.25706 4.37903L7.16069 3.6706C7.60794 3.36297 8.20831 2.95731 8.67131 2.67111L9.0945 2.42938C9.73898 2.08636 10.938 1.44807 12.766 0.861379L12.958 0.803328C13.0134 0.787094 13.0877 0.765656 13.1432 0.749335L13.3123 0.701694L13.4777 0.656876L13.636 0.615323L13.7927 0.575622L13.9494 0.537333L14.1066 0.500279L14.2698 0.463313L14.4359 0.427053L14.6153 0.389647C14.6707 0.378618 14.7446 0.363091 14.8003 0.352857L15.0099 0.313421C15.0756 0.301776 15.1631 0.285895 15.2289 0.274779L15.4923 0.231638C15.576 0.21911 15.6876 0.201907 15.7714 0.189908L16.133 0.142003C16.2505 0.12868 16.4071 0.109889 16.5248 0.0978022L17.073 0.0495439C17.2634 0.0382512 17.5172 0.0211357 17.7078 0.0129309C22.385 -0.180103 26.8902 1.79779 30.1164 5.29577Z" fill="#CCCCCC"/>
<path id="Vector_4" d="M29.0832 4.27011C17.8574 -1.85242 10.4873 6.99171 12.9093 15.2306C15.9571 25.5981 29.9536 26.8301 34.0899 19.2381C34.0953 19.2285 34.6976 18.006 34.8779 17.4161C34.9524 17.0437 35.0518 16.5471 35.1263 16.1746C35.5384 13.4807 34.7294 7.94152 29.0832 4.27011C25.9631 1.41797 21.9046 -0.156669 17.7078 0.0164961C17.9621 0.0115561 18.301 0.00494002 18.5553 0L19.3221 0.0167607L20.5005 0.102064C21.0452 0.175018 21.7711 0.276641 22.3113 0.375089L23.6231 0.684899C24.0701 0.824013 24.67 0.999738 25.1103 1.15658L26.3925 1.6744C26.7891 1.869 27.3248 2.11671 27.7128 2.32622L28.9073 3.03291C29.2609 3.2792 29.7414 3.59598 30.0844 3.85524L31.1574 4.73466C31.4653 5.02903 31.8874 5.41118 32.1828 5.71693L33.1076 6.75433C33.3646 7.09334 33.721 7.53636 33.9636 7.8848L34.7152 9.06617C34.9151 9.44602 35.1975 9.94551 35.3807 10.3327L35.935 11.6443C36.0711 12.0612 36.2699 12.6125 36.3878 13.0344L36.7153 14.4355C36.805 15.0518 36.922 15.8746 36.973 16.4948L37 17.8811C36.973 18.2986 36.9538 18.8566 36.9092 19.2727L36.7069 20.621C36.6119 21.0247 36.5009 21.5668 36.3892 21.9668L35.972 23.253C35.8125 23.637 35.6143 24.1549 35.4389 24.5329L34.8233 25.7312C34.6017 26.0904 34.3193 26.5767 34.0831 26.9274L33.292 28.0064C33.0083 28.3375 32.6405 28.7874 32.343 29.1075L31.428 30.0172C31.0711 30.3247 30.6008 30.7409 30.2299 31.0336L29.3681 31.6631C28.8803 31.9779 28.2207 32.3854 27.7159 32.6754L27.3231 32.8814C26.8339 33.1219 25.688 33.6852 24.236 34.1359L24.044 34.1939C23.9884 34.2102 23.9145 34.2324 23.8587 34.248L23.6896 34.2955L23.5244 34.3403L23.3662 34.3818L23.2093 34.4215L23.0528 34.4599L22.8954 34.4969L22.7324 34.534L22.5663 34.5702L22.387 34.6077C22.3314 34.6186 22.2575 34.6338 22.2019 34.6444L21.9923 34.6839C21.9266 34.6954 21.8391 34.7114 21.7734 34.7225L21.5099 34.7656C21.4262 34.7782 21.3146 34.7954 21.2309 34.8074L20.8693 34.8553C20.7517 34.8685 20.5951 34.8873 20.4774 34.8994L19.9292 34.9477C19.7389 34.9591 19.4851 34.976 19.2946 34.9842L18.3415 35C17.0921 34.9591 16.9899 34.9556 16.1715 34.8622L14.8925 34.6649C14.4076 34.5565 13.7592 34.4175 13.2798 34.2886L11.9722 33.873C11.5523 33.7058 10.9871 33.4942 10.5748 33.3108L9.33109 32.6972C8.95593 32.4766 8.4475 32.1941 8.08186 31.9595L6.94388 31.1654C6.61245 30.8948 6.16017 30.5451 5.84031 30.2623L4.83755 29.3028C4.55415 28.9857 4.16361 28.5728 3.89373 28.2456L3.05183 27.135C2.82233 26.7753 2.50154 26.3037 2.28752 25.9355L1.63083 24.6878C1.46176 24.2891 1.21967 23.7634 1.06785 23.3585L0.620326 21.9877L0.614357 21.9666L0.286849 20.5652C0.224928 20.1397 0.124773 19.5742 0.0813173 19.1466L0 17.7548C0.0109107 17.3351 0.00839267 16.7746 0.0372082 16.3557L0.188466 14.9967C0.268291 14.5892 0.358655 14.0428 0.455452 13.6386L0.824925 12.336C0.970027 11.9469 1.1487 11.4229 1.30975 11.0394L1.88187 9.81869C2.08936 9.45335 2.35271 8.95934 2.57521 8.60207L3.32908 7.49242C3.5982 7.15482 3.94604 6.69646 4.22925 6.36936L5.12402 5.41453C5.46197 5.10286 5.90549 4.67996 6.25706 4.38215L7.16069 3.67379C7.60794 3.36618 8.20831 2.96057 8.67131 2.67441L9.0945 2.4327C9.73889 2.08981 10.9379 1.45157 12.7659 0.864944L12.9579 0.8069C13.0134 0.790668 13.0876 0.769231 13.1431 0.752912L13.3122 0.705276L13.4776 0.660463L13.6359 0.618913L13.7926 0.579218L13.9492 0.540932L14.1065 0.503882L14.2697 0.46692L14.4358 0.430664L14.6151 0.393261C14.6706 0.382234 14.7445 0.366709 14.8002 0.356475L15.0098 0.317043C15.0755 0.3054 15.163 0.289521 15.2288 0.278406L15.4922 0.235269C15.5759 0.222742 15.6876 0.20554 15.7713 0.193543L16.1329 0.145642C16.2504 0.132322 16.407 0.113532 16.5247 0.101447L17.0729 0.0531935C17.2633 0.041902 17.5171 0.0247001 17.7078 0.0164961C21.9046 -0.156669 25.9631 1.41797 29.0832 4.27011Z" fill="#C7C7C7"/>
<path id="Vector_5" d="M28.1159 3.44695C15.9243 -1.93946 9.48785 8.06899 12.8145 16.7194C16.0985 25.2592 29.903 28.2099 34.6177 19.2021C34.6965 19.0518 34.7825 18.843 34.853 18.6891C34.9621 18.3534 35.1076 17.9058 35.2167 17.5702C36.8457 8.56825 29.5875 4.22605 28.1159 3.44695C25.1467 1.1159 21.4833 -0.142875 17.7078 0.012928C18.192 0.00348804 18.838 0.00260566 19.3221 0.0131925L20.5005 0.0985054C21.0452 0.171466 21.7711 0.273099 22.3113 0.371557L23.6231 0.681399C24.0701 0.820528 24.67 0.996271 25.1103 1.15313L26.3925 1.671C26.7891 1.86563 27.3248 2.11336 27.7128 2.32289L28.9073 3.02965C29.2609 3.27597 29.7414 3.59278 30.0844 3.85207L31.1574 4.73157C31.4653 5.02598 31.8874 5.40817 32.1828 5.71395L33.1076 6.75146C33.3646 7.0905 33.721 7.53356 33.9636 7.88204L34.7152 9.06354C34.9151 9.44342 35.1975 9.94293 35.3807 10.3302L35.935 11.6419C36.0711 12.0589 36.2699 12.6103 36.3878 13.0321L36.7153 14.4335C36.805 15.0498 36.922 15.8727 36.973 16.493L37 17.8795C36.973 18.2969 36.9538 18.855 36.9092 19.2711L36.7069 20.6195C36.6119 21.0233 36.5009 21.5654 36.3892 21.9654L35.972 23.2517C35.8125 23.6359 35.6143 24.1538 35.4389 24.5318L34.8233 25.7302C34.6017 26.0895 34.3193 26.5759 34.0831 26.9265L33.292 28.0057C33.0083 28.3369 32.6405 28.7869 32.343 29.1069L31.428 30.0168C31.0711 30.3242 30.6008 30.7406 30.2299 31.0331L29.3681 31.6627C28.8803 31.9777 28.2207 32.3852 27.7159 32.6752L27.3231 32.8812C26.8339 33.1218 25.688 33.6851 24.236 34.1358L24.044 34.1939C23.9884 34.2102 23.9145 34.2323 23.8587 34.2479L23.6896 34.2955L23.5244 34.3402L23.3662 34.3818L23.2093 34.4215L23.0528 34.4599L22.8954 34.497L22.7324 34.534L22.5663 34.5701L22.387 34.6076C22.3314 34.6187 22.2575 34.6339 22.2019 34.6445L21.9923 34.6839C21.9266 34.6955 21.8391 34.7115 21.7734 34.7225L21.5099 34.7657C21.4262 34.7782 21.3146 34.7954 21.2309 34.8074L20.8693 34.8553C20.7517 34.8686 20.5951 34.8874 20.4774 34.8994L19.9292 34.9478C19.7389 34.9591 19.4851 34.9761 19.2946 34.9843L18.3415 35C17.0921 34.9591 16.9899 34.9557 16.1715 34.8622L14.8925 34.6648C14.4076 34.5564 13.7592 34.4174 13.2798 34.2885L11.9722 33.873C11.5523 33.7057 10.9871 33.494 10.5748 33.3107L9.33109 32.697C8.95593 32.4764 8.4475 32.1939 8.08185 31.9593L6.94388 31.165C6.61245 30.8945 6.16017 30.5446 5.84031 30.2618L4.83755 29.3023C4.55415 28.9851 4.16361 28.5723 3.89373 28.2449L3.05183 27.1343C2.82233 26.7744 2.50154 26.3028 2.28752 25.9345L1.63083 24.6868C1.46176 24.288 1.21967 23.7623 1.06785 23.3573L0.620326 21.9865L0.614357 21.9652L0.286849 20.5638C0.224928 20.1382 0.124774 19.5726 0.0813176 19.1449L0 17.753C0.0109107 17.3332 0.00839308 16.7728 0.0372085 16.3538L0.188466 14.9946C0.268291 14.5872 0.358655 14.0406 0.455452 13.6364L0.824925 12.3338C0.970028 11.9445 1.1487 11.4204 1.30975 11.037L1.88187 9.81609C2.08936 9.45075 2.35271 8.9567 2.57521 8.5994L3.32908 7.48963C3.5982 7.15199 3.94604 6.69358 4.22925 6.36645L5.12402 5.41152C5.46197 5.09982 5.90549 4.67687 6.25706 4.37903L7.16069 3.6706C7.60794 3.36296 8.20831 2.95731 8.67131 2.6711L9.0945 2.42938C9.73898 2.08645 10.938 1.44815 12.766 0.861463L12.958 0.803413C13.0134 0.787179 13.0877 0.765741 13.1432 0.74942L13.3123 0.701778L13.4777 0.656961L13.636 0.615408L13.7927 0.575707L13.9494 0.537418L14.1066 0.500364L14.2698 0.463398L14.4359 0.427139L14.6153 0.389732C14.6707 0.378703 14.7446 0.363176 14.8003 0.352942L15.0099 0.313507C15.0756 0.301861 15.1631 0.28598 15.2289 0.274864L15.4923 0.231723C15.576 0.219195 15.6876 0.201992 15.7714 0.189993L16.133 0.142088C16.2505 0.128765 16.4071 0.109974 16.5248 0.0978874L17.073 0.0496291C17.2634 0.0383365 17.5172 0.0211328 17.7078 0.012928C21.4833 -0.142875 25.1467 1.1159 28.1159 3.44695Z" fill="#C2C2C2"/>
<path id="Vector_6" d="M27.2026 2.78185C15.201 -2.15817 8.42149 8.76404 12.3158 17.1368C15.9592 24.9699 28.9116 29.4229 34.7524 19.8622C34.8448 19.6593 34.968 19.3889 35.0604 19.1862C37.5222 11.616 32.8876 5.49234 27.2026 2.78185C24.4111 0.881265 21.1048 -0.123765 17.7078 0.0164962C17.9621 0.0115562 18.301 0.00494002 18.5553 0L19.3221 0.016761L20.5005 0.102064C21.0452 0.175019 21.7711 0.276641 22.3113 0.375089L23.6231 0.684899C24.0701 0.824013 24.67 0.999736 25.1103 1.15658L26.3925 1.67441C26.7891 1.869 27.3248 2.11671 27.7128 2.32622L28.9073 3.03291C29.2609 3.2792 29.7414 3.59598 30.0844 3.85524L31.1574 4.73466C31.4653 5.02903 31.8874 5.41118 32.1828 5.71693L33.1076 6.75433C33.3646 7.09334 33.721 7.53636 33.9636 7.88481L34.7152 9.06617C34.9151 9.44603 35.1975 9.9455 35.3807 10.3327L35.935 11.6443C36.0711 12.0613 36.2699 12.6125 36.3878 13.0344L36.7153 14.4355C36.805 15.0518 36.922 15.8746 36.973 16.4948L37 17.8812C36.973 18.2986 36.9538 18.8566 36.9092 19.2727L36.7069 20.621C36.6119 21.0247 36.5009 21.5668 36.3892 21.9668L35.972 23.2529C35.8125 23.637 35.6143 24.1549 35.4389 24.5329L34.8233 25.7312C34.6017 26.0904 34.3193 26.5767 34.0831 26.9274L33.292 28.0064C33.0083 28.3375 32.6405 28.7874 32.343 29.1075L31.428 30.0173C31.0711 30.3247 30.6008 30.7409 30.2299 31.0336L29.3681 31.6631C28.8803 31.978 28.2207 32.3854 27.7159 32.6754L27.3231 32.8814C26.8339 33.122 25.688 33.6852 24.236 34.1359L24.044 34.194C23.9884 34.2102 23.9145 34.2324 23.8587 34.248L23.6896 34.2955L23.5244 34.3403L23.3662 34.3818L23.2093 34.4215L23.0528 34.4599L22.8954 34.497L22.7324 34.534L22.5663 34.5702L22.387 34.6077C22.3314 34.6187 22.2575 34.6339 22.2019 34.6445L21.9923 34.6839C21.9266 34.6954 21.8391 34.7114 21.7734 34.7225L21.5099 34.7656C21.4262 34.7782 21.3146 34.7954 21.2309 34.8074L20.8693 34.8553C20.7517 34.8686 20.5951 34.8873 20.4774 34.8994L19.9292 34.9477C19.7389 34.9591 19.4851 34.9761 19.2946 34.9842L18.3415 35C17.0921 34.9591 16.9899 34.9557 16.1715 34.8622L14.8925 34.6649C14.4076 34.5565 13.7592 34.4175 13.2798 34.2886L11.9722 33.8731C11.5523 33.7058 10.9871 33.4942 10.5748 33.3108L9.33109 32.6973C8.95593 32.4766 8.4475 32.1942 8.08186 31.9595L6.94388 31.1654C6.61245 30.8948 6.16017 30.5451 5.84031 30.2623L4.83755 29.3028C4.55415 28.9857 4.16361 28.5729 3.89373 28.2456L3.05183 27.135C2.82233 26.7753 2.50154 26.3037 2.28752 25.9355L1.63083 24.6879C1.46176 24.2891 1.21967 23.7635 1.06785 23.3585L0.620326 21.9877L0.614357 21.9666L0.286849 20.5652C0.224928 20.1397 0.124773 19.5742 0.0813173 19.1465L0 17.7548C0.0109107 17.3351 0.00839267 16.7747 0.0372082 16.3557L0.188466 14.9967C0.268291 14.5892 0.358655 14.0428 0.455452 13.6386L0.824925 12.336C0.970027 11.9469 1.1487 11.4228 1.30975 11.0394L1.88187 9.81868C2.08936 9.45335 2.35271 8.95935 2.57521 8.60208L3.32908 7.49242C3.5982 7.15483 3.94604 6.69646 4.22925 6.36937L5.12402 5.41453C5.46197 5.10287 5.90549 4.67997 6.25706 4.38215L7.16069 3.67379C7.60794 3.36619 8.20831 2.96057 8.67131 2.67441L9.0945 2.4327C9.73889 2.08972 10.9379 1.45149 12.7659 0.864857L12.9579 0.806812C13.0134 0.79058 13.0876 0.769144 13.1431 0.752825L13.3122 0.705188L13.4776 0.660375L13.6359 0.618826L13.7926 0.57913L13.9492 0.540844L14.1065 0.503795L14.2697 0.466832L14.4358 0.430576L14.6151 0.393173C14.6706 0.382146 14.7445 0.366621 14.8002 0.356387L15.0098 0.316956C15.0755 0.305312 15.163 0.289433 15.2288 0.278318L15.4922 0.235181C15.5759 0.222654 15.6876 0.205452 15.7713 0.193455L16.1329 0.145554C16.2504 0.132234 16.407 0.113444 16.5247 0.101359L17.0729 0.0531054C17.2633 0.0418138 17.5171 0.0247002 17.7078 0.0164962C21.1048 -0.123765 24.4111 0.881265 27.2026 2.78185Z" fill="#BDBDBD"/>
<path id="Vector_7" d="M26.2989 2.20512C13.8589 -1.79354 7.95811 9.00338 11.725 17.3065C15.0201 24.5695 27.4128 30.7236 34.5886 20.9613C34.6216 20.9051 34.6656 20.8301 34.6988 20.7739C38.6053 12.6092 33.2867 5.11306 26.2989 2.20512C23.7099 0.677699 20.745 -0.112433 17.7078 0.0129333C18.192 0.00349335 18.838 0.0026113 19.3221 0.0131982L20.5005 0.0985103C21.0452 0.171471 21.7711 0.273105 22.3113 0.371562L23.6231 0.681404C24.0701 0.820534 24.67 0.99628 25.1103 1.15314L26.3925 1.67101C26.7891 1.86564 27.3248 2.11337 27.7128 2.3229L28.9073 3.02966C29.2609 3.27598 29.7414 3.59279 30.0844 3.85208L31.1574 4.73159C31.4653 5.02599 31.8874 5.40817 32.1828 5.71395L33.1076 6.75147C33.3646 7.09051 33.721 7.53357 33.9636 7.88205L34.7152 9.06355C34.9151 9.44344 35.1975 9.94292 35.3807 10.3303L35.935 11.6419C36.0711 12.0589 36.2699 12.6102 36.3878 13.0321L36.7153 14.4335C36.805 15.0498 36.922 15.8727 36.973 16.493L37 17.8795C36.973 18.297 36.9538 18.855 36.9092 19.2712L36.7069 20.6196C36.6119 21.0233 36.5009 21.5655 36.3892 21.9655L35.972 23.2518C35.8125 23.6359 35.6143 24.1539 35.4389 24.5319L34.8233 25.7302C34.6017 26.0895 34.3193 26.5759 34.0831 26.9265L33.292 28.0057C33.0083 28.3369 32.6405 28.7869 32.343 29.107L31.428 30.0168C31.0711 30.3242 30.6008 30.7406 30.2299 31.0332L29.3681 31.6627C28.8803 31.9777 28.2207 32.3853 27.7159 32.6752L27.3231 32.8813C26.8339 33.1218 25.688 33.6851 24.236 34.1358L24.044 34.1939C23.9884 34.2102 23.9145 34.2324 23.8587 34.2479L23.6896 34.2955L23.5244 34.3402L23.3662 34.3819L23.2093 34.4215L23.0528 34.4599L22.8954 34.497L22.7324 34.534L22.5663 34.5702L22.387 34.6077C22.3314 34.6187 22.2575 34.6339 22.2019 34.6445L21.9923 34.6839C21.9266 34.6955 21.8391 34.7115 21.7734 34.7225L21.5099 34.7657C21.4262 34.7783 21.3146 34.7954 21.2309 34.8074L20.8693 34.8553C20.7517 34.8686 20.5951 34.8874 20.4774 34.8994L19.9292 34.9478C19.7389 34.9591 19.4851 34.9761 19.2946 34.9843L18.3415 35C17.0921 34.9591 16.9899 34.9557 16.1715 34.8622L14.8925 34.6648C14.4076 34.5564 13.7592 34.4174 13.2798 34.2885L11.9722 33.873C11.5523 33.7057 10.9871 33.494 10.5748 33.3107L9.33109 32.697C8.95593 32.4764 8.4475 32.1939 8.08186 31.9593L6.94388 31.165C6.61245 30.8945 6.16017 30.5446 5.84031 30.2618L4.83755 29.3023C4.55415 28.9852 4.16361 28.5723 3.89373 28.2449L3.05183 27.1343C2.82233 26.7745 2.50154 26.3028 2.28752 25.9345L1.63083 24.6868C1.46176 24.2881 1.21967 23.7623 1.06785 23.3574L0.620326 21.9865L0.614357 21.9653L0.286849 20.5637C0.224928 20.1382 0.124773 19.5726 0.0813173 19.145L0 17.753C0.0109107 17.3333 0.00839267 16.7728 0.0372082 16.3538L0.188466 14.9946C0.268291 14.5872 0.358655 14.0407 0.455452 13.6364L0.824925 12.3337C0.970027 11.9446 1.1487 11.4204 1.30975 11.0371L1.88187 9.81608C2.08936 9.45076 2.35271 8.95671 2.57521 8.5994L3.32908 7.48964C3.5982 7.152 3.94604 6.69359 4.22925 6.36646L5.12402 5.41153C5.46197 5.09983 5.90549 4.67688 6.25706 4.37904L7.16069 3.6706C7.60794 3.36297 8.20831 2.95732 8.67131 2.67111L9.0945 2.42939C9.73889 2.08636 10.9379 1.44807 12.7659 0.861382L12.9579 0.80333C13.0134 0.787097 13.0876 0.765658 13.1431 0.749337L13.3122 0.701697L13.4776 0.656879L13.6359 0.615325L13.7926 0.575625L13.9492 0.537336L14.1065 0.500281L14.2697 0.463316L14.4358 0.427056L14.6151 0.389649C14.6706 0.378621 14.7445 0.363093 14.8002 0.35286L15.0098 0.313423C15.0755 0.301778 15.163 0.285898 15.2288 0.274781L15.4922 0.23164C15.5759 0.219113 15.6876 0.201909 15.7713 0.18991L16.1329 0.142005C16.2504 0.128683 16.407 0.109891 16.5247 0.0978051L17.0729 0.0495462C17.2633 0.0382536 17.5171 0.0211381 17.7078 0.0129333C20.745 -0.112433 23.7099 0.677699 26.2989 2.20512Z" fill="#B8B8B8"/>
<path id="Vector_8" d="M25.3944 1.71269C12.19 -1.67599 6.83738 10.4949 11.912 19.015C16.1542 26.1376 27.9036 30.3083 34.3713 21.9991C39.3102 13.8915 33.6011 4.43658 25.3944 1.71269C23.0294 0.512174 20.3969 -0.0943896 17.7078 0.0164961C17.9621 0.0115561 18.301 0.00494002 18.5553 0L19.3221 0.0167607L20.5005 0.102064C21.0452 0.175018 21.7711 0.276641 22.3113 0.375089L23.6231 0.684899C24.0701 0.824013 24.67 0.999738 25.1103 1.15658L26.3925 1.6744C26.7891 1.869 27.3248 2.11671 27.7128 2.32622L28.9073 3.03291C29.2609 3.2792 29.7414 3.59598 30.0844 3.85524L31.1574 4.73466C31.4653 5.02903 31.8874 5.41118 32.1828 5.71693L33.1076 6.75433C33.3646 7.09334 33.721 7.53636 33.9636 7.8848L34.7152 9.06617C34.9151 9.44602 35.1975 9.94551 35.3807 10.3327L35.935 11.6443C36.0711 12.0612 36.2699 12.6125 36.3878 13.0344L36.7153 14.4355C36.805 15.0518 36.922 15.8746 36.973 16.4948L37 17.8811C36.973 18.2986 36.9538 18.8566 36.9092 19.2727L36.7069 20.621C36.6119 21.0247 36.5009 21.5668 36.3892 21.9668L35.972 23.253C35.8125 23.637 35.6143 24.1549 35.4389 24.5329L34.8233 25.7312C34.6017 26.0904 34.3193 26.5767 34.0831 26.9274L33.292 28.0064C33.0083 28.3375 32.6405 28.7874 32.343 29.1075L31.428 30.0172C31.0711 30.3247 30.6008 30.7409 30.2299 31.0336L29.3681 31.6631C28.8803 31.9779 28.2207 32.3854 27.7159 32.6754L27.3231 32.8814C26.8339 33.1219 25.688 33.6852 24.236 34.1359L24.044 34.1939C23.9884 34.2102 23.9145 34.2324 23.8587 34.248L23.6896 34.2955L23.5244 34.3403L23.3662 34.3818L23.2093 34.4215L23.0528 34.4599L22.8954 34.4969L22.7324 34.534L22.5663 34.5702L22.387 34.6077C22.3314 34.6186 22.2575 34.6338 22.2019 34.6444L21.9923 34.6839C21.9266 34.6954 21.8391 34.7114 21.7734 34.7225L21.5099 34.7656C21.4262 34.7782 21.3146 34.7954 21.2309 34.8074L20.8693 34.8553C20.7517 34.8685 20.5951 34.8873 20.4774 34.8994L19.9292 34.9477C19.7389 34.9591 19.4851 34.976 19.2946 34.9842L18.3415 35C17.0921 34.9591 16.9899 34.9556 16.1715 34.8622L14.8925 34.6649C14.4076 34.5565 13.7592 34.4175 13.2798 34.2886L11.9722 33.873C11.5523 33.7058 10.9871 33.4942 10.5748 33.3108L9.33109 32.6972C8.95593 32.4766 8.4475 32.1941 8.08186 31.9595L6.94388 31.1654C6.61245 30.8948 6.16017 30.5451 5.84031 30.2623L4.83755 29.3028C4.55415 28.9857 4.16361 28.5728 3.89373 28.2456L3.05183 27.135C2.82233 26.7753 2.50154 26.3037 2.28752 25.9355L1.63083 24.6878C1.46176 24.2891 1.21967 23.7634 1.06785 23.3585L0.620326 21.9877L0.614357 21.9666L0.286849 20.5652C0.224928 20.1397 0.124773 19.5742 0.0813173 19.1466L0 17.7548C0.0109107 17.3351 0.00839267 16.7746 0.0372082 16.3557L0.188466 14.9967C0.268291 14.5892 0.358655 14.0428 0.455452 13.6386L0.824925 12.336C0.970027 11.9469 1.1487 11.4229 1.30975 11.0394L1.88187 9.81869C2.08936 9.45335 2.35271 8.95934 2.57521 8.60207L3.32908 7.49242C3.5982 7.15482 3.94604 6.69646 4.22925 6.36936L5.12402 5.41453C5.46197 5.10286 5.90549 4.67996 6.25706 4.38215L7.16069 3.67379C7.60794 3.36618 8.20831 2.96057 8.67131 2.67441L9.0945 2.4327C9.73889 2.08981 10.9379 1.45157 12.7659 0.864944L12.9579 0.8069C13.0134 0.790668 13.0876 0.769231 13.1431 0.752912L13.3122 0.705276L13.4776 0.660463L13.6359 0.618913L13.7926 0.579218L13.9492 0.540932L14.1065 0.503882L14.2697 0.46692L14.4358 0.430664L14.6151 0.393261C14.6706 0.382234 14.7445 0.366709 14.8002 0.356475L15.0098 0.317043C15.0755 0.3054 15.163 0.289521 15.2288 0.278406L15.4922 0.235269C15.5759 0.222742 15.6876 0.20554 15.7713 0.193543L16.1329 0.145642C16.2504 0.132322 16.407 0.113532 16.5247 0.101447L17.0729 0.0531935C17.2633 0.041902 17.5171 0.0247001 17.7078 0.0164961C20.3969 -0.0943896 23.0294 0.512174 25.3944 1.71269Z" fill="#B3B3B3"/>
<path id="Vector_9" d="M24.4916 1.28546C12.2834 -1.60607 5.67413 10.0736 11.2572 19.2083C16.049 27.0485 27.3068 30.4887 34.1 23.0016C34.251 22.7955 34.4524 22.5209 34.6034 22.3149C39.7284 13.5239 33.4918 3.96182 24.4916 1.28546C22.3676 0.367676 20.0595 -0.0841184 17.7078 0.0129276C18.192 0.00348771 18.838 0.00260532 19.3221 0.0131922L20.5005 0.0985044C21.0452 0.171466 21.7711 0.273099 22.3113 0.371557L23.6231 0.681399C24.0701 0.820527 24.67 0.996271 25.1103 1.15313L26.3925 1.671C26.7891 1.86563 27.3248 2.11336 27.7128 2.32289L28.9073 3.02965C29.2609 3.27597 29.7414 3.59278 30.0844 3.85207L31.1574 4.73157C31.4653 5.02598 31.8874 5.40817 32.1828 5.71395L33.1076 6.75146C33.3646 7.0905 33.721 7.53356 33.9636 7.88204L34.7152 9.06354C34.9151 9.44342 35.1975 9.94293 35.3807 10.3302L35.935 11.6419C36.0711 12.0589 36.2699 12.6103 36.3878 13.0321L36.7153 14.4335C36.805 15.0498 36.922 15.8727 36.973 16.493L37 17.8795C36.973 18.2969 36.9538 18.855 36.9092 19.2711L36.7069 20.6195C36.6119 21.0233 36.5009 21.5654 36.3892 21.9654L35.972 23.2517C35.8125 23.6359 35.6143 24.1538 35.4389 24.5318L34.8233 25.7302C34.6017 26.0895 34.3193 26.5759 34.0831 26.9265L33.292 28.0057C33.0083 28.3369 32.6405 28.7869 32.343 29.1069L31.428 30.0168C31.0711 30.3242 30.6008 30.7406 30.2299 31.0331L29.3681 31.6627C28.8803 31.9777 28.2207 32.3852 27.7159 32.6752L27.3231 32.8812C26.8339 33.1218 25.688 33.6851 24.236 34.1358L24.044 34.1939C23.9884 34.2102 23.9145 34.2323 23.8587 34.2479L23.6896 34.2955L23.5244 34.3402L23.3662 34.3818L23.2093 34.4215L23.0528 34.4599L22.8954 34.497L22.7324 34.534L22.5663 34.5701L22.387 34.6076C22.3314 34.6187 22.2575 34.6339 22.2019 34.6445L21.9923 34.6839C21.9266 34.6955 21.8391 34.7115 21.7734 34.7225L21.5099 34.7657C21.4262 34.7782 21.3146 34.7954 21.2309 34.8074L20.8693 34.8553C20.7517 34.8686 20.5951 34.8874 20.4774 34.8994L19.9292 34.9478C19.7389 34.9591 19.4851 34.9761 19.2946 34.9843L18.3415 35C17.0921 34.9591 16.9899 34.9557 16.1715 34.8622L14.8925 34.6648C14.4076 34.5564 13.7592 34.4174 13.2798 34.2885L11.9722 33.873C11.5523 33.7057 10.9871 33.494 10.5748 33.3107L9.33109 32.697C8.95593 32.4764 8.4475 32.1939 8.08185 31.9593L6.94388 31.165C6.61245 30.8945 6.16017 30.5446 5.84031 30.2618L4.83755 29.3023C4.55415 28.9851 4.16361 28.5723 3.89373 28.2449L3.05183 27.1343C2.82233 26.7744 2.50154 26.3028 2.28752 25.9345L1.63083 24.6868C1.46176 24.288 1.21967 23.7623 1.06785 23.3573L0.620326 21.9865L0.614357 21.9652L0.286849 20.5638C0.224928 20.1382 0.124774 19.5726 0.0813176 19.1449L0 17.753C0.0109107 17.3332 0.00839308 16.7728 0.0372085 16.3538L0.188466 14.9946C0.268291 14.5872 0.358655 14.0406 0.455452 13.6364L0.824925 12.3338C0.970028 11.9445 1.1487 11.4204 1.30975 11.037L1.88187 9.81609C2.08936 9.45075 2.35271 8.9567 2.57521 8.59939L3.32908 7.48963C3.5982 7.15199 3.94604 6.69358 4.22925 6.36645L5.12402 5.41152C5.46197 5.09982 5.90549 4.67687 6.25706 4.37903L7.16069 3.6706C7.60794 3.36296 8.20831 2.95731 8.67131 2.6711L9.0945 2.42938C9.73898 2.08645 10.938 1.44815 12.766 0.861463L12.958 0.803413C13.0134 0.787179 13.0877 0.765741 13.1432 0.74942L13.3123 0.701778L13.4777 0.656961L13.636 0.615407L13.7927 0.575707L13.9494 0.537418L14.1066 0.500364L14.2698 0.463398L14.4359 0.427138L14.6153 0.389731C14.6707 0.378703 14.7446 0.363176 14.8003 0.352942L15.0099 0.313507C15.0756 0.301861 15.1631 0.28598 15.2289 0.274864L15.4923 0.231723C15.576 0.219195 15.6876 0.201991 15.7714 0.189993L16.133 0.142087C16.2505 0.128765 16.4071 0.109974 16.5248 0.0978874L17.073 0.0496287C17.2634 0.0383361 17.5172 0.0211324 17.7078 0.0129276C20.0595 -0.0841184 22.3676 0.367676 24.4916 1.28546Z" fill="#ADADAD"/>
<path id="Vector_10" d="M23.5737 0.92209C9.45027 -1.49551 5.116 12.504 11.4979 20.874C14.9592 25.4137 24.9586 32.1456 33.7751 23.9794C40.4273 16.3779 34.7069 3.44846 23.5737 0.92209C21.7096 0.250089 19.7247 -0.0703398 17.7078 0.0129434C18.192 0.00350346 18.838 0.00262141 19.3221 0.0132082L20.5005 0.0985211C21.0452 0.171482 21.7711 0.273115 22.3113 0.371573L23.6231 0.681415C24.0701 0.820544 24.67 0.99629 25.1103 1.15315L26.3925 1.67102C26.7891 1.86565 27.3248 2.11338 27.7128 2.32291L28.9073 3.02967C29.2609 3.27599 29.7414 3.5928 30.0844 3.85209L31.1574 4.7316C31.4653 5.026 31.8874 5.40818 32.1828 5.71396L33.1076 6.75148C33.3646 7.09052 33.721 7.53358 33.9636 7.88206L34.7152 9.06356C34.9151 9.44345 35.1975 9.94302 35.3807 10.3303L35.935 11.6419C36.0711 12.0589 36.2699 12.6102 36.3878 13.0321L36.7153 14.4335C36.805 15.0498 36.922 15.8727 36.973 16.493L37 17.8795C36.973 18.297 36.9538 18.855 36.9092 19.2712L36.7069 20.6196C36.6119 21.0234 36.5009 21.5655 36.3892 21.9655L35.972 23.2518C35.8125 23.6359 35.6143 24.1539 35.4389 24.5319L34.8233 25.7302C34.6017 26.0895 34.3193 26.5759 34.0831 26.9266L33.292 28.0058C33.0083 28.3369 32.6405 28.7869 32.343 29.107L31.428 30.0168C31.0711 30.3242 30.6008 30.7406 30.2299 31.0332L29.3681 31.6628C28.8803 31.9777 28.2207 32.3853 27.7159 32.6753L27.3231 32.8813C26.8339 33.1218 25.688 33.6851 24.236 34.1358L24.044 34.1939C23.9884 34.2102 23.9145 34.2324 23.8587 34.2479L23.6896 34.2955L23.5244 34.3402L23.3662 34.3819L23.2093 34.4215L23.0528 34.4599L22.8954 34.497L22.7324 34.534L22.5663 34.5702L22.387 34.6077C22.3314 34.6187 22.2575 34.6339 22.2019 34.6445L21.9923 34.6839C21.9266 34.6955 21.8391 34.7115 21.7734 34.7225L21.5099 34.7657C21.4262 34.7783 21.3146 34.7954 21.2309 34.8074L20.8693 34.8553C20.7517 34.8686 20.5951 34.8874 20.4774 34.8994L19.9292 34.9478C19.7389 34.9591 19.4851 34.9761 19.2946 34.9843L18.3415 35C17.0921 34.9591 16.9899 34.9557 16.1715 34.8622L14.8925 34.6648C14.4076 34.5564 13.7592 34.4175 13.2798 34.2886L11.9722 33.873C11.5523 33.7057 10.9871 33.494 10.5748 33.3107L9.33109 32.697C8.95593 32.4764 8.4475 32.1939 8.08185 31.9593L6.94388 31.165C6.61245 30.8945 6.16017 30.5446 5.84031 30.2618L4.83755 29.3023C4.55415 28.9852 4.16361 28.5723 3.89373 28.245L3.05183 27.1343C2.82233 26.7745 2.50154 26.3028 2.28752 25.9346L1.63083 24.6868C1.46176 24.2881 1.21967 23.7623 1.06785 23.3574L0.620326 21.9865L0.614357 21.9653L0.286849 20.5637C0.224928 20.1382 0.124774 19.5726 0.0813176 19.145L0 17.753C0.0109107 17.3333 0.00839308 16.7728 0.0372085 16.3539L0.188466 14.9947C0.268291 14.5872 0.358655 14.0407 0.455452 13.6365L0.824925 12.3337C0.970028 11.9446 1.1487 11.4204 1.30975 11.0371L1.88187 9.81608C2.08936 9.45077 2.35271 8.95672 2.57521 8.59941L3.32908 7.48965C3.5982 7.15201 3.94604 6.6936 4.22925 6.36647L5.12402 5.41154C5.46197 5.09984 5.90549 4.67689 6.25706 4.37905L7.16069 3.67061C7.60794 3.36298 8.20831 2.95733 8.67131 2.67112L9.0945 2.4294C9.73898 2.08637 10.938 1.44808 12.766 0.861391L12.958 0.803341C13.0134 0.787107 13.0877 0.765669 13.1432 0.749348L13.3123 0.701706L13.4777 0.656889L13.636 0.615335L13.7927 0.575635L13.9494 0.537345L14.1066 0.500292L14.2698 0.463326L14.4359 0.427066L14.6153 0.389659C14.6707 0.378631 14.7446 0.363104 14.8003 0.35287L15.0099 0.313434C15.0756 0.301789 15.1631 0.285908 15.2289 0.274792L15.4923 0.23165C15.576 0.219122 15.6876 0.201919 15.7714 0.18992L16.133 0.142015C16.2505 0.128693 16.4071 0.109901 16.5248 0.0978149L17.073 0.0495564C17.2634 0.0382637 17.5172 0.0211482 17.7078 0.0129434C19.7247 -0.0703398 21.7096 0.250089 23.5737 0.92209Z" fill="#A8A8A8"/>
<path id="Vector_11" d="M22.6347 0.616451C8.85922 -1.15217 3.87666 12.6793 11.6362 22.2111C15.2849 26.693 25.4125 32.0953 33.3929 24.9421C33.6086 24.7021 33.8961 24.382 34.1119 24.1421C40.8633 16.1337 34.3203 2.722 22.6347 0.616451C21.049 0.154776 19.3895 -0.0564317 17.7078 0.0129121C18.192 0.00347222 18.838 0.00258984 19.3221 0.0131767L20.5005 0.0984898C21.0452 0.171451 21.7711 0.273084 22.3113 0.371542L23.6231 0.681383C24.0701 0.820512 24.67 0.996252 25.1103 1.15312L26.3925 1.67099C26.7891 1.86561 27.3248 2.11334 27.7128 2.32287L28.9073 3.02963C29.2609 3.27595 29.7414 3.59276 30.0844 3.85205L31.1574 4.73155C31.4653 5.02596 31.8874 5.40815 32.1828 5.71393L33.1076 6.75144C33.3646 7.09048 33.721 7.53354 33.9636 7.88203L34.7152 9.06352C34.9151 9.44341 35.1975 9.94293 35.3807 10.3302L35.935 11.6419C36.0711 12.0589 36.2699 12.6102 36.3878 13.0321L36.7153 14.4334C36.805 15.0498 36.922 15.8726 36.973 16.493L37 17.8795C36.973 18.2969 36.9538 18.8549 36.9092 19.2711L36.7069 20.6195C36.6119 21.0233 36.5009 21.5654 36.3892 21.9654L35.972 23.2517C35.8125 23.6359 35.6143 24.1538 35.4389 24.5318L34.8233 25.7302C34.6017 26.0895 34.3193 26.5759 34.0831 26.9265L33.292 28.0057C33.0083 28.3369 32.6405 28.7868 32.343 29.1069L31.428 30.0168C31.0711 30.3242 30.6008 30.7405 30.2299 31.0331L29.3681 31.6627C28.8803 31.9777 28.2207 32.3852 27.7159 32.6752L27.3231 32.8812C26.8339 33.1218 25.688 33.6851 24.236 34.1358L24.044 34.1939C23.9884 34.2101 23.9145 34.2323 23.8587 34.2479L23.6896 34.2954L23.5244 34.3402L23.3662 34.3818L23.2093 34.4215L23.0528 34.4598L22.8954 34.497L22.7324 34.534L22.5663 34.5701L22.387 34.6076C22.3314 34.6187 22.2575 34.6339 22.2019 34.6445L21.9923 34.6838C21.9266 34.6954 21.8391 34.7114 21.7734 34.7225L21.5099 34.7656C21.4262 34.7782 21.3146 34.7954 21.2309 34.8073L20.8693 34.8553C20.7517 34.8686 20.5951 34.8873 20.4774 34.8994L19.9292 34.9478C19.7389 34.9591 19.4851 34.9761 19.2946 34.9842L18.3415 35C17.0921 34.9591 16.9899 34.9557 16.1715 34.8622L14.8925 34.6648C14.4076 34.5564 13.7592 34.4174 13.2798 34.2885L11.9722 33.873C11.5523 33.7057 10.9871 33.494 10.5748 33.3107L9.33109 32.697C8.95593 32.4764 8.4475 32.1939 8.08186 31.9592L6.94388 31.165C6.61245 30.8944 6.16017 30.5446 5.84031 30.2618L4.83755 29.3023C4.55415 28.9851 4.16361 28.5723 3.89373 28.2449L3.05183 27.1342C2.82233 26.7744 2.50154 26.3028 2.28752 25.9345L1.63083 24.6868C1.46176 24.288 1.21967 23.7623 1.06785 23.3573L0.620326 21.9865L0.614357 21.9652L0.286849 20.5638C0.224928 20.1382 0.124773 19.5726 0.0813173 19.1449L0 17.753C0.0109107 17.3332 0.00839267 16.7728 0.0372082 16.3538L0.188466 14.9946C0.268291 14.5871 0.358655 14.0406 0.455452 13.6364L0.824925 12.3338C0.970027 11.9445 1.1487 11.4204 1.30975 11.037L1.88187 9.81609C2.08936 9.45073 2.35271 8.95668 2.57521 8.59938L3.32908 7.48961C3.5982 7.15197 3.94604 6.69356 4.22925 6.36644L5.12402 5.4115C5.46197 5.09981 5.90549 4.67686 6.25706 4.37901L7.16069 3.67058C7.60794 3.36295 8.20831 2.95729 8.67131 2.67109L9.0945 2.42936C9.73889 2.08643 10.9379 1.44814 12.7659 0.861448L12.9579 0.803397C13.0134 0.787164 13.0876 0.765725 13.1431 0.749404L13.3122 0.701763L13.4776 0.656945L13.6359 0.615392L13.7926 0.575691L13.9492 0.537402L14.1065 0.500349L14.2697 0.463382L14.4358 0.427122L14.6151 0.389715C14.6706 0.378688 14.7445 0.363161 14.8002 0.352926L15.0098 0.313491C15.0755 0.301845 15.163 0.285965 15.2288 0.274849L15.4922 0.231707C15.5759 0.219179 15.6876 0.201976 15.7713 0.189977L16.1329 0.142072C16.2504 0.12875 16.407 0.109958 16.5247 0.0978717L17.0729 0.0496132C17.2633 0.0383206 17.5171 0.0211169 17.7078 0.0129121C19.3895 -0.0564317 21.049 0.154776 22.6347 0.616451Z" fill="#A3A3A3"/>
<path id="Vector_12" d="M21.6638 0.367252C7.91316 -0.999685 3.10601 13.4481 11.0715 22.7114C15.1131 27.4113 24.6256 32.4339 32.9453 25.9026C33.1439 25.7105 33.4087 25.4545 33.6074 25.2625C37.9694 20.2358 37.2307 14.9499 35.8426 11.4008L36.3099 12.7614L36.3878 13.0321L36.7153 14.4335C36.805 15.0498 36.922 15.8727 36.973 16.493L37 17.8795C36.973 18.297 36.9538 18.855 36.9092 19.2712L36.7069 20.6196C36.6119 21.0234 36.5009 21.5655 36.3892 21.9655L35.972 23.2518C35.8125 23.636 35.6143 24.1539 35.4389 24.5319L34.8233 25.7302C34.6017 26.0895 34.3193 26.5759 34.0831 26.9266L33.292 28.0058C33.0083 28.3369 32.6405 28.7869 32.343 29.107L31.428 30.0168C31.0711 30.3242 30.6008 30.7406 30.2299 31.0332L29.3681 31.6628C28.8803 31.9777 28.2207 32.3853 27.7159 32.6753L27.3231 32.8813C26.8339 33.1218 25.688 33.6852 24.236 34.1358L24.044 34.1939C23.9884 34.2102 23.9145 34.2324 23.8587 34.2479L23.6896 34.2955L23.5244 34.3402L23.3662 34.3819L23.2093 34.4215L23.0528 34.4599L22.8954 34.497L22.7324 34.5341L22.5663 34.5702L22.387 34.6077C22.3314 34.6187 22.2575 34.6339 22.2019 34.6445L21.9923 34.6839C21.9266 34.6955 21.8391 34.7115 21.7734 34.7225L21.5099 34.7657C21.4262 34.7783 21.3146 34.7954 21.2309 34.8074L20.8693 34.8553C20.7517 34.8686 20.5951 34.8874 20.4774 34.8994L19.9292 34.9478C19.7389 34.9591 19.4851 34.9761 19.2946 34.9843L18.3415 35C17.0921 34.9591 16.9899 34.9557 16.1715 34.8622L14.8925 34.6648C14.4076 34.5564 13.7592 34.4175 13.2798 34.2886L11.9722 33.873C11.5523 33.7057 10.9871 33.494 10.5748 33.3107L9.33109 32.697C8.95593 32.4764 8.4475 32.1939 8.08185 31.9593L6.94388 31.1651C6.61245 30.8945 6.16017 30.5446 5.84031 30.2619L4.83755 29.3023C4.55415 28.9852 4.16361 28.5723 3.89373 28.245L3.05183 27.1343C2.82233 26.7745 2.50154 26.3028 2.28752 25.9346L1.63083 24.6868C1.46176 24.2881 1.21967 23.7623 1.06785 23.3574L0.620326 21.9865L0.614357 21.9653L0.286849 20.5638C0.224928 20.1382 0.124773 19.5726 0.0813173 19.145L0 17.753C0.0109107 17.3333 0.00839267 16.7728 0.0372082 16.3539L0.188466 14.9947C0.268291 14.5872 0.358655 14.0407 0.455452 13.6365L0.824925 12.3337C0.970027 11.9446 1.1487 11.4204 1.30975 11.0371L1.88187 9.81608C2.08936 9.45077 2.35271 8.95672 2.57521 8.59941L3.32908 7.48965C3.5982 7.15201 3.94604 6.6936 4.22925 6.36647L5.12402 5.41154C5.46197 5.09984 5.90549 4.67689 6.25706 4.37905L7.16069 3.67062C7.60794 3.36298 8.20831 2.95733 8.67131 2.67112L9.0945 2.4294C9.73879 2.08638 10.9379 1.44808 12.7658 0.861393L12.9577 0.803342C13.0133 0.787108 13.0875 0.76567 13.143 0.749349L13.3122 0.701708L13.4775 0.65689L13.6358 0.615337L13.7925 0.575636L13.9491 0.537347L14.1064 0.500293L14.2696 0.463328L14.4357 0.427068L14.615 0.389661C14.6705 0.378633 14.7444 0.363105 14.8 0.352872L15.0097 0.313435C15.0754 0.301789 15.1629 0.28591 15.2287 0.274793L15.4921 0.231651C15.5758 0.219124 15.6875 0.20192 15.7713 0.189922L16.1328 0.142016C16.2504 0.128695 16.4069 0.109903 16.5247 0.0978158L17.0728 0.0495577C17.2633 0.0382651 17.517 0.0211497 17.7077 0.0129448C19.0493 -0.0424597 20.3766 0.0807889 21.6638 0.367252Z" fill="#9E9E9E"/>
<path id="Vector_13" d="M20.6385 0.17512C7.25674 -0.498644 1.6021 14.3526 11.4712 24.2523C11.8845 24.6668 21.7158 34.3193 32.4275 26.8587C32.5031 26.7958 32.6038 26.7121 32.6793 26.6492C34.1048 25.3026 37.8917 21.7259 36.7785 14.789L36.9512 16.1872L36.973 16.493L37 17.8795C36.973 18.2969 36.9538 18.8549 36.9092 19.2711L36.7069 20.6195C36.6119 21.0233 36.5009 21.5654 36.3892 21.9655L35.972 23.2518C35.8125 23.6359 35.6143 24.1538 35.4389 24.5318L34.8233 25.7302C34.6017 26.0895 34.3193 26.5759 34.0831 26.9265L33.292 28.0057C33.0083 28.3369 32.6405 28.7868 32.343 29.1069L31.428 30.0168C31.0711 30.3242 30.6008 30.7406 30.2299 31.0331L29.3681 31.6627C28.8803 31.9777 28.2207 32.3852 27.7159 32.6752L27.3231 32.8812C26.8339 33.1218 25.688 33.6851 24.236 34.1358L24.044 34.1939C23.9884 34.2101 23.9145 34.2323 23.8587 34.2479L23.6896 34.2954L23.5244 34.3402L23.3662 34.3818L23.2093 34.4215L23.0528 34.4598L22.8954 34.497L22.7324 34.534L22.5663 34.5701L22.387 34.6076C22.3314 34.6187 22.2575 34.6339 22.2019 34.6445L21.9923 34.6838C21.9266 34.6954 21.8391 34.7115 21.7734 34.7225L21.5099 34.7656C21.4262 34.7782 21.3146 34.7954 21.2309 34.8074L20.8693 34.8553C20.7517 34.8686 20.5951 34.8874 20.4774 34.8994L19.9292 34.9478C19.7389 34.9591 19.4851 34.9761 19.2946 34.9843L18.3415 35C17.0921 34.9591 16.9899 34.9557 16.1715 34.8622L14.8925 34.6648C14.4076 34.5564 13.7592 34.4174 13.2798 34.2885L11.9722 33.873C11.5523 33.7057 10.9871 33.494 10.5748 33.3107L9.33109 32.697C8.95593 32.4764 8.4475 32.1939 8.08185 31.9593L6.94388 31.165C6.61245 30.8945 6.16017 30.5446 5.84031 30.2618L4.83755 29.3023C4.55415 28.9851 4.16361 28.5723 3.89373 28.2449L3.05183 27.1343C2.82233 26.7744 2.50154 26.3028 2.28752 25.9346L1.63083 24.6868C1.46176 24.288 1.21967 23.7623 1.06785 23.3573L0.620326 21.9865L0.614357 21.9653L0.286849 20.5638C0.224928 20.1382 0.124774 19.5727 0.0813176 19.1449L0 17.7531C0.0109107 17.3333 0.00839308 16.7728 0.0372085 16.3538L0.188466 14.9946C0.268291 14.5872 0.358655 14.0407 0.455452 13.6364L0.824925 12.3338C0.970028 11.9446 1.1487 11.4205 1.30975 11.037L1.88187 9.81612C2.08936 9.45078 2.35271 8.95673 2.57521 8.59942L3.32908 7.48966C3.5982 7.15202 3.94604 6.69361 4.22925 6.36648L5.12402 5.41155C5.46197 5.09985 5.90549 4.67691 6.25706 4.37907L7.16069 3.67062C7.60794 3.36299 8.20831 2.95734 8.67131 2.67114L9.0945 2.42941C9.73898 2.0864 10.938 1.4481 12.766 0.861412L12.958 0.803361C13.0134 0.787127 13.0877 0.765689 13.1432 0.749368L13.3123 0.701727L13.4777 0.656909L13.636 0.615355L13.7927 0.575656L13.9494 0.537366L14.1066 0.500313L14.2698 0.463347L14.4359 0.427087L14.6153 0.38968C14.6707 0.378652 14.7446 0.363125 14.8003 0.352891L15.0099 0.313455C15.0756 0.30181 15.1631 0.285929 15.2289 0.274813L15.4923 0.231672C15.576 0.219143 15.6876 0.20194 15.7714 0.189941L16.133 0.142036C16.2505 0.128714 16.4071 0.109923 16.5248 0.0978363L17.073 0.0495778C17.2634 0.0382852 17.5172 0.0211697 17.7078 0.0129649C18.696 -0.0278827 19.6763 0.0282277 20.6385 0.17512Z" fill="#999999"/>
<path id="Vector_14" d="M19.5497 0.0487028C5.17649 -0.12995 1.49665 15.5163 10.5862 24.5358C14.4795 28.399 23.3316 33.4405 31.8138 27.8314C32.0354 27.6536 32.3309 27.4165 32.5525 27.2387C33.6276 26.3182 36.8996 23.5169 37 17.5329L36.9401 18.9081L36.905 19.2711L36.7027 20.6195C36.6077 21.0233 36.4967 21.5654 36.385 21.9654L35.9678 23.2517C35.8084 23.6359 35.6102 24.1538 35.4349 24.5318L34.8193 25.7302C34.5979 26.0895 34.3154 26.5759 34.0792 26.9265L33.2882 28.0057C33.0045 28.3369 32.6367 28.7868 32.3392 29.1069L31.4244 30.0168C31.0675 30.3242 30.5973 30.7406 30.2265 31.0331L29.3648 31.6627C28.877 31.9777 28.2175 32.3852 27.7127 32.6752L27.32 32.8812C26.8308 33.1218 25.685 33.6851 24.2332 34.1358L24.0412 34.1939C23.9856 34.2101 23.9118 34.2323 23.856 34.2479L23.6869 34.2954L23.5217 34.3402L23.3635 34.3818L23.2066 34.4215L23.0501 34.4598L22.8928 34.497L22.7298 34.534L22.5637 34.5701L22.3844 34.6076C22.3288 34.6187 22.2549 34.6339 22.1993 34.6445L21.9898 34.6838C21.9241 34.6954 21.8366 34.7114 21.7709 34.7225L21.5074 34.7656C21.4238 34.7782 21.3122 34.7954 21.2284 34.8073L20.8669 34.8553C20.7493 34.8686 20.5928 34.8874 20.475 34.8994L19.9269 34.9478C19.7366 34.9591 19.4828 34.9761 19.2923 34.9842L18.3394 35C17.0901 34.9591 16.9879 34.9557 16.1696 34.8622L14.8908 34.6648C14.4059 34.5564 13.7576 34.4174 13.2783 34.2885L11.9708 33.8729C11.551 33.7057 10.9858 33.494 10.5736 33.3106L9.33001 32.697C8.9549 32.4764 8.44654 32.1939 8.08093 31.9592L6.94308 31.165C6.61169 30.8944 6.15947 30.5446 5.83964 30.2618L4.83699 29.3023C4.55363 28.9851 4.16313 28.5723 3.89328 28.2449L3.05148 27.1342C2.82201 26.7744 2.50125 26.3028 2.28726 25.9345L1.63064 24.6868C1.46159 24.288 1.21953 23.7623 1.06773 23.3573L0.620254 21.9865L0.614287 21.9652L0.286816 20.5637C0.224902 20.1382 0.12476 19.5726 0.0813083 19.1449L0 17.753C0.0109095 17.3332 0.00839212 16.7728 0.0372043 16.3538L0.188445 14.9946C0.268261 14.5871 0.358613 14.0406 0.4554 13.6364L0.82483 12.3337C0.969917 11.9445 1.14857 11.4204 1.3096 11.0369L1.88165 9.81607C2.08912 9.45071 2.35244 8.95666 2.57491 8.59936L3.3287 7.48959C3.59779 7.15195 3.94559 6.69354 4.22877 6.36641L5.12344 5.41147C5.46136 5.09978 5.90482 4.67684 6.25635 4.37899L7.15987 3.67056C7.60706 3.36292 8.20737 2.95726 8.67032 2.67107L9.09346 2.42933C9.73786 2.08641 10.9367 1.44811 12.7645 0.86142L12.9565 0.803369C13.0121 0.787136 13.0862 0.765698 13.1417 0.749376L13.3108 0.701735L13.4761 0.656918L13.6344 0.615365L13.7911 0.575664L13.9478 0.537375L14.105 0.500321L14.2681 0.463354L14.4343 0.427095L14.6136 0.389688C14.6691 0.37866 14.7429 0.363133 14.7986 0.352898L15.0082 0.313463C15.0739 0.301817 15.1614 0.285937 15.2271 0.274821L15.4906 0.231679C15.5742 0.219152 15.6858 0.201948 15.7695 0.18995L16.1311 0.142044C16.2486 0.128722 16.4052 0.109931 16.5229 0.0978434L17.0711 0.0495853C17.2614 0.0382927 17.5152 0.0211771 17.7057 0.0129723C18.3243 -0.0126126 18.9398 -0.000173128 19.5497 0.0487028Z" fill="#949494"/>
<path id="Vector_15" d="M18.4775 5.89049e-05C4.72551 0.393537 0.10389 16.4615 10.985 26.0498C11.9986 26.9429 21.178 34.6093 31.2442 28.8511C31.4585 28.7019 31.7442 28.5026 31.9586 28.3533C35.9266 25.4496 36.6788 21.6987 37 20.0971L36.7296 21.4296L36.5881 21.9655L36.1686 23.2518C36.0083 23.6359 35.8089 24.1539 35.6326 24.5319L35.0137 25.7302C34.7909 26.0895 34.5069 26.5759 34.2694 26.9266L33.474 28.0058C33.1888 28.3369 32.8189 28.7869 32.5198 29.107L31.5998 30.0168C31.2409 30.3242 30.768 30.7406 30.3952 31.0332L29.5287 31.6628C29.0382 31.9777 28.375 32.3853 27.8674 32.6753L27.4725 32.8813C26.9805 33.1218 25.8284 33.6851 24.3685 34.1358L24.1754 34.1939C24.1195 34.2102 24.0453 34.2324 23.9892 34.2479L23.8191 34.2955L23.653 34.3402L23.4939 34.3819L23.3362 34.4215L23.1788 34.4599L23.0206 34.497L22.8567 34.534L22.6896 34.5702L22.5093 34.6077C22.4534 34.6187 22.3791 34.6339 22.3232 34.6445L22.1125 34.6839C22.0464 34.6955 21.9585 34.7115 21.8924 34.7225L21.6275 34.7657C21.5433 34.7783 21.4311 34.7954 21.3469 34.8074L20.9834 34.8553C20.8652 34.8686 20.7077 34.8874 20.5893 34.8994L20.0381 34.9478C19.8468 34.9591 19.5916 34.9761 19.4 34.9843L18.4417 35C17.1855 34.9591 17.0828 34.9557 16.2599 34.8622L14.9739 34.6648C14.4863 34.5564 13.8344 34.4175 13.3524 34.2886L12.0376 33.873C11.6155 33.7057 11.0471 33.494 10.6326 33.3107L9.38209 32.697C9.00488 32.4764 8.49368 32.1939 8.12603 31.9593L6.98184 31.165C6.6486 30.8945 6.19385 30.5446 5.87224 30.2618L4.86399 29.3023C4.57904 28.9852 4.18637 28.5723 3.91501 28.245L3.06851 27.1343C2.83776 26.7745 2.51521 26.3028 2.30003 25.9346L1.63974 24.6868C1.46975 24.2881 1.22634 23.7623 1.07369 23.3574L0.623716 21.9865L0.617715 21.9653L0.288417 20.5637C0.226158 20.1382 0.125456 19.5726 0.0817621 19.145L0 17.753C0.0109703 17.3333 0.00843896 16.7728 0.0374119 16.3539L0.189497 14.9947C0.269758 14.5872 0.360615 14.0407 0.457942 13.6364L0.829434 12.3337C0.975331 11.9446 1.15498 11.4204 1.31691 11.0371L1.89215 9.81608C2.10078 9.45076 2.36557 8.95671 2.58929 8.59941L3.34728 7.48964C3.61787 7.15201 3.96761 6.69359 4.25237 6.36647L5.15203 5.41153C5.49183 5.09984 5.93778 4.67689 6.29126 4.37904L7.19983 3.67061C7.64952 3.36298 8.25318 2.95732 8.71872 2.67112L9.14421 2.42939C9.79222 2.08637 10.9978 1.44808 12.8358 0.861387L13.0288 0.803337C13.0846 0.787103 13.1592 0.765665 13.215 0.749344L13.3851 0.701702L13.5513 0.656885L13.7105 0.615332L13.8681 0.575631L14.0256 0.537341L14.1837 0.500288L14.3478 0.463322L14.5149 0.427062L14.6951 0.389655C14.7509 0.378627 14.8252 0.3631 14.8812 0.352866L15.092 0.31343C15.1581 0.301785 15.246 0.285904 15.3121 0.274788L15.577 0.231646C15.6611 0.219118 15.7734 0.201915 15.8576 0.189916L16.2212 0.142011C16.3393 0.128689 16.4968 0.109897 16.6152 0.097811L17.1664 0.0495526C17.3578 0.0382598 17.6129 0.0211444 17.8046 0.0129396C18.0294 0.00367607 18.2537 -0.000558665 18.4775 5.89049e-05Z" fill="#8F8F8F"/>
<path id="Vector_16" d="M30.0104 29.9117C30.2081 29.7908 30.4718 29.6294 30.6694 29.5085C33.2493 27.8635 35.0428 25.5577 36 22.6548L35.5262 23.9253L35.281 24.4832L34.6681 25.6872C34.4475 26.0481 34.1663 26.5367 33.9311 26.8891L33.1436 27.9733C32.8612 28.306 32.495 28.758 32.1988 29.0796L31.2879 29.9936C30.9326 30.3025 30.4643 30.7208 30.0952 31.0148L29.2372 31.6473C28.7516 31.9637 28.0949 32.3731 27.5924 32.6645L27.2013 32.8714C26.7142 33.1131 25.5735 33.679 24.128 34.1318L23.9368 34.1902C23.8814 34.2065 23.8079 34.2288 23.7524 34.2444L23.584 34.2922L23.4196 34.3372L23.262 34.379L23.1058 34.4189L22.95 34.4574L22.7933 34.4946L22.6311 34.5319L22.4657 34.5682L22.2872 34.6059C22.2318 34.6169 22.1582 34.6322 22.1029 34.6428L21.8943 34.6825C21.8288 34.6941 21.7417 34.7101 21.6763 34.7212L21.414 34.7646C21.3307 34.7772 21.2196 34.7944 21.1362 34.8065L20.7763 34.8547C20.6592 34.8679 20.5034 34.8868 20.3861 34.8989L19.8403 34.9476C19.6509 34.9589 19.3982 34.976 19.2085 34.9843L18.2597 35C17.0159 34.9589 16.9142 34.9555 16.0994 34.8615L14.8261 34.6633C14.3433 34.5543 13.6978 34.4148 13.2206 34.2853L11.9188 33.8677C11.5008 33.6996 10.9381 33.487 10.5277 33.3029L9.28949 32.6863C8.916 32.4646 8.40985 32.1808 8.04583 31.9452L6.91292 31.1473C6.58297 30.8754 6.13271 30.5239 5.81427 30.2399L4.81598 29.2758C4.53385 28.9573 4.14504 28.5424 3.87637 28.2136L3.03822 27.0977C2.80975 26.7363 2.49039 26.2624 2.27733 25.8925L1.62356 24.6389C1.45524 24.2383 1.21424 23.7101 1.06309 23.3033L0.61756 21.926L0.611618 21.9048L0.28557 20.4968C0.223925 20.0691 0.124218 19.501 0.0809551 19.0713L0 17.6729C0.0108621 17.2512 0.00835566 16.6881 0.0370427 16.2673L0.187626 14.9018C0.267095 14.4923 0.357056 13.9433 0.453422 13.5372L0.821247 12.2284C0.965704 11.8375 1.14358 11.3109 1.30391 10.9257L1.87348 9.69907C2.08004 9.33207 2.34222 8.83572 2.56373 8.47675L3.31424 7.36183C3.58216 7.02263 3.92845 6.56209 4.2104 6.23343L5.10118 5.27406C5.43762 4.96092 5.87917 4.53601 6.22917 4.23678L7.12877 3.52505C7.57402 3.21598 8.17172 2.80845 8.63266 2.52092L9.05396 2.27807C9.69556 1.93345 10.8892 1.29219 12.7091 0.702777L12.9002 0.644455C12.9555 0.628146 13.0293 0.606609 13.0846 0.590211L13.253 0.542349L13.4176 0.497323L13.5752 0.455577L13.7312 0.415692L13.8872 0.377225L14.0437 0.339999L14.2062 0.302861L14.3716 0.266433L14.5501 0.228852C14.6053 0.217772 14.6788 0.202173 14.7343 0.191891L14.943 0.152273C15.0084 0.140573 15.0955 0.124619 15.161 0.113451L15.4233 0.0701088C15.5066 0.0575225 15.6177 0.0402396 15.701 0.0281856C15.7626 0.019676 15.8444 0.00842006 15.9058 0C15.9025 0.000442799 15.8982 0.000975146 15.8948 0.0015065C1.83912 1.98087 -0.255307 20.0994 12.5992 28.5114C15.25 30.2461 22.253 33.8549 30.0104 29.9117Z" fill="#8A8A8A"/>
<path id="Vector_17" d="M29.0206 31.1763C31.6522 29.9356 33.4964 28.2697 35 25.7746L34.2877 26.9182L34.2598 26.9593L33.4646 28.0341C33.1795 28.3639 32.8097 28.812 32.5106 29.1308L31.5909 30.037C31.2322 30.3432 30.7594 30.7578 30.3867 31.0492L29.5204 31.6763C29.0301 31.99 28.3671 32.3958 27.8596 32.6846L27.4648 32.8898C26.973 33.1294 25.8212 33.6904 24.3617 34.1393L24.1686 34.1971C24.1127 34.2133 24.0385 34.2354 23.9824 34.2509L23.8124 34.2982L23.6464 34.3429L23.4873 34.3843L23.3296 34.4238L23.1723 34.462L23.0141 34.499L22.8503 34.5359L22.6833 34.5719L22.503 34.6092C22.4472 34.6202 22.3729 34.6354 22.317 34.6459L22.1063 34.6851C22.0403 34.6966 21.9523 34.7125 21.8862 34.7236L21.6214 34.7666C21.5373 34.7791 21.4251 34.7962 21.3409 34.8081L20.9775 34.8558C20.8593 34.869 20.7019 34.8877 20.5835 34.8998L20.0325 34.9479C19.8412 34.9592 19.5861 34.9762 19.3946 34.9843L18.4366 35C17.1807 34.9592 17.078 34.9558 16.2553 34.8628L14.9697 34.6662C14.4823 34.5582 13.8305 34.4198 13.3487 34.2914L12.0342 33.8775C11.6122 33.7109 11.044 33.5001 10.6296 33.3175L9.37946 32.7063C9.00236 32.4866 8.4913 32.2052 8.12376 31.9716L6.97988 31.1805C6.64674 30.911 6.19211 30.5627 5.87059 30.2811L4.86263 29.3253C4.57776 29.0095 4.18519 28.5984 3.91391 28.2723L3.06765 27.1661C2.83697 26.8078 2.51451 26.3381 2.29938 25.9713L1.63928 24.7287C1.46933 24.3315 1.226 23.8079 1.07338 23.4046L0.623542 22.0392L0.617542 22.0181L0.288336 20.6223C0.226094 20.1985 0.12542 19.6353 0.0817389 19.2093L0 17.823C0.0109673 17.4049 0.00843618 16.8468 0.0374011 16.4295L0.189443 15.0758C0.269682 14.6699 0.360514 14.1257 0.457814 13.7231L0.829202 12.4257C0.975056 12.0381 1.15466 11.5161 1.31654 11.1342L1.89162 9.91831C2.10019 9.55442 2.3649 9.06237 2.58856 8.70652L3.34634 7.60125C3.61686 7.265 3.9665 6.80844 4.25118 6.48264L5.15059 5.53158C5.49029 5.22116 5.93611 4.79993 6.2895 4.50329L7.19782 3.79773C7.64738 3.49134 8.25087 3.08733 8.71627 2.8023L9.14165 2.56154C9.78938 2.22001 10.9946 1.58431 12.8321 1L12.5918 1.076C-0.87457 5.76644 0.282619 24.0625 14.4679 30.7379C17.2558 32.0498 22.8536 33.8513 29.0206 31.1763Z" fill="#858585"/>
</g>
</svg>
