<svg width="138" height="138" viewBox="0 0 138 138" fill="none" xmlns="http://www.w3.org/2000/svg">
<g id="button-video">
<g id="Vector">
<path fill-rule="evenodd" clip-rule="evenodd" d="M69 120.75C75.7959 120.75 82.5253 119.411 88.8039 116.811C95.0825 114.21 100.787 110.398 105.593 105.593C110.398 100.787 114.21 95.0825 116.811 88.8039C119.411 82.5253 120.75 75.7959 120.75 69C120.75 62.2041 119.411 55.4747 116.811 49.1961C114.21 42.9175 110.398 37.2127 105.593 32.4072C100.787 27.6018 95.0825 23.7899 88.8039 21.1892C82.5253 18.5886 75.7959 17.25 69 17.25C55.275 17.25 42.1122 22.7022 32.4072 32.4072C22.7022 42.1122 17.25 55.275 17.25 69C17.25 82.725 22.7022 95.8878 32.4072 105.593C42.1122 115.298 55.275 120.75 69 120.75ZM62.0023 45.9425L94.4553 63.9745C95.3512 64.4726 96.0977 65.2012 96.6174 66.0848C97.1371 66.9684 97.4112 67.9749 97.4112 69C97.4112 70.0251 97.1371 71.0316 96.6174 71.9152C96.0977 72.7988 95.3512 73.5274 94.4553 74.0255L62.0023 92.0575C60.9514 92.6416 59.7662 92.941 58.5641 92.926C57.362 92.911 56.1846 92.5822 55.1486 91.9722C54.1127 91.3621 53.2541 90.492 52.658 89.4479C52.0619 88.4039 51.7489 87.2222 51.75 86.02V51.98C51.7489 50.7778 52.0619 49.5961 52.658 48.5521C53.2541 47.508 54.1127 46.6379 55.1486 46.0278C56.1846 45.4178 57.362 45.089 58.5641 45.074C59.7662 45.059 60.9514 45.3584 62.0023 45.9425Z" fill="black"/>
<path fill-rule="evenodd" clip-rule="evenodd" d="M69 120.75C75.7959 120.75 82.5253 119.411 88.8039 116.811C95.0825 114.21 100.787 110.398 105.593 105.593C110.398 100.787 114.21 95.0825 116.811 88.8039C119.411 82.5253 120.75 75.7959 120.75 69C120.75 62.2041 119.411 55.4747 116.811 49.1961C114.21 42.9175 110.398 37.2127 105.593 32.4072C100.787 27.6018 95.0825 23.7899 88.8039 21.1892C82.5253 18.5886 75.7959 17.25 69 17.25C55.275 17.25 42.1122 22.7022 32.4072 32.4072C22.7022 42.1122 17.25 55.275 17.25 69C17.25 82.725 22.7022 95.8878 32.4072 105.593C42.1122 115.298 55.275 120.75 69 120.75ZM62.0023 45.9425L94.4553 63.9745C95.3512 64.4726 96.0977 65.2012 96.6174 66.0848C97.1371 66.9684 97.4112 67.9749 97.4112 69C97.4112 70.0251 97.1371 71.0316 96.6174 71.9152C96.0977 72.7988 95.3512 73.5274 94.4553 74.0255L62.0023 92.0575C60.9514 92.6416 59.7662 92.941 58.5641 92.926C57.362 92.911 56.1846 92.5822 55.1486 91.9722C54.1127 91.3621 53.2541 90.492 52.658 89.4479C52.0619 88.4039 51.7489 87.2222 51.75 86.02V51.98C51.7489 50.7778 52.0619 49.5961 52.658 48.5521C53.2541 47.508 54.1127 46.6379 55.1486 46.0278C56.1846 45.4178 57.362 45.089 58.5641 45.074C59.7662 45.059 60.9514 45.3584 62.0023 45.9425Z" fill="#C7C7CF"/>
</g>
</g>
</svg>
